<svg width="96" height="44" viewBox="0 0 96 44" fill="none" xmlns="http://www.w3.org/2000/svg">
<path d="M73.9847 44C64.0179 44 55.3043 37.36 52.724 27.7502C52.5261 27.0129 52.2665 26.7081 51.4751 26.7246C49.138 26.774 46.8009 26.7658 44.4679 26.7287C43.7259 26.7122 43.4663 26.9841 43.2766 27.6843C40.5315 37.8214 31.3273 44.4531 20.73 43.9712C10.7303 43.5181 2.19397 35.9101 0.351457 25.8143C-1.89911 13.4776 6.91761 1.61056 19.3945 0.168881C29.9383 -1.04624 39.6618 5.19418 42.8934 15.3065C43.1901 16.2457 43.6064 16.4804 44.5132 16.4557C46.8091 16.3981 49.1132 16.3857 51.4092 16.4598C52.3819 16.4969 52.7982 16.2251 53.1115 15.2612C56.0463 6.11683 64.4549 -0.00411462 73.9805 2.07526e-06C84.3842 2.07526e-06 93.4564 7.39787 95.5462 17.5844C98.3408 31.1773 87.8713 43.9959 73.9847 44Z" fill="white"/>
</svg>
