<svg width="96" height="96" viewBox="0 0 96 96" fill="none" xmlns="http://www.w3.org/2000/svg">
<path fill-rule="evenodd" clip-rule="evenodd" d="M12 6C12 2.68628 9.31372 0 6 0C2.68628 0 0 2.68628 0 6C0 9.31372 2.68628 12 6 12C2.68628 12 0 14.6863 0 18C0 21.3137 2.68628 24 6 24C2.68628 24 0 26.6863 0 30C0 33.3137 2.68628 36 6 36C2.68628 36 0 38.6863 0 42C0 45.3137 2.68628 48 6 48C2.68628 48 0 50.6863 0 54C0 57.3137 2.68628 60 6 60C2.68628 60 0 62.6863 0 66C0 69.3137 2.68628 72 6 72C2.68628 72 0 74.6863 0 78C0 81.3137 2.68628 84 6 84C2.68628 84 0 86.6863 0 90C0 93.3137 2.68628 96 6 96C9.31372 96 12 93.3137 12 90C12 93.3137 14.6863 96 18 96C21.3137 96 24 93.3137 24 90C24 93.3137 26.6863 96 30 96C33.3137 96 36 93.3137 36 90C36 93.3137 38.6863 96 42 96C45.3137 96 48 93.3137 48 90C48 93.3137 50.6863 96 54 96C57.3137 96 60 93.3137 60 90C60 93.3137 62.6863 96 66 96C69.3137 96 72 93.3137 72 90C72 93.3137 74.6863 96 78 96C81.3137 96 84 93.3137 84 90C84 93.3137 86.6863 96 90 96C93.3137 96 96 93.3137 96 90C96 86.6863 93.3137 84 90 84C93.3137 84 96 81.3137 96 78C96 74.6863 93.3137 72 90 72C93.3137 72 96 69.3137 96 66C96 62.6863 93.3137 60 90 60C93.3137 60 96 57.3137 96 54C96 50.6863 93.3137 48 90 48C93.3137 48 96 45.3137 96 42C96 38.6863 93.3137 36 90 36C93.3137 36 96 33.3137 96 30C96 26.6863 93.3137 24 90 24C93.3137 24 96 21.3137 96 18C96 14.6863 93.3137 12 90 12C93.3137 12 96 9.31372 96 6C96 2.68628 93.3137 0 90 0C86.6863 0 84 2.68628 84 6C84 2.68628 81.3137 0 78 0C74.6863 0 72 2.68628 72 6C72 2.68628 69.3137 0 66 0C62.6863 0 60 2.68628 60 6C60 2.68628 57.3137 0 54 0C50.6863 0 48 2.68628 48 6C48 2.68628 45.3137 0 42 0C38.6863 0 36 2.68628 36 6C36 2.68628 33.3137 0 30 0C26.6863 0 24 2.68628 24 6C24 2.68628 21.3137 0 18 0C14.6863 0 12 2.68628 12 6ZM80 16H16V80H80V16Z" fill="white"/>
</svg>
