<svg width="182" height="218" viewBox="0 0 182 218" fill="none" xmlns="http://www.w3.org/2000/svg">
<path d="M19.8385 197.439H14V217.143H20.0817V207.333C20.0817 206.682 20.1223 206.061 20.2034 205.466C20.2845 204.872 20.4539 204.338 20.7102 203.864C20.9679 203.392 21.3386 203.014 21.8252 202.729C22.3117 202.445 22.9474 202.303 23.7308 202.303C24.4331 202.303 24.9674 202.466 25.3323 202.79C25.6972 203.116 25.9608 203.507 26.1229 203.967C26.2851 204.426 26.3792 204.913 26.4067 205.427C26.4328 205.939 26.4473 206.372 26.4473 206.724V217.143H32.529V206.724C32.529 206.129 32.5898 205.562 32.7115 205.02C32.8331 204.48 33.0358 204.006 33.3197 203.602C33.6035 203.197 33.9814 202.878 34.4549 202.65C34.9284 202.419 35.5149 202.303 36.2186 202.303C37.2192 202.303 37.9143 202.635 38.3067 203.297C38.6991 203.96 38.8946 204.751 38.8946 205.67V217.143H44.9763V205.507C44.9763 204.318 44.8605 203.203 44.6317 202.163C44.4015 201.122 44.0235 200.217 43.4964 199.445C42.9694 198.676 42.2526 198.068 41.3475 197.62C40.4411 197.174 39.3275 196.953 38.0026 196.953C36.543 196.953 35.3122 197.222 34.313 197.764C33.3124 198.305 32.4624 199.21 31.7587 200.48C31.2186 199.264 30.4135 198.372 29.3463 197.804C28.2776 197.235 27.0555 196.953 25.6769 196.953C24.9471 196.953 24.2709 197.047 23.6497 197.235C23.027 197.425 22.4739 197.668 21.9874 197.965C21.5008 198.262 21.0823 198.602 20.7305 198.979C20.3786 199.358 20.1078 199.736 19.9196 200.115H19.8385V197.439Z" fill="black"/>
<path fill-rule="evenodd" clip-rule="evenodd" d="M60.4239 214.671H60.3428C59.6666 215.723 58.7688 216.482 57.6466 216.94C56.5244 217.402 55.3413 217.63 54.0989 217.63C53.1794 217.63 52.2947 217.501 51.4432 217.245C50.5918 216.987 49.8417 216.604 49.193 216.088C48.5443 215.577 48.0317 214.94 47.6523 214.184C47.2743 213.427 47.0847 212.548 47.0847 211.55C47.0847 210.412 47.2946 209.453 47.7131 208.67C48.1316 207.886 48.6992 207.236 49.416 206.725C50.1328 206.21 50.9495 205.811 51.869 205.527C52.7885 205.244 53.7398 205.035 54.7274 204.899C55.7135 204.764 56.6996 204.682 57.6871 204.656C58.6747 204.628 59.587 204.615 60.4239 204.615C60.4239 203.534 60.0388 202.676 59.2684 202.041C58.498 201.406 57.5858 201.088 56.5316 201.088C55.531 201.088 54.6188 201.298 53.7948 201.716C52.9709 202.136 52.2339 202.71 51.5851 203.439L48.3415 200.115C49.4768 199.06 50.8018 198.27 52.3149 197.741C53.8281 197.216 55.3964 196.954 57.0182 196.954C58.8021 196.954 60.269 197.175 61.4173 197.62C62.567 198.067 63.4851 198.723 64.1743 199.588C64.8636 200.454 65.3443 201.513 65.6137 202.77C65.8845 204.026 66.0191 205.48 66.0191 207.129V217.144H60.4239V214.671ZM58.9238 208.508C58.4647 208.508 57.8899 208.528 57.2006 208.568C56.5113 208.608 55.8481 208.723 55.2139 208.913C54.5797 209.103 54.0381 209.385 53.5921 209.765C53.1461 210.144 52.9231 210.67 52.9231 211.346C52.9231 212.076 53.2344 212.616 53.8557 212.968C54.4769 213.319 55.1256 213.495 55.8018 213.495C56.3955 213.495 56.9704 213.414 57.525 213.251C58.0796 213.089 58.5719 212.859 59.0049 212.562C59.4364 212.265 59.7825 211.886 60.0388 211.427C60.2951 210.966 60.4239 210.426 60.4239 209.805V208.508H58.9238Z" fill="black"/>
<path d="M74.1132 202.304H78.1272V217.144H84.2089V202.304H88.7094V197.44H84.2089V194.316C84.2089 193.019 84.4522 192.162 84.9387 191.742C85.4253 191.323 86.1551 191.112 87.1281 191.112C87.5061 191.112 87.8435 191.148 88.1418 191.215C88.4386 191.283 88.763 191.384 89.1148 191.52L89.3987 186.369C88.831 186.233 88.2489 186.141 87.6552 186.086C87.0601 186.032 86.4519 186.005 85.8307 186.005C84.1814 186.005 82.8506 186.214 81.837 186.633C80.8234 187.053 80.0458 187.626 79.5057 188.356C78.9656 189.086 78.6007 189.93 78.411 190.89C78.2213 191.85 78.1272 192.871 78.1272 193.951V197.44H74.1132V202.304Z" fill="black"/>
<path fill-rule="evenodd" clip-rule="evenodd" d="M102.17 214.671H102.089C101.414 215.723 100.515 216.482 99.3928 216.94C98.272 217.402 97.0875 217.63 95.8451 217.63C94.9256 217.63 94.0423 217.501 93.1895 217.245C92.338 216.987 91.5879 216.604 90.9392 216.088C90.2905 215.577 89.7779 214.94 89.3985 214.184C89.0206 213.427 88.8309 212.548 88.8309 211.55C88.8309 210.412 89.0408 209.453 89.4593 208.67C89.8778 207.886 90.4454 207.236 91.1622 206.725C91.879 206.21 92.6957 205.811 93.6166 205.527C94.5347 205.244 95.4875 205.035 96.475 204.899C97.4597 204.764 98.4473 204.682 99.4334 204.656C100.421 204.628 101.333 204.615 102.17 204.615C102.17 203.534 101.786 202.676 101.015 202.041C100.244 201.406 99.332 201.088 98.2793 201.088C97.2772 201.088 96.365 201.298 95.5411 201.716C94.7171 202.136 93.9815 202.71 93.3328 203.439L90.0878 200.115C91.223 199.06 92.548 198.27 94.0626 197.741C95.5744 197.216 97.1426 196.954 98.7658 196.954C100.548 196.954 102.015 197.175 103.165 197.62C104.313 198.067 105.231 198.723 105.921 199.588C106.611 200.454 107.091 201.513 107.36 202.77C107.631 204.026 107.765 205.48 107.765 207.129V217.144H102.17V214.671ZM100.67 208.508C100.211 208.508 99.6361 208.528 98.9483 208.568C98.2576 208.608 97.5958 208.723 96.9601 208.913C96.3259 209.103 95.7843 209.385 95.3383 209.765C94.8938 210.144 94.6693 210.67 94.6693 211.346C94.6693 212.076 94.9807 212.616 95.6019 212.968C96.2245 213.319 96.8732 213.495 97.5495 213.495C98.1432 213.495 98.7166 213.414 99.2712 213.251C99.8258 213.089 100.32 212.859 100.753 212.562C101.183 212.265 101.529 211.886 101.786 211.427C102.041 210.966 102.17 210.426 102.17 209.805V208.508H100.67Z" fill="black"/>
<path d="M123.498 217.144H129.335V197.44H123.255V207.251C123.255 207.899 123.213 208.521 123.133 209.116C123.051 209.711 122.883 210.245 122.625 210.717C122.367 211.191 121.998 211.569 121.511 211.852C121.025 212.136 120.388 212.28 119.604 212.28C118.819 212.28 118.219 212.115 117.8 211.793C117.382 211.467 117.07 211.049 116.869 210.535C116.665 210.022 116.543 209.459 116.504 208.851C116.462 208.244 116.443 207.656 116.443 207.09V197.44H110.36V208.305C110.36 209.63 110.448 210.859 110.624 211.993C110.799 213.131 111.151 214.117 111.679 214.954C112.205 215.791 112.949 216.449 113.909 216.921C114.868 217.393 116.117 217.63 117.66 217.63C118.388 217.63 119.063 217.536 119.685 217.348C120.308 217.158 120.861 216.915 121.348 216.618C121.834 216.32 122.246 215.981 122.584 215.603C122.922 215.225 123.2 214.847 123.416 214.468H123.498V217.144Z" fill="black"/>
<path d="M145.836 202.304H140.486V208.872C140.486 209.414 140.51 209.906 140.565 210.354C140.619 210.798 140.741 211.183 140.93 211.506C141.118 211.832 141.41 212.083 141.802 212.258C142.193 212.434 142.716 212.523 143.363 212.523C143.689 212.523 144.114 212.488 144.64 212.42C145.167 212.352 145.565 212.197 145.836 211.954V217.022C145.16 217.265 144.458 217.426 143.728 217.508C142.998 217.591 142.283 217.63 141.58 217.63C140.552 217.63 139.605 217.523 138.742 217.304C137.876 217.09 137.119 216.745 136.47 216.272C135.822 215.8 135.315 215.184 134.95 214.427C134.585 213.671 134.402 212.752 134.402 211.671V202.304H130.51V197.44H134.402V191.598H140.486V197.44H145.836V202.304Z" fill="black"/>
<path fill-rule="evenodd" clip-rule="evenodd" d="M162.663 216.617C164.148 215.942 165.379 214.982 166.352 213.738L162.095 210.616C161.583 211.318 160.98 211.893 160.291 212.338C159.603 212.785 158.757 213.008 157.757 213.008C156.568 213.008 155.567 212.664 154.756 211.973C153.946 211.285 153.419 210.358 153.175 209.196H167.285V207.29C167.285 205.723 167.069 204.305 166.636 203.034C166.203 201.764 165.588 200.675 164.793 199.77C163.995 198.865 163.02 198.169 161.872 197.682C160.724 197.196 159.445 196.952 158.041 196.952C156.527 196.952 155.101 197.196 153.763 197.682C152.425 198.169 151.264 198.865 150.276 199.77C149.289 200.675 148.513 201.764 147.945 203.034C147.377 204.305 147.093 205.723 147.093 207.29C147.093 208.86 147.377 210.279 147.945 211.549C148.513 212.819 149.289 213.906 150.276 214.813C151.264 215.718 152.425 216.414 153.763 216.901C155.101 217.387 156.527 217.631 158.041 217.631C159.635 217.631 161.176 217.292 162.663 216.617ZM160.19 202.426C160.892 203.156 161.231 204.035 161.203 205.061H153.175C153.203 204.575 153.317 204.109 153.52 203.661C153.723 203.217 154.006 202.824 154.371 202.487C154.736 202.148 155.175 201.871 155.689 201.656C156.203 201.438 156.797 201.331 157.473 201.331C158.581 201.331 159.486 201.696 160.19 202.426Z" fill="black"/>
<path fill-rule="evenodd" clip-rule="evenodd" d="M106.211 74.6832C104.57 74.6089 102.975 74.56 101.385 74.4603C97.9165 74.2433 94.4497 73.8778 90.9771 73.8113C88.4516 73.7605 85.9161 74.0889 83.3847 74.2492C80.8729 74.4076 78.3632 74.5679 75.7311 74.734C75.8356 74.3528 75.8968 74.1261 75.9639 73.9012C76.4512 72.2748 77.128 70.7363 78.0771 69.3151C79.4898 67.2019 81.4293 66.0153 84.0161 65.9879C88.2207 65.939 92.4254 65.9058 96.63 65.898C97.4587 65.896 98.2933 66.0114 99.12 66.1071C100.653 66.2831 101.902 66.9986 102.94 68.1089C104.384 69.6552 105.799 72.4507 106.211 74.6832Z" fill="black"/>
<path fill-rule="evenodd" clip-rule="evenodd" d="M102.76 94.316V97.3226C102.76 99.127 101.699 100.245 99.8737 100.374C98.9543 100.439 98.0861 100.304 97.2318 99.9226C95.2804 99.0469 93.3093 98.2082 91.3362 97.3754C91.1389 97.2914 90.8469 97.2875 90.6515 97.3696C88.566 98.2493 86.4923 99.1602 84.4087 100.052C83.2998 100.525 82.1594 100.523 81.0347 100.128C79.8469 99.7095 79.2234 98.7986 79.2195 97.5475C79.2135 95.4733 79.2195 93.3992 79.2195 91.3251C79.2175 89.5031 80.2849 88.3889 82.1317 88.2403C83.1735 88.1562 84.1206 88.4104 85.0598 88.8365C86.8968 89.6693 88.7515 90.461 90.6121 91.2449C90.8232 91.3329 91.1369 91.3368 91.348 91.2469C93.4513 90.3613 95.5389 89.4347 97.6402 88.5472C98.7511 88.078 99.8974 88.0937 101.012 88.5276C102.149 88.9695 102.751 89.8198 102.758 91.0455C102.766 92.1364 102.76 93.2252 102.76 94.316Z" fill="black"/>
<path fill-rule="evenodd" clip-rule="evenodd" d="M137.293 98.3728C135.707 96.1208 133.655 94.3399 131.415 92.7662C126.887 89.5759 121.903 87.2613 116.722 85.3299C116.191 85.1324 115.903 85.1793 115.538 85.6309C115.078 86.1998 114.618 86.7667 114.157 87.3356L114.153 87.3277L91.0183 115.842L72.4575 93.0692C70.3917 90.5259 68.3259 87.9865 66.264 85.4413C66.0864 85.2204 65.9444 85.0757 65.6109 85.2008C60.1533 87.2104 54.9069 89.6306 50.1754 93.0379C47.9814 94.6155 45.9807 96.4042 44.4752 98.6699C42.2496 102.021 41.9812 105.469 44.0293 109.003C45.077 110.81 46.5016 112.299 48.0662 113.668C51.9315 117.05 56.2269 119.818 60.7157 122.289C70.2358 127.534 80.2709 131.588 90.602 134.952C90.8743 135.04 91.2295 134.995 91.5116 134.906C99.5145 132.327 107.316 129.25 114.881 125.593C120.534 122.86 126.009 119.822 131.015 116.016C133.229 114.334 135.369 112.571 137.062 110.337C139.994 106.47 140.079 102.326 137.293 98.3728Z" fill="black"/>
<path fill-rule="evenodd" clip-rule="evenodd" d="M127.295 21.6571C131.796 19.6925 136.332 19.8117 141 20.7931C140.884 20.6191 140.818 20.5174 140.749 20.4197C138.455 17.2117 135.886 14.2364 132.972 11.5641C128.487 7.45299 123.428 4.27241 117.643 2.27843C112.471 0.493629 107.15 -0.23945 101.676 0.0987439C98.5096 0.292277 95.3822 0.728215 92.4127 1.85618C91.3788 2.24911 90.5639 2.20024 89.536 1.84445C84.2856 0.0225039 78.8557 -0.321555 73.3606 0.257089C67.6426 0.857236 62.2876 2.62054 57.3056 5.4727C50.7786 9.21043 45.5874 14.3615 41.2407 20.4021C41.1657 20.5077 41.1026 20.625 41 20.7892C45.6644 19.8098 50.2005 19.6925 54.6814 21.6591C49.8631 24.6305 46.4674 28.724 43.9103 33.705C48.328 32.6631 52.4735 32.925 56.4256 35.1634C51.1811 39.1044 49.8532 45.8214 50.1768 50.2668C50.2834 50.126 50.3623 50.0224 50.4412 49.9168C51.4455 48.5778 52.3946 47.1917 53.4679 45.9074C55.1056 43.9486 56.9386 42.1814 59.2412 40.9831C61.8062 39.644 64.3199 39.5364 66.7113 41.4053C66.731 41.419 66.7705 41.4073 66.7705 41.4073C66.6403 40.7993 66.4923 40.1933 66.3601 39.5873C66.2397 38.993 66.1213 38.3244 66.0385 37.6813C65.9359 36.7116 65.926 35.7596 66.0247 34.8252C66.5278 30.9526 69.7952 21.7392 90.9842 21.661C112.015 21.7373 115.393 30.8177 115.932 34.7392C116.04 35.7459 116.031 36.7996 115.902 37.8924C115.782 38.7486 115.604 39.6342 115.456 40.3028C115.405 40.5276 115.354 40.7524 115.303 40.9772C115.239 41.2431 115.196 41.4073 115.196 41.4073L115.212 41.376C115.208 41.3994 115.202 41.419 115.196 41.4425C115.334 41.3467 115.474 41.2509 115.612 41.1551C117.011 40.1718 118.548 39.7847 120.247 40.1014C121.835 40.3946 123.219 41.1355 124.491 42.0837C127.34 44.2027 129.528 46.9161 131.482 49.8308C131.575 49.9677 131.673 50.1006 131.77 50.2335C131.924 44.32 130.452 39.0712 125.568 35.1497C129.523 32.925 133.662 32.667 138.054 33.6992C135.505 28.7142 132.107 24.6285 127.295 21.6571Z" fill="black"/>
<path fill-rule="evenodd" clip-rule="evenodd" d="M125.929 49.226C125.637 46.9642 124.295 45.4746 122.107 45.0973C121.937 46.2194 121.767 47.3415 121.598 48.4519C122.233 48.7783 122.316 48.8898 122.444 49.5896C122.48 49.7773 122.519 49.9708 122.515 50.1624C122.428 53.1103 121.507 55.8218 120.029 58.3475C119.425 59.3777 118.494 59.6592 117.326 59.3855C116.886 59.2838 116.444 59.192 115.975 59.0864C115.939 59.2936 115.902 59.4969 115.866 59.6944C115.657 60.8321 115.116 63.4477 114.126 66.4778C113.636 67.9713 113.062 69.3612 112.531 70.5263C112.387 70.8333 112.241 71.146 112.095 71.453C111.383 72.9269 110.835 73.8614 110.835 73.8614C110.691 74.0803 110.547 74.2953 110.41 74.5163C109.422 76.1114 108.276 77.5815 106.92 78.8893C104.156 81.5597 100.896 83.0258 96.9816 82.9848C93.7003 82.9476 90.4151 83.0121 87.1319 82.975C85.4173 82.9535 83.6771 82.9555 81.992 82.6779C79.2909 82.2322 77.0534 80.8051 75.106 78.9225C72.6258 76.5259 70.8875 73.6483 69.4807 70.5576L65.9962 59.0844C65.5444 59.1841 65.1478 59.2643 64.7532 59.3562C63.3503 59.6787 62.3776 59.3327 61.76 58.0386C61.0734 56.5978 60.4716 55.1082 60.0079 53.5854C59.6764 52.4926 59.5699 51.3158 59.487 50.1663C59.4377 49.5055 59.5146 48.7646 60.3749 48.4695C60.2013 47.3356 60.0336 46.2174 59.8599 45.0797C58.092 45.4003 56.8924 46.3367 56.3853 47.971C56.1189 48.8292 55.967 49.7636 55.9887 50.6589C56.0696 53.7379 57.0759 56.5842 58.4393 59.3132C59.3588 61.1566 60.7813 62.4195 62.8551 62.8828C62.9932 62.914 63.1964 63.0587 63.2082 63.1701C63.303 63.9286 64.769 68.3467 65.1794 69.59L66.5053 72.62L67.0814 73.7382H67.0735C67.2097 73.9963 67.2945 74.1585 67.3794 74.3208H67.3813L67.5826 74.7098C69.0446 77.3567 70.7731 79.7925 73.0224 81.8334C76.1991 84.7207 79.9104 86.3863 84.2631 86.4351C88.2901 86.4821 92.3212 86.4254 96.3482 86.4625C98.8757 86.484 101.34 86.2064 103.688 85.2231C108.372 83.2565 111.478 79.6615 113.984 75.4526C113.984 75.4526 113.901 75.6931 115.538 72.3776C115.925 71.6993 116.195 70.9584 116.557 70.1354H116.545C117.555 67.68 118.117 65.6392 118.117 65.6392C118.317 64.8611 118.496 64.0811 118.727 63.3128C118.776 63.1428 118.974 62.9336 119.141 62.8925C121.118 62.4234 122.515 61.2407 123.443 59.4891C124.394 57.6906 125.1 55.7983 125.564 53.8258C125.919 52.3127 126.132 50.7899 125.929 49.226Z" fill="black"/>
<path d="M103.545 59.4897C98.7742 59.4897 94.6031 56.3384 93.3679 51.7777C93.2732 51.4278 93.1489 51.2831 92.7701 51.2909C91.6514 51.3144 90.5326 51.3105 89.4158 51.2929C89.0607 51.2851 88.9364 51.4141 88.8456 51.7464C87.5315 56.5574 83.1256 59.7047 78.0528 59.476C73.2661 59.261 69.1799 55.6503 68.2979 50.8589C67.2206 45.004 71.441 39.372 77.4135 38.6878C82.4607 38.1111 87.1152 41.0728 88.6621 45.872C88.8042 46.3177 89.0034 46.4291 89.4375 46.4174C90.5365 46.39 91.6395 46.3842 92.7385 46.4194C93.2042 46.437 93.4034 46.3079 93.5534 45.8505C94.9582 41.5107 98.9833 38.6057 103.543 38.6077C108.523 38.6077 112.866 42.1186 113.866 46.953C115.204 53.4041 110.192 59.4877 103.545 59.4897Z" fill="black"/>
<path fill-rule="evenodd" clip-rule="evenodd" d="M103.884 186.005H99.6273C98.8975 186.005 98.214 185.896 97.5798 185.68C96.9441 185.463 96.3895 185.113 95.9174 184.626C95.4439 184.14 95.0718 183.524 94.8024 182.781C94.5316 182.038 94.397 181.139 94.397 180.084V173.111C94.397 172.49 94.2145 171.989 93.8496 171.611C93.4847 171.233 93.059 170.949 92.5725 170.759C92.0859 170.57 91.5994 170.448 91.1128 170.395C90.6263 170.341 90.2614 170.313 90.0181 170.313V165.691C90.2614 165.691 90.6263 165.665 91.1128 165.61C91.5994 165.555 92.0859 165.434 92.5725 165.245C93.059 165.057 93.4847 164.772 93.8496 164.392C94.2145 164.014 94.397 163.516 94.397 162.894V155.879C94.397 154.825 94.5244 153.927 94.7822 153.183C95.0399 152.44 95.4048 151.832 95.8769 151.357C96.3489 150.885 96.9035 150.54 97.5392 150.324C98.1749 150.107 98.87 150 99.6273 150H103.884V154.621H101.898C101.275 154.621 100.789 154.703 100.438 154.864C100.086 155.028 99.8228 155.238 99.6475 155.494C99.4709 155.75 99.3637 156.036 99.3232 156.347C99.2826 156.655 99.2624 156.948 99.2624 157.217V163.745C99.2624 164.691 99.1277 165.434 98.8569 165.975C98.5861 166.517 98.2545 166.926 97.8636 167.212C97.4712 167.496 97.0382 167.685 96.5661 167.779C96.0926 167.873 95.6408 167.934 95.2079 167.962V168.043C95.6408 168.069 96.0926 168.123 96.5661 168.205C97.0382 168.286 97.4712 168.469 97.8636 168.752C98.2545 169.036 98.5861 169.448 98.8569 169.989C99.1277 170.529 99.2624 171.274 99.2624 172.218V178.788C99.2624 179.057 99.2826 179.348 99.3232 179.659C99.3637 179.969 99.4709 180.253 99.6475 180.511C99.8228 180.767 100.086 180.977 100.438 181.139C100.789 181.301 101.275 181.382 101.898 181.382H103.884V186.005Z" fill="black"/>
<path fill-rule="evenodd" clip-rule="evenodd" d="M112.634 169.826C112.634 171.313 113.059 172.516 113.911 173.434C114.762 174.354 115.958 174.814 117.499 174.814C119.04 174.814 120.236 174.354 121.087 173.434C121.939 172.516 122.364 171.313 122.364 169.826C122.364 168.342 121.939 167.138 121.087 166.219C120.236 165.301 119.04 164.84 117.499 164.84C115.958 164.84 114.762 165.301 113.911 166.219C113.059 167.138 112.634 168.342 112.634 169.826ZM107.038 159.975H112.634V162.568H112.715C112.958 162.218 113.275 161.859 113.667 161.494C114.058 161.129 114.519 160.799 115.046 160.502C115.573 160.204 116.148 159.962 116.769 159.772C117.39 159.582 118.052 159.488 118.756 159.488C120.215 159.488 121.539 159.737 122.729 160.238C123.918 160.739 124.939 161.44 125.79 162.345C126.642 163.253 127.296 164.326 127.757 165.57C128.216 166.814 128.446 168.178 128.446 169.665C128.446 171.044 128.236 172.36 127.818 173.618C127.398 174.874 126.804 175.99 126.034 176.963C125.263 177.937 124.323 178.714 123.216 179.295C122.107 179.874 120.851 180.167 119.445 180.167C118.174 180.167 116.992 179.97 115.897 179.577C114.803 179.188 113.903 178.517 113.201 177.572H113.12V188.923H107.038V159.975Z" fill="black"/>
<path fill-rule="evenodd" clip-rule="evenodd" d="M141.662 171.043C141.203 171.043 140.628 171.064 139.94 171.104C139.25 171.143 138.588 171.259 137.952 171.449C137.318 171.639 136.776 171.921 136.33 172.3C135.886 172.68 135.661 173.205 135.661 173.882C135.661 174.611 135.973 175.152 136.594 175.503C137.217 175.855 137.865 176.031 138.542 176.031C139.135 176.031 139.709 175.949 140.263 175.787C140.818 175.625 141.312 175.395 141.745 175.098C142.175 174.801 142.521 174.422 142.779 173.963C143.033 173.502 143.162 172.962 143.162 172.341V171.043H141.662ZM143.162 177.206H143.081C142.406 178.259 141.507 179.018 140.385 179.475C139.264 179.937 138.08 180.166 136.837 180.166C135.918 180.166 135.034 180.037 134.182 179.781C133.33 179.523 132.581 179.14 131.931 178.624C131.283 178.113 130.77 177.476 130.392 176.72C130.013 175.962 129.823 175.084 129.823 174.086C129.823 172.948 130.033 171.989 130.453 171.206C130.871 170.422 131.438 169.772 132.156 169.261C132.871 168.745 133.688 168.347 134.609 168.063C135.527 167.78 136.48 167.571 137.467 167.435C138.452 167.3 139.439 167.218 140.425 167.192C141.413 167.164 142.325 167.151 143.162 167.151C143.162 166.069 142.779 165.212 142.007 164.576C141.236 163.942 140.324 163.624 139.271 163.624C138.269 163.624 137.357 163.834 136.533 164.252C135.709 164.672 134.974 165.245 134.325 165.975L131.08 162.651C132.217 161.596 133.54 160.806 135.055 160.277C136.566 159.752 138.135 159.489 139.758 159.489C141.54 159.489 143.007 159.711 144.157 160.156C145.305 160.603 146.223 161.259 146.913 162.123C147.603 162.989 148.083 164.049 148.352 165.306C148.623 166.562 148.757 168.016 148.757 169.665V179.68H143.162V177.206Z" fill="black"/>
<path fill-rule="evenodd" clip-rule="evenodd" d="M162.503 165.773C161.611 164.664 160.434 164.111 158.974 164.111C158.462 164.111 157.961 164.232 157.474 164.476C156.987 164.717 156.744 165.137 156.744 165.733C156.744 166.219 156.995 166.577 157.496 166.806C157.995 167.037 158.63 167.239 159.4 167.414C160.172 167.592 160.996 167.78 161.873 167.981C162.752 168.186 163.576 168.503 164.346 168.936C165.118 169.367 165.752 169.957 166.253 170.698C166.753 171.442 167.002 172.437 167.002 173.678C167.002 174.949 166.725 175.998 166.171 176.82C165.616 177.646 164.908 178.307 164.042 178.809C163.178 179.31 162.205 179.66 161.124 179.861C160.043 180.064 158.974 180.165 157.921 180.165C156.543 180.165 155.15 179.97 153.745 179.577C152.338 179.188 151.15 178.49 150.176 177.491L153.867 173.396C154.435 174.098 155.062 174.631 155.752 174.996C156.44 175.361 157.245 175.545 158.165 175.545C158.867 175.545 159.503 175.443 160.069 175.239C160.638 175.036 160.92 174.666 160.92 174.126C160.92 173.611 160.67 173.225 160.172 172.97C159.671 172.714 159.035 172.496 158.265 172.32C157.496 172.145 156.67 171.956 155.791 171.752C154.914 171.551 154.088 171.245 153.318 170.841C152.549 170.436 151.914 169.861 151.414 169.118C150.913 168.375 150.662 167.38 150.662 166.138C150.662 164.975 150.9 163.975 151.372 163.138C151.846 162.301 152.467 161.61 153.239 161.07C154.009 160.53 154.894 160.131 155.894 159.874C156.893 159.616 157.907 159.489 158.935 159.489C160.233 159.489 161.543 159.678 162.868 160.056C164.191 160.433 165.312 161.109 166.232 162.082L162.503 165.773Z" fill="black"/>
<path fill-rule="evenodd" clip-rule="evenodd" d="M167.328 150H171.705C172.382 150 173.03 150.107 173.651 150.326C174.274 150.54 174.821 150.892 175.295 151.379C175.767 151.865 176.139 152.481 176.408 153.225C176.679 153.968 176.815 154.864 176.815 155.92V162.894C176.815 163.516 176.991 164.016 177.342 164.392C177.693 164.772 178.104 165.057 178.579 165.245C179.051 165.433 179.532 165.555 180.018 165.61C180.505 165.665 180.896 165.691 181.193 165.691V170.313C180.896 170.313 180.505 170.341 180.018 170.394C179.532 170.448 179.051 170.57 178.579 170.759C178.104 170.949 177.693 171.233 177.342 171.611C176.991 171.99 176.815 172.49 176.815 173.111V180.127C176.815 181.18 176.679 182.077 176.408 182.822C176.139 183.566 175.774 184.174 175.315 184.646C174.855 185.118 174.307 185.463 173.673 185.682C173.036 185.896 172.341 186.005 171.584 186.005H167.328V181.382H169.315C169.936 181.382 170.422 181.301 170.774 181.139C171.125 180.978 171.388 180.767 171.565 180.511C171.74 180.254 171.849 179.969 171.888 179.659C171.93 179.349 171.949 179.057 171.949 178.787V172.26C171.949 171.314 172.085 170.57 172.355 170.03C172.625 169.489 172.956 169.077 173.347 168.794C173.74 168.509 174.173 168.327 174.646 168.246C175.118 168.164 175.57 168.098 176.003 168.043V167.962C175.57 167.936 175.118 167.881 174.646 167.8C174.173 167.718 173.74 167.535 173.347 167.252C172.956 166.97 172.625 166.557 172.355 166.017C172.085 165.477 171.949 164.733 171.949 163.786V157.217C171.949 156.948 171.93 156.657 171.888 156.347C171.849 156.035 171.74 155.752 171.565 155.494C171.388 155.238 171.125 155.029 170.774 154.864C170.422 154.703 169.936 154.621 169.315 154.621H167.328V150Z" fill="black"/>
<path d="M18.3665 162.407H23.5562L27.2052 150.974H21.3668L18.3665 162.407Z" fill="black"/>
<path d="M12.6906 165.266C13.2307 165.549 13.6492 165.909 13.9475 166.34L17.9614 162.123C17.0159 161.15 15.9009 160.467 14.6165 160.076C13.3321 159.683 12.1085 159.489 10.9471 159.489C9.43396 159.489 8.00763 159.733 6.66968 160.218C5.33167 160.704 4.17035 161.401 3.1828 162.306C2.19672 163.211 1.41913 164.3 0.851501 165.57C0.283813 166.841 0 168.259 0 169.826C0 171.395 0.283813 172.814 0.851501 174.086C1.41913 175.356 2.19672 176.443 3.1828 177.35C4.17035 178.255 5.33167 178.95 6.66968 179.436C8.00763 179.923 9.43396 180.166 10.9471 180.166C12.1085 180.166 13.3321 179.969 14.6165 179.578C15.9009 179.187 17.0159 178.502 17.9614 177.531L13.9475 173.312C13.5956 173.719 13.1771 174.071 12.6906 174.368C12.204 174.665 11.6234 174.816 10.9471 174.816C9.40643 174.816 8.21039 174.354 7.35895 173.434C6.50751 172.518 6.08179 171.314 6.08179 169.826C6.08179 168.341 6.50751 167.138 7.35895 166.219C8.21039 165.3 9.40643 164.84 10.9471 164.84C11.5684 164.84 12.1505 164.982 12.6906 165.266Z" fill="black"/>
<path fill-rule="evenodd" clip-rule="evenodd" d="M44.5687 176.274C43.5956 177.518 42.3648 178.478 40.8792 179.153C39.392 179.828 37.8513 180.166 36.257 180.166C34.7438 180.166 33.3175 179.923 31.9796 179.437C30.6415 178.95 29.4788 178.253 28.4927 177.348C27.5051 176.442 26.7289 175.354 26.1613 174.084C25.5937 172.815 25.3099 171.395 25.3099 169.826C25.3099 168.259 25.5937 166.841 26.1613 165.57C26.7289 164.3 27.5051 163.211 28.4927 162.306C29.4788 161.401 30.6415 160.704 31.9796 160.218C33.3175 159.731 34.7438 159.488 36.257 159.488C37.6616 159.488 38.9388 159.731 40.0885 160.218C41.2368 160.704 42.2099 161.401 43.0078 162.306C43.8042 163.211 44.4196 164.3 44.8525 165.57C45.2841 166.841 45.5013 168.259 45.5013 169.826V171.731H31.3917C31.6349 172.894 32.162 173.821 32.9729 174.509C33.7838 175.199 34.783 175.544 35.9732 175.544C36.9724 175.544 37.818 175.321 38.5073 174.874C39.1965 174.429 39.7975 173.854 40.3115 173.152L44.5687 176.274ZM39.4196 167.597C39.4456 166.571 39.1082 165.692 38.4059 164.962C37.7021 164.232 36.7971 163.867 35.6894 163.867C35.0132 163.867 34.418 163.974 33.9054 164.191C33.3914 164.407 32.9526 164.684 32.5877 165.023C32.2228 165.36 31.939 165.752 31.7363 166.197C31.5336 166.644 31.4177 167.111 31.3917 167.597H39.4196Z" fill="black"/>
<path d="M55.5968 164.111C57.0564 164.111 58.2322 164.664 59.1242 165.773L62.8544 162.082C61.9348 161.109 60.8141 160.433 59.4891 160.056C58.1642 159.678 56.8537 159.489 55.5563 159.489C54.5281 159.489 53.5145 159.616 52.5154 159.874C51.5148 160.131 50.6301 160.53 49.8597 161.07C49.0894 161.61 48.4667 162.301 47.9946 163.138C47.5211 163.975 47.2851 164.975 47.2851 166.138C47.2851 167.38 47.5342 168.375 48.0352 169.118C48.5347 169.861 49.1704 170.436 49.9408 170.841C50.7111 171.245 51.5351 171.551 52.414 171.752C52.7533 171.831 53.0848 171.908 53.4083 171.982C53.9216 172.1 54.4147 172.212 54.8873 172.32C55.6576 172.496 56.2919 172.714 56.7929 172.97C57.2925 173.225 57.543 173.611 57.543 174.125C57.543 174.666 57.2592 175.036 56.6915 175.239C56.1239 175.443 55.4882 175.545 54.7859 175.545C53.8664 175.545 53.0627 175.361 52.3735 174.996C51.6842 174.631 51.0558 174.098 50.4882 173.396L46.7985 177.491C47.7716 178.49 48.9604 179.188 50.3665 179.577C51.7711 179.97 53.1641 180.165 54.5426 180.165C55.5968 180.165 56.664 180.064 57.7457 179.861C58.8259 179.66 59.799 179.31 60.6649 178.808C61.5294 178.307 62.239 177.646 62.7935 176.82C63.3481 175.998 63.6247 174.949 63.6247 173.678C63.6247 172.437 63.3742 171.442 62.8746 170.698C62.3736 169.957 61.7394 169.367 60.969 168.936C60.1987 168.503 59.3733 168.186 58.4958 167.981L58.4149 167.963C57.9116 167.848 57.4266 167.737 56.9594 167.629C56.6387 167.556 56.3264 167.484 56.0225 167.414C55.2522 167.239 54.6165 167.037 54.1169 166.806C53.6159 166.577 53.3668 166.219 53.3668 165.733C53.3668 165.137 53.6101 164.717 54.0966 164.476C54.5832 164.232 55.0828 164.111 55.5968 164.111Z" fill="black"/>
<path d="M78.9498 164.84H73.5979V171.408C73.5979 171.95 73.624 172.442 73.679 172.89C73.7325 173.334 73.8542 173.719 74.0439 174.042C74.2321 174.368 74.5232 174.619 74.9156 174.794C75.3066 174.97 75.8279 175.059 76.4766 175.059C76.8009 175.059 77.2266 175.024 77.7537 174.956C78.2808 174.888 78.679 174.733 78.9498 174.49V179.558C78.2736 179.801 77.5713 179.962 76.8415 180.044C76.1117 180.127 75.3949 180.166 74.6926 180.166C73.666 180.166 72.7189 180.059 71.8544 179.84C70.9885 179.626 70.2327 179.281 69.5839 178.808C68.9352 178.336 68.4284 177.72 68.0635 176.963C67.6986 176.207 67.5162 175.287 67.5162 174.207V164.84H63.6238V159.976H67.5162V154.134H73.5979V159.976H78.9498V164.84Z" fill="black"/>
</svg>
