<?xml version="1.0" encoding="UTF-8"?>
<svg width="276px" height="100px" viewBox="0 0 276 100" version="1.1" xmlns="http://www.w3.org/2000/svg" xmlns:xlink="http://www.w3.org/1999/xlink">
    <!-- Generator: Sketch 55 (78076) - https://sketchapp.com -->
    <title>logo</title>
    <desc>Created with Sketch.</desc>
    <g id="Page-1" stroke="none" stroke-width="1" fill="none" fill-rule="evenodd">
        <g id="Artboard" transform="translate(-28.000000, -45.000000)">
            <g id="logo" transform="translate(28.000000, 45.000000)">
                <g id="logo-white" fill="#FFFFFF">
                    <path d="M108.755,30.3357002 C108.456,29.9042002 108.038,29.5450002 107.498,29.2612002 C106.958,28.9774002 106.376,28.8355002 105.754,28.8355002 C104.214,28.8355002 103.018,29.2960002 102.166,30.2140002 C101.315,31.1336002 100.889,32.3369002 100.889,33.8211002 C100.889,35.3098002 101.315,36.5131002 102.166,37.4297002 C103.018,38.3492002 104.214,38.8112002 105.754,38.8112002 C106.431,38.8112002 107.011,38.6606002 107.498,38.3637002 C107.984,38.0669002 108.403,37.7150002 108.755,37.3081002 L112.769,41.5263002 C111.823,42.4979002 110.708,43.1828002 109.424,43.5738002 C108.139,43.9648002 106.916,44.1617002 105.754,44.1617002 C104.241,44.1617002 102.815,43.9185002 101.477,43.4319002 C100.139,42.9454002 98.9776,42.2503002 97.99,41.3453002 C97.0039,40.4388002 96.2263,39.3513002 95.6587,38.0813002 C95.091,36.8099002 94.8072,35.3908002 94.8072,33.8211002 C94.8072,32.2543002 95.091,30.8367002 95.6587,29.5653002 C96.2263,28.2954002 97.0039,27.2064002 97.99,26.3014002 C98.9776,25.3963002 100.139,24.6998002 101.477,24.2133002 C102.815,23.7282002 104.241,23.4849002 105.754,23.4849002 C106.916,23.4849002 108.139,23.6790002 109.424,24.0714002 C110.708,24.4624002 111.823,25.1458002 112.769,26.1189002 L108.755,30.3357002 Z" id="Path"></path>
                    <polygon id="Path" points="118.363 26.4030002 113.174 26.4030002 116.174 14.9692002 122.012 14.9692002"></polygon>
                    <path d="M134.227,31.5927002 C134.253,30.5661002 133.915,29.6871002 133.213,28.9573002 C132.509,28.2274002 131.604,27.8625002 130.497,27.8625002 C129.82,27.8625002 129.225,27.9697002 128.713,28.1869002 C128.199,28.4027002 127.76,28.6792002 127.395,29.0181002 C127.03,29.3555002 126.746,29.7479002 126.543,30.1925002 C126.341,30.6399002 126.225,31.1062002 126.199,31.5927002 L134.227,31.5927002 Z M139.376,40.2695002 C138.403,41.5134002 137.172,42.4734002 135.686,43.1482002 C134.199,43.8230002 132.659,44.1619002 131.064,44.1619002 C129.551,44.1619002 128.125,43.9186002 126.787,43.4320002 C125.449,42.9455002 124.286,42.2490002 123.3,41.3439002 C122.312,40.4375002 121.536,39.3500002 120.969,38.0800002 C120.401,36.8101002 120.117,35.3910002 120.117,33.8213002 C120.117,32.2545002 120.401,30.8368002 120.969,29.5654002 C121.536,28.2955002 122.312,27.2066002 123.3,26.3015002 C124.286,25.3965002 125.449,24.7000002 126.787,24.2134002 C128.125,23.7269002 129.551,23.4836002 131.064,23.4836002 C132.469,23.4836002 133.746,23.7269002 134.896,24.2134002 C136.044,24.7000002 137.017,25.3965002 137.815,26.3015002 C138.611,27.2066002 139.227,28.2955002 139.66,29.5654002 C140.091,30.8368002 140.308,32.2545002 140.308,33.8213002 L140.308,35.7269002 L126.199,35.7269002 C126.442,36.8897002 126.969,37.8165002 127.78,38.5043002 C128.591,39.1950002 129.59,39.5397002 130.78,39.5397002 C131.78,39.5397002 132.625,39.3167002 133.314,38.8692002 C134.004,38.4247002 134.605,37.8498002 135.119,37.1475002 L139.376,40.2695002 Z" id="Shape"></path>
                    <path d="M153.931,29.7686002 C153.039,28.6594002 151.864,28.1062002 150.404,28.1062002 C149.89,28.1062002 149.39,28.2279002 148.904,28.4712002 C148.417,28.7130002 148.174,29.1329002 148.174,29.7281002 C148.174,30.2146002 148.423,30.5723002 148.924,30.8011002 C149.424,31.0328002 150.059,31.2341002 150.83,31.4093002 C151.6,31.5874002 152.424,31.7756002 153.303,31.9769002 C154.18,32.1811002 155.006,32.4982002 155.776,32.9312002 C156.547,33.3627002 157.181,33.9521002 157.682,34.6935002 C158.181,35.4378002 158.432,36.4326002 158.432,37.6736002 C158.432,38.9450002 158.155,39.9934002 157.601,40.8158002 C157.046,41.6412002 156.337,42.3030002 155.472,42.8040002 C154.606,43.3051002 153.633,43.6555002 152.553,43.8568002 C151.471,44.0595002 150.404,44.1609002 149.35,44.1609002 C147.971,44.1609002 146.578,43.9654002 145.174,43.5730002 C143.768,43.1834002 142.579,42.4855002 141.606,41.4863002 L145.295,37.3912002 C145.863,38.0935002 146.491,38.6264002 147.181,38.9913002 C147.87,39.3562002 148.674,39.5401002 149.593,39.5401002 C150.295,39.5401002 150.931,39.4387002 151.499,39.2346002 C152.066,39.0318002 152.35,38.6611002 152.35,38.1210002 C152.35,37.6070002 152.1,37.2203002 151.6,36.9655002 C151.099,36.7092002 150.465,36.4920002 149.694,36.3153002 C148.924,36.1401002 148.099,35.9518002 147.221,35.7476002 C146.342,35.5464002 145.518,35.2408002 144.748,34.8368002 C143.978,34.4314002 143.342,33.8565002 142.842,33.1136002 C142.341,32.3708002 142.092,31.3760002 142.092,30.1335002 C142.092,28.9707002 142.328,27.9701002 142.802,27.1332002 C143.274,26.2962002 143.897,25.6055002 144.667,25.0653002 C145.437,24.5252002 146.322,24.1270002 147.323,23.8692002 C148.322,23.6115002 149.335,23.4840002 150.363,23.4840002 C151.661,23.4840002 152.971,23.6737002 154.296,24.0517002 C155.621,24.4282002 156.742,25.1044002 157.662,26.0775002 L153.931,29.7686002 Z" id="Path"></path>
                    <path d="M173.757,28.8353002 L168.405,28.8353002 L168.405,35.4037002 C168.405,35.9453002 168.431,36.4376002 168.486,36.8851002 C168.54,37.3296002 168.661,37.7148002 168.851,38.0377002 C169.039,38.3636002 169.33,38.6141002 169.723,38.7893002 C170.114,38.9659002 170.635,39.0543002 171.284,39.0543002 C171.608,39.0543002 172.034,39.0195002 172.561,38.9515002 C173.088,38.8834002 173.486,38.7285002 173.757,38.4852002 L173.757,43.5534002 C173.081,43.7967002 172.378,43.9574002 171.649,44.0399002 C170.919,44.1225002 170.202,44.1616002 169.5,44.1616002 C168.473,44.1616002 167.526,44.0544002 166.662,43.8358002 C165.796,43.6214002 165.04,43.2768002 164.391,42.8033002 C163.742,42.3312002 163.236,41.7158002 162.871,40.9585002 C162.506,40.2026002 162.323,39.2831002 162.323,38.2028002 L162.323,28.8353002 L158.431,28.8353002 L158.431,23.9713002 L162.323,23.9713002 L162.323,18.1298002 L168.405,18.1298002 L168.405,23.9713002 L173.757,23.9713002 L173.757,28.8353002 Z" id="Path"></path>
                    <path d="M93.6268,61.4349002 L99.4652,61.4349002 L99.4652,64.1109002 L99.5463,64.1109002 C99.7346,63.7315002 100.005,63.3536002 100.357,62.9742002 C100.709,62.5977002 101.128,62.2574002 101.614,61.9605002 C102.101,61.6637002 102.654,61.4204002 103.276,61.2307002 C103.898,61.0425002 104.574,60.9483002 105.304,60.9483002 C106.682,60.9483002 107.904,61.2307002 108.973,61.7998002 C110.04,62.3674002 110.845,63.2594002 111.385,64.4758002 C112.089,63.2059002 112.939,62.3008002 113.94,61.7592002 C114.939,61.2177002 116.17,60.9483002 117.629,60.9483002 C118.954,60.9483002 120.068,61.1699002 120.974,61.6159002 C121.879,62.0633002 122.596,62.6715002 123.123,63.4404002 C123.65,64.2123002 124.028,65.1173002 124.258,66.1584002 C124.487,67.1981002 124.603,68.3132002 124.603,69.5020002 L124.603,81.1386002 L118.521,81.1386002 L118.521,69.6656002 C118.521,68.7461002 118.326,67.9555002 117.933,67.2923002 C117.541,66.6305002 116.846,66.2989002 115.845,66.2989002 C115.142,66.2989002 114.555,66.4147002 114.082,66.6450002 C113.608,66.8738002 113.23,67.1924002 112.946,67.5978002 C112.663,68.0018002 112.46,68.4753002 112.338,69.0155002 C112.217,69.5570002 112.156,70.1247002 112.156,70.7198002 L112.156,81.1386002 L106.074,81.1386002 L106.074,70.7198002 C106.074,70.3679002 106.06,69.9350002 106.034,69.4224002 C106.006,68.9083002 105.912,68.4218002 105.75,67.9627002 C105.588,67.5022002 105.324,67.1113002 104.959,66.7854002 C104.594,66.4611002 104.06,66.2989002 103.358,66.2989002 C102.574,66.2989002 101.938,66.4408002 101.452,66.7246002 C100.965,67.0099002 100.595,67.3878002 100.337,67.8599002 C100.081,68.3334002 99.9112,68.8678002 99.8301,69.4615002 C99.7491,70.0566002 99.7085,70.6778002 99.7085,71.3280002 L99.7085,81.1386002 L93.6268,81.1386002 L93.6268,61.4349002 Z" id="Path"></path>
                    <path d="M138.551,72.5031002 C138.092,72.5031002 137.517,72.5234002 136.827,72.5639002 C136.138,72.6030002 135.475,72.7188002 134.841,72.9085002 C134.206,73.0982002 133.665,73.3806002 133.219,73.7600002 C132.773,74.1394002 132.55,74.6650002 132.55,75.3413002 C132.55,76.0711002 132.861,76.6112002 133.482,76.9631002 C134.104,77.3150002 134.752,77.4902002 135.429,77.4902002 C136.022,77.4902002 136.597,77.4091002 137.152,77.2469002 C137.706,77.0847002 138.199,76.8545002 138.632,76.5577002 C139.063,76.2608002 139.409,75.8814002 139.666,75.4224002 C139.922,74.9619002 140.051,74.4218002 140.051,73.8005002 L140.051,72.5031002 L138.551,72.5031002 Z M140.051,78.6660002 L139.97,78.6660002 C139.293,79.7188002 138.396,80.4775002 137.273,80.9351002 C136.151,81.3971002 134.968,81.6259002 133.726,81.6259002 C132.806,81.6259002 131.921,81.4970002 131.07,81.2407002 C130.219,80.9829002 129.468,80.5992002 128.82,80.0837002 C128.171,79.5725002 127.658,78.9354002 127.279,78.1795002 C126.901,77.4221002 126.711,76.5432002 126.711,75.5455002 C126.711,74.4073002 126.921,73.4487002 127.34,72.6653002 C127.758,71.8819002 128.326,71.2317002 129.043,70.7205002 C129.76,70.2050002 130.576,69.8068002 131.496,69.5230002 C132.415,69.2392002 133.367,69.0306002 134.354,68.8945002 C135.34,68.7599002 136.326,68.6773002 137.314,68.6513002 C138.301,68.6237002 139.214,68.6107002 140.051,68.6107002 C140.051,67.5290002 139.666,66.6718002 138.895,66.0361002 C138.125,65.4018002 137.213,65.0832002 136.158,65.0832002 C135.158,65.0832002 134.246,65.2932002 133.422,65.7117002 C132.598,66.1316002 131.861,66.7051002 131.212,67.4349002 L127.968,64.1101002 C129.104,63.0560002 130.429,62.2653002 131.942,61.7368002 C133.455,61.2111002 135.023,60.9490002 136.645,60.9490002 C138.429,60.9490002 139.896,61.1706002 141.044,61.6151002 C142.194,62.0626002 143.112,62.7186002 143.801,63.5831002 C144.49,64.4490002 144.971,65.5090002 145.24,66.7659002 C145.511,68.0213002 145.646,69.4752002 145.646,71.1245002 L145.646,81.1393002 L140.051,81.1393002 L140.051,78.6660002 Z" id="Shape"></path>
                    <path d="M157.754,66.2993002 L153.74,66.2993002 L153.74,61.4353002 L157.754,61.4353002 L157.754,57.9469002 C157.754,56.8667002 157.848,55.8458002 158.038,54.8858002 C158.227,53.9257002 158.592,53.0815002 159.132,52.3516002 C159.673,51.6218002 160.45,51.0484002 161.464,50.6285002 C162.477,50.2100002 163.808,50.0000002 165.457,50.0000002 C166.079,50.0000002 166.687,50.0275002 167.282,50.0811002 C167.876,50.1361002 168.458,50.2288002 169.025,50.3649002 L168.742,55.5157002 C168.39,55.3795002 168.065,55.2782002 167.769,55.2101002 C167.47,55.1435002 167.133,55.1073002 166.755,55.1073002 C165.782,55.1073002 165.052,55.3187002 164.565,55.7372002 C164.079,56.1571002 163.836,57.0144002 163.836,58.3119002 L163.836,61.4353002 L168.336,61.4353002 L168.336,66.2993002 L163.836,66.2993002 L163.836,81.1390002 L157.754,81.1390002 L157.754,66.2993002 Z" id="Path"></path>
                    <path d="M180.297,72.5031002 C179.838,72.5031002 179.263,72.5234002 178.575,72.5639002 C177.884,72.6030002 177.223,72.7188002 176.587,72.9085002 C175.953,73.0982002 175.411,73.3806002 174.965,73.7600002 C174.521,74.1394002 174.296,74.6650002 174.296,75.3413002 C174.296,76.0711002 174.607,76.6112002 175.229,76.9631002 C175.851,77.3150002 176.5,77.4902002 177.176,77.4902002 C177.77,77.4902002 178.343,77.4091002 178.898,77.2469002 C179.453,77.0847002 179.946,76.8545002 180.379,76.5577002 C180.809,76.2608002 181.155,75.8814002 181.413,75.4224002 C181.668,74.9619002 181.797,74.4218002 181.797,73.8005002 L181.797,72.5031002 L180.297,72.5031002 Z M181.797,78.6660002 L181.716,78.6660002 C181.041,79.7188002 180.142,80.4775002 179.02,80.9351002 C177.899,81.3971002 176.714,81.6259002 175.472,81.6259002 C174.552,81.6259002 173.669,81.4970002 172.816,81.2407002 C171.965,80.9829002 171.215,80.5992002 170.566,80.0837002 C169.917,79.5725002 169.405,78.9354002 169.025,78.1795002 C168.647,77.4221002 168.458,76.5432002 168.458,75.5455002 C168.458,74.4073002 168.668,73.4487002 169.086,72.6653002 C169.505,71.8819002 170.072,71.2317002 170.789,70.7205002 C171.506,70.2050002 172.322,69.8068002 173.243,69.5230002 C174.161,69.2392002 175.114,69.0306002 176.102,68.8945002 C177.086,68.7599002 178.074,68.6773002 179.06,68.6513002 C180.048,68.6237002 180.96,68.6107002 181.797,68.6107002 C181.797,67.5290002 181.413,66.6718002 180.641,66.0361002 C179.871,65.4018002 178.959,65.0832002 177.906,65.0832002 C176.904,65.0832002 175.992,65.2932002 175.168,65.7117002 C174.344,66.1316002 173.608,66.7051002 172.96,67.4349002 L169.715,64.1101002 C170.85,63.0560002 172.175,62.2653002 173.689,61.7368002 C175.201,61.2111002 176.769,60.9490002 178.393,60.9490002 C180.175,60.9490002 181.642,61.1706002 182.792,61.6151002 C183.94,62.0626002 184.858,62.7186002 185.547,63.5831002 C186.238,64.4490002 186.717,65.5090002 186.987,66.7659002 C187.257,68.0213002 187.392,69.4752002 187.392,71.1245002 L187.392,81.1393002 L181.797,81.1393002 L181.797,78.6660002 Z" id="Shape"></path>
                    <path d="M208.962,81.1392002 L203.125,81.1392002 L203.125,78.4632002 L203.042,78.4632002 C202.827,78.8426002 202.549,79.2205002 202.211,79.5984002 C201.872,79.9764002 201.461,80.3152002 200.975,80.6135002 C200.488,80.9104002 199.935,81.1537002 199.312,81.3434002 C198.69,81.5316002 198.015,81.6257002 197.286,81.6257002 C195.744,81.6257002 194.495,81.3882002 193.536,80.9162002 C192.576,80.4441002 191.832,79.7867002 191.306,78.9497002 C190.777,78.1127002 190.426,77.1266002 190.25,75.9884002 C190.075,74.8546002 189.987,73.6252002 189.987,72.3002002 L189.987,61.4355002 L196.07,61.4355002 L196.07,71.0853002 C196.07,71.6515002 196.089,72.2394002 196.131,72.8462002 C196.17,73.4543002 196.292,74.0176002 196.496,74.5302002 C196.697,75.0443002 197.008,75.4628002 197.427,75.7886002 C197.845,76.1101002 198.446,76.2752002 199.231,76.2752002 C200.014,76.2752002 200.652,76.1318002 201.138,75.8480002 C201.625,75.5642002 201.994,75.1862002 202.252,74.7127002 C202.509,74.2406002 202.677,73.7063002 202.76,73.1111002 C202.84,72.5160002 202.882,71.8948002 202.882,71.2461002 L202.882,61.4355002 L208.962,61.4355002 L208.962,81.1392002 Z" id="Path"></path>
                    <path d="M225.463,66.2993002 L220.112,66.2993002 L220.112,72.8677002 C220.112,73.4093002 220.137,73.9016002 220.192,74.3491002 C220.246,74.7937002 220.367,75.1788002 220.557,75.5018002 C220.745,75.8276002 221.036,76.0781002 221.429,76.2533002 C221.82,76.4300002 222.342,76.5183002 222.99,76.5183002 C223.316,76.5183002 223.741,76.4835002 224.267,76.4155002 C224.794,76.3474002 225.192,76.1925002 225.463,75.9492002 L225.463,81.0174002 C224.787,81.2607002 224.084,81.4214002 223.355,81.5040002 C222.625,81.5865002 221.909,81.6256002 221.207,81.6256002 C220.179,81.6256002 219.232,81.5184002 218.369,81.2998002 C217.503,81.0855002 216.746,80.7408002 216.097,80.2673002 C215.448,79.7952002 214.942,79.1798002 214.577,78.4225002 C214.212,77.6666002 214.029,76.7471002 214.029,75.6668002 L214.029,66.2993002 L210.137,66.2993002 L210.137,61.4353002 L214.029,61.4353002 L214.029,55.5939002 L220.112,55.5939002 L220.112,61.4353002 L225.463,61.4353002 L225.463,66.2993002 Z" id="Path"></path>
                    <path d="M240.83,69.0569002 C240.857,68.0302002 240.519,67.1512002 239.816,66.4214002 C239.113,65.6916002 238.208,65.3267002 237.1,65.3267002 C236.424,65.3267002 235.83,65.4338002 235.316,65.6510002 C234.802,65.8668002 234.363,66.1434002 233.998,66.4822002 C233.633,66.8196002 233.349,67.2121002 233.147,67.6566002 C232.944,68.1041002 232.83,68.5703002 232.802,69.0569002 L240.83,69.0569002 Z M245.979,77.7336002 C245.006,78.9775002 243.775,79.9376002 242.29,80.6124002 C240.802,81.2872002 239.262,81.6260002 237.667,81.6260002 C236.154,81.6260002 234.728,81.3827002 233.39,80.8962002 C232.052,80.4097002 230.891,79.7131002 229.903,78.8081002 C228.915,77.9016002 228.139,76.8141002 227.572,75.5442002 C227.004,74.2742002 226.72,72.8551002 226.72,71.2854002 C226.72,69.7186002 227.004,68.3010002 227.572,67.0296002 C228.139,65.7596002 228.915,64.6707002 229.903,63.7657002 C230.891,62.8606002 232.052,62.1641002 233.39,61.6776002 C234.728,61.1910002 236.154,60.9478002 237.667,60.9478002 C239.072,60.9478002 240.351,61.1910002 241.499,61.6776002 C242.647,62.1641002 243.622,62.8606002 244.42,63.7657002 C245.215,64.6707002 245.83,65.7596002 246.263,67.0296002 C246.696,68.3010002 246.912,69.7186002 246.912,71.2854002 L246.912,73.1911002 L232.802,73.1911002 C233.045,74.3539002 233.572,75.2806002 234.383,75.9685002 C235.194,76.6592002 236.195,77.0038002 237.384,77.0038002 C238.384,77.0038002 239.23,76.7808002 239.918,76.3334002 C240.607,75.8888002 241.209,75.3139002 241.722,74.6116002 L245.979,77.7336002 Z" id="Shape"></path>
                    <path d="M45.3254,69.8637002 L45.3254,72.0909002 C45.3254,73.4274002 44.5464,74.2557002 43.207,74.3513002 C42.5322,74.3991002 41.8951,74.2991002 41.2681,74.0168002 C39.836,73.3680002 38.3894,72.7468002 36.9413,72.1300002 C36.7965,72.0677002 36.5822,72.0648002 36.4389,72.1256002 C34.9083,72.7772002 33.3864,73.4520002 31.8573,74.1123002 C31.0435,74.4628002 30.2065,74.4613002 29.3812,74.1688002 C28.5094,73.8589002 28.0519,73.1841002 28.049,72.2574002 C28.0446,70.7210002 28.049,69.1846002 28.049,67.6482002 C28.0475,66.2986002 28.8309,65.4732002 30.1863,65.3632002 C30.9508,65.3009002 31.6459,65.4892002 32.3351,65.8048002 C33.6833,66.4217002 35.0444,67.0082002 36.4099,67.5888002 C36.5648,67.6540002 36.7951,67.6569002 36.95,67.5903002 C38.4936,66.9343002 40.0256,66.2479002 41.5678,65.5905002 C42.383,65.2430002 43.2244,65.2546002 44.0425,65.5760002 C44.8766,65.9033002 45.3182,66.5332002 45.324,67.4411002 C45.3298,68.2492002 45.3254,69.0557002 45.3254,69.8637002 Z" id="Path"></path>
                    <path d="M70.6688,72.8687002 C69.5046,71.2006002 67.9986,69.8814002 66.3551,68.7157002 C63.0319,66.3525002 59.3741,64.6380002 55.5716,63.2073002 C55.1821,63.0611002 54.9707,63.0958002 54.7028,63.4303002 C54.3654,63.8517002 54.028,64.2716002 53.6892,64.6930002 L53.6863,64.6872002 L36.7081,85.8086002 L23.0864,68.9402002 C21.5703,67.0562002 20.0542,65.1752002 18.541,63.2898002 C18.4107,63.1262002 18.3065,63.0191002 18.0617,63.1117002 C14.0565,64.6003002 10.2062,66.3930002 6.73379,68.9170002 C5.12357,70.0856002 3.65527,71.4106002 2.55042,73.0889002 C0.917037,75.5708002 0.720105,78.1252002 2.22316,80.7433002 C2.99207,82.0813002 4.03755,83.1847002 5.18584,84.1983002 C8.02253,86.7035002 11.1749,88.7539002 14.4692,90.5843002 C21.4559,94.4694002 28.8206,97.4727002 36.4025,99.9648002 C36.6024,100.03 36.863,99.9967002 37.0701,99.9300002 C42.9433,98.0201002 48.6688,95.7408002 54.2206,93.0315002 C58.3692,91.0071002 62.3875,88.7568002 66.0611,85.9375002 C67.6858,84.6921002 69.2569,83.3860002 70.4994,81.7309002 C72.6511,78.8666002 72.7134,75.7967002 70.6688,72.8687002 Z" id="Path"></path>
                    <path d="M63.3312,16.0423002 C66.6341,14.5870002 69.9632,14.6754002 73.3892,15.4023002 C73.3038,15.2734002 73.256,15.1981002 73.2053,15.1257002 C71.5213,12.7494002 69.6359,10.5455002 67.4972,8.56600022 C64.2058,5.52074022 60.493,3.16475022 56.2474,1.68773022 C52.4521,0.365651223 48.5468,-0.177369777 44.5299,0.0731439232 C42.2058,0.216501223 39.9107,0.539418223 37.7314,1.37495022 C36.9726,1.66601022 36.3746,1.62981022 35.6202,1.36626022 C31.767,0.0166697232 27.782,-0.238188777 23.7492,0.190436223 C19.5528,0.634990223 15.6228,1.94114022 11.9665,4.05385022 C7.17645,6.82254022 3.36668,10.6382002 0.17666,15.1127002 C0.121635,15.1909002 0.0752977,15.2777002 0,15.3994002 C3.42315,14.6739002 6.75218,14.5870002 10.0407,16.0438002 C6.50457,18.2448002 4.0125,21.2771002 2.13585,24.9667002 C5.378,24.1949002 8.42031,24.3889002 11.3207,26.0470002 C7.47185,28.9662002 6.49732,33.9418002 6.7348,37.2346002 C6.813,37.1304002 6.87092,37.0536002 6.92884,36.9754002 C7.66589,35.9835002 8.36239,34.9568002 9.15012,34.0055002 C10.352,32.5545002 11.6972,31.2455002 13.3871,30.3578002 C15.2695,29.3659002 17.1143,29.2863002 18.8693,30.6706002 C18.8838,30.6807002 18.9128,30.6720002 18.9128,30.6720002 C18.8172,30.2217002 18.7086,29.7728002 18.6116,29.3239002 C18.5232,28.8837002 18.4364,28.3885002 18.3755,27.9120002 C18.3002,27.1938002 18.293,26.4886002 18.3654,25.7964002 C18.7347,22.9278002 21.1326,16.1031002 36.683,16.0452002 C52.1176,16.1017002 54.5966,22.8279002 54.992,25.7327002 C55.0716,26.4785002 55.0644,27.2590002 54.9702,28.0684002 C54.8819,28.7027002 54.7516,29.3587002 54.643,29.8539002 C54.6053,30.0204002 54.5677,30.1870002 54.53,30.3535002 C54.4837,30.5504002 54.4518,30.6720002 54.4518,30.6720002 L54.4634,30.6489002 C54.4605,30.6663002 54.4562,30.6807002 54.4518,30.6981002 C54.5532,30.6272002 54.656,30.5562002 54.7574,30.4852002 C55.784,29.7569002 56.912,29.4702002 58.1588,29.7047002 C59.3245,29.9220002 60.3395,30.4708002 61.2735,31.1731002 C63.3645,32.7428002 64.9703,34.7527002 66.4039,36.9117002 C66.472,37.0131002 66.5444,37.1116002 66.6153,37.2100002 C66.7283,32.8297002 65.648,28.9416002 62.0641,26.0368002 C64.966,24.3889002 68.004,24.1978002 71.2273,24.9624002 C69.3564,21.2698002 66.8629,18.2434002 63.3312,16.0423002 Z" id="Path"></path>
                    <path d="M62.3285,36.4637002 C62.1142,34.7883002 61.1296,33.6849002 59.5237,33.4054002 C59.3992,34.2366002 59.2746,35.0678002 59.1501,35.8903002 C59.6164,36.1321002 59.6772,36.2146002 59.7713,36.7330002 C59.7974,36.8721002 59.8263,37.0154002 59.8234,37.1573002 C59.7597,39.3410002 59.0835,41.3495002 57.9989,43.2203002 C57.5558,43.9835002 56.8723,44.1920002 56.0151,43.9893002 C55.6922,43.9140002 55.3678,43.8459002 55.0232,43.7677002 C54.9971,43.9212002 54.9696,44.0718002 54.9436,44.2181002 C54.7901,45.0608002 54.3933,46.9983002 53.6664,49.2428002 C53.3073,50.3491002 52.8859,51.3787002 52.4964,52.2417002 C52.3907,52.4691002 52.2835,52.7008002 52.1764,52.9281002 C51.6536,54.0200002 51.2511,54.7121002 51.2511,54.7121002 C51.1454,54.8743002 51.0397,55.0336002 50.9398,55.1972002 C50.2143,56.3788002 49.373,57.4678002 48.3782,58.4365002 C46.3495,60.4146002 43.9573,61.5006002 41.0844,61.4702002 C38.6764,61.4427002 36.2654,61.4905002 33.8559,61.4630002 C32.5975,61.4470002 31.3204,61.4485002 30.0837,61.2429002 C28.1014,60.9127002 26.4593,59.8556002 25.0301,58.4612002 C23.2099,56.6858002 21.9342,54.5543002 20.9018,52.2649002 L18.3445,43.7663002 C18.0129,43.8401002 17.7219,43.8995002 17.4323,43.9675002 C16.4027,44.2065002 15.6888,43.9502002 15.2356,42.9915002 C14.7317,41.9243002 14.29,40.8209002 13.9497,39.6929002 C13.7065,38.8834002 13.6283,38.0117002 13.5675,37.1602002 C13.5313,36.6708002 13.5877,36.1220002 14.2191,35.9033002 C14.0917,35.0634002 13.9686,34.2351002 13.8411,33.3924002 C12.5437,33.6299002 11.6633,34.3235002 11.2912,35.5341002 C11.0957,36.1698002 10.9842,36.8619002 11.0001,37.5251002 C11.0595,39.8058002 11.798,41.9142002 12.7986,43.9357002 C13.4733,45.3012002 14.5174,46.2366002 16.0393,46.5798002 C16.1406,46.6030002 16.2898,46.7102002 16.2985,46.7927002 C16.368,47.3545002 17.4439,50.6272002 17.745,51.5481002 L18.7181,53.7926002 L19.1409,54.6209002 L19.1352,54.6209002 C19.2351,54.8120002 19.2973,54.9322002 19.3596,55.0524002 L19.361,55.0524002 L19.5087,55.3406002 C20.5817,57.3013002 21.8502,59.1055002 23.501,60.6173002 C25.8323,62.7561002 28.5561,63.9898002 31.7504,64.0260002 C34.7059,64.0608002 37.6642,64.0188002 40.6196,64.0463002 C42.4746,64.0622002 44.2831,63.8566002 46.0063,63.1282002 C49.4439,61.6715002 51.7231,59.0085002 53.5621,55.8908002 C53.5621,55.8908002 53.5013,56.0690002 54.7032,53.6131002 C54.987,53.1106002 55.1854,52.5618002 55.4504,51.9521002 L55.4417,51.9521002 C56.1831,50.1334002 56.5958,48.6216002 56.5958,48.6216002 C56.742,48.0453002 56.8738,47.4675002 57.0432,46.8984002 C57.0794,46.7724002 57.2242,46.6175002 57.3473,46.5871002 C58.7982,46.2395002 59.8234,45.3635002 60.504,44.0660002 C61.202,42.7338002 61.7204,41.3321002 62.0607,39.8710002 C62.3213,38.7502002 62.4777,37.6222002 62.3285,36.4637002 Z" id="Path"></path>
                    <path d="M47.8581,55.3209002 C46.6533,55.2659002 45.4833,55.2297002 44.3162,55.1558002 C41.7705,54.9951002 39.2263,54.7243002 36.6778,54.6751002 C34.8243,54.6374002 32.9636,54.8807002 31.1058,54.9994002 C29.2624,55.1167002 27.4205,55.2355002 25.4889,55.3585002 C25.5656,55.0762002 25.6105,54.9082002 25.6597,54.7417002 C26.0174,53.5369002 26.5141,52.3973002 27.2106,51.3445002 C28.2474,49.7792002 29.6708,48.9002002 31.5691,48.8799002 C34.6549,48.8437002 37.7407,48.8191002 40.8264,48.8133002 C41.4346,48.8119002 42.0471,48.8973002 42.6538,48.9683002 C43.779,49.0986002 44.6956,49.6286002 45.4572,50.4511002 C46.5172,51.5965002 47.5554,53.6672002 47.8581,55.3209002 Z" id="Path"></path>
                </g>
                <g id="logo-color" transform="translate(19.910239, 13.995500)" fill="#E17774">
                    <path d="M178.781761,36.0046 L174.523761,36.0046 C173.794761,36.0046 173.110761,35.896 172.476761,35.6802 C171.840761,35.463 171.286761,35.1126 170.814761,34.6261 C170.340761,34.1395 169.968761,33.5241 169.699761,32.7812 C169.428761,32.0384 169.293761,31.1391 169.293761,30.0835 L169.293761,23.1111 C169.293761,22.4899 169.111761,21.9889 168.746761,21.6109 C168.381761,21.233 167.955761,20.9491 167.469761,20.7594 C166.982761,20.5698 166.496761,20.4481 166.009761,20.3945 C165.522761,20.341 165.158761,20.3134 164.914761,20.3134 L164.914761,15.6912 C165.158761,15.6912 165.522761,15.6652 166.009761,15.6102 C166.496761,15.5551 166.982761,15.4335 167.469761,15.2452 C167.955761,15.057 168.381761,14.7717 168.746761,14.3923 C169.111761,14.0144 169.293761,13.5163 169.293761,12.8936 L169.293761,5.8792 C169.293761,4.825 169.421761,3.9272 169.678761,3.1829 C169.936761,2.4401 170.301761,1.8319 170.773761,1.3569 C171.245761,0.8849 171.800761,0.5402 172.435761,0.3245 C173.071761,0.1073 173.766761,0.0001 174.523761,0.0001 L178.781761,0.0001 L178.781761,4.6208 L176.794761,4.6208 C176.171761,4.6208 175.685761,4.7034 175.334761,4.8641 C174.982761,5.0278 174.719761,5.2377 174.544761,5.494 C174.367761,5.7503 174.260761,6.0356 174.219761,6.3469 C174.179761,6.6554 174.159761,6.9479 174.159761,7.2172 L174.159761,13.7451 C174.159761,14.6906 174.024761,15.4335 173.753761,15.9751 C173.482761,16.5166 173.151761,16.9264 172.760761,17.2117 C172.367761,17.4955 171.934761,17.6852 171.462761,17.7793 C170.989761,17.8735 170.537761,17.9343 170.104761,17.9618 L170.104761,18.0429 C170.537761,18.069 170.989761,18.1225 171.462761,18.2051 C171.934761,18.2862 172.367761,18.4686 172.760761,18.7524 C173.151761,19.0363 173.482761,19.4475 173.753761,19.9891 C174.024761,20.5292 174.159761,21.2735 174.159761,22.2176 L174.159761,28.7875 C174.159761,29.0568 174.179761,29.3479 174.219761,29.6592 C174.260761,29.9691 174.367761,30.2529 174.544761,30.5107 C174.719761,30.767 174.982761,30.9769 175.334761,31.1391 C175.685761,31.3013 176.171761,31.3824 176.794761,31.3824 L178.781761,31.3824 L178.781761,36.0046 Z" id="Path"></path>
                    <path d="M187.530761,19.8259 C187.530761,21.3131 187.955761,22.5164 188.807761,23.4345 C189.658761,24.354 190.854761,24.8145 192.395761,24.8145 C193.936761,24.8145 195.132761,24.354 195.983761,23.4345 C196.835761,22.5164 197.260761,21.3131 197.260761,19.8259 C197.260761,18.3417 196.835761,17.1383 195.983761,16.2188 C195.132761,15.3007 193.936761,14.8403 192.395761,14.8403 C190.854761,14.8403 189.658761,15.3007 188.807761,16.2188 C187.955761,17.1383 187.530761,18.3417 187.530761,19.8259 Z M181.935761,9.9748 L187.530761,9.9748 L187.530761,12.5682 L187.611761,12.5682 C187.854761,12.2178 188.171761,11.8587 188.564761,11.4938 C188.955761,11.1289 189.415761,10.7987 189.942761,10.5019 C190.469761,10.2036 191.044761,9.9617 191.665761,9.772 C192.286761,9.5824 192.948761,9.4882 193.652761,9.4882 C195.112761,9.4882 196.435761,9.7373 197.625761,10.2383 C198.814761,10.7394 199.835761,11.4402 200.687761,12.3452 C201.538761,13.2532 202.192761,14.3262 202.653761,15.5701 C203.112761,16.814 203.342761,18.178 203.342761,19.6652 C203.342761,21.0437 203.132761,22.36 202.714761,23.6184 C202.294761,24.8738 201.700761,25.9903 200.930761,26.9634 C200.159761,27.9365 199.220761,28.7141 198.112761,29.2948 C197.003761,29.874 195.747761,30.1665 194.341761,30.1665 C193.070761,30.1665 191.888761,29.9696 190.794761,29.5771 C189.699761,29.1876 188.800761,28.5172 188.097761,27.5716 L188.016761,27.5716 L188.016761,38.9229 L181.935761,38.9229 L181.935761,9.9748 Z" id="Shape"></path>
                    <path d="M216.558761,21.0434 C216.099761,21.0434 215.524761,21.0637 214.837761,21.1042 C214.146761,21.1433 213.484761,21.2592 212.848761,21.4489 C212.214761,21.6386 211.673761,21.921 211.227761,22.3003 C210.782761,22.6797 210.558761,23.2054 210.558761,23.8816 C210.558761,24.6114 210.869761,25.1516 211.490761,25.5034 C212.113761,25.8553 212.762761,26.0305 213.438761,26.0305 C214.031761,26.0305 214.605761,25.9495 215.159761,25.7873 C215.714761,25.6251 216.208761,25.3948 216.641761,25.098 C217.071761,24.8011 217.417761,24.4217 217.675761,23.9627 C217.930761,23.5022 218.058761,22.9621 218.058761,22.3409 L218.058761,21.0434 L216.558761,21.0434 Z M218.058761,27.2064 L217.977761,27.2064 C217.303761,28.2591 216.403761,29.0179 215.281761,29.4755 C214.160761,29.9374 212.976761,30.1662 211.733761,30.1662 C210.814761,30.1662 209.931761,30.0373 209.078761,29.781 C208.226761,29.5233 207.478761,29.1395 206.827761,28.624 C206.179761,28.1128 205.666761,27.4757 205.288761,26.7198 C204.909761,25.9625 204.719761,25.0835 204.719761,24.0858 C204.719761,22.9476 204.929761,21.989 205.349761,21.2056 C205.768761,20.4222 206.334761,19.772 207.052761,19.2609 C207.767761,18.7454 208.584761,18.3471 209.505761,18.0633 C210.423761,17.7795 211.376761,17.571 212.363761,17.4349 C213.348761,17.3002 214.336761,17.2177 215.322761,17.1916 C216.309761,17.1641 217.221761,17.1511 218.058761,17.1511 C218.058761,16.0694 217.675761,15.2121 216.903761,14.5764 C216.133761,13.9422 215.220761,13.6236 214.168761,13.6236 C213.166761,13.6236 212.253761,13.8336 211.429761,14.252 C210.605761,14.672 209.870761,15.2454 209.221761,15.9752 L205.976761,12.6505 C207.113761,11.5963 208.436761,10.8057 209.951761,10.2771 C211.463761,9.7515 213.031761,9.4894 214.654761,9.4894 C216.437761,9.4894 217.903761,9.7109 219.053761,10.1555 C220.202761,10.6029 221.120761,11.2589 221.809761,12.1234 C222.500761,12.9893 222.979761,14.0493 223.248761,15.3062 C223.519761,16.5617 223.654761,18.0155 223.654761,19.6649 L223.654761,29.6796 L218.058761,29.6796 L218.058761,27.2064 Z" id="Shape"></path>
                    <path d="M237.399761,15.7731 C236.507761,14.6639 235.330761,14.1107 233.870761,14.1107 C233.358761,14.1107 232.857761,14.2324 232.370761,14.4756 C231.884761,14.7175 231.640761,15.1374 231.640761,15.7325 C231.640761,16.2191 231.891761,16.5768 232.392761,16.8056 C232.891761,17.0372 233.526761,17.2385 234.296761,17.4137 C235.068761,17.5918 235.892761,17.7801 236.769761,17.9814 C237.648761,18.1856 238.472761,18.5027 239.243761,18.9356 C240.014761,19.3672 240.649761,19.9565 241.150761,20.6979 C241.649761,21.4422 241.898761,22.4371 241.898761,23.678 C241.898761,24.9494 241.622761,25.9978 241.067761,26.8203 C240.512761,27.6457 239.804761,28.3075 238.938761,28.8085 C238.074761,29.3095 237.101761,29.66 236.021761,29.8612 C234.939761,30.064 233.870761,30.1653 232.818761,30.1653 C231.439761,30.1653 230.046761,29.9698 228.642761,29.5774 C227.234761,29.1879 226.047761,28.4899 225.072761,27.4908 L228.763761,23.3957 C229.331761,24.098 229.958761,24.6309 230.648761,24.9958 C231.336761,25.3607 232.141761,25.5446 233.061761,25.5446 C233.763761,25.5446 234.399761,25.4432 234.965761,25.239 C235.534761,25.0363 235.817761,24.6656 235.817761,24.1255 C235.817761,23.6114 235.566761,23.2248 235.068761,22.9699 C234.567761,22.7136 233.931761,22.4964 233.161761,22.3198 C232.392761,22.1445 231.567761,21.9563 230.688761,21.7521 C229.810761,21.5508 228.985761,21.2453 228.214761,20.8413 C227.445761,20.4358 226.810761,19.861 226.310761,19.1181 C225.809761,18.3752 225.559761,17.3804 225.559761,16.138 C225.559761,14.9752 225.796761,13.9746 226.268761,13.1376 C226.742761,12.3006 227.363761,11.6099 228.135761,11.0698 C228.905761,10.5297 229.790761,10.1315 230.790761,9.8737 C231.790761,9.6159 232.803761,9.4885 233.831761,9.4885 C235.129761,9.4885 236.439761,9.6782 237.764761,10.0562 C239.088761,10.4327 240.208761,11.1089 241.128761,12.082 L237.399761,15.7731 Z" id="Path"></path>
                    <path d="M242.224761,3.55271368e-15 L246.601761,3.55271368e-15 C247.278761,3.55271368e-15 247.926761,0.1071 248.548761,0.3258 C249.170761,0.5401 249.718761,0.892 250.191761,1.3785 C250.663761,1.8651 251.035761,2.4805 251.305761,3.2248 C251.575761,3.9677 251.712761,4.864 251.712761,5.9196 L251.712761,12.8935 C251.712761,13.5162 251.887761,14.0157 252.239761,14.3922 C252.589761,14.7716 253.000761,15.0569 253.475761,15.2451 C253.947761,15.4334 254.428761,15.555 254.915761,15.61 C255.401761,15.6651 255.792761,15.6911 256.089761,15.6911 L256.089761,20.3133 C255.792761,20.3133 255.401761,20.3408 254.915761,20.3944 C254.428761,20.448 253.947761,20.5696 253.475761,20.7593 C253.000761,20.949 252.589761,21.2329 252.239761,21.6108 C251.887761,21.9902 251.712761,22.4898 251.712761,23.111 L251.712761,30.1268 C251.712761,31.1796 251.575761,32.0774 251.305761,32.8217 C251.035761,33.566 250.670761,34.1741 250.211761,34.6462 C249.751761,35.1183 249.204761,35.4629 248.569761,35.6816 C247.932761,35.8959 247.237761,36.0045 246.480761,36.0045 L242.224761,36.0045 L242.224761,31.3823 L244.211761,31.3823 C244.832761,31.3823 245.319761,31.3012 245.670761,31.139 C246.021761,30.9783 246.284761,30.7669 246.461761,30.5106 C246.636761,30.2543 246.745761,29.969 246.784761,29.6591 C246.826761,29.3492 246.845761,29.0567 246.845761,28.7874 L246.845761,22.2595 C246.845761,21.3139 246.981761,20.5696 247.252761,20.0295 C247.521761,19.4894 247.853761,19.0767 248.244761,18.7943 C248.636761,18.5091 249.069761,18.3266 249.542761,18.2455 C250.014761,18.1644 250.466761,18.0978 250.899761,18.0428 L250.899761,17.9617 C250.466761,17.9356 250.014761,17.8806 249.542761,17.7995 C249.069761,17.7184 248.636761,17.5345 248.244761,17.2521 C247.853761,16.9698 247.521761,16.5571 247.252761,16.0169 C246.981761,15.4768 246.845761,14.7325 246.845761,13.7855 L246.845761,7.2171 C246.845761,6.9478 246.826761,6.6567 246.784761,6.3468 C246.745761,6.0355 246.636761,5.7517 246.461761,5.4939 C246.284761,5.2376 246.021761,5.0291 245.670761,4.864 C245.319761,4.7033 244.832761,4.6207 244.211761,4.6207 L242.224761,4.6207 L242.224761,3.55271368e-15 Z" id="Path"></path>
                    <path d="M25.9911605,30.0709 C22.4897605,30.0709 19.4286605,27.7366 18.5221605,24.3583 C18.4526605,24.0991 18.3614605,23.992 18.0833605,23.9978 C17.2623605,24.0151 16.4413605,24.0122 15.6217605,23.9992 C15.3610605,23.9934 15.2698605,24.089 15.2032605,24.3352 C14.2388605,27.8988 11.0053605,30.2302 7.28256051,30.0608 C3.76956051,29.9015 0.770760507,27.2269 0.123460507,23.6777 C-0.667139493,19.3408 2.43016051,15.169 6.81336051,14.6621 C10.5174605,14.235 13.9333605,16.4288 15.0685605,19.9837 C15.1728605,20.3139 15.3190605,20.3964 15.6376605,20.3878 C16.4442605,20.3675 17.2536605,20.3631 18.0602605,20.3892 C18.4019605,20.4022 18.5482605,20.3067 18.6582605,19.9678 C19.6892605,16.7531 22.6432605,14.6013 25.9896605,14.6028 C29.6444605,14.6028 32.8316605,17.2035 33.5657605,20.7845 C34.5475605,25.5631 30.8695605,30.0695 25.9911605,30.0709 Z" id="Path" fill-rule="nonzero"></path>
                </g>
            </g>
        </g>
    </g>
</svg>