<svg width="74" height="100" viewBox="0 0 74 100" fill="none" xmlns="http://www.w3.org/2000/svg">
<path fill-rule="evenodd" clip-rule="evenodd" d="M47.8581 55.3209C46.6533 55.2659 45.4833 55.2297 44.3162 55.1558C41.7705 54.9951 39.2263 54.7243 36.6778 54.6751C34.8243 54.6374 32.9636 54.8807 31.1058 54.9994C29.2624 55.1167 27.4205 55.2355 25.4889 55.3585C25.5656 55.0762 25.6105 54.9082 25.6597 54.7417C26.0174 53.5369 26.5141 52.3973 27.2106 51.3445C28.2474 49.7792 29.6708 48.9002 31.5691 48.8799C34.6549 48.8437 37.7407 48.8191 40.8264 48.8133C41.4346 48.8119 42.0471 48.8973 42.6538 48.9683C43.779 49.0986 44.6956 49.6286 45.4572 50.4511C46.5172 51.5965 47.5554 53.6672 47.8581 55.3209Z" fill="white"/>
<path fill-rule="evenodd" clip-rule="evenodd" d="M45.3254 69.8637V72.0909C45.3254 73.4274 44.5464 74.2557 43.207 74.3513C42.5322 74.3991 41.8951 74.2991 41.2681 74.0168C39.836 73.368 38.3894 72.7468 36.9413 72.13C36.7965 72.0677 36.5822 72.0648 36.4389 72.1256C34.9083 72.7772 33.3864 73.452 31.8573 74.1123C31.0435 74.4628 30.2065 74.4613 29.3812 74.1688C28.5094 73.8589 28.0519 73.1841 28.049 72.2574C28.0446 70.721 28.049 69.1846 28.049 67.6482C28.0475 66.2986 28.8309 65.4732 30.1863 65.3632C30.9508 65.3009 31.6459 65.4892 32.3351 65.8048C33.6833 66.4217 35.0444 67.0082 36.4099 67.5888C36.5648 67.654 36.7951 67.6569 36.95 67.5903C38.4936 66.9343 40.0256 66.2479 41.5678 65.5905C42.383 65.243 43.2244 65.2546 44.0425 65.576C44.8766 65.9033 45.3182 66.5332 45.324 67.4411C45.3298 68.2492 45.3254 69.0557 45.3254 69.8637Z" fill="white"/>
<path fill-rule="evenodd" clip-rule="evenodd" d="M70.6688 72.8687C69.5046 71.2006 67.9986 69.8814 66.3551 68.7157C63.0319 66.3525 59.3741 64.638 55.5716 63.2073C55.1821 63.0611 54.9707 63.0958 54.7028 63.4303C54.3654 63.8517 54.028 64.2716 53.6892 64.693L53.6863 64.6872L36.7081 85.8086L23.0864 68.9402C21.5703 67.0562 20.0542 65.1752 18.541 63.2898C18.4107 63.1262 18.3065 63.0191 18.0617 63.1117C14.0565 64.6003 10.2062 66.393 6.73379 68.917C5.12357 70.0856 3.65527 71.4106 2.55042 73.0889C0.917037 75.5708 0.720105 78.1252 2.22316 80.7433C2.99207 82.0813 4.03755 83.1847 5.18584 84.1983C8.02253 86.7035 11.1749 88.7539 14.4692 90.5843C21.4559 94.4694 28.8206 97.4727 36.4025 99.9648C36.6024 100.03 36.863 99.9967 37.0701 99.93C42.9433 98.0201 48.6688 95.7408 54.2206 93.0315C58.3692 91.0071 62.3875 88.7568 66.0611 85.9375C67.6858 84.6921 69.2569 83.386 70.4994 81.7309C72.6511 78.8666 72.7134 75.7967 70.6688 72.8687Z" fill="white"/>
<path fill-rule="evenodd" clip-rule="evenodd" d="M63.3312 16.0423C66.6341 14.587 69.9632 14.6754 73.3892 15.4023C73.3038 15.2734 73.256 15.1981 73.2053 15.1257C71.5213 12.7494 69.6359 10.5455 67.4972 8.566C64.2058 5.52074 60.493 3.16475 56.2474 1.68773C52.4521 0.365651 48.5468 -0.17737 44.5299 0.0731437C42.2058 0.216501 39.9107 0.539418 37.7314 1.37495C36.9726 1.66601 36.3746 1.62981 35.6202 1.36626C31.767 0.0166695 27.782 -0.238189 23.7492 0.190436C19.5528 0.63499 15.6228 1.94114 11.9665 4.05385C7.17645 6.82254 3.36668 10.6382 0.17666 15.1127C0.121635 15.1909 0.0752977 15.2777 0 15.3994C3.42315 14.6739 6.75218 14.587 10.0407 16.0438C6.50457 18.2448 4.0125 21.2771 2.13585 24.9667C5.378 24.1949 8.42031 24.3889 11.3207 26.047C7.47185 28.9662 6.49732 33.9418 6.7348 37.2346C6.813 37.1304 6.87092 37.0536 6.92884 36.9754C7.66589 35.9835 8.36239 34.9568 9.15012 34.0055C10.352 32.5545 11.6972 31.2455 13.3871 30.3578C15.2695 29.3659 17.1143 29.2863 18.8693 30.6706C18.8838 30.6807 18.9128 30.672 18.9128 30.672C18.8172 30.2217 18.7086 29.7728 18.6116 29.3239C18.5232 28.8837 18.4364 28.3885 18.3755 27.912C18.3002 27.1938 18.293 26.4886 18.3654 25.7964C18.7347 22.9278 21.1326 16.1031 36.683 16.0452C52.1176 16.1017 54.5966 22.8279 54.992 25.7327C55.0716 26.4785 55.0644 27.259 54.9702 28.0684C54.8819 28.7027 54.7516 29.3587 54.643 29.8539C54.6053 30.0204 54.5677 30.187 54.53 30.3535C54.4837 30.5504 54.4518 30.672 54.4518 30.672L54.4634 30.6489C54.4605 30.6663 54.4562 30.6807 54.4518 30.6981C54.5532 30.6272 54.656 30.5562 54.7574 30.4852C55.784 29.7569 56.912 29.4702 58.1588 29.7047C59.3245 29.922 60.3395 30.4708 61.2735 31.1731C63.3645 32.7428 64.9703 34.7527 66.4039 36.9117C66.472 37.0131 66.5444 37.1116 66.6153 37.21C66.7283 32.8297 65.648 28.9416 62.0641 26.0368C64.966 24.3889 68.004 24.1978 71.2273 24.9624C69.3564 21.2698 66.8629 18.2434 63.3312 16.0423Z" fill="white"/>
<path fill-rule="evenodd" clip-rule="evenodd" d="M62.3285 36.4637C62.1142 34.7883 61.1296 33.6849 59.5237 33.4054C59.3992 34.2366 59.2746 35.0678 59.1501 35.8903C59.6164 36.1321 59.6772 36.2146 59.7713 36.733C59.7974 36.8721 59.8263 37.0154 59.8234 37.1573C59.7597 39.341 59.0835 41.3495 57.9989 43.2203C57.5558 43.9835 56.8723 44.192 56.0151 43.9893C55.6922 43.914 55.3678 43.8459 55.0232 43.7677C54.9971 43.9212 54.9696 44.0718 54.9436 44.2181C54.7901 45.0608 54.3933 46.9983 53.6664 49.2428C53.3073 50.3491 52.8859 51.3787 52.4964 52.2417C52.3907 52.4691 52.2835 52.7008 52.1764 52.9281C51.6536 54.02 51.2511 54.7121 51.2511 54.7121C51.1454 54.8743 51.0397 55.0336 50.9398 55.1972C50.2143 56.3788 49.373 57.4678 48.3782 58.4365C46.3495 60.4146 43.9573 61.5006 41.0844 61.4702C38.6764 61.4427 36.2654 61.4905 33.8559 61.463C32.5975 61.447 31.3204 61.4485 30.0837 61.2429C28.1014 60.9127 26.4593 59.8556 25.0301 58.4612C23.2099 56.6858 21.9342 54.5543 20.9018 52.2649L18.3445 43.7663C18.0129 43.8401 17.7219 43.8995 17.4323 43.9675C16.4027 44.2065 15.6888 43.9502 15.2356 42.9915C14.7317 41.9243 14.29 40.8209 13.9497 39.6929C13.7065 38.8834 13.6283 38.0117 13.5675 37.1602C13.5313 36.6708 13.5877 36.122 14.2191 35.9033C14.0917 35.0634 13.9686 34.2351 13.8411 33.3924C12.5437 33.6299 11.6633 34.3235 11.2912 35.5341C11.0957 36.1698 10.9842 36.8619 11.0001 37.5251C11.0595 39.8058 11.798 41.9142 12.7986 43.9357C13.4733 45.3012 14.5174 46.2366 16.0393 46.5798C16.1406 46.603 16.2898 46.7102 16.2985 46.7927C16.368 47.3545 17.4439 50.6272 17.745 51.5481L18.7181 53.7926L19.1409 54.6209H19.1352C19.2351 54.812 19.2973 54.9322 19.3596 55.0524H19.361L19.5087 55.3406C20.5817 57.3013 21.8502 59.1055 23.501 60.6173C25.8323 62.7561 28.5561 63.9898 31.7504 64.026C34.7059 64.0608 37.6642 64.0188 40.6196 64.0463C42.4746 64.0622 44.2831 63.8566 46.0063 63.1282C49.4439 61.6715 51.7231 59.0085 53.5621 55.8908C53.5621 55.8908 53.5013 56.069 54.7032 53.6131C54.987 53.1106 55.1854 52.5618 55.4504 51.9521H55.4417C56.1831 50.1334 56.5958 48.6216 56.5958 48.6216C56.742 48.0453 56.8738 47.4675 57.0432 46.8984C57.0794 46.7724 57.2242 46.6175 57.3473 46.5871C58.7982 46.2395 59.8234 45.3635 60.504 44.066C61.202 42.7338 61.7204 41.3321 62.0607 39.871C62.3213 38.7502 62.4777 37.6222 62.3285 36.4637Z" fill="white"/>
<path d="M45.9014 44.0664C42.4 44.0664 39.3389 41.7321 38.4324 38.3538C38.3629 38.0946 38.2717 37.9875 37.9936 37.9933C37.1726 38.0106 36.3516 38.0077 35.532 37.9947C35.2713 37.9889 35.1801 38.0845 35.1135 38.3307C34.1491 41.8943 30.9156 44.2257 27.1928 44.0563C23.6798 43.897 20.681 41.2224 20.0337 37.6732C19.2431 33.3363 22.3404 29.1645 26.7236 28.6576C30.4277 28.2305 33.8436 30.4243 34.9788 33.9792C35.0831 34.3094 35.2293 34.3919 35.5479 34.3833C36.3545 34.363 37.1639 34.3586 37.9705 34.3847C38.3122 34.3977 38.4585 34.3022 38.5685 33.9633C39.5995 30.7486 42.5535 28.5968 45.8999 28.5983C49.5547 28.5983 52.7419 31.199 53.476 34.78C54.4578 39.5586 50.7798 44.065 45.9014 44.0664Z" fill="#E17774"/>
</svg>
