<svg width="236" height="190" viewBox="0 0 236 190" fill="none" xmlns="http://www.w3.org/2000/svg">
<path d="M8.60821 110.852C-1.7995 102.847 -1.7995 87.1534 8.60821 79.1475L105.806 4.38015C112.995 -1.14987 123.005 -1.14987 130.194 4.38016L227.392 79.1475C237.799 87.1534 237.799 102.847 227.392 110.852L130.194 185.62C123.005 191.15 112.995 191.15 105.806 185.62L8.60821 110.852Z" fill="#5AAA67"/>
<path d="M120.29 119.5H119.962L119.663 119.637C118.633 120.111 117.411 120.131 116.337 119.637L116.038 119.5H115.71H115C112.515 119.5 110.5 121.515 110.5 124V132.5C110.5 133.987 111.581 135.22 113 135.459V142.5C113 144.157 114.343 145.5 116 145.5H120C121.657 145.5 123 144.157 123 142.5V135.459C124.419 135.22 125.5 133.987 125.5 132.5V124C125.5 121.515 123.485 119.5 121 119.5H120.29Z" fill="#E17774" stroke="black" stroke-width="3"/>
<path d="M123.5 116C123.5 112.962 121.038 110.5 118 110.5C114.962 110.5 112.5 112.962 112.5 116C112.5 119.038 114.962 121.5 118 121.5C121.038 121.5 123.5 119.038 123.5 116Z" fill="#E17774" stroke="black" stroke-width="3"/>
<path d="M120.29 53.5H119.962L119.663 53.6372C118.633 54.1111 117.411 54.131 116.337 53.6372L116.038 53.5H115.71H115C112.515 53.5 110.5 55.5147 110.5 58V66.5C110.5 67.9865 111.581 69.2205 113 69.4585V76.5C113 78.1569 114.343 79.5 116 79.5H120C121.657 79.5 123 78.1569 123 76.5V69.4585C124.419 69.2205 125.5 67.9865 125.5 66.5V58C125.5 55.5147 123.485 53.5 121 53.5H120.29Z" fill="#EEBECE" stroke="black" stroke-width="3"/>
<path d="M58.985 69.105L60.6866 71.4472L61.8599 70.5947L57.1243 64.0768L55.9511 64.9292L56.3015 65.4115C55.9797 65.3798 55.6092 65.4365 55.1914 65.5741C54.7767 65.716 54.339 65.9543 53.8784 66.289C53.6742 66.4374 53.4901 66.6043 53.3174 66.7962C53.1479 66.9923 53.0041 67.1964 52.8835 67.4234C52.763 67.6504 52.6756 67.8865 52.6127 68.1381C52.5498 68.3896 52.5276 68.6514 52.5397 68.9148C52.5549 69.1825 52.6077 69.4562 52.7067 69.7295C52.8089 70.0072 52.954 70.2801 53.1529 70.5539C53.3518 70.8276 53.5622 71.0532 53.7947 71.2361C54.0272 71.4191 54.2625 71.5602 54.5081 71.6606C54.7536 71.761 55.0052 71.8239 55.2595 71.845C55.5126 71.8735 55.7673 71.8677 56.0161 71.8264C56.2605 71.7882 56.5022 71.7188 56.7369 71.6214C56.9715 71.524 57.1871 71.4005 57.3914 71.2521C57.6434 71.069 57.8654 70.8811 58.0499 70.6873C58.2344 70.4935 58.3952 70.3036 58.5248 70.1165C58.6545 69.9294 58.756 69.7494 58.8296 69.5765C58.9063 69.4079 58.9581 69.2507 58.985 69.105ZM57.1282 69.9761C56.9066 70.1371 56.6747 70.2657 56.4294 70.3576C56.1842 70.4495 55.9385 70.4952 55.6969 70.4915C55.4552 70.4878 55.2218 70.4316 55.0011 70.3198C54.7761 70.2111 54.5705 70.0285 54.3905 69.7809C54.2105 69.5332 54.1005 69.2812 54.056 69.028C54.0115 68.7749 54.027 68.5313 54.0919 68.2916C54.1599 68.0563 54.2718 67.8356 54.4287 67.622C54.5887 67.4128 54.7752 67.2308 54.9924 67.073C55.1402 66.9657 55.2986 66.8638 55.4708 66.7719C55.6387 66.6831 55.8128 66.6031 55.9846 66.538C56.1596 66.4773 56.3365 66.4284 56.5068 66.3977C56.6801 66.3713 56.8436 66.3587 56.9992 66.3718L58.3851 68.2794C58.3709 68.3695 58.3337 68.4828 58.2748 68.6119C58.2191 68.7453 58.1384 68.8902 58.0298 69.0422C57.9243 69.1985 57.7994 69.3556 57.6508 69.5167C57.4979 69.6809 57.3237 69.834 57.1282 69.9761ZM63.884 66.5548C64.1491 66.3622 64.3822 66.153 64.5951 65.9253C64.8037 65.7007 64.9843 65.4832 65.138 65.2653C65.2906 65.0549 65.4107 64.8547 65.506 64.666C65.6 64.4848 65.6582 64.3364 65.6835 64.225L66.097 64.7942L67.2703 63.9418L63.8291 59.2055L62.6559 60.0579L65.0426 63.3429C65.0062 63.4756 64.9449 63.6197 64.8619 63.7796C64.7746 63.9426 64.6691 64.099 64.5474 64.2604C64.4213 64.425 64.2846 64.5841 64.1285 64.7439C63.9725 64.9038 63.8038 65.0463 63.6256 65.1757C63.2128 65.4756 62.8613 65.6315 62.5742 65.6475C62.2871 65.6636 62.0546 65.5537 61.8746 65.306L59.6489 62.2425L58.4757 63.0949L60.8435 66.3539C61.0676 66.6624 61.3017 66.8841 61.5457 67.0189C61.7853 67.1568 62.0368 67.2197 62.2915 67.2139C62.5494 67.2124 62.8092 67.1498 63.0743 67.0303C63.3393 66.9107 63.6103 66.7537 63.884 66.5548ZM68.2036 60.2828L72.7661 56.9679L72.5673 56.6942C72.3115 56.3422 72.0451 56.0578 71.7787 55.8464C71.5122 55.635 71.2406 55.4804 70.9638 55.3828C70.6871 55.2851 70.4138 55.238 70.1441 55.2414C69.8744 55.2448 69.6062 55.287 69.344 55.3646C69.0818 55.4423 68.8235 55.5437 68.5754 55.6774C68.323 55.8143 68.0876 55.9654 67.8616 56.1296C67.6357 56.2938 67.418 56.4785 67.2129 56.6806C67.0067 56.8902 66.8218 57.1108 66.6689 57.3481C66.5116 57.5885 66.3831 57.8411 66.2878 58.1029C66.1913 58.3722 66.1399 58.6486 66.1334 58.9321C66.1226 59.2188 66.1687 59.5106 66.2598 59.8096C66.354 60.1129 66.5138 60.4151 66.7379 60.7236C67.0568 61.1625 67.4065 61.4794 67.7914 61.6711C68.1764 61.8628 68.5756 61.9645 68.987 61.9643C69.4017 61.9684 69.8175 61.892 70.2358 61.7275C70.6541 61.5631 71.0538 61.3457 71.4362 61.0678C71.7968 60.8058 72.0994 60.5461 72.3483 60.2856C72.5929 60.0283 72.7881 59.7669 72.9371 59.506C73.0861 59.245 73.1846 58.9876 73.238 58.7231C73.2946 58.4629 73.3062 58.1955 73.279 57.9297L71.9205 58.2529C71.9546 58.6198 71.8755 58.9495 71.6894 59.2507C71.5032 59.5519 71.2109 59.844 70.8198 60.1281C70.6069 60.2828 70.3912 60.4063 70.1641 60.5049C69.937 60.6035 69.7083 60.6634 69.4856 60.6858C69.2585 60.7114 69.0354 60.6876 68.8183 60.6263C68.6011 60.565 68.3998 60.4523 68.2036 60.2828ZM68.5404 57.0639C68.775 56.8934 69.0037 56.7604 69.2277 56.6574C69.4473 56.5576 69.6641 56.4997 69.8706 56.4824C70.0772 56.4651 70.2722 56.496 70.4645 56.5688C70.6568 56.6415 70.8364 56.77 71.0002 56.9497L67.5935 59.4248C67.4984 59.1752 67.4634 58.9351 67.4852 58.7002C67.5102 58.4696 67.5759 58.2492 67.681 58.0467C67.7818 57.8473 67.9114 57.6602 68.0655 57.4885C68.2184 57.3243 68.3796 57.1807 68.5404 57.0639ZM70.6099 51.4507L75.396 58.0382L76.5605 57.1921L71.7745 50.6046L70.6099 51.4507ZM81.8934 52.4611L83.5951 54.8032L84.7683 53.9508L80.0327 47.4328L78.8595 48.2852L79.2099 48.7676C78.8881 48.7358 78.5177 48.7925 78.0998 48.9301C77.6851 49.0721 77.2475 49.3104 76.7869 49.645C76.5826 49.7934 76.3985 49.9604 76.2259 50.1522C76.0564 50.3484 75.9125 50.5525 75.792 50.7795C75.6714 51.0065 75.5841 51.2426 75.5212 51.4941C75.4582 51.7456 75.436 52.0074 75.4481 52.2708C75.4634 52.5386 75.5162 52.8122 75.6152 53.0855C75.7173 53.3632 75.8625 53.6361 76.0614 53.9099C76.2603 54.1837 76.4707 54.4092 76.7032 54.5922C76.9357 54.7751 77.171 54.9162 77.4165 55.0166C77.6621 55.1171 77.9136 55.18 78.1679 55.201C78.421 55.2296 78.6757 55.2238 78.9245 55.1824C79.169 55.1442 79.4107 55.0748 79.6453 54.9774C79.8799 54.88 80.0956 54.7565 80.2998 54.6081C80.5518 54.425 80.7739 54.2371 80.9584 54.0433C81.1429 53.8495 81.3037 53.6597 81.4333 53.4726C81.5629 53.2854 81.6645 53.1054 81.738 52.9325C81.8147 52.7639 81.8665 52.6068 81.8934 52.4611ZM80.0366 53.3321C79.815 53.4931 79.5832 53.6217 79.3379 53.7136C79.0926 53.8055 78.847 53.8512 78.6053 53.8475C78.3636 53.8439 78.1303 53.7877 77.9096 53.6758C77.6846 53.5671 77.4789 53.3846 77.299 53.1369C77.119 52.8892 77.009 52.6372 76.9644 52.3841C76.9199 52.1309 76.9355 51.8873 77.0003 51.6476C77.0684 51.4123 77.1802 51.1916 77.3371 50.978C77.4971 50.7688 77.6836 50.5869 77.9009 50.429C78.0486 50.3217 78.207 50.2199 78.3792 50.128C78.5471 50.0392 78.7213 49.9591 78.8931 49.894C79.0681 49.8333 79.245 49.7844 79.4152 49.7537C79.5886 49.7273 79.7521 49.7148 79.9077 49.7279L81.2936 51.6355C81.2793 51.7255 81.2422 51.8388 81.1833 51.9679C81.1275 52.1013 81.0469 52.2462 80.9382 52.3982C80.8327 52.5545 80.7079 52.7116 80.5593 52.8727C80.4064 53.0369 80.2322 53.19 80.0366 53.3321ZM86.7925 49.9108C87.0576 49.7183 87.2906 49.5091 87.5036 49.2813C87.7122 49.0567 87.8928 48.8392 88.0465 48.6213C88.199 48.4109 88.3192 48.2108 88.4144 48.0221C88.5085 47.8408 88.5666 47.6924 88.5919 47.581L89.0055 48.1503L90.1787 47.2979L86.7376 42.5615L85.5643 43.4139L87.9511 46.6989C87.9147 46.8316 87.8534 46.9757 87.7704 47.1356C87.683 47.2987 87.5775 47.455 87.4558 47.6164C87.3298 47.781 87.1931 47.9401 87.037 48.1C86.8809 48.2598 86.7123 48.4023 86.5341 48.5318C86.1213 48.8317 85.7698 48.9875 85.4827 49.0035C85.1956 49.0196 84.963 48.9097 84.7831 48.662L82.5574 45.5986L81.3841 46.451L83.7519 49.71C83.9761 50.0185 84.2101 50.2401 84.4541 50.3749C84.6937 50.5128 84.9453 50.5757 85.2 50.5699C85.4578 50.5685 85.7177 50.5058 85.9827 50.3863C86.2478 50.2668 86.5187 50.1097 86.7925 49.9108ZM91.112 43.6389L95.6746 40.324L95.4757 40.0502C95.22 39.6982 94.9536 39.4138 94.6871 39.2024C94.4207 38.991 94.1491 38.8365 93.8723 38.7388C93.5955 38.6411 93.3223 38.594 93.0526 38.5974C92.7829 38.6009 92.5147 38.643 92.2525 38.7207C91.9902 38.7983 91.7319 38.8997 91.4839 39.0334C91.2315 39.1703 90.996 39.3215 90.7701 39.4856C90.5441 39.6498 90.3264 39.8345 90.1214 40.0366C89.9152 40.2462 89.7302 40.4668 89.5773 40.7041C89.42 40.9445 89.2916 41.1972 89.1963 41.4589C89.0998 41.7282 89.0483 42.0046 89.0419 42.2881C89.0311 42.5748 89.0771 42.8667 89.1682 43.1657C89.2624 43.469 89.4222 43.7711 89.6464 44.0797C89.9652 44.5185 90.315 44.8354 90.6999 45.0271C91.0848 45.2188 91.484 45.3205 91.8955 45.3203C92.3101 45.3244 92.726 45.248 93.1442 45.0836C93.5625 44.9191 93.9622 44.7017 94.3446 44.4239C94.7053 44.1618 95.0079 43.9022 95.2568 43.6416C95.5014 43.3843 95.6966 43.123 95.8456 42.862C95.9946 42.6011 96.093 42.3436 96.1465 42.0791C96.203 41.8189 96.2146 41.5515 96.1875 41.2858L94.8289 41.6089C94.8631 41.9758 94.784 42.3055 94.5978 42.6067C94.4117 42.9079 94.1193 43.2 93.7283 43.4841C93.5153 43.6388 93.2997 43.7623 93.0726 43.8609C92.8455 43.9596 92.6168 44.0195 92.3941 44.0419C92.167 44.0674 91.9439 44.0436 91.7267 43.9823C91.5096 43.921 91.3082 43.8084 91.112 43.6389ZM91.4488 40.4199C91.6835 40.2494 91.9122 40.1164 92.1361 40.0135C92.3557 39.9137 92.5726 39.8557 92.7791 39.8384C92.9856 39.8212 93.1807 39.8521 93.373 39.9248C93.5653 39.9976 93.7449 40.126 93.9087 40.3058L90.5019 42.7809C90.4069 42.5313 90.3719 42.2912 90.3937 42.0562C90.4187 41.8256 90.4843 41.6053 90.5895 41.4028C90.6903 41.2034 90.8199 41.0163 90.974 40.8446C91.1269 40.6804 91.2881 40.5367 91.4488 40.4199ZM100.737 39.7799C101.619 39.139 102.203 38.5355 102.477 37.9713C102.754 37.4115 102.707 36.8811 102.338 36.3727C102.139 36.099 101.917 35.9216 101.664 35.8393C101.415 35.7614 101.14 35.7486 100.844 35.7978C100.551 35.8514 100.242 35.9563 99.9146 36.1082C99.5824 36.2632 99.2467 36.4407 98.8999 36.6396C98.617 36.7986 98.3603 36.9387 98.1328 37.0641C97.9041 37.1971 97.7007 37.2918 97.5245 37.36C97.3484 37.4282 97.2006 37.4625 97.0751 37.4542C96.9527 37.4502 96.8536 37.396 96.7746 37.2874C96.7178 37.2092 96.689 37.1239 96.6926 37.0283C96.6919 36.9359 96.7279 36.8301 96.8049 36.7077C96.8808 36.5928 96.9946 36.457 97.1526 36.309C97.3063 36.1642 97.5173 35.9976 97.7736 35.8114C97.9996 35.6472 98.2176 35.5087 98.4309 35.4002C98.6399 35.2949 98.8453 35.212 99.0396 35.1505C99.2295 35.0922 99.4128 35.052 99.5818 35.0288C99.7497 35.0131 99.9045 35.0068 100.041 35.0207L100.278 33.8393C100.095 33.8064 99.8853 33.7925 99.6606 33.8031C99.4315 33.8168 99.1816 33.8656 98.9106 33.9496C98.6397 34.0336 98.3435 34.1559 98.0219 34.3164C97.7036 34.4813 97.3619 34.6964 96.9925 34.9647C96.6493 35.2142 96.3542 35.475 96.1041 35.743C95.8571 36.0154 95.6757 36.2866 95.5524 36.5555C95.4279 36.8318 95.3733 37.1039 95.3854 37.3673C95.4007 37.635 95.4945 37.8921 95.6701 38.143C95.869 38.4167 96.0952 38.591 96.353 38.6626C96.6109 38.7342 96.8857 38.747 97.1831 38.6902C97.4805 38.6335 97.7893 38.5286 98.1171 38.3767C98.445 38.2249 98.772 38.0536 99.1015 37.8674C99.406 37.6926 99.6801 37.5399 99.9088 37.407C100.141 37.2783 100.337 37.1825 100.508 37.1174C100.676 37.0555 100.818 37.0319 100.936 37.039C101.053 37.0537 101.148 37.111 101.227 37.2196C101.293 37.3109 101.327 37.4124 101.321 37.5229C101.315 37.6335 101.265 37.7563 101.178 37.8925C101.091 38.0287 100.957 38.1728 100.777 38.3366C100.597 38.5003 100.367 38.687 100.089 38.8891C99.8243 39.0817 99.5684 39.2411 99.3227 39.3598C99.0802 39.4829 98.8542 39.574 98.6418 39.6288C98.4281 39.6911 98.2342 39.7257 98.0569 39.7284C97.8752 39.7343 97.7165 39.7168 97.5763 39.6792L97.2077 40.8167C97.4 40.8895 97.6164 40.9314 97.8537 40.9383C98.0942 40.9494 98.3612 40.9148 98.6578 40.8388C98.9544 40.7627 99.2774 40.6408 99.6238 40.4688C99.9702 40.2968 100.341 40.0672 100.737 39.7799Z" fill="black"/>
<path d="M141.494 155.318L143.195 157.66L144.368 156.808L139.633 150.29L138.46 151.142L138.81 151.625C138.488 151.593 138.118 151.65 137.7 151.787C137.285 151.929 136.848 152.168 136.387 152.502C136.183 152.651 135.999 152.818 135.826 153.009C135.657 153.206 135.513 153.41 135.392 153.637C135.272 153.864 135.184 154.1 135.121 154.351C135.058 154.603 135.036 154.865 135.048 155.128C135.064 155.396 135.116 155.669 135.215 155.943C135.317 156.22 135.463 156.493 135.662 156.767C135.86 157.041 136.071 157.266 136.303 157.449C136.536 157.632 136.771 157.773 137.017 157.874C137.262 157.974 137.514 158.037 137.768 158.058C138.021 158.087 138.276 158.081 138.525 158.04C138.769 158.001 139.011 157.932 139.245 157.835C139.48 157.737 139.696 157.614 139.9 157.465C140.152 157.282 140.374 157.094 140.559 156.901C140.743 156.707 140.904 156.517 141.033 156.33C141.163 156.143 141.265 155.963 141.338 155.79C141.415 155.621 141.467 155.464 141.494 155.318ZM139.637 156.189C139.415 156.35 139.183 156.479 138.938 156.571C138.693 156.663 138.447 156.708 138.205 156.705C137.964 156.701 137.73 156.645 137.51 156.533C137.285 156.424 137.079 156.242 136.899 155.994C136.719 155.746 136.609 155.494 136.565 155.241C136.52 154.988 136.536 154.744 136.6 154.505C136.669 154.269 136.78 154.049 136.937 153.835C137.097 153.626 137.284 153.444 137.501 153.286C137.649 153.179 137.807 153.077 137.979 152.985C138.147 152.896 138.321 152.816 138.493 152.751C138.668 152.69 138.845 152.642 139.015 152.611C139.189 152.585 139.352 152.572 139.508 152.585L140.894 154.493C140.879 154.583 140.842 154.696 140.783 154.825C140.728 154.959 140.647 155.103 140.538 155.255C140.433 155.412 140.308 155.569 140.159 155.73C140.007 155.894 139.832 156.047 139.637 156.189ZM146.393 152.768C146.658 152.575 146.891 152.366 147.104 152.139C147.312 151.914 147.493 151.696 147.647 151.479C147.799 151.268 147.919 151.068 148.015 150.879C148.109 150.698 148.167 150.55 148.192 150.438L148.606 151.007L149.779 150.155L146.338 145.419L145.164 146.271L147.551 149.556C147.515 149.689 147.454 149.833 147.371 149.993C147.283 150.156 147.178 150.312 147.056 150.474C146.93 150.638 146.793 150.797 146.637 150.957C146.481 151.117 146.312 151.26 146.134 151.389C145.721 151.689 145.37 151.845 145.083 151.861C144.796 151.877 144.563 151.767 144.383 151.519L142.158 148.456L140.984 149.308L143.352 152.567C143.576 152.876 143.81 153.097 144.054 153.232C144.294 153.37 144.545 153.433 144.8 153.427C145.058 153.426 145.318 153.363 145.583 153.243C145.848 153.124 146.119 152.967 146.393 152.768ZM150.712 146.496L155.275 143.181L155.076 142.907C154.82 142.555 154.554 142.271 154.287 142.06C154.021 141.848 153.749 141.694 153.472 141.596C153.196 141.498 152.922 141.451 152.653 141.455C152.383 141.458 152.115 141.5 151.853 141.578C151.59 141.656 151.332 141.757 151.084 141.891C150.832 142.028 150.596 142.179 150.37 142.343C150.144 142.507 149.927 142.692 149.722 142.894C149.515 143.103 149.33 143.324 149.177 143.561C149.02 143.802 148.892 144.054 148.796 144.316C148.7 144.585 148.648 144.862 148.642 145.145C148.631 145.432 148.677 145.724 148.768 146.023C148.863 146.326 149.022 146.628 149.247 146.937C149.565 147.376 149.915 147.693 150.3 147.884C150.685 148.076 151.084 148.178 151.496 148.177C151.91 148.182 152.326 148.105 152.744 147.941C153.163 147.776 153.562 147.559 153.945 147.281C154.305 147.019 154.608 146.759 154.857 146.499C155.102 146.241 155.297 145.98 155.446 145.719C155.595 145.458 155.693 145.201 155.747 144.936C155.803 144.676 155.815 144.409 155.788 144.143L154.429 144.466C154.463 144.833 154.384 145.163 154.198 145.464C154.012 145.765 153.719 146.057 153.328 146.341C153.115 146.496 152.9 146.62 152.673 146.718C152.446 146.817 152.217 146.877 151.994 146.899C151.767 146.925 151.544 146.901 151.327 146.84C151.11 146.778 150.908 146.666 150.712 146.496ZM151.049 143.277C151.284 143.107 151.512 142.974 151.736 142.871C151.956 142.771 152.173 142.713 152.379 142.696C152.586 142.678 152.781 142.709 152.973 142.782C153.165 142.855 153.345 142.983 153.509 143.163L150.102 145.638C150.007 145.388 149.972 145.148 149.994 144.913C150.019 144.683 150.084 144.462 150.19 144.26C150.29 144.061 150.42 143.873 150.574 143.702C150.727 143.538 150.888 143.394 151.049 143.277ZM153.119 137.664L157.905 144.251L159.069 143.405L154.283 136.818L153.119 137.664ZM164.402 138.674L166.104 141.016L167.277 140.164L162.541 133.646L161.368 134.498L161.719 134.981C161.397 134.949 161.026 135.006 160.608 135.143C160.194 135.285 159.756 135.524 159.295 135.858C159.091 136.007 158.907 136.174 158.734 136.365C158.565 136.562 158.421 136.766 158.301 136.993C158.18 137.22 158.093 137.456 158.03 137.707C157.967 137.959 157.945 138.221 157.957 138.484C157.972 138.752 158.025 139.025 158.124 139.299C158.226 139.576 158.371 139.849 158.57 140.123C158.769 140.397 158.979 140.622 159.212 140.805C159.444 140.988 159.68 141.129 159.925 141.23C160.171 141.33 160.422 141.393 160.677 141.414C160.93 141.443 161.184 141.437 161.433 141.396C161.678 141.357 161.919 141.288 162.154 141.191C162.389 141.093 162.604 140.97 162.808 140.821C163.06 140.638 163.282 140.45 163.467 140.257C163.651 140.063 163.812 139.873 163.942 139.686C164.072 139.499 164.173 139.319 164.247 139.146C164.323 138.977 164.375 138.82 164.402 138.674ZM162.545 139.545C162.324 139.706 162.092 139.835 161.847 139.927C161.601 140.019 161.356 140.064 161.114 140.061C160.872 140.057 160.639 140.001 160.418 139.889C160.193 139.78 159.988 139.598 159.808 139.35C159.628 139.102 159.518 138.85 159.473 138.597C159.429 138.344 159.444 138.101 159.509 137.861C159.577 137.626 159.689 137.405 159.846 137.191C160.006 136.982 160.192 136.8 160.409 136.642C160.557 136.535 160.716 136.433 160.888 136.341C161.056 136.252 161.23 136.172 161.402 136.107C161.577 136.047 161.754 135.998 161.924 135.967C162.097 135.941 162.261 135.928 162.416 135.941L163.802 137.849C163.788 137.939 163.751 138.052 163.692 138.181C163.636 138.315 163.556 138.459 163.447 138.611C163.341 138.768 163.216 138.925 163.068 139.086C162.915 139.25 162.741 139.403 162.545 139.545ZM169.301 136.124C169.566 135.931 169.799 135.722 170.012 135.495C170.221 135.27 170.401 135.052 170.555 134.835C170.708 134.624 170.828 134.424 170.923 134.235C171.017 134.054 171.075 133.906 171.101 133.794L171.514 134.364L172.687 133.511L169.246 128.775L168.073 129.627L170.46 132.912C170.423 133.045 170.362 133.189 170.279 133.349C170.192 133.512 170.086 133.668 169.964 133.83C169.838 133.994 169.702 134.153 169.546 134.313C169.39 134.473 169.221 134.616 169.043 134.745C168.63 135.045 168.278 135.201 167.991 135.217C167.704 135.233 167.472 135.123 167.292 134.875L165.066 131.812L163.893 132.664L166.261 135.923C166.485 136.232 166.719 136.453 166.963 136.588C167.202 136.726 167.454 136.789 167.709 136.783C167.966 136.782 168.226 136.719 168.491 136.6C168.756 136.48 169.027 136.323 169.301 136.124ZM173.621 129.852L178.183 126.537L177.984 126.263C177.729 125.911 177.462 125.627 177.196 125.416C176.929 125.204 176.658 125.05 176.381 124.952C176.104 124.854 175.831 124.807 175.561 124.811C175.291 124.814 175.023 124.856 174.761 124.934C174.499 125.012 174.241 125.113 173.992 125.247C173.74 125.384 173.505 125.535 173.279 125.699C173.053 125.863 172.835 126.048 172.63 126.25C172.424 126.459 172.239 126.68 172.086 126.917C171.929 127.158 171.8 127.41 171.705 127.672C171.608 127.941 171.557 128.218 171.55 128.501C171.54 128.788 171.586 129.08 171.677 129.379C171.771 129.682 171.931 129.984 172.155 130.293C172.474 130.732 172.824 131.049 173.209 131.24C173.593 131.432 173.993 131.534 174.404 131.534C174.819 131.538 175.235 131.461 175.653 131.297C176.071 131.132 176.471 130.915 176.853 130.637C177.214 130.375 177.517 130.115 177.765 129.855C178.01 129.598 178.205 129.336 178.354 129.075C178.503 128.814 178.602 128.557 178.655 128.292C178.712 128.032 178.723 127.765 178.696 127.499L177.338 127.822C177.372 128.189 177.293 128.519 177.106 128.82C176.92 129.121 176.628 129.413 176.237 129.697C176.024 129.852 175.808 129.976 175.581 130.074C175.354 130.173 175.125 130.233 174.903 130.255C174.676 130.281 174.452 130.257 174.235 130.196C174.018 130.134 173.817 130.022 173.621 129.852ZM173.957 126.633C174.192 126.463 174.421 126.33 174.645 126.227C174.864 126.127 175.081 126.069 175.288 126.052C175.494 126.034 175.689 126.065 175.882 126.138C176.074 126.211 176.253 126.339 176.417 126.519L173.011 128.994C172.915 128.744 172.88 128.504 172.902 128.269C172.927 128.039 172.993 127.819 173.098 127.616C173.199 127.417 173.328 127.229 173.483 127.058C173.635 126.894 173.797 126.75 173.957 126.633ZM183.245 125.993C184.127 125.352 184.711 124.749 184.985 124.185C185.262 123.625 185.215 123.094 184.846 122.586C184.647 122.312 184.425 122.135 184.173 122.053C183.924 121.975 183.649 121.962 183.353 122.011C183.06 122.065 182.751 122.17 182.423 122.321C182.091 122.476 181.755 122.654 181.408 122.853C181.126 123.012 180.869 123.152 180.641 123.277C180.413 123.41 180.209 123.505 180.033 123.573C179.857 123.641 179.709 123.676 179.584 123.667C179.461 123.663 179.362 123.609 179.283 123.501C179.226 123.422 179.198 123.337 179.201 123.242C179.2 123.149 179.236 123.043 179.314 122.921C179.389 122.806 179.503 122.67 179.661 122.522C179.815 122.377 180.026 122.211 180.282 122.025C180.508 121.86 180.726 121.722 180.94 121.613C181.148 121.508 181.354 121.425 181.548 121.364C181.738 121.305 181.921 121.265 182.09 121.242C182.258 121.226 182.413 121.22 182.549 121.234L182.786 120.053C182.603 120.02 182.394 120.006 182.169 120.016C181.94 120.03 181.69 120.079 181.419 120.163C181.148 120.247 180.852 120.369 180.531 120.53C180.212 120.695 179.871 120.91 179.501 121.178C179.158 121.427 178.863 121.688 178.613 121.956C178.366 122.229 178.184 122.5 178.061 122.769C177.936 123.045 177.882 123.317 177.894 123.581C177.909 123.848 178.003 124.105 178.179 124.356C178.378 124.63 178.604 124.804 178.862 124.876C179.119 124.947 179.394 124.96 179.692 124.903C179.989 124.847 180.298 124.742 180.626 124.59C180.954 124.438 181.281 124.267 181.61 124.081C181.915 123.906 182.189 123.753 182.417 123.62C182.649 123.492 182.845 123.396 183.017 123.331C183.184 123.269 183.327 123.245 183.445 123.252C183.562 123.267 183.656 123.324 183.735 123.433C183.802 123.524 183.835 123.626 183.83 123.736C183.824 123.847 183.773 123.97 183.686 124.106C183.599 124.242 183.465 124.386 183.285 124.55C183.106 124.714 182.876 124.9 182.598 125.102C182.333 125.295 182.077 125.454 181.831 125.573C181.589 125.696 181.363 125.787 181.15 125.842C180.937 125.904 180.743 125.939 180.565 125.942C180.384 125.947 180.225 125.93 180.085 125.892L179.716 127.03C179.909 127.103 180.125 127.145 180.362 127.152C180.603 127.163 180.87 127.128 181.166 127.052C181.463 126.976 181.786 126.854 182.132 126.682C182.479 126.51 182.85 126.28 183.245 125.993Z" fill="black"/>
<path d="M138.516 39.7803L136.733 42.0616L137.876 42.9545L142.836 36.6058L141.694 35.7129L141.326 36.1827C141.268 35.8646 141.112 35.5242 140.864 35.1604C140.613 34.8009 140.264 34.4459 139.815 34.0954C139.616 33.94 139.405 33.809 139.173 33.6959C138.938 33.5871 138.702 33.5051 138.45 33.4517C138.199 33.3984 137.948 33.3795 137.689 33.3884C137.43 33.3972 137.172 33.448 136.922 33.5323C136.669 33.6207 136.42 33.7469 136.185 33.9174C135.946 34.0921 135.724 34.3069 135.515 34.5736C135.307 34.8402 135.148 35.1046 135.037 35.3785C134.925 35.6525 134.854 35.9175 134.825 36.1813C134.796 36.445 134.805 36.7041 134.855 36.9544C134.897 37.2055 134.973 37.4488 135.081 37.6765C135.186 37.901 135.319 38.1142 135.477 38.3129C135.635 38.5116 135.814 38.6848 136.013 38.8403C136.258 39.0321 136.5 39.1937 136.737 39.3176C136.974 39.4416 137.201 39.5438 137.417 39.6168C137.632 39.6898 137.833 39.7379 138.02 39.7609C138.203 39.7881 138.368 39.7946 138.516 39.7803ZM137.167 38.2356C136.951 38.0669 136.763 37.8795 136.607 37.669C136.451 37.4586 136.34 37.2351 136.277 37.0017C136.214 36.7684 136.203 36.5286 136.25 36.2857C136.292 36.0394 136.411 35.7914 136.6 35.5501C136.788 35.3089 137 35.1336 137.231 35.0211C137.462 34.9085 137.701 34.8563 137.949 34.8526C138.194 34.8531 138.437 34.8998 138.685 34.9917C138.931 35.0879 139.157 35.217 139.369 35.3823C139.512 35.4948 139.654 35.619 139.79 35.7592C139.921 35.8961 140.046 36.0414 140.156 36.1887C140.263 36.3401 140.359 36.4967 140.435 36.6519C140.508 36.8112 140.565 36.9649 140.596 37.1181L139.144 38.9762C139.054 38.9873 138.934 38.9828 138.794 38.9617C138.65 38.9449 138.489 38.9074 138.313 38.8448C138.133 38.7865 137.948 38.7098 137.752 38.6113C137.552 38.5096 137.357 38.3844 137.167 38.2356ZM142.318 43.7867C142.576 43.9884 142.841 44.1548 143.119 44.2967C143.392 44.4353 143.651 44.549 143.903 44.6366C144.147 44.7253 144.373 44.7856 144.58 44.8251C144.78 44.8656 144.939 44.8806 145.053 44.8742L144.62 45.4287L145.763 46.3215L149.367 41.7081L148.224 40.8153L145.724 44.015C145.587 44.0166 145.431 43.9974 145.255 43.9617C145.074 43.9227 144.895 43.8644 144.706 43.7919C144.513 43.7161 144.322 43.6285 144.126 43.5226C143.929 43.4166 143.745 43.2937 143.572 43.1582C143.17 42.844 142.923 42.5491 142.829 42.2775C142.734 42.006 142.776 41.7521 142.964 41.5109L145.295 38.527L144.153 37.6342L141.672 40.8085C141.438 41.109 141.289 41.3951 141.227 41.6668C141.16 41.9352 141.169 42.1943 141.245 42.4375C141.317 42.685 141.449 42.9175 141.637 43.1393C141.825 43.3611 142.051 43.5783 142.318 43.7867ZM149.537 46.2101L153.981 49.6822L154.19 49.4156C154.457 49.0727 154.657 48.7382 154.787 48.4238C154.917 48.1094 154.991 47.8058 155.008 47.5128C155.026 47.2198 154.996 46.9442 154.918 46.6858C154.841 46.4275 154.726 46.1814 154.579 45.9507C154.432 45.72 154.264 45.4997 154.067 45.2981C153.865 45.0932 153.655 44.9085 153.435 44.7366C153.215 44.5646 152.978 44.4063 152.727 44.2649C152.468 44.1244 152.205 44.0075 151.935 43.9259C151.661 43.841 151.382 43.7871 151.105 43.7677C150.819 43.7492 150.539 43.7759 150.265 43.8478C149.986 43.9165 149.719 44.0412 149.456 44.2111C149.191 44.3853 148.944 44.6222 148.709 44.9227C148.375 45.3502 148.167 45.7737 148.089 46.1966C148.011 46.6194 148.023 47.0312 148.137 47.4267C148.247 47.8264 148.435 48.2051 148.709 48.5618C148.982 48.9185 149.301 49.2428 149.674 49.5338C150.025 49.8083 150.358 50.0276 150.677 50.1951C150.992 50.3592 151.297 50.4748 151.589 50.5461C151.881 50.6174 152.155 50.6411 152.424 50.6196C152.69 50.6022 152.95 50.5397 153.198 50.4403L152.513 49.2235C152.17 49.3575 151.831 49.3723 151.49 49.2764C151.149 49.1805 150.788 48.9799 150.407 48.6823C150.2 48.5203 150.021 48.347 149.864 48.1559C149.707 47.9648 149.586 47.7615 149.503 47.5535C149.416 47.3423 149.377 47.1213 149.376 46.8956C149.375 46.67 149.428 46.4454 149.537 46.2101ZM152.724 45.6466C152.953 45.8251 153.144 46.0083 153.304 46.1952C153.461 46.3788 153.576 46.5713 153.65 46.765C153.723 46.9588 153.747 47.1548 153.731 47.3597C153.714 47.5646 153.64 47.7727 153.512 47.9797L150.194 45.3871C150.407 45.227 150.629 45.1271 150.86 45.0833C151.089 45.0438 151.319 45.0462 151.543 45.0914C151.762 45.1334 151.978 45.2064 152.185 45.3072C152.385 45.4089 152.568 45.5242 152.724 45.6466ZM158.69 46.0887L153.677 52.5052L154.812 53.3914L159.825 46.975L158.69 46.0887ZM160.829 57.2137L159.047 59.495L160.19 60.3878L165.15 54.0391L164.007 53.1462L163.64 53.6161C163.582 53.2979 163.425 52.9575 163.178 52.5937C162.927 52.2342 162.577 51.8792 162.129 51.5287C161.93 51.3733 161.719 51.2423 161.487 51.1292C161.251 51.0204 161.015 50.9384 160.764 50.8851C160.513 50.8318 160.262 50.8128 160.002 50.8217C159.743 50.8305 159.486 50.8813 159.236 50.9656C158.982 51.0541 158.734 51.1802 158.499 51.3507C158.26 51.5254 158.037 51.7402 157.829 52.0069C157.621 52.2735 157.462 52.5379 157.35 52.8119C157.238 53.0858 157.168 53.3508 157.139 53.6146C157.11 53.8783 157.119 54.1374 157.169 54.3877C157.211 54.6389 157.287 54.8821 157.395 55.1099C157.499 55.3343 157.632 55.5475 157.791 55.7462C157.949 55.9449 158.127 56.1182 158.326 56.2736C158.572 56.4654 158.813 56.627 159.051 56.7509C159.288 56.8749 159.515 56.9771 159.73 57.0502C159.946 57.1232 160.147 57.1712 160.333 57.1942C160.517 57.2215 160.682 57.2279 160.829 57.2137ZM159.48 55.6689C159.264 55.5002 159.077 55.3128 158.921 55.1024C158.765 54.8919 158.653 54.6684 158.59 54.4351C158.527 54.2017 158.517 53.9619 158.564 53.719C158.606 53.4727 158.725 53.2247 158.913 52.9834C159.102 52.7422 159.314 52.5669 159.545 52.4544C159.776 52.3418 160.014 52.2896 160.263 52.2859C160.508 52.2864 160.75 52.3331 160.999 52.4251C161.244 52.5212 161.471 52.6503 161.682 52.8157C161.826 52.9281 161.968 53.0523 162.103 53.1925C162.235 53.3294 162.36 53.4748 162.47 53.622C162.577 53.7734 162.672 53.93 162.749 54.0852C162.822 54.2446 162.879 54.3983 162.909 54.5514L161.458 56.4095C161.367 56.4206 161.248 56.4161 161.108 56.3951C160.964 56.3783 160.803 56.3407 160.626 56.2781C160.447 56.2198 160.262 56.1431 160.066 56.0447C159.866 55.9429 159.671 55.8177 159.48 55.6689ZM164.631 61.22C164.889 61.4217 165.155 61.5881 165.432 61.73C165.706 61.8686 165.965 61.9823 166.216 62.07C166.461 62.1586 166.686 62.2189 166.894 62.2585C167.094 62.2989 167.253 62.3139 167.367 62.3075L166.933 62.862L168.076 63.7548L171.681 59.1414L170.538 58.2486L168.038 61.4484C167.9 61.4499 167.745 61.4308 167.568 61.395C167.388 61.356 167.208 61.2977 167.019 61.2252C166.827 61.1494 166.636 61.0618 166.439 60.9559C166.243 60.8499 166.059 60.7271 165.886 60.5915C165.483 60.2773 165.237 59.9824 165.142 59.7108C165.048 59.4393 165.089 59.1855 165.278 58.9442L167.609 55.9603L166.466 55.0675L163.986 58.2418C163.751 58.5423 163.603 58.8284 163.541 59.1001C163.474 59.3685 163.483 59.6276 163.559 59.8708C163.631 60.1183 163.763 60.3508 163.951 60.5727C164.139 60.7945 164.364 61.0117 164.631 61.22ZM171.851 63.6434L176.295 67.1155L176.503 66.8489C176.771 66.5061 176.971 66.1716 177.101 65.8572C177.231 65.5428 177.304 65.2391 177.322 64.9461C177.339 64.6531 177.309 64.3775 177.232 64.1192C177.154 63.8608 177.04 63.6147 176.893 63.384C176.746 63.1533 176.577 62.933 176.38 62.7314C176.179 62.5265 175.969 62.3419 175.749 62.1699C175.529 61.998 175.291 61.8396 175.04 61.6982C174.782 61.5578 174.519 61.4408 174.249 61.3592C173.974 61.2743 173.696 61.2205 173.418 61.201C173.133 61.1825 172.853 61.2092 172.579 61.2811C172.3 61.3498 172.032 61.4745 171.77 61.6445C171.504 61.8186 171.258 62.0555 171.023 62.356C170.689 62.7835 170.481 63.207 170.403 63.6299C170.325 64.0527 170.337 64.4645 170.45 64.86C170.561 65.2597 170.749 65.6384 171.022 65.9951C171.296 66.3518 171.615 66.6762 171.987 66.9672C172.338 67.2416 172.672 67.4609 172.991 67.6284C173.305 67.7925 173.61 67.9081 173.902 67.9794C174.194 68.0507 174.469 68.0744 174.738 68.0529C175.004 68.0356 175.264 67.973 175.512 67.8737L174.827 66.6568C174.483 66.7908 174.145 66.8056 173.804 66.7097C173.463 66.6138 173.102 66.4133 172.721 66.1156C172.513 65.9536 172.335 65.7803 172.178 65.5892C172.02 65.3981 171.9 65.1948 171.817 64.9869C171.73 64.7756 171.691 64.5546 171.69 64.329C171.689 64.1033 171.742 63.8787 171.851 63.6434ZM175.038 63.0799C175.266 63.2585 175.457 63.4417 175.618 63.6286C175.774 63.8121 175.89 64.0046 175.963 64.1984C176.037 64.3921 176.061 64.5882 176.044 64.793C176.027 64.9979 175.953 65.206 175.826 65.413L172.507 62.8205C172.721 62.6603 172.942 62.5604 173.174 62.5167C173.403 62.4771 173.633 62.4795 173.856 62.5247C174.076 62.5667 174.291 62.6397 174.499 62.7405C174.699 62.8422 174.881 62.9575 175.038 63.0799ZM178.213 71.8314C179.072 72.5027 179.813 72.8977 180.431 73.0055C181.046 73.1175 181.543 72.9264 181.93 72.4312C182.138 72.1646 182.247 71.9024 182.257 71.6372C182.263 71.3763 182.2 71.1085 182.071 70.8374C181.938 70.5705 181.752 70.3025 181.516 70.0292C181.275 69.7527 181.012 69.4789 180.726 69.2003C180.495 68.9723 180.289 68.7641 180.106 68.5799C179.915 68.3967 179.768 68.2273 179.654 68.0768C179.54 67.9263 179.466 67.7937 179.44 67.6707C179.41 67.5519 179.434 67.4418 179.517 67.336C179.577 67.2598 179.651 67.2086 179.743 67.1857C179.832 67.1595 179.944 67.1649 180.083 67.2053C180.214 67.2466 180.376 67.3185 180.562 67.4296C180.743 67.5374 180.962 67.6943 181.211 67.8894C181.431 68.0614 181.625 68.2328 181.788 68.4079C181.946 68.5797 182.083 68.7543 182.195 68.9241C182.304 69.0907 182.393 69.2557 182.462 69.4118C182.523 69.5688 182.572 69.7159 182.596 69.8507L183.797 69.753C183.778 69.5678 183.734 69.3628 183.662 69.1497C183.586 68.9333 183.47 68.7065 183.314 68.4692C183.159 68.2319 182.96 67.9808 182.717 67.716C182.47 67.4555 182.17 67.1863 181.81 66.9052C181.475 66.644 181.143 66.4322 180.817 66.2657C180.487 66.1034 180.176 66.0038 179.884 65.9593C179.584 65.9158 179.307 65.9383 179.057 66.0225C178.804 66.111 178.583 66.2721 178.39 66.5101C178.182 66.7767 178.077 67.0422 178.079 67.3097C178.081 67.5773 178.145 67.845 178.281 68.1152C178.418 68.3855 178.604 68.6535 178.84 68.9267C179.076 69.2 179.331 69.4672 179.601 69.7325C179.853 69.9771 180.075 70.1985 180.266 70.3817C180.454 70.5691 180.6 70.731 180.71 70.8782C180.815 71.0221 180.877 71.1523 180.903 71.2678C180.921 71.3842 180.892 71.491 180.809 71.5968C180.74 71.6857 180.652 71.7463 180.544 71.771C180.436 71.7958 180.304 71.7813 180.149 71.7353C179.994 71.6893 179.819 71.5999 179.612 71.4722C179.405 71.3446 179.162 71.1754 178.891 70.9638C178.633 70.7621 178.409 70.5599 178.227 70.3565C178.042 70.1573 177.892 69.9653 177.781 69.7761C177.662 69.5879 177.575 69.4111 177.524 69.2414C177.468 69.0683 177.441 68.911 177.439 68.7659L176.244 68.7251C176.227 68.93 176.246 69.1495 176.305 69.3795C176.361 69.6138 176.467 69.8609 176.622 70.125C176.777 70.3892 176.983 70.6661 177.244 70.9517C177.505 71.2373 177.828 71.5305 178.213 71.8314Z" fill="black"/>
<path d="M55.5157 125.78L53.7333 128.062L54.8761 128.954L59.8363 122.606L58.6935 121.713L58.3265 122.183C58.2683 121.865 58.1117 121.524 57.8642 121.16C57.6134 120.801 57.2637 120.446 56.8151 120.095C56.6162 119.94 56.4049 119.809 56.1729 119.696C55.9376 119.587 55.7018 119.505 55.4504 119.452C55.1989 119.398 54.9479 119.379 54.6888 119.388C54.4297 119.397 54.1719 119.448 53.922 119.532C53.6689 119.621 53.4203 119.747 53.1849 119.917C52.9461 120.092 52.7238 120.307 52.5155 120.574C52.3071 120.84 52.1483 121.105 52.0365 121.379C51.9247 121.652 51.854 121.917 51.8251 122.181C51.7963 122.445 51.8051 122.704 51.855 122.954C51.8973 123.206 51.9731 123.449 52.0814 123.677C52.1855 123.901 52.3188 124.114 52.4772 124.313C52.6355 124.512 52.8136 124.685 53.0126 124.84C53.258 125.032 53.4998 125.194 53.737 125.318C53.9741 125.442 54.201 125.544 54.4166 125.617C54.6322 125.69 54.8332 125.738 55.0197 125.761C55.2029 125.788 55.3682 125.795 55.5157 125.78ZM54.1666 124.236C53.9508 124.067 53.7632 123.879 53.6073 123.669C53.4513 123.459 53.3397 123.235 53.2766 123.002C53.2135 122.768 53.2032 122.529 53.2499 122.286C53.2924 122.039 53.4112 121.791 53.5996 121.55C53.7881 121.309 54 121.134 54.2311 121.021C54.4622 120.908 54.7006 120.856 54.9489 120.853C55.1939 120.853 55.4368 120.9 55.6854 120.992C55.9306 121.088 56.1569 121.217 56.3685 121.382C56.5124 121.495 56.654 121.619 56.7898 121.759C56.9214 121.896 57.0464 122.041 57.1563 122.189C57.2629 122.34 57.3587 122.497 57.4351 122.652C57.5082 122.811 57.5654 122.965 57.5957 123.118L56.144 124.976C56.0535 124.987 55.9343 124.983 55.794 124.962C55.6504 124.945 55.4889 124.907 55.3128 124.845C55.1335 124.786 54.948 124.71 54.7523 124.611C54.5523 124.51 54.3571 124.384 54.1666 124.236ZM59.3175 129.787C59.5757 129.988 59.841 130.155 60.1186 130.297C60.392 130.435 60.6509 130.549 60.9027 130.637C61.147 130.725 61.3725 130.786 61.5802 130.825C61.7803 130.866 61.939 130.881 62.053 130.874L61.6198 131.429L62.7626 132.321L66.367 127.708L65.2242 126.815L62.7243 130.015C62.5867 130.017 62.4313 129.997 62.2548 129.962C62.0739 129.923 61.8946 129.864 61.7059 129.792C61.5129 129.716 61.3223 129.628 61.1256 129.523C60.9289 129.417 60.7455 129.294 60.5719 129.158C60.1699 128.844 59.9232 128.549 59.8286 128.277C59.7341 128.006 59.7756 127.752 59.9641 127.511L62.2954 124.527L61.1526 123.634L58.6725 126.808C58.4377 127.109 58.2892 127.395 58.2269 127.667C58.1603 127.935 58.1692 128.194 58.245 128.437C58.3175 128.685 58.4493 128.917 58.6373 129.139C58.8252 129.361 59.0509 129.578 59.3175 129.787ZM66.5371 132.21L70.9812 135.682L71.1896 135.416C71.4574 135.073 71.6574 134.738 71.7872 134.424C71.9169 134.109 71.9906 133.806 72.0082 133.513C72.0258 133.22 71.9958 132.944 71.9181 132.686C71.8405 132.427 71.7261 132.181 71.5792 131.951C71.4322 131.72 71.2636 131.5 71.0666 131.298C70.8655 131.093 70.6553 130.909 70.4352 130.737C70.2151 130.565 69.9776 130.406 69.7268 130.265C69.4685 130.124 69.2054 130.007 68.9352 129.926C68.6607 129.841 68.3824 129.787 68.1045 129.768C67.8191 129.749 67.5392 129.776 67.2649 129.848C66.9864 129.916 66.7185 130.041 66.4562 130.211C66.1906 130.385 65.9442 130.622 65.7094 130.923C65.3754 131.35 65.1672 131.774 65.0891 132.197C65.0109 132.619 65.0232 133.031 65.1368 133.427C65.2471 133.826 65.4352 134.205 65.7086 134.562C65.9819 134.918 66.3011 135.243 66.6736 135.534C67.0248 135.808 67.3579 136.028 67.6769 136.195C67.9917 136.359 68.2967 136.475 68.5886 136.546C68.8805 136.617 69.1551 136.641 69.4242 136.62C69.6899 136.602 69.9501 136.54 70.1981 136.44L69.5129 135.223C69.1697 135.357 68.831 135.372 68.4901 135.276C68.1493 135.18 67.7879 134.98 67.407 134.682C67.1996 134.52 67.0214 134.347 66.864 134.156C66.7067 133.965 66.586 133.761 66.5031 133.554C66.4159 133.342 66.3773 133.121 66.3764 132.896C66.3755 132.67 66.4283 132.445 66.5371 132.21ZM69.7242 131.647C69.9528 131.825 70.1437 132.008 70.3044 132.195C70.4608 132.379 70.5763 132.571 70.6498 132.765C70.7234 132.959 70.7474 133.155 70.7305 133.36C70.7136 133.565 70.6396 133.773 70.512 133.98L67.1937 131.387C67.4075 131.227 67.6286 131.127 67.8605 131.083C68.089 131.044 68.3189 131.046 68.5426 131.091C68.762 131.133 68.9776 131.206 69.1851 131.307C69.3851 131.409 69.5676 131.524 69.7242 131.647ZM75.6904 132.089L70.6773 138.505L71.8117 139.391L76.8247 132.975L75.6904 132.089ZM77.8293 143.214L76.047 145.495L77.1897 146.388L82.1499 140.039L81.0071 139.146L80.6401 139.616C80.5819 139.298 80.4253 138.957 80.1778 138.594C79.9271 138.234 79.5774 137.879 79.1287 137.529C78.9298 137.373 78.7186 137.242 78.4866 137.129C78.2513 137.02 78.0154 136.938 77.764 136.885C77.5126 136.832 77.2615 136.813 77.0024 136.822C76.7433 136.831 76.4855 136.881 76.2356 136.966C75.9825 137.054 75.734 137.18 75.4985 137.351C75.2598 137.525 75.0374 137.74 74.8291 138.007C74.6208 138.274 74.4619 138.538 74.3501 138.812C74.2384 139.086 74.1676 139.351 74.1388 139.615C74.1099 139.878 74.1188 140.137 74.1686 140.388C74.211 140.639 74.2867 140.882 74.3951 141.11C74.4991 141.334 74.6325 141.548 74.7908 141.746C74.9491 141.945 75.1273 142.118 75.3262 142.274C75.5717 142.465 75.8135 142.627 76.0506 142.751C76.2878 142.875 76.5146 142.977 76.7302 143.05C76.9458 143.123 77.1468 143.171 77.3333 143.194C77.5165 143.221 77.6819 143.228 77.8293 143.214ZM76.4802 141.669C76.2644 141.5 76.0768 141.313 75.9209 141.102C75.765 140.892 75.6533 140.668 75.5902 140.435C75.5272 140.202 75.5168 139.962 75.5635 139.719C75.606 139.473 75.7248 139.225 75.9133 138.983C76.1018 138.742 76.3137 138.567 76.5447 138.454C76.7758 138.342 77.0143 138.29 77.2625 138.286C77.5075 138.286 77.7505 138.333 77.999 138.425C78.2442 138.521 78.4705 138.65 78.6822 138.816C78.8261 138.928 78.9676 139.052 79.1034 139.192C79.235 139.329 79.36 139.475 79.4699 139.622C79.5765 139.773 79.6723 139.93 79.7487 140.085C79.8219 140.245 79.879 140.398 79.9093 140.551L78.4576 142.409C78.3671 142.421 78.248 142.416 78.1076 142.395C77.964 142.378 77.8025 142.341 77.6265 142.278C77.4471 142.22 77.2617 142.143 77.0659 142.045C76.8659 141.943 76.6707 141.818 76.4802 141.669ZM81.6311 147.22C81.8893 147.422 82.1546 147.588 82.4323 147.73C82.7057 147.869 82.9645 147.982 83.2163 148.07C83.4606 148.159 83.6861 148.219 83.8938 148.258C84.0939 148.299 84.2526 148.314 84.3667 148.308L83.9335 148.862L85.0762 149.755L88.6806 145.141L87.5379 144.249L85.0379 147.448C84.9004 147.45 84.745 147.431 84.5684 147.395C84.3876 147.356 84.2082 147.298 84.0195 147.225C83.8265 147.149 83.6359 147.062 83.4392 146.956C83.2426 146.85 83.0591 146.727 82.8856 146.591C82.4835 146.277 82.2368 145.982 82.1422 145.711C82.0477 145.439 82.0892 145.185 82.2777 144.944L84.609 141.96L83.4662 141.067L80.9861 144.242C80.7514 144.542 80.6028 144.828 80.5405 145.1C80.474 145.368 80.4828 145.628 80.5586 145.871C80.6311 146.118 80.763 146.351 80.9509 146.573C81.1388 146.794 81.3645 147.012 81.6311 147.22ZM88.8508 149.643L93.2949 153.115L93.5032 152.849C93.771 152.506 93.971 152.172 94.1008 151.857C94.2306 151.543 94.3042 151.239 94.3218 150.946C94.3394 150.653 94.3094 150.377 94.2318 150.119C94.1541 149.861 94.0397 149.615 93.8928 149.384C93.7458 149.153 93.5772 148.933 93.3803 148.731C93.1791 148.526 92.9689 148.342 92.7488 148.17C92.5288 147.998 92.2912 147.84 92.0404 147.698C91.7821 147.558 91.519 147.441 91.2488 147.359C90.9744 147.274 90.6961 147.22 90.4182 147.201C90.1327 147.182 89.8529 147.209 89.5785 147.281C89.3 147.35 89.0321 147.474 88.7699 147.644C88.5043 147.819 88.2578 148.056 88.0231 148.356C87.6891 148.783 87.4809 149.207 87.4027 149.63C87.3245 150.053 87.3368 150.464 87.4504 150.86C87.5607 151.26 87.7488 151.638 88.0222 151.995C88.2956 152.352 88.6147 152.676 88.9872 152.967C89.3385 153.242 89.6715 153.461 89.9905 153.628C90.3053 153.793 90.6103 153.908 90.9023 153.979C91.1942 154.051 91.4688 154.074 91.7378 154.053C92.0035 154.036 92.2637 153.973 92.5117 153.874L91.8266 152.657C91.4833 152.791 91.1446 152.806 90.8037 152.71C90.4629 152.614 90.1015 152.413 89.7206 152.116C89.5132 151.954 89.3351 151.78 89.1777 151.589C89.0203 151.398 88.8997 151.195 88.8167 150.987C88.7296 150.776 88.691 150.555 88.69 150.329C88.6891 150.103 88.7419 149.879 88.8508 149.643ZM92.0379 149.08C92.2664 149.258 92.4573 149.442 92.618 149.629C92.7745 149.812 92.8899 150.005 92.9635 150.198C93.037 150.392 93.0611 150.588 93.0441 150.793C93.0272 150.998 92.9533 151.206 92.8256 151.413L89.5074 148.82C89.7211 148.66 89.9423 148.56 90.1741 148.517C90.4027 148.477 90.6326 148.479 90.8562 148.525C91.0756 148.567 91.2912 148.64 91.4988 148.74C91.6988 148.842 91.8813 148.958 92.0379 149.08ZM95.2132 157.831C96.0724 158.503 96.8134 158.898 97.4313 159.005C98.0458 159.117 98.5427 158.926 98.9296 158.431C99.1379 158.165 99.2473 157.902 99.2568 157.637C99.2631 157.376 99.1996 157.109 99.0706 156.837C98.9384 156.57 98.7524 156.302 98.516 156.029C98.2755 155.753 98.0123 155.479 97.7255 155.2C97.4947 154.972 97.2893 154.764 97.106 154.58C96.9151 154.397 96.768 154.227 96.6539 154.077C96.5398 153.926 96.4661 153.794 96.4395 153.671C96.4096 153.552 96.4344 153.442 96.517 153.336C96.5765 153.26 96.6506 153.209 96.7435 153.186C96.8321 153.159 96.9437 153.165 97.0826 153.205C97.2139 153.247 97.3758 153.318 97.5617 153.43C97.7433 153.537 97.9615 153.694 98.2112 153.889C98.4313 154.061 98.6245 154.233 98.7876 154.408C98.9465 154.58 99.0827 154.754 99.1954 154.924C99.3039 155.091 99.393 155.256 99.4619 155.412C99.5233 155.569 99.5719 155.716 99.5961 155.851L100.797 155.753C100.778 155.568 100.734 155.363 100.662 155.15C100.586 154.933 100.47 154.706 100.314 154.469C100.159 154.232 99.9597 153.981 99.7167 153.716C99.4704 153.455 99.1695 153.186 98.8098 152.905C98.4754 152.644 98.1433 152.432 97.8167 152.266C97.4868 152.103 97.1761 152.004 96.8837 151.959C96.5837 151.916 96.3071 151.938 96.0573 152.023C95.8041 152.111 95.5828 152.272 95.3901 152.51C95.1818 152.777 95.0766 153.042 95.0789 153.31C95.0811 153.577 95.1446 153.845 95.2811 154.115C95.4176 154.385 95.6036 154.653 95.8399 154.927C96.0763 155.2 96.331 155.467 96.6008 155.732C96.8528 155.977 97.0751 156.198 97.266 156.382C97.4535 156.569 97.5997 156.731 97.7096 156.878C97.8153 157.022 97.8772 157.152 97.9028 157.268C97.9209 157.384 97.892 157.491 97.8093 157.597C97.7399 157.686 97.6516 157.746 97.5437 157.771C97.4358 157.796 97.3039 157.781 97.149 157.735C96.9941 157.689 96.8186 157.6 96.6116 157.472C96.4046 157.345 96.1619 157.175 95.8911 156.964C95.6329 156.762 95.4091 156.56 95.2272 156.356C95.042 156.157 94.8922 155.965 94.781 155.776C94.6622 155.588 94.5754 155.411 94.524 155.241C94.4683 155.068 94.4413 154.911 94.4388 154.766L93.2438 154.725C93.2268 154.93 93.2461 155.15 93.305 155.38C93.3605 155.614 93.4674 155.861 93.6223 156.125C93.7772 156.389 93.9834 156.666 94.2442 156.952C94.505 157.237 94.828 157.53 95.2132 157.831Z" fill="black"/>
<path d="M33.7236 87.6758V101H36.8965V95.4541H45.4658V101H48.6299V87.6758H45.4658V92.7559H36.8965V87.6758H33.7236ZM59.6777 101.272C60.4336 101.272 61.1631 101.211 61.8662 101.088C62.5693 100.974 63.2285 100.789 63.8525 100.534C64.4678 100.288 65.0303 99.9717 65.54 99.5938C66.041 99.2158 66.4805 98.7764 66.8496 98.2578C67.21 97.748 67.4912 97.168 67.6934 96.5088C67.8955 95.8584 67.9922 95.1377 67.9922 94.3379C67.9922 93.5381 67.8867 92.8174 67.6846 92.1582C67.4824 91.5078 67.1924 90.9277 66.832 90.4092C66.4629 89.8994 66.0234 89.4512 65.5137 89.0732C64.9951 88.6953 64.4326 88.3877 63.8174 88.1416C63.2021 87.8955 62.543 87.7109 61.8486 87.5879C61.1455 87.4736 60.4248 87.4121 59.6777 87.4121C58.9307 87.4121 58.21 87.4736 57.5156 87.5879C56.8125 87.7109 56.1533 87.8955 55.5469 88.1416C54.9316 88.3877 54.3691 88.6953 53.8594 89.0732C53.3408 89.4512 52.9014 89.8994 52.541 90.4092C52.1719 90.9277 51.8906 91.5078 51.6885 92.1582C51.4863 92.8174 51.3809 93.5381 51.3809 94.3379C51.3809 95.1377 51.4775 95.8584 51.6797 96.5088C51.8818 97.168 52.1631 97.748 52.5234 98.2578C52.8838 98.7764 53.3232 99.2158 53.833 99.5938C54.334 99.9717 54.8965 100.288 55.5117 100.534C56.127 100.789 56.7861 100.974 57.4893 101.088C58.1924 101.211 58.9219 101.272 59.6777 101.272ZM59.6777 98.6445C58.8516 98.6445 58.1221 98.5391 57.4805 98.3369C56.8389 98.1348 56.2939 97.8359 55.8545 97.458C55.415 97.0801 55.0811 96.6318 54.8525 96.1045C54.624 95.5771 54.5098 94.9883 54.5098 94.3379C54.5098 93.6875 54.624 93.0986 54.8525 92.5801C55.0811 92.0615 55.415 91.6133 55.8545 91.2441C56.2939 90.8838 56.8389 90.6025 57.4805 90.4004C58.1221 90.207 58.8516 90.1104 59.6777 90.1104C60.5039 90.1104 61.2422 90.207 61.8838 90.4004C62.5254 90.6025 63.0615 90.8838 63.501 91.2441C63.9404 91.6133 64.2744 92.0615 64.5029 92.5801C64.7314 93.0986 64.8457 93.6875 64.8457 94.3379C64.8457 94.9883 64.7314 95.5771 64.5029 96.1045C64.2744 96.6318 63.9404 97.0801 63.501 97.458C63.0615 97.8359 62.5254 98.1348 61.8838 98.3369C61.2422 98.5391 60.5039 98.6445 59.6777 98.6445ZM70.708 87.6758V101H73.6875V90.9365L78.8115 101H81.8789L87.0205 91.0684V101H90.1846V87.6758H85.7812L80.499 97.8008L75.3223 87.6758H70.708ZM101.232 101.272C101.988 101.272 102.718 101.211 103.421 101.088C104.124 100.974 104.783 100.789 105.407 100.534C106.022 100.288 106.585 99.9717 107.095 99.5938C107.596 99.2158 108.035 98.7764 108.404 98.2578C108.765 97.748 109.046 97.168 109.248 96.5088C109.45 95.8584 109.547 95.1377 109.547 94.3379C109.547 93.5381 109.441 92.8174 109.239 92.1582C109.037 91.5078 108.747 90.9277 108.387 90.4092C108.018 89.8994 107.578 89.4512 107.068 89.0732C106.55 88.6953 105.987 88.3877 105.372 88.1416C104.757 87.8955 104.098 87.7109 103.403 87.5879C102.7 87.4736 101.979 87.4121 101.232 87.4121C100.485 87.4121 99.7646 87.4736 99.0703 87.5879C98.3672 87.7109 97.708 87.8955 97.1016 88.1416C96.4863 88.3877 95.9238 88.6953 95.4141 89.0732C94.8955 89.4512 94.4561 89.8994 94.0957 90.4092C93.7266 90.9277 93.4453 91.5078 93.2432 92.1582C93.041 92.8174 92.9355 93.5381 92.9355 94.3379C92.9355 95.1377 93.0322 95.8584 93.2344 96.5088C93.4365 97.168 93.7178 97.748 94.0781 98.2578C94.4385 98.7764 94.8779 99.2158 95.3877 99.5938C95.8887 99.9717 96.4512 100.288 97.0664 100.534C97.6816 100.789 98.3408 100.974 99.0439 101.088C99.7471 101.211 100.477 101.272 101.232 101.272ZM101.232 98.6445C100.406 98.6445 99.6768 98.5391 99.0352 98.3369C98.3936 98.1348 97.8486 97.8359 97.4092 97.458C96.9697 97.0801 96.6357 96.6318 96.4072 96.1045C96.1787 95.5771 96.0645 94.9883 96.0645 94.3379C96.0645 93.6875 96.1787 93.0986 96.4072 92.5801C96.6357 92.0615 96.9697 91.6133 97.4092 91.2441C97.8486 90.8838 98.3936 90.6025 99.0352 90.4004C99.6768 90.207 100.406 90.1104 101.232 90.1104C102.059 90.1104 102.797 90.207 103.438 90.4004C104.08 90.6025 104.616 90.8838 105.056 91.2441C105.495 91.6133 105.829 92.0615 106.058 92.5801C106.286 93.0986 106.4 93.6875 106.4 94.3379C106.4 94.9883 106.286 95.5771 106.058 96.1045C105.829 96.6318 105.495 97.0801 105.056 97.458C104.616 97.8359 104.08 98.1348 103.438 98.3369C102.797 98.5391 102.059 98.6445 101.232 98.6445ZM112.263 87.6758V101H115.312V91.4814L124.198 101H127.301V87.6758H124.269V96.8076L115.778 87.6758H112.263ZM136.046 95.4102V101H139.219V95.4102L145.854 87.6758H142.251L137.663 92.9844L133.128 87.6758H129.454L136.046 95.4102ZM147.981 87.6758V101H150.961V90.9365L156.085 101H159.152L164.294 91.0684V101H167.458V87.6758H163.055L157.772 97.8008L152.596 87.6758H147.981ZM170.815 87.6758V101H183.938V98.3721H173.988V95.4717H181.96V92.9141H173.988V90.3828H183.656V87.6758H170.815ZM193.526 101.255C194.484 101.255 195.328 101.202 196.066 101.097C196.796 100.991 197.438 100.842 197.974 100.648C198.51 100.464 198.967 100.235 199.336 99.9717C199.696 99.7168 199.995 99.4268 200.215 99.1191C200.435 98.8115 200.593 98.4775 200.689 98.1348C200.786 97.792 200.83 97.4316 200.83 97.0713C200.83 96.5 200.725 96.0166 200.522 95.6035C200.32 95.1904 200.039 94.8389 199.688 94.5488C199.327 94.2588 198.914 94.0215 198.448 93.8369C197.974 93.6523 197.464 93.5029 196.928 93.3887C196.392 93.2744 195.838 93.1865 195.267 93.1162C194.695 93.0547 194.133 92.9932 193.579 92.9316C192.867 92.8613 192.243 92.791 191.725 92.7207C191.197 92.6592 190.767 92.5713 190.424 92.457C190.081 92.3428 189.835 92.2021 189.668 92.0176C189.501 91.8418 189.422 91.6045 189.422 91.3057C189.422 90.8486 189.729 90.5059 190.345 90.2773C190.96 90.0576 191.918 89.9434 193.228 89.9434C193.869 89.9434 194.44 89.9785 194.933 90.0488C195.416 90.1279 195.838 90.2334 196.198 90.374C196.55 90.5146 196.84 90.6816 197.068 90.8838C197.297 91.0859 197.473 91.3145 197.596 91.5693L200.514 90.5498C200.408 90.3125 200.268 90.0752 200.101 89.8291C199.925 89.5918 199.705 89.3545 199.441 89.1172C199.178 88.8799 198.861 88.6602 198.492 88.458C198.123 88.2559 197.684 88.0713 197.183 87.9219C196.682 87.7725 196.102 87.6494 195.451 87.5527C194.801 87.4648 194.062 87.4209 193.245 87.4209C192.129 87.4209 191.136 87.5088 190.283 87.6934C189.422 87.8779 188.701 88.1416 188.112 88.4932C187.523 88.8447 187.084 89.2754 186.785 89.7852C186.478 90.3037 186.328 90.8926 186.328 91.5605C186.328 92.1143 186.425 92.5889 186.627 92.9844C186.82 93.3887 187.084 93.7314 187.427 94.0127C187.77 94.3027 188.165 94.54 188.622 94.7246C189.07 94.9092 189.554 95.0674 190.072 95.1816C190.591 95.2959 191.127 95.3926 191.681 95.4629C192.234 95.5332 192.771 95.5947 193.307 95.6475C194.054 95.7266 194.704 95.7969 195.258 95.8672C195.812 95.9463 196.269 96.043 196.638 96.1572C196.998 96.2803 197.271 96.4385 197.455 96.623C197.64 96.8164 197.728 97.0713 197.728 97.3789C197.728 97.625 197.648 97.8359 197.49 98.0205C197.332 98.2051 197.086 98.3633 196.743 98.4951C196.4 98.627 195.952 98.7236 195.416 98.7852C194.88 98.8467 194.221 98.8818 193.456 98.8818C192.674 98.8818 191.997 98.8291 191.426 98.7148C190.854 98.6094 190.38 98.46 189.993 98.2666C189.598 98.082 189.29 97.8535 189.062 97.5898C188.833 97.3262 188.666 97.0361 188.561 96.7285L185.59 97.3877C185.748 97.9062 185.994 98.3984 186.328 98.8643C186.662 99.3301 187.137 99.7432 187.743 100.095C188.35 100.455 189.132 100.736 190.072 100.938C191.013 101.149 192.164 101.255 193.526 101.255Z" fill="black"/>
<path d="M123.5 50C123.5 46.9624 121.038 44.5 118 44.5C114.962 44.5 112.5 46.9624 112.5 50C112.5 53.0376 114.962 55.5 118 55.5C121.038 55.5 123.5 53.0376 123.5 50Z" fill="#EEBECE" stroke="black" stroke-width="3"/>
</svg>
