<svg width="295" height="200" viewBox="0 0 295 200" fill="none" xmlns="http://www.w3.org/2000/svg">
<path d="M257.209 160.539V182.507C257.209 192.168 249.463 200 239.908 200H53.6332C44.0781 200 36.3322 192.168 36.3322 182.507V160.31C15.0447 151.733 0 130.704 0 106.122V93.8775C0 69.2957 15.0447 48.2667 36.3322 39.6899V17.4927C36.3322 7.83179 44.0781 0 53.6332 0L239.908 0C249.463 0 257.209 7.83179 257.209 17.4927V39.4612C278.801 47.8882 294.118 69.0743 294.118 93.8775V106.122C294.118 130.926 278.801 152.112 257.209 160.539Z" fill="#EFC65F"/>
<path d="M75.3262 25.5488V33H77.1582V28.2422C77.2881 28.0986 77.459 27.9551 77.6709 27.8115C77.8828 27.6748 78.1289 27.5518 78.416 27.4492C78.7031 27.3467 79.0312 27.2715 79.3936 27.21C79.7559 27.1553 80.1592 27.1348 80.6035 27.1484C80.6377 27.1484 80.6787 27.1484 80.7402 27.1553L80.9111 27.1689C80.9658 27.1758 81.0137 27.1758 81.0615 27.1826C81.1094 27.1895 81.1367 27.1895 81.1504 27.1895L81.1777 25.4258L81.0547 25.4121C80.5352 25.3916 80.0703 25.4189 79.6533 25.4941C79.2363 25.5693 78.8672 25.6787 78.5459 25.8086C78.2246 25.9453 77.9443 26.1025 77.7188 26.2803C77.4863 26.458 77.3018 26.6426 77.1582 26.8271V25.5488H75.3262ZM84.2197 29.9307H91.3975V29.5C91.3975 28.9463 91.3359 28.4541 91.2197 28.0371C91.1035 27.6201 90.9395 27.2578 90.7275 26.9502C90.5156 26.6426 90.2695 26.3896 89.9893 26.1914C89.709 25.9932 89.4014 25.8359 89.0732 25.7197C88.7451 25.6035 88.4033 25.5146 88.0479 25.4668C87.6855 25.4189 87.3301 25.3984 86.9746 25.3984C86.6191 25.3984 86.2568 25.4258 85.8945 25.4805C85.5254 25.542 85.1699 25.6309 84.835 25.7607C84.4932 25.8906 84.1719 26.0547 83.8779 26.2529C83.5771 26.458 83.3174 26.7041 83.0986 26.9912C82.873 27.2783 82.7021 27.6133 82.5723 27.9893C82.4424 28.3721 82.3809 28.8027 82.3809 29.2881C82.3809 29.9785 82.5039 30.5664 82.7568 31.0518C83.0098 31.5371 83.3447 31.9404 83.7686 32.248C84.1924 32.5625 84.6777 32.7949 85.2314 32.9385C85.7852 33.082 86.3594 33.1572 86.9609 33.1572C87.5283 33.1572 88.0342 33.1162 88.4854 33.0342C88.9297 32.9521 89.3262 32.8291 89.6748 32.6719C90.0234 32.5146 90.3174 32.3232 90.5703 32.0908C90.8232 31.8652 91.0352 31.5986 91.2061 31.3047L89.5654 30.6211C89.3262 31.0244 88.998 31.3047 88.5811 31.4756C88.1641 31.6465 87.6445 31.7285 87.0293 31.7285C86.6943 31.7285 86.3799 31.6943 86.0723 31.626C85.7646 31.5576 85.4844 31.4482 85.2383 31.3047C84.9854 31.1611 84.7734 30.9697 84.5957 30.7441C84.418 30.5186 84.2949 30.252 84.2197 29.9307ZM86.9746 26.8682C87.3438 26.8682 87.6787 26.9023 87.9863 26.9639C88.2871 27.0254 88.5537 27.1279 88.7793 27.2646C89.0049 27.4014 89.1826 27.5791 89.3262 27.7979C89.4697 28.0166 89.5586 28.2832 89.5928 28.5908H84.2334C84.3223 28.2627 84.4658 27.9893 84.6641 27.7637C84.8623 27.5449 85.0947 27.3672 85.3545 27.2373C85.6074 27.1074 85.8809 27.0117 86.168 26.9502C86.4482 26.8955 86.7217 26.8682 86.9746 26.8682ZM93.3047 22.6367V33H95.1367V22.6367H93.3047ZM99.8809 33.1367C100.25 33.1367 100.626 33.1094 101.009 33.0547C101.385 33.0068 101.747 32.9316 102.089 32.8359C102.431 32.7402 102.745 32.624 103.025 32.4941C103.306 32.3643 103.538 32.2207 103.716 32.0635C103.723 32.2617 103.743 32.4395 103.777 32.5967C103.812 32.7607 103.846 32.8975 103.887 33H105.719C105.685 32.9043 105.65 32.8018 105.63 32.6924C105.609 32.583 105.589 32.46 105.568 32.3164C105.548 32.1797 105.541 32.0225 105.534 31.8516C105.527 31.6807 105.521 31.4756 105.521 31.25V28.2422C105.521 27.7705 105.452 27.3604 105.309 27.0049C105.165 26.6494 104.946 26.3555 104.646 26.1162C104.345 25.877 103.962 25.6992 103.49 25.5762C103.019 25.46 102.458 25.3984 101.802 25.3984C101.234 25.3984 100.715 25.4326 100.243 25.501C99.7715 25.5762 99.3545 25.665 98.9854 25.7744C98.6162 25.8906 98.3018 26.0137 98.0352 26.1504C97.7686 26.2939 97.5498 26.4307 97.3789 26.5605L98.2607 27.791C98.418 27.6885 98.6162 27.5791 98.8555 27.4766C99.0947 27.374 99.3613 27.2852 99.6553 27.2031C99.9492 27.1211 100.257 27.0527 100.578 26.998C100.899 26.9502 101.228 26.9229 101.549 26.9229C101.945 26.9229 102.28 26.9434 102.554 26.9912C102.827 27.0391 103.053 27.1074 103.224 27.1963C103.395 27.2852 103.524 27.3945 103.6 27.5176C103.675 27.6406 103.716 27.7773 103.716 27.9346V28.0986C103.121 28.1328 102.554 28.1738 102 28.2217C101.446 28.2695 100.92 28.3379 100.435 28.4268C99.9492 28.5156 99.498 28.6318 99.0947 28.7617C98.6914 28.8984 98.3428 29.0625 98.0488 29.2607C97.7549 29.459 97.5293 29.6982 97.3721 29.9648C97.208 30.2383 97.126 30.5527 97.126 30.915C97.126 31.3115 97.2012 31.6465 97.3447 31.9268C97.4883 32.207 97.6865 32.4395 97.9395 32.6172C98.1855 32.7949 98.4795 32.9248 98.8145 33.0068C99.1494 33.0957 99.5049 33.1367 99.8809 33.1367ZM100.537 31.6807C99.9902 31.6807 99.5869 31.6055 99.3271 31.4619C99.0605 31.3184 98.9307 31.1064 98.9307 30.833C98.9307 30.5938 99.0469 30.3955 99.2861 30.2383C99.5254 30.0811 99.8535 29.9443 100.277 29.835C100.701 29.7324 101.207 29.6436 101.795 29.582C102.376 29.5205 103.019 29.4658 103.716 29.418V30.9014C103.606 30.9834 103.436 31.0723 103.21 31.1611C102.978 31.2568 102.711 31.3389 102.417 31.4141C102.123 31.4893 101.809 31.5576 101.48 31.6055C101.152 31.6533 100.838 31.6807 100.537 31.6807ZM111.803 33.1094C112.035 33.1094 112.274 33.1025 112.514 33.0889C112.753 33.0752 112.979 33.0547 113.19 33.0342C113.396 33.0137 113.573 32.9932 113.724 32.9727C113.874 32.9521 113.97 32.9385 114.018 32.9316V31.4482C113.956 31.4619 113.854 31.4756 113.717 31.4893C113.58 31.5098 113.437 31.5234 113.279 31.5371C113.122 31.5508 112.965 31.5645 112.808 31.5713C112.65 31.5781 112.527 31.585 112.432 31.585C112.213 31.585 112.021 31.5645 111.864 31.5303C111.7 31.4961 111.57 31.4277 111.468 31.3252C111.365 31.2295 111.283 31.0996 111.235 30.9287C111.188 30.7578 111.16 30.5459 111.16 30.2861V27.0254H114.141V25.5488H111.16V22.9785H109.308V25.5488H107.072V27.0254H109.308V30.7305C109.308 31.1201 109.355 31.4688 109.444 31.7627C109.533 32.0566 109.67 32.3027 109.868 32.501C110.066 32.6992 110.319 32.8496 110.641 32.9521C110.955 33.0547 111.345 33.1094 111.803 33.1094ZM116.301 25.5488V33H118.133V25.5488H116.301ZM116.273 22.835V24.4482H118.167V22.835H116.273ZM124.757 33.1572C125.133 33.1572 125.509 33.1299 125.885 33.0684C126.261 33.0068 126.616 32.9111 126.965 32.7812C127.313 32.6514 127.635 32.4873 127.942 32.2822C128.243 32.084 128.503 31.8379 128.729 31.5508C128.954 31.2637 129.125 30.9287 129.255 30.5527C129.385 30.1768 129.446 29.7598 129.446 29.2881C129.446 28.8096 129.385 28.3789 129.255 28.0029C129.125 27.627 128.954 27.292 128.729 27.0049C128.503 26.7178 128.243 26.4717 127.942 26.2666C127.642 26.0615 127.32 25.8975 126.972 25.7676C126.623 25.6377 126.261 25.5488 125.885 25.4873C125.509 25.4258 125.133 25.3984 124.757 25.3984C124.381 25.3984 124.005 25.4258 123.629 25.4873C123.253 25.5488 122.891 25.6377 122.542 25.7676C122.193 25.8975 121.872 26.0615 121.571 26.2666C121.271 26.4717 121.011 26.7178 120.792 27.0049C120.566 27.292 120.396 27.627 120.266 28.0029C120.136 28.3789 120.074 28.8096 120.074 29.2881C120.074 29.7598 120.136 30.1836 120.266 30.5596C120.396 30.9355 120.566 31.2637 120.792 31.5508C121.011 31.8379 121.271 32.084 121.578 32.2822C121.879 32.4873 122.2 32.6514 122.549 32.7812C122.897 32.9111 123.26 33.0068 123.636 33.0684C124.012 33.1299 124.381 33.1572 124.757 33.1572ZM124.757 31.6396C124.34 31.6396 123.957 31.585 123.608 31.4688C123.26 31.3525 122.959 31.1953 122.713 30.9834C122.46 30.7783 122.269 30.5322 122.132 30.2451C121.995 29.958 121.927 29.6436 121.927 29.3018C121.927 28.9326 121.995 28.6045 122.139 28.3105C122.275 28.0234 122.467 27.7773 122.72 27.5723C122.966 27.374 123.26 27.2168 123.608 27.1074C123.957 27.0049 124.34 26.9502 124.757 26.9502C125.174 26.9502 125.557 27.0049 125.905 27.1143C126.254 27.2305 126.548 27.3877 126.801 27.5928C127.047 27.7979 127.238 28.0439 127.375 28.3311C127.512 28.625 127.58 28.9463 127.58 29.3018C127.58 29.6641 127.512 29.9854 127.375 30.2725C127.238 30.5664 127.047 30.8125 126.801 31.0107C126.555 31.209 126.261 31.3662 125.912 31.4756C125.563 31.585 125.181 31.6396 124.757 31.6396ZM131.312 25.5488V33H133.145V27.8867C133.281 27.7773 133.452 27.6748 133.664 27.5723C133.869 27.4697 134.095 27.3809 134.348 27.3057C134.601 27.2305 134.86 27.1758 135.141 27.1279C135.421 27.0869 135.694 27.0664 135.975 27.0664C136.624 27.0664 137.109 27.1621 137.424 27.3604C137.731 27.5586 137.889 27.8525 137.889 28.2422V33H139.741V27.873C139.741 27.3877 139.666 26.9912 139.516 26.6699C139.365 26.3486 139.16 26.0957 138.894 25.9043C138.627 25.7197 138.306 25.583 137.943 25.5078C137.581 25.4326 137.185 25.3984 136.761 25.3984C136.344 25.3984 135.94 25.4326 135.558 25.5078C135.168 25.583 134.819 25.6719 134.505 25.7812C134.184 25.8906 133.91 26.0068 133.671 26.1299C133.432 26.2529 133.261 26.3623 133.145 26.4648V25.5488H131.312ZM148.895 33.1367C149.298 33.1367 149.667 33.1094 150.009 33.0479C150.344 32.9863 150.651 32.9111 150.925 32.8154C151.191 32.7197 151.431 32.6104 151.636 32.4873C151.841 32.3711 152.012 32.248 152.142 32.1182C152.155 32.4805 152.21 32.7744 152.306 33H154.199C154.11 32.7676 154.049 32.501 154.028 32.207C154.001 31.9131 153.987 31.5986 153.987 31.2773V22.6367H152.142V26.2256C151.827 25.9795 151.417 25.7812 150.904 25.624C150.392 25.4736 149.817 25.3984 149.188 25.3984C148.662 25.3984 148.149 25.4873 147.65 25.665C147.151 25.8428 146.714 26.0957 146.331 26.4238C145.941 26.7588 145.634 27.1621 145.401 27.6338C145.169 28.1123 145.053 28.6523 145.053 29.2471C145.053 29.8896 145.162 30.457 145.388 30.9424C145.606 31.4277 145.9 31.8379 146.263 32.1592C146.625 32.4805 147.035 32.7266 147.493 32.8906C147.951 33.0547 148.416 33.1367 148.895 33.1367ZM149.592 31.626C149.236 31.626 148.901 31.585 148.58 31.4961C148.259 31.4072 147.972 31.2705 147.726 31.0859C147.479 30.9014 147.281 30.6689 147.138 30.3887C146.994 30.1084 146.919 29.7666 146.919 29.377C146.919 28.9873 146.994 28.6455 147.138 28.3516C147.281 28.0576 147.479 27.8184 147.726 27.6201C147.972 27.4287 148.252 27.2852 148.573 27.1826C148.895 27.0869 149.223 27.0391 149.564 27.0391C149.797 27.0391 150.036 27.0527 150.275 27.0869C150.515 27.1211 150.747 27.1689 150.973 27.2305C151.198 27.2988 151.417 27.3809 151.615 27.4766C151.813 27.5791 151.991 27.6885 152.142 27.8184V30.8193C152.066 30.9014 151.95 30.9902 151.793 31.0791C151.636 31.1748 151.444 31.2637 151.219 31.3389C150.993 31.4209 150.747 31.4893 150.474 31.5439C150.193 31.5986 149.899 31.626 149.592 31.626ZM158.656 33.1367C159.025 33.1367 159.401 33.1094 159.784 33.0547C160.16 33.0068 160.522 32.9316 160.864 32.8359C161.206 32.7402 161.521 32.624 161.801 32.4941C162.081 32.3643 162.313 32.2207 162.491 32.0635C162.498 32.2617 162.519 32.4395 162.553 32.5967C162.587 32.7607 162.621 32.8975 162.662 33H164.494C164.46 32.9043 164.426 32.8018 164.405 32.6924C164.385 32.583 164.364 32.46 164.344 32.3164C164.323 32.1797 164.316 32.0225 164.31 31.8516C164.303 31.6807 164.296 31.4756 164.296 31.25V28.2422C164.296 27.7705 164.228 27.3604 164.084 27.0049C163.94 26.6494 163.722 26.3555 163.421 26.1162C163.12 25.877 162.737 25.6992 162.266 25.5762C161.794 25.46 161.233 25.3984 160.577 25.3984C160.01 25.3984 159.49 25.4326 159.019 25.501C158.547 25.5762 158.13 25.665 157.761 25.7744C157.392 25.8906 157.077 26.0137 156.811 26.1504C156.544 26.2939 156.325 26.4307 156.154 26.5605L157.036 27.791C157.193 27.6885 157.392 27.5791 157.631 27.4766C157.87 27.374 158.137 27.2852 158.431 27.2031C158.725 27.1211 159.032 27.0527 159.354 26.998C159.675 26.9502 160.003 26.9229 160.324 26.9229C160.721 26.9229 161.056 26.9434 161.329 26.9912C161.603 27.0391 161.828 27.1074 161.999 27.1963C162.17 27.2852 162.3 27.3945 162.375 27.5176C162.45 27.6406 162.491 27.7773 162.491 27.9346V28.0986C161.896 28.1328 161.329 28.1738 160.775 28.2217C160.222 28.2695 159.695 28.3379 159.21 28.4268C158.725 28.5156 158.273 28.6318 157.87 28.7617C157.467 28.8984 157.118 29.0625 156.824 29.2607C156.53 29.459 156.305 29.6982 156.147 29.9648C155.983 30.2383 155.901 30.5527 155.901 30.915C155.901 31.3115 155.977 31.6465 156.12 31.9268C156.264 32.207 156.462 32.4395 156.715 32.6172C156.961 32.7949 157.255 32.9248 157.59 33.0068C157.925 33.0957 158.28 33.1367 158.656 33.1367ZM159.312 31.6807C158.766 31.6807 158.362 31.6055 158.103 31.4619C157.836 31.3184 157.706 31.1064 157.706 30.833C157.706 30.5938 157.822 30.3955 158.062 30.2383C158.301 30.0811 158.629 29.9443 159.053 29.835C159.477 29.7324 159.982 29.6436 160.57 29.582C161.151 29.5205 161.794 29.4658 162.491 29.418V30.9014C162.382 30.9834 162.211 31.0723 161.985 31.1611C161.753 31.2568 161.486 31.3389 161.192 31.4141C160.898 31.4893 160.584 31.5576 160.256 31.6055C159.928 31.6533 159.613 31.6807 159.312 31.6807ZM166.477 25.5488V33H168.309V27.8867C168.445 27.7773 168.616 27.6748 168.828 27.5723C169.033 27.4697 169.259 27.3809 169.512 27.3057C169.765 27.2305 170.024 27.1758 170.305 27.1279C170.585 27.0869 170.858 27.0664 171.139 27.0664C171.788 27.0664 172.273 27.1621 172.588 27.3604C172.896 27.5586 173.053 27.8525 173.053 28.2422V33H174.905V27.873C174.905 27.3877 174.83 26.9912 174.68 26.6699C174.529 26.3486 174.324 26.0957 174.058 25.9043C173.791 25.7197 173.47 25.583 173.107 25.5078C172.745 25.4326 172.349 25.3984 171.925 25.3984C171.508 25.3984 171.104 25.4326 170.722 25.5078C170.332 25.583 169.983 25.6719 169.669 25.7812C169.348 25.8906 169.074 26.0068 168.835 26.1299C168.596 26.2529 168.425 26.3623 168.309 26.4648V25.5488H166.477ZM180.853 33.1572C182.24 33.1572 183.293 32.9727 183.997 32.5967C184.701 32.2275 185.05 31.6465 185.05 30.8467C185.05 30.416 184.954 30.0674 184.756 29.7939C184.558 29.5273 184.284 29.3086 183.942 29.1377C183.601 28.9736 183.204 28.8506 182.753 28.7617C182.295 28.6729 181.816 28.6045 181.311 28.5498C180.9 28.502 180.531 28.4541 180.203 28.4131C179.868 28.3789 179.588 28.3242 179.355 28.2627C179.123 28.2012 178.945 28.126 178.822 28.0234C178.699 27.9277 178.638 27.7979 178.638 27.627C178.638 27.5039 178.672 27.3945 178.747 27.2988C178.815 27.2031 178.932 27.1211 179.103 27.0527C179.267 26.9912 179.485 26.9365 179.759 26.9023C180.025 26.8682 180.367 26.8545 180.771 26.8545C181.126 26.8545 181.454 26.875 181.755 26.9229C182.049 26.9707 182.322 27.0391 182.568 27.1211C182.808 27.2031 183.026 27.2988 183.218 27.4014C183.402 27.5107 183.566 27.6201 183.696 27.7363L184.824 26.6973C184.66 26.5264 184.455 26.3555 184.216 26.1982C183.97 26.041 183.676 25.9043 183.334 25.7881C182.992 25.6719 182.596 25.5762 182.145 25.501C181.693 25.4326 181.181 25.3984 180.6 25.3984C180.06 25.3984 179.561 25.4463 179.103 25.5352C178.645 25.6309 178.255 25.7744 177.927 25.959C177.592 26.1504 177.332 26.3896 177.147 26.6699C176.963 26.957 176.867 27.292 176.86 27.6816C176.86 28.1123 176.963 28.4609 177.175 28.7275C177.387 28.9941 177.66 29.2129 178.009 29.377C178.357 29.541 178.754 29.6641 179.205 29.7529C179.656 29.8418 180.121 29.9102 180.6 29.9648C181.044 30.0127 181.44 30.0605 181.775 30.0947C182.11 30.1357 182.384 30.1836 182.609 30.2451C182.828 30.3066 182.992 30.3887 183.108 30.4844C183.218 30.5869 183.272 30.7168 183.272 30.8877C183.272 31.0312 183.231 31.1611 183.143 31.2705C183.054 31.3799 182.91 31.4688 182.719 31.5439C182.527 31.6191 182.281 31.667 181.974 31.7012C181.666 31.7354 181.29 31.7559 180.853 31.7559C180.436 31.7559 180.053 31.7285 179.711 31.667C179.369 31.6123 179.068 31.5371 178.809 31.4346C178.542 31.3389 178.316 31.2295 178.132 31.0996C177.94 30.9697 177.79 30.833 177.674 30.6895L176.443 31.585C176.587 31.8037 176.778 32.0088 177.018 32.1934C177.257 32.3848 177.558 32.5488 177.92 32.6924C178.282 32.8359 178.706 32.9521 179.191 33.0342C179.677 33.1162 180.23 33.1572 180.853 33.1572ZM193.191 33.1572C193.608 33.1572 194.005 33.1162 194.395 33.041C194.777 32.9658 195.126 32.877 195.447 32.7676C195.762 32.665 196.035 32.5488 196.274 32.4258C196.507 32.3096 196.678 32.2002 196.787 32.1045V33H198.633V25.5488H196.787V30.7168C196.65 30.8262 196.479 30.9287 196.274 31.0312C196.062 31.1338 195.837 31.2158 195.591 31.291C195.338 31.3662 195.078 31.4277 194.798 31.4756C194.518 31.5234 194.237 31.5439 193.957 31.5439C193.308 31.5439 192.829 31.4414 192.521 31.2432C192.214 31.0449 192.057 30.7578 192.057 30.3682V25.5488H190.211V30.6758C190.211 31.1611 190.286 31.5645 190.437 31.8857C190.58 32.207 190.792 32.46 191.059 32.6445C191.325 32.8359 191.64 32.9658 192.002 33.041C192.364 33.1162 192.761 33.1572 193.191 33.1572ZM200.902 25.5488V33H202.734V27.8867C202.871 27.7773 203.042 27.6748 203.254 27.5723C203.459 27.4697 203.685 27.3809 203.938 27.3057C204.19 27.2305 204.45 27.1758 204.73 27.1279C205.011 27.0869 205.284 27.0664 205.564 27.0664C206.214 27.0664 206.699 27.1621 207.014 27.3604C207.321 27.5586 207.479 27.8525 207.479 28.2422V33H209.331V27.873C209.331 27.3877 209.256 26.9912 209.105 26.6699C208.955 26.3486 208.75 26.0957 208.483 25.9043C208.217 25.7197 207.896 25.583 207.533 25.5078C207.171 25.4326 206.774 25.3984 206.351 25.3984C205.934 25.3984 205.53 25.4326 205.147 25.5078C204.758 25.583 204.409 25.6719 204.095 25.7812C203.773 25.8906 203.5 26.0068 203.261 26.1299C203.021 26.2529 202.851 26.3623 202.734 26.4648V25.5488H200.902ZM212.927 29.9307H220.104V29.5C220.104 28.9463 220.043 28.4541 219.927 28.0371C219.811 27.6201 219.646 27.2578 219.435 26.9502C219.223 26.6426 218.977 26.3896 218.696 26.1914C218.416 25.9932 218.108 25.8359 217.78 25.7197C217.452 25.6035 217.11 25.5146 216.755 25.4668C216.393 25.4189 216.037 25.3984 215.682 25.3984C215.326 25.3984 214.964 25.4258 214.602 25.4805C214.232 25.542 213.877 25.6309 213.542 25.7607C213.2 25.8906 212.879 26.0547 212.585 26.2529C212.284 26.458 212.024 26.7041 211.806 26.9912C211.58 27.2783 211.409 27.6133 211.279 27.9893C211.149 28.3721 211.088 28.8027 211.088 29.2881C211.088 29.9785 211.211 30.5664 211.464 31.0518C211.717 31.5371 212.052 31.9404 212.476 32.248C212.899 32.5625 213.385 32.7949 213.938 32.9385C214.492 33.082 215.066 33.1572 215.668 33.1572C216.235 33.1572 216.741 33.1162 217.192 33.0342C217.637 32.9521 218.033 32.8291 218.382 32.6719C218.73 32.5146 219.024 32.3232 219.277 32.0908C219.53 31.8652 219.742 31.5986 219.913 31.3047L218.272 30.6211C218.033 31.0244 217.705 31.3047 217.288 31.4756C216.871 31.6465 216.352 31.7285 215.736 31.7285C215.401 31.7285 215.087 31.6943 214.779 31.626C214.472 31.5576 214.191 31.4482 213.945 31.3047C213.692 31.1611 213.48 30.9697 213.303 30.7441C213.125 30.5186 213.002 30.252 212.927 29.9307ZM215.682 26.8682C216.051 26.8682 216.386 26.9023 216.693 26.9639C216.994 27.0254 217.261 27.1279 217.486 27.2646C217.712 27.4014 217.89 27.5791 218.033 27.7979C218.177 28.0166 218.266 28.2832 218.3 28.5908H212.94C213.029 28.2627 213.173 27.9893 213.371 27.7637C213.569 27.5449 213.802 27.3672 214.062 27.2373C214.314 27.1074 214.588 27.0117 214.875 26.9502C215.155 26.8955 215.429 26.8682 215.682 26.8682Z" fill="black"/>
<path d="M75.9531 168.549V178.803H77.7852V175.303C78.1064 175.556 78.5371 175.754 79.0635 175.904C79.5898 176.062 80.2119 176.137 80.9365 176.137C81.2578 176.137 81.5791 176.103 81.9004 176.027C82.2217 175.959 82.5225 175.85 82.8164 175.706C83.1104 175.562 83.3838 175.385 83.6367 175.173C83.8896 174.961 84.1084 174.708 84.293 174.421C84.4775 174.134 84.6211 173.812 84.7305 173.45C84.833 173.095 84.8877 172.705 84.8877 172.274C84.8877 171.604 84.7783 171.023 84.5596 170.538C84.334 170.053 84.0469 169.649 83.6846 169.335C83.3223 169.021 82.9053 168.788 82.4473 168.638C81.9824 168.487 81.5107 168.412 81.0322 168.412C80.6357 168.412 80.2666 168.439 79.9316 168.494C79.5967 168.556 79.2891 168.631 79.0156 168.727C78.7422 168.822 78.5029 168.932 78.2979 169.048C78.0928 169.171 77.9219 169.294 77.7852 169.417V168.549H75.9531ZM80.3623 174.64C80.1299 174.64 79.8975 174.619 79.6582 174.585C79.4189 174.551 79.1797 174.503 78.9541 174.435C78.7285 174.373 78.5098 174.291 78.3115 174.188C78.1133 174.093 77.9355 173.977 77.7852 173.847V170.859C77.8672 170.777 77.9902 170.688 78.1475 170.593C78.3047 170.504 78.4961 170.415 78.7217 170.333C78.9404 170.258 79.1865 170.189 79.46 170.135C79.7334 170.08 80.0273 170.053 80.335 170.053C80.6904 170.053 81.0322 170.094 81.3535 170.183C81.6748 170.271 81.9619 170.401 82.208 170.586C82.4541 170.771 82.6523 171.01 82.8027 171.29C82.9463 171.57 83.0215 171.912 83.0215 172.302C83.0215 172.691 82.9463 173.033 82.8027 173.327C82.6592 173.621 82.4609 173.86 82.2148 174.052C81.9688 174.25 81.6885 174.394 81.3672 174.489C81.0459 174.592 80.7109 174.64 80.3623 174.64ZM86.7539 165.637V176H88.5859V170.887C88.7227 170.777 88.8936 170.675 89.1055 170.572C89.3105 170.47 89.5361 170.381 89.7891 170.306C90.042 170.23 90.3018 170.176 90.582 170.128C90.8623 170.087 91.1357 170.066 91.416 170.066C92.0654 170.066 92.5508 170.162 92.8652 170.36C93.1729 170.559 93.3301 170.853 93.3301 171.242V176H95.1826V170.873C95.1826 170.388 95.1074 169.991 94.957 169.67C94.8066 169.349 94.6016 169.096 94.335 168.904C94.0684 168.72 93.7471 168.583 93.3848 168.508C93.0225 168.433 92.626 168.398 92.2021 168.398C91.7852 168.398 91.3818 168.433 90.999 168.508C90.6094 168.583 90.2607 168.672 89.9463 168.781C89.625 168.891 89.3516 169.007 89.1123 169.123C88.873 169.246 88.7021 169.355 88.5859 169.451V165.637H86.7539ZM97.3496 168.549V176H99.1816V171.242C99.3115 171.099 99.4824 170.955 99.6943 170.812C99.9062 170.675 100.152 170.552 100.439 170.449C100.727 170.347 101.055 170.271 101.417 170.21C101.779 170.155 102.183 170.135 102.627 170.148C102.661 170.148 102.702 170.148 102.764 170.155L102.935 170.169C102.989 170.176 103.037 170.176 103.085 170.183C103.133 170.189 103.16 170.189 103.174 170.189L103.201 168.426L103.078 168.412C102.559 168.392 102.094 168.419 101.677 168.494C101.26 168.569 100.891 168.679 100.569 168.809C100.248 168.945 99.9678 169.103 99.7422 169.28C99.5098 169.458 99.3252 169.643 99.1816 169.827V168.549H97.3496ZM107.207 176.137C107.576 176.137 107.952 176.109 108.335 176.055C108.711 176.007 109.073 175.932 109.415 175.836C109.757 175.74 110.071 175.624 110.352 175.494C110.632 175.364 110.864 175.221 111.042 175.063C111.049 175.262 111.069 175.439 111.104 175.597C111.138 175.761 111.172 175.897 111.213 176H113.045C113.011 175.904 112.977 175.802 112.956 175.692C112.936 175.583 112.915 175.46 112.895 175.316C112.874 175.18 112.867 175.022 112.86 174.852C112.854 174.681 112.847 174.476 112.847 174.25V171.242C112.847 170.771 112.778 170.36 112.635 170.005C112.491 169.649 112.272 169.355 111.972 169.116C111.671 168.877 111.288 168.699 110.816 168.576C110.345 168.46 109.784 168.398 109.128 168.398C108.561 168.398 108.041 168.433 107.569 168.501C107.098 168.576 106.681 168.665 106.312 168.774C105.942 168.891 105.628 169.014 105.361 169.15C105.095 169.294 104.876 169.431 104.705 169.561L105.587 170.791C105.744 170.688 105.942 170.579 106.182 170.477C106.421 170.374 106.688 170.285 106.981 170.203C107.275 170.121 107.583 170.053 107.904 169.998C108.226 169.95 108.554 169.923 108.875 169.923C109.271 169.923 109.606 169.943 109.88 169.991C110.153 170.039 110.379 170.107 110.55 170.196C110.721 170.285 110.851 170.395 110.926 170.518C111.001 170.641 111.042 170.777 111.042 170.935V171.099C110.447 171.133 109.88 171.174 109.326 171.222C108.772 171.27 108.246 171.338 107.761 171.427C107.275 171.516 106.824 171.632 106.421 171.762C106.018 171.898 105.669 172.062 105.375 172.261C105.081 172.459 104.855 172.698 104.698 172.965C104.534 173.238 104.452 173.553 104.452 173.915C104.452 174.312 104.527 174.646 104.671 174.927C104.814 175.207 105.013 175.439 105.266 175.617C105.512 175.795 105.806 175.925 106.141 176.007C106.476 176.096 106.831 176.137 107.207 176.137ZM107.863 174.681C107.316 174.681 106.913 174.605 106.653 174.462C106.387 174.318 106.257 174.106 106.257 173.833C106.257 173.594 106.373 173.396 106.612 173.238C106.852 173.081 107.18 172.944 107.604 172.835C108.027 172.732 108.533 172.644 109.121 172.582C109.702 172.521 110.345 172.466 111.042 172.418V173.901C110.933 173.983 110.762 174.072 110.536 174.161C110.304 174.257 110.037 174.339 109.743 174.414C109.449 174.489 109.135 174.558 108.807 174.605C108.479 174.653 108.164 174.681 107.863 174.681ZM118.808 176.157C120.195 176.157 121.248 175.973 121.952 175.597C122.656 175.228 123.005 174.646 123.005 173.847C123.005 173.416 122.909 173.067 122.711 172.794C122.513 172.527 122.239 172.309 121.897 172.138C121.556 171.974 121.159 171.851 120.708 171.762C120.25 171.673 119.771 171.604 119.266 171.55C118.855 171.502 118.486 171.454 118.158 171.413C117.823 171.379 117.543 171.324 117.311 171.263C117.078 171.201 116.9 171.126 116.777 171.023C116.654 170.928 116.593 170.798 116.593 170.627C116.593 170.504 116.627 170.395 116.702 170.299C116.771 170.203 116.887 170.121 117.058 170.053C117.222 169.991 117.44 169.937 117.714 169.902C117.98 169.868 118.322 169.854 118.726 169.854C119.081 169.854 119.409 169.875 119.71 169.923C120.004 169.971 120.277 170.039 120.523 170.121C120.763 170.203 120.981 170.299 121.173 170.401C121.357 170.511 121.521 170.62 121.651 170.736L122.779 169.697C122.615 169.526 122.41 169.355 122.171 169.198C121.925 169.041 121.631 168.904 121.289 168.788C120.947 168.672 120.551 168.576 120.1 168.501C119.648 168.433 119.136 168.398 118.555 168.398C118.015 168.398 117.516 168.446 117.058 168.535C116.6 168.631 116.21 168.774 115.882 168.959C115.547 169.15 115.287 169.39 115.103 169.67C114.918 169.957 114.822 170.292 114.815 170.682C114.815 171.112 114.918 171.461 115.13 171.728C115.342 171.994 115.615 172.213 115.964 172.377C116.312 172.541 116.709 172.664 117.16 172.753C117.611 172.842 118.076 172.91 118.555 172.965C118.999 173.013 119.396 173.061 119.73 173.095C120.065 173.136 120.339 173.184 120.564 173.245C120.783 173.307 120.947 173.389 121.063 173.484C121.173 173.587 121.228 173.717 121.228 173.888C121.228 174.031 121.187 174.161 121.098 174.271C121.009 174.38 120.865 174.469 120.674 174.544C120.482 174.619 120.236 174.667 119.929 174.701C119.621 174.735 119.245 174.756 118.808 174.756C118.391 174.756 118.008 174.729 117.666 174.667C117.324 174.612 117.023 174.537 116.764 174.435C116.497 174.339 116.271 174.229 116.087 174.1C115.896 173.97 115.745 173.833 115.629 173.689L114.398 174.585C114.542 174.804 114.733 175.009 114.973 175.193C115.212 175.385 115.513 175.549 115.875 175.692C116.237 175.836 116.661 175.952 117.146 176.034C117.632 176.116 118.186 176.157 118.808 176.157ZM126.136 172.931H133.313V172.5C133.313 171.946 133.252 171.454 133.136 171.037C133.02 170.62 132.855 170.258 132.644 169.95C132.432 169.643 132.186 169.39 131.905 169.191C131.625 168.993 131.317 168.836 130.989 168.72C130.661 168.604 130.319 168.515 129.964 168.467C129.602 168.419 129.246 168.398 128.891 168.398C128.535 168.398 128.173 168.426 127.811 168.48C127.441 168.542 127.086 168.631 126.751 168.761C126.409 168.891 126.088 169.055 125.794 169.253C125.493 169.458 125.233 169.704 125.015 169.991C124.789 170.278 124.618 170.613 124.488 170.989C124.358 171.372 124.297 171.803 124.297 172.288C124.297 172.979 124.42 173.566 124.673 174.052C124.926 174.537 125.261 174.94 125.685 175.248C126.108 175.562 126.594 175.795 127.147 175.938C127.701 176.082 128.275 176.157 128.877 176.157C129.444 176.157 129.95 176.116 130.401 176.034C130.846 175.952 131.242 175.829 131.591 175.672C131.939 175.515 132.233 175.323 132.486 175.091C132.739 174.865 132.951 174.599 133.122 174.305L131.481 173.621C131.242 174.024 130.914 174.305 130.497 174.476C130.08 174.646 129.561 174.729 128.945 174.729C128.61 174.729 128.296 174.694 127.988 174.626C127.681 174.558 127.4 174.448 127.154 174.305C126.901 174.161 126.689 173.97 126.512 173.744C126.334 173.519 126.211 173.252 126.136 172.931ZM128.891 169.868C129.26 169.868 129.595 169.902 129.902 169.964C130.203 170.025 130.47 170.128 130.695 170.265C130.921 170.401 131.099 170.579 131.242 170.798C131.386 171.017 131.475 171.283 131.509 171.591H126.149C126.238 171.263 126.382 170.989 126.58 170.764C126.778 170.545 127.011 170.367 127.271 170.237C127.523 170.107 127.797 170.012 128.084 169.95C128.364 169.896 128.638 169.868 128.891 169.868ZM142.74 176.157C143.335 176.157 143.875 176.096 144.36 175.966C144.846 175.843 145.27 175.679 145.639 175.467C146.008 175.262 146.322 175.022 146.575 174.749C146.828 174.482 147.02 174.195 147.163 173.901L145.413 173.313C145.283 173.573 145.119 173.785 144.921 173.956C144.723 174.127 144.504 174.264 144.271 174.366C144.039 174.469 143.8 174.537 143.561 174.578C143.314 174.619 143.082 174.64 142.863 174.64C142.46 174.64 142.091 174.578 141.756 174.462C141.421 174.346 141.141 174.188 140.901 173.977C140.662 173.765 140.478 173.519 140.348 173.231C140.218 172.951 140.149 172.637 140.149 172.302C140.149 171.912 140.225 171.563 140.375 171.27C140.519 170.976 140.724 170.736 140.977 170.538C141.229 170.34 141.517 170.196 141.852 170.094C142.187 169.998 142.535 169.95 142.904 169.95C143.513 169.95 144.025 170.06 144.429 170.271C144.832 170.49 145.146 170.798 145.358 171.201L147.136 170.668C146.828 169.943 146.322 169.383 145.625 168.986C144.921 168.597 144.025 168.398 142.932 168.398C142.59 168.398 142.241 168.426 141.879 168.48C141.517 168.535 141.161 168.624 140.819 168.747C140.471 168.87 140.149 169.027 139.842 169.226C139.534 169.424 139.268 169.663 139.042 169.95C138.816 170.244 138.632 170.579 138.502 170.962C138.365 171.352 138.297 171.789 138.297 172.288C138.297 172.746 138.358 173.163 138.475 173.532C138.591 173.901 138.748 174.229 138.953 174.517C139.158 174.804 139.404 175.05 139.685 175.255C139.965 175.467 140.266 175.638 140.601 175.768C140.929 175.897 141.277 176 141.64 176.062C142.002 176.123 142.371 176.157 142.74 176.157ZM153.165 176.157C153.541 176.157 153.917 176.13 154.293 176.068C154.669 176.007 155.024 175.911 155.373 175.781C155.722 175.651 156.043 175.487 156.351 175.282C156.651 175.084 156.911 174.838 157.137 174.551C157.362 174.264 157.533 173.929 157.663 173.553C157.793 173.177 157.854 172.76 157.854 172.288C157.854 171.81 157.793 171.379 157.663 171.003C157.533 170.627 157.362 170.292 157.137 170.005C156.911 169.718 156.651 169.472 156.351 169.267C156.05 169.062 155.729 168.897 155.38 168.768C155.031 168.638 154.669 168.549 154.293 168.487C153.917 168.426 153.541 168.398 153.165 168.398C152.789 168.398 152.413 168.426 152.037 168.487C151.661 168.549 151.299 168.638 150.95 168.768C150.602 168.897 150.28 169.062 149.979 169.267C149.679 169.472 149.419 169.718 149.2 170.005C148.975 170.292 148.804 170.627 148.674 171.003C148.544 171.379 148.482 171.81 148.482 172.288C148.482 172.76 148.544 173.184 148.674 173.56C148.804 173.936 148.975 174.264 149.2 174.551C149.419 174.838 149.679 175.084 149.986 175.282C150.287 175.487 150.608 175.651 150.957 175.781C151.306 175.911 151.668 176.007 152.044 176.068C152.42 176.13 152.789 176.157 153.165 176.157ZM153.165 174.64C152.748 174.64 152.365 174.585 152.017 174.469C151.668 174.353 151.367 174.195 151.121 173.983C150.868 173.778 150.677 173.532 150.54 173.245C150.403 172.958 150.335 172.644 150.335 172.302C150.335 171.933 150.403 171.604 150.547 171.311C150.684 171.023 150.875 170.777 151.128 170.572C151.374 170.374 151.668 170.217 152.017 170.107C152.365 170.005 152.748 169.95 153.165 169.95C153.582 169.95 153.965 170.005 154.313 170.114C154.662 170.23 154.956 170.388 155.209 170.593C155.455 170.798 155.646 171.044 155.783 171.331C155.92 171.625 155.988 171.946 155.988 172.302C155.988 172.664 155.92 172.985 155.783 173.272C155.646 173.566 155.455 173.812 155.209 174.011C154.963 174.209 154.669 174.366 154.32 174.476C153.972 174.585 153.589 174.64 153.165 174.64ZM159.721 168.549V176H161.553V170.887C161.689 170.777 161.854 170.675 162.052 170.572C162.25 170.47 162.469 170.381 162.708 170.306C162.947 170.23 163.2 170.176 163.467 170.128C163.733 170.087 164.007 170.066 164.287 170.066C164.93 170.066 165.395 170.162 165.675 170.36C165.955 170.559 166.092 170.853 166.092 171.242V176H167.951V170.873V170.866C168.354 170.606 168.785 170.408 169.25 170.271C169.708 170.135 170.18 170.066 170.665 170.066C171.314 170.066 171.786 170.162 172.066 170.36C172.347 170.559 172.49 170.853 172.49 171.242V176H174.336V170.873C174.336 170.388 174.268 169.991 174.124 169.67C173.98 169.349 173.789 169.096 173.536 168.904C173.283 168.72 172.976 168.583 172.627 168.508C172.271 168.433 171.882 168.398 171.451 168.398C170.713 168.398 170.022 168.501 169.38 168.706C168.737 168.918 168.177 169.205 167.698 169.574C167.589 169.349 167.445 169.164 167.274 169.014C167.104 168.863 166.905 168.74 166.68 168.651C166.454 168.562 166.201 168.494 165.928 168.453C165.654 168.419 165.36 168.398 165.053 168.398C164.636 168.398 164.239 168.433 163.87 168.508C163.494 168.583 163.159 168.672 162.852 168.781C162.544 168.891 162.284 169.007 162.059 169.123C161.833 169.246 161.669 169.355 161.553 169.451V168.549H159.721ZM176.51 168.549V178.803H178.342V175.303C178.663 175.556 179.094 175.754 179.62 175.904C180.146 176.062 180.769 176.137 181.493 176.137C181.814 176.137 182.136 176.103 182.457 176.027C182.778 175.959 183.079 175.85 183.373 175.706C183.667 175.562 183.94 175.385 184.193 175.173C184.446 174.961 184.665 174.708 184.85 174.421C185.034 174.134 185.178 173.812 185.287 173.45C185.39 173.095 185.444 172.705 185.444 172.274C185.444 171.604 185.335 171.023 185.116 170.538C184.891 170.053 184.604 169.649 184.241 169.335C183.879 169.021 183.462 168.788 183.004 168.638C182.539 168.487 182.067 168.412 181.589 168.412C181.192 168.412 180.823 168.439 180.488 168.494C180.153 168.556 179.846 168.631 179.572 168.727C179.299 168.822 179.06 168.932 178.854 169.048C178.649 169.171 178.479 169.294 178.342 169.417V168.549H176.51ZM180.919 174.64C180.687 174.64 180.454 174.619 180.215 174.585C179.976 174.551 179.736 174.503 179.511 174.435C179.285 174.373 179.066 174.291 178.868 174.188C178.67 174.093 178.492 173.977 178.342 173.847V170.859C178.424 170.777 178.547 170.688 178.704 170.593C178.861 170.504 179.053 170.415 179.278 170.333C179.497 170.258 179.743 170.189 180.017 170.135C180.29 170.08 180.584 170.053 180.892 170.053C181.247 170.053 181.589 170.094 181.91 170.183C182.231 170.271 182.519 170.401 182.765 170.586C183.011 170.771 183.209 171.01 183.359 171.29C183.503 171.57 183.578 171.912 183.578 172.302C183.578 172.691 183.503 173.033 183.359 173.327C183.216 173.621 183.018 173.86 182.771 174.052C182.525 174.25 182.245 174.394 181.924 174.489C181.603 174.592 181.268 174.64 180.919 174.64ZM187.379 165.637V176H189.211V165.637H187.379ZM192.991 172.931H200.169V172.5C200.169 171.946 200.107 171.454 199.991 171.037C199.875 170.62 199.711 170.258 199.499 169.95C199.287 169.643 199.041 169.39 198.761 169.191C198.48 168.993 198.173 168.836 197.845 168.72C197.517 168.604 197.175 168.515 196.819 168.467C196.457 168.419 196.102 168.398 195.746 168.398C195.391 168.398 195.028 168.426 194.666 168.48C194.297 168.542 193.941 168.631 193.606 168.761C193.265 168.891 192.943 169.055 192.649 169.253C192.349 169.458 192.089 169.704 191.87 169.991C191.645 170.278 191.474 170.613 191.344 170.989C191.214 171.372 191.152 171.803 191.152 172.288C191.152 172.979 191.275 173.566 191.528 174.052C191.781 174.537 192.116 174.94 192.54 175.248C192.964 175.562 193.449 175.795 194.003 175.938C194.557 176.082 195.131 176.157 195.732 176.157C196.3 176.157 196.806 176.116 197.257 176.034C197.701 175.952 198.098 175.829 198.446 175.672C198.795 175.515 199.089 175.323 199.342 175.091C199.595 174.865 199.807 174.599 199.978 174.305L198.337 173.621C198.098 174.024 197.77 174.305 197.353 174.476C196.936 174.646 196.416 174.729 195.801 174.729C195.466 174.729 195.151 174.694 194.844 174.626C194.536 174.558 194.256 174.448 194.01 174.305C193.757 174.161 193.545 173.97 193.367 173.744C193.189 173.519 193.066 173.252 192.991 172.931ZM195.746 169.868C196.115 169.868 196.45 169.902 196.758 169.964C197.059 170.025 197.325 170.128 197.551 170.265C197.776 170.401 197.954 170.579 198.098 170.798C198.241 171.017 198.33 171.283 198.364 171.591H193.005C193.094 171.263 193.237 170.989 193.436 170.764C193.634 170.545 193.866 170.367 194.126 170.237C194.379 170.107 194.652 170.012 194.939 169.95C195.22 169.896 195.493 169.868 195.746 169.868ZM205.016 172.206L201.365 176H203.334L206 173.327L208.646 176H210.799L207.148 172.179L210.676 168.549H208.7L206.178 171.099L203.689 168.549H201.529L205.016 172.206ZM213.854 172.931H221.032V172.5C221.032 171.946 220.971 171.454 220.854 171.037C220.738 170.62 220.574 170.258 220.362 169.95C220.15 169.643 219.904 169.39 219.624 169.191C219.344 168.993 219.036 168.836 218.708 168.72C218.38 168.604 218.038 168.515 217.683 168.467C217.32 168.419 216.965 168.398 216.609 168.398C216.254 168.398 215.892 168.426 215.529 168.48C215.16 168.542 214.805 168.631 214.47 168.761C214.128 168.891 213.807 169.055 213.513 169.253C213.212 169.458 212.952 169.704 212.733 169.991C212.508 170.278 212.337 170.613 212.207 170.989C212.077 171.372 212.016 171.803 212.016 172.288C212.016 172.979 212.139 173.566 212.392 174.052C212.645 174.537 212.979 174.94 213.403 175.248C213.827 175.562 214.312 175.795 214.866 175.938C215.42 176.082 215.994 176.157 216.596 176.157C217.163 176.157 217.669 176.116 218.12 176.034C218.564 175.952 218.961 175.829 219.31 175.672C219.658 175.515 219.952 175.323 220.205 175.091C220.458 174.865 220.67 174.599 220.841 174.305L219.2 173.621C218.961 174.024 218.633 174.305 218.216 174.476C217.799 174.646 217.279 174.729 216.664 174.729C216.329 174.729 216.015 174.694 215.707 174.626C215.399 174.558 215.119 174.448 214.873 174.305C214.62 174.161 214.408 173.97 214.23 173.744C214.053 173.519 213.93 173.252 213.854 172.931ZM216.609 169.868C216.979 169.868 217.313 169.902 217.621 169.964C217.922 170.025 218.188 170.128 218.414 170.265C218.64 170.401 218.817 170.579 218.961 170.798C219.104 171.017 219.193 171.283 219.228 171.591H213.868C213.957 171.263 214.101 170.989 214.299 170.764C214.497 170.545 214.729 170.367 214.989 170.237C215.242 170.107 215.516 170.012 215.803 169.95C216.083 169.896 216.356 169.868 216.609 169.868Z" fill="black"/>
<path d="M44.4922 128.156V140H55.6641V137.664H47.3125V128.156H44.4922ZM62.9453 128.078L56.8359 140H59.6328L60.8828 137.586H67.9219L69.1875 140H72.2109L66.0781 128.078H62.9453ZM66.8672 135.484H61.9375L64.3984 130.734L66.8672 135.484ZM85.4531 140.242C86.3203 140.242 87.125 140.148 87.8672 139.969C88.6016 139.789 89.2578 139.523 89.8438 139.188C90.4297 138.852 90.9297 138.445 91.3516 137.969C91.7734 137.492 92.1094 136.969 92.3516 136.383L89.8047 135.523C89.6562 135.875 89.4609 136.203 89.2031 136.492C88.9453 136.789 88.6406 137.039 88.2734 137.25C87.9062 137.461 87.4922 137.625 87.0234 137.742C86.5547 137.859 86.0391 137.922 85.4688 137.922C84.7188 137.922 84.0625 137.828 83.4922 137.641C82.9219 137.461 82.4453 137.195 82.0625 136.859C81.6797 136.523 81.3906 136.117 81.1953 135.641C81 135.164 80.9062 134.641 80.9062 134.062C80.9062 133.477 81.0078 132.953 81.2031 132.492C81.3984 132.031 81.6953 131.633 82.0781 131.305C82.4609 130.984 82.9375 130.734 83.5078 130.562C84.0703 130.391 84.7188 130.305 85.4531 130.305C86.0234 130.305 86.5469 130.359 87.0078 130.469C87.4688 130.578 87.8828 130.727 88.2344 130.922C88.5859 131.117 88.8828 131.352 89.125 131.617C89.3672 131.891 89.5469 132.18 89.6641 132.492L92.2969 131.68C92.1172 131.172 91.8438 130.688 91.4844 130.227C91.1172 129.773 90.6562 129.375 90.1016 129.031C89.5391 128.695 88.875 128.422 88.1094 128.219C87.3359 128.023 86.4609 127.922 85.4688 127.922C84.7969 127.922 84.1484 127.977 83.5312 128.078C82.9062 128.188 82.3203 128.352 81.7734 128.57C81.2266 128.789 80.7266 129.062 80.2812 129.398C79.8281 129.734 79.4375 130.133 79.1172 130.586C78.7891 131.039 78.5391 131.555 78.3594 132.133C78.1797 132.711 78.0938 133.352 78.0938 134.062C78.0938 135.125 78.2734 136.047 78.6406 136.82C79.0078 137.602 79.5156 138.242 80.1641 138.75C80.8125 139.258 81.5938 139.633 82.4922 139.875C83.3906 140.117 84.3828 140.242 85.4531 140.242ZM101.375 140.242C102.047 140.242 102.695 140.188 103.32 140.078C103.945 139.977 104.531 139.812 105.086 139.586C105.633 139.367 106.133 139.086 106.586 138.75C107.031 138.414 107.422 138.023 107.75 137.562C108.07 137.109 108.32 136.594 108.5 136.008C108.68 135.43 108.766 134.789 108.766 134.078C108.766 133.367 108.672 132.727 108.492 132.141C108.312 131.562 108.055 131.047 107.734 130.586C107.406 130.133 107.016 129.734 106.562 129.398C106.102 129.062 105.602 128.789 105.055 128.57C104.508 128.352 103.922 128.188 103.305 128.078C102.68 127.977 102.039 127.922 101.375 127.922C100.711 127.922 100.07 127.977 99.4531 128.078C98.8281 128.188 98.2422 128.352 97.7031 128.57C97.1562 128.789 96.6562 129.062 96.2031 129.398C95.7422 129.734 95.3516 130.133 95.0312 130.586C94.7031 131.047 94.4531 131.562 94.2734 132.141C94.0938 132.727 94 133.367 94 134.078C94 134.789 94.0859 135.43 94.2656 136.008C94.4453 136.594 94.6953 137.109 95.0156 137.562C95.3359 138.023 95.7266 138.414 96.1797 138.75C96.625 139.086 97.125 139.367 97.6719 139.586C98.2188 139.812 98.8047 139.977 99.4297 140.078C100.055 140.188 100.703 140.242 101.375 140.242ZM101.375 137.906C100.641 137.906 99.9922 137.812 99.4219 137.633C98.8516 137.453 98.3672 137.188 97.9766 136.852C97.5859 136.516 97.2891 136.117 97.0859 135.648C96.8828 135.18 96.7812 134.656 96.7812 134.078C96.7812 133.5 96.8828 132.977 97.0859 132.516C97.2891 132.055 97.5859 131.656 97.9766 131.328C98.3672 131.008 98.8516 130.758 99.4219 130.578C99.9922 130.406 100.641 130.32 101.375 130.32C102.109 130.32 102.766 130.406 103.336 130.578C103.906 130.758 104.383 131.008 104.773 131.328C105.164 131.656 105.461 132.055 105.664 132.516C105.867 132.977 105.969 133.5 105.969 134.078C105.969 134.656 105.867 135.18 105.664 135.648C105.461 136.117 105.164 136.516 104.773 136.852C104.383 137.188 103.906 137.453 103.336 137.633C102.766 137.812 102.109 137.906 101.375 137.906ZM118.016 140.242C118.688 140.242 119.336 140.188 119.961 140.078C120.586 139.977 121.172 139.812 121.727 139.586C122.273 139.367 122.773 139.086 123.227 138.75C123.672 138.414 124.062 138.023 124.391 137.562C124.711 137.109 124.961 136.594 125.141 136.008C125.32 135.43 125.406 134.789 125.406 134.078C125.406 133.367 125.312 132.727 125.133 132.141C124.953 131.562 124.695 131.047 124.375 130.586C124.047 130.133 123.656 129.734 123.203 129.398C122.742 129.062 122.242 128.789 121.695 128.57C121.148 128.352 120.562 128.188 119.945 128.078C119.32 127.977 118.68 127.922 118.016 127.922C117.352 127.922 116.711 127.977 116.094 128.078C115.469 128.188 114.883 128.352 114.344 128.57C113.797 128.789 113.297 129.062 112.844 129.398C112.383 129.734 111.992 130.133 111.672 130.586C111.344 131.047 111.094 131.562 110.914 132.141C110.734 132.727 110.641 133.367 110.641 134.078C110.641 134.789 110.727 135.43 110.906 136.008C111.086 136.594 111.336 137.109 111.656 137.562C111.977 138.023 112.367 138.414 112.82 138.75C113.266 139.086 113.766 139.367 114.312 139.586C114.859 139.812 115.445 139.977 116.07 140.078C116.695 140.188 117.344 140.242 118.016 140.242ZM118.016 137.906C117.281 137.906 116.633 137.812 116.062 137.633C115.492 137.453 115.008 137.188 114.617 136.852C114.227 136.516 113.93 136.117 113.727 135.648C113.523 135.18 113.422 134.656 113.422 134.078C113.422 133.5 113.523 132.977 113.727 132.516C113.93 132.055 114.227 131.656 114.617 131.328C115.008 131.008 115.492 130.758 116.062 130.578C116.633 130.406 117.281 130.32 118.016 130.32C118.75 130.32 119.406 130.406 119.977 130.578C120.547 130.758 121.023 131.008 121.414 131.328C121.805 131.656 122.102 132.055 122.305 132.516C122.508 132.977 122.609 133.5 122.609 134.078C122.609 134.656 122.508 135.18 122.305 135.648C122.102 136.117 121.805 136.516 121.414 136.852C121.023 137.188 120.547 137.453 119.977 137.633C119.406 137.812 118.75 137.906 118.016 137.906ZM127.82 128.156V140H130.602V135.719H135.422L137.852 140H140.852L138.227 135.328C139.047 135.086 139.656 134.688 140.07 134.133C140.484 133.578 140.688 132.844 140.688 131.93C140.688 131.25 140.578 130.664 140.367 130.188C140.148 129.711 139.836 129.32 139.43 129.016C139.016 128.719 138.516 128.5 137.93 128.359C137.344 128.227 136.672 128.156 135.93 128.156H127.82ZM135.828 133.484H130.602V130.492H135.828C136.555 130.492 137.094 130.609 137.438 130.852C137.773 131.094 137.945 131.477 137.945 132.008C137.945 132.531 137.773 132.906 137.438 133.133C137.094 133.367 136.555 133.484 135.828 133.484ZM143.336 128.156V140H150.188C150.781 140 151.359 139.953 151.914 139.852C152.469 139.75 152.984 139.602 153.469 139.391C153.953 139.188 154.398 138.93 154.805 138.609C155.203 138.289 155.555 137.914 155.844 137.469C156.133 137.023 156.352 136.516 156.516 135.945C156.672 135.375 156.75 134.727 156.75 134.016C156.75 133.297 156.672 132.656 156.516 132.086C156.359 131.516 156.141 131.016 155.852 130.578C155.562 130.148 155.219 129.773 154.82 129.469C154.422 129.164 153.977 128.914 153.492 128.719C153 128.523 152.477 128.383 151.922 128.289C151.367 128.203 150.789 128.156 150.188 128.156H143.336ZM150.219 137.711H146.141V130.516H150.188C150.867 130.516 151.453 130.602 151.93 130.781C152.406 130.961 152.789 131.203 153.086 131.516C153.383 131.828 153.602 132.203 153.734 132.633C153.867 133.062 153.93 133.539 153.93 134.047C153.93 134.594 153.867 135.094 153.734 135.539C153.602 135.984 153.383 136.375 153.094 136.695C152.797 137.016 152.414 137.266 151.945 137.445C151.469 137.625 150.898 137.711 150.219 137.711ZM159.266 128.156V140H162.078V128.156H159.266ZM165.148 128.156V140H167.859V131.539L175.758 140H178.516V128.156H175.82V136.273L168.273 128.156H165.148ZM186.68 128.078L180.57 140H183.367L184.617 137.586H191.656L192.922 140H195.945L189.812 128.078H186.68ZM190.602 135.484H185.672L188.133 130.734L190.602 135.484ZM202.312 130.57V140H205.203V130.57H210.383V128.156H197.125L197.133 130.57H202.312ZM212.609 128.156V140H215.422V128.156H212.609ZM225.328 140.242C226 140.242 226.648 140.188 227.273 140.078C227.898 139.977 228.484 139.812 229.039 139.586C229.586 139.367 230.086 139.086 230.539 138.75C230.984 138.414 231.375 138.023 231.703 137.562C232.023 137.109 232.273 136.594 232.453 136.008C232.633 135.43 232.719 134.789 232.719 134.078C232.719 133.367 232.625 132.727 232.445 132.141C232.266 131.562 232.008 131.047 231.688 130.586C231.359 130.133 230.969 129.734 230.516 129.398C230.055 129.062 229.555 128.789 229.008 128.57C228.461 128.352 227.875 128.188 227.258 128.078C226.633 127.977 225.992 127.922 225.328 127.922C224.664 127.922 224.023 127.977 223.406 128.078C222.781 128.188 222.195 128.352 221.656 128.57C221.109 128.789 220.609 129.062 220.156 129.398C219.695 129.734 219.305 130.133 218.984 130.586C218.656 131.047 218.406 131.562 218.227 132.141C218.047 132.727 217.953 133.367 217.953 134.078C217.953 134.789 218.039 135.43 218.219 136.008C218.398 136.594 218.648 137.109 218.969 137.562C219.289 138.023 219.68 138.414 220.133 138.75C220.578 139.086 221.078 139.367 221.625 139.586C222.172 139.812 222.758 139.977 223.383 140.078C224.008 140.188 224.656 140.242 225.328 140.242ZM225.328 137.906C224.594 137.906 223.945 137.812 223.375 137.633C222.805 137.453 222.32 137.188 221.93 136.852C221.539 136.516 221.242 136.117 221.039 135.648C220.836 135.18 220.734 134.656 220.734 134.078C220.734 133.5 220.836 132.977 221.039 132.516C221.242 132.055 221.539 131.656 221.93 131.328C222.32 131.008 222.805 130.758 223.375 130.578C223.945 130.406 224.594 130.32 225.328 130.32C226.062 130.32 226.719 130.406 227.289 130.578C227.859 130.758 228.336 131.008 228.727 131.328C229.117 131.656 229.414 132.055 229.617 132.516C229.82 132.977 229.922 133.5 229.922 134.078C229.922 134.656 229.82 135.18 229.617 135.648C229.414 136.117 229.117 136.516 228.727 136.852C228.336 137.188 227.859 137.453 227.289 137.633C226.719 137.812 226.062 137.906 225.328 137.906ZM235.133 128.156V140H237.844V131.539L245.742 140H248.5V128.156H245.805V136.273L238.258 128.156H235.133Z" fill="black"/>
<path d="M139.069 74.461L139.07 74.4598L146.359 62.3088L146.359 62.3084C147.637 60.1777 146.948 57.4139 144.816 56.1339L144.816 56.1337C142.843 54.9496 140.398 55.4902 139.027 57.1881C138.935 57.2686 138.839 57.3715 138.753 57.5018L127.763 73.9898C127.763 73.9898 127.763 73.9898 127.763 73.9898C126.609 75.7217 126 77.7375 126 79.8129V86.2546L118.578 88.7291C118.577 88.7292 118.577 88.7293 118.577 88.7293C117.681 89.0277 116.901 89.6006 116.349 90.3668C115.797 91.1331 115.5 92.0537 115.5 92.9981C115.5 92.9982 115.5 92.9983 115.5 92.9984C115.5 92.9985 115.5 92.9986 115.5 92.9987L115.5 102C115.5 102.825 115.801 103.897 116.481 104.789C117.207 105.741 118.379 106.5 120 106.5C120.378 106.5 120.76 106.452 121.133 106.355C121.133 106.355 121.134 106.355 121.134 106.355L137.932 101.984C137.944 101.981 137.956 101.978 137.967 101.974C143.29 100.452 147 95.5328 147 89.9976V77.9957C147 75.5172 144.979 73.4952 142.5 73.4952C140.399 73.4952 138.626 74.9482 138.135 76.9006C138.3 76.0424 138.615 75.2161 139.069 74.461ZM139.501 56.9051C139.517 56.8986 139.523 56.8965 139.514 56.9L139.501 56.9051ZM138 78.3192C138 78.3049 138 78.2906 138 78.2764V85.4969L138 85.4972V85.4969V78.3192Z" fill="#5AAA67" stroke="black" stroke-width="3" stroke-linejoin="round"/>
<path d="M155.432 74.461L155.431 74.4598L148.142 62.3088L148.142 62.3084C146.864 60.1777 147.552 57.4139 149.684 56.1339L149.685 56.1337C151.658 54.9496 154.103 55.4902 155.473 57.1881C155.566 57.2686 155.662 57.3715 155.748 57.5018L166.738 73.9898C166.738 73.9898 166.738 73.9898 166.738 73.9898C167.892 75.7217 168.501 77.7375 168.501 79.8129V86.2546L175.923 88.7291C175.923 88.7292 175.924 88.7293 175.924 88.7293C176.82 89.0277 177.599 89.6006 178.152 90.3668C178.704 91.1331 179.001 92.0537 179.001 92.9981C179.001 92.9982 179.001 92.9983 179.001 92.9984C179.001 92.9985 179.001 92.9986 179.001 92.9987L179.001 102C179.001 102.825 178.699 103.897 178.019 104.789C177.294 105.741 176.122 106.5 174.501 106.5C174.123 106.5 173.741 106.452 173.367 106.355C173.367 106.355 173.367 106.355 173.367 106.355L156.568 101.984C156.557 101.981 156.545 101.978 156.534 101.974C151.211 100.452 147.501 95.5328 147.501 89.9976V77.9957C147.501 75.5172 149.522 73.4952 152.001 73.4952C154.102 73.4952 155.874 74.9482 156.365 76.9006C156.2 76.0424 155.886 75.2161 155.432 74.461ZM155 56.9051C154.984 56.8986 154.977 56.8965 154.987 56.9L155 56.9051ZM156.501 78.3192C156.501 78.3049 156.501 78.2906 156.501 78.2764V85.4969L156.501 85.4972V85.4969V78.3192Z" fill="#E17774" stroke="black" stroke-width="3" stroke-linejoin="round"/>
</svg>
