<svg width="236" height="190" viewBox="0 0 236 190" fill="none" xmlns="http://www.w3.org/2000/svg">
<path d="M8.60821 110.852C-1.7995 102.847 -1.7995 87.1535 8.60821 79.1475L105.806 4.38016C112.995 -1.14987 123.005 -1.14986 130.194 4.38017L227.392 79.1475C237.799 87.1535 237.799 102.847 227.392 110.852L130.194 185.62C123.005 191.15 112.995 191.15 105.806 185.62L8.60821 110.852Z" fill="#E17774"/>
<path d="M31.6953 117.227C32.5469 117.227 33.2969 117.18 33.9531 117.086C34.6016 116.992 35.1719 116.859 35.6484 116.688C36.125 116.523 36.5312 116.32 36.8594 116.086C37.1797 115.859 37.4453 115.602 37.6406 115.328C37.8359 115.055 37.9766 114.758 38.0625 114.453C38.1484 114.148 38.1875 113.828 38.1875 113.508C38.1875 113 38.0938 112.57 37.9141 112.203C37.7344 111.836 37.4844 111.523 37.1719 111.266C36.8516 111.008 36.4844 110.797 36.0703 110.633C35.6484 110.469 35.1953 110.336 34.7188 110.234C34.2422 110.133 33.75 110.055 33.2422 109.992C32.7344 109.938 32.2344 109.883 31.7422 109.828C31.1094 109.766 30.5547 109.703 30.0938 109.641C29.625 109.586 29.2422 109.508 28.9375 109.406C28.6328 109.305 28.4141 109.18 28.2656 109.016C28.1172 108.859 28.0469 108.648 28.0469 108.383C28.0469 107.977 28.3203 107.672 28.8672 107.469C29.4141 107.273 30.2656 107.172 31.4297 107.172C32 107.172 32.5078 107.203 32.9453 107.266C33.375 107.336 33.75 107.43 34.0703 107.555C34.3828 107.68 34.6406 107.828 34.8438 108.008C35.0469 108.188 35.2031 108.391 35.3125 108.617L37.9062 107.711C37.8125 107.5 37.6875 107.289 37.5391 107.07C37.3828 106.859 37.1875 106.648 36.9531 106.438C36.7188 106.227 36.4375 106.031 36.1094 105.852C35.7812 105.672 35.3906 105.508 34.9453 105.375C34.5 105.242 33.9844 105.133 33.4062 105.047C32.8281 104.969 32.1719 104.93 31.4453 104.93C30.4531 104.93 29.5703 105.008 28.8125 105.172C28.0469 105.336 27.4062 105.57 26.8828 105.883C26.3594 106.195 25.9688 106.578 25.7031 107.031C25.4297 107.492 25.2969 108.016 25.2969 108.609C25.2969 109.102 25.3828 109.523 25.5625 109.875C25.7344 110.234 25.9688 110.539 26.2734 110.789C26.5781 111.047 26.9297 111.258 27.3359 111.422C27.7344 111.586 28.1641 111.727 28.625 111.828C29.0859 111.93 29.5625 112.016 30.0547 112.078C30.5469 112.141 31.0234 112.195 31.5 112.242C32.1641 112.312 32.7422 112.375 33.2344 112.438C33.7266 112.508 34.1328 112.594 34.4609 112.695C34.7812 112.805 35.0234 112.945 35.1875 113.109C35.3516 113.281 35.4297 113.508 35.4297 113.781C35.4297 114 35.3594 114.188 35.2188 114.352C35.0781 114.516 34.8594 114.656 34.5547 114.773C34.25 114.891 33.8516 114.977 33.375 115.031C32.8984 115.086 32.3125 115.117 31.6328 115.117C30.9375 115.117 30.3359 115.07 29.8281 114.969C29.3203 114.875 28.8984 114.742 28.5547 114.57C28.2031 114.406 27.9297 114.203 27.7266 113.969C27.5234 113.734 27.375 113.477 27.2812 113.203L24.6406 113.789C24.7812 114.25 25 114.688 25.2969 115.102C25.5938 115.516 26.0156 115.883 26.5547 116.195C27.0938 116.516 27.7891 116.766 28.625 116.945C29.4609 117.133 30.4844 117.227 31.6953 117.227ZM47.1484 117.195C48.2266 117.195 49.1797 117.086 50.0156 116.875C50.8438 116.664 51.5391 116.352 52.1094 115.938C52.6719 115.531 53.1016 115.023 53.3984 114.422C53.6875 113.82 53.8359 113.133 53.8359 112.359V105.156H51.1016V112.297C51.1016 112.734 51.0078 113.109 50.8281 113.422C50.6484 113.734 50.3828 113.992 50.0469 114.195C49.7109 114.398 49.2969 114.547 48.8125 114.641C48.3281 114.742 47.7812 114.789 47.1797 114.789C46.5703 114.789 46.0234 114.742 45.5391 114.641C45.0547 114.547 44.6406 114.398 44.3047 114.195C43.9688 113.992 43.7109 113.734 43.5312 113.422C43.3516 113.109 43.2578 112.734 43.2578 112.297V105.156H40.4609V112.359C40.4609 113.133 40.6094 113.82 40.9062 114.422C41.1953 115.023 41.625 115.531 42.1953 115.938C42.7656 116.352 43.4609 116.664 44.2969 116.875C45.125 117.086 46.0781 117.195 47.1484 117.195ZM56.625 105.156V117H64.9609C65.4766 117 65.9922 116.945 66.5078 116.844C67.0234 116.742 67.4922 116.562 67.9062 116.312C68.3203 116.062 68.6562 115.727 68.9141 115.312C69.1719 114.898 69.2969 114.375 69.2969 113.75C69.2969 113.242 69.2266 112.82 69.0938 112.477C68.9531 112.133 68.7656 111.852 68.5312 111.625C68.2969 111.398 68.0312 111.227 67.7266 111.102C67.4219 110.977 67.1016 110.883 66.7656 110.82C67.0469 110.75 67.3203 110.648 67.5859 110.516C67.8438 110.383 68.0781 110.211 68.2891 109.992C68.5 109.773 68.6641 109.508 68.7891 109.188C68.9141 108.875 68.9766 108.508 68.9766 108.086C68.9766 107.656 68.9219 107.289 68.8047 106.977C68.6875 106.664 68.5234 106.398 68.3203 106.18C68.1172 105.969 67.875 105.789 67.6016 105.656C67.3281 105.523 67.0312 105.414 66.7109 105.344C66.3906 105.273 66.0625 105.219 65.7109 105.195C65.3594 105.172 65.0156 105.156 64.6719 105.156H56.625ZM64.5703 114.805H59.375V112.008H64.4922C65.2031 112.008 65.7266 112.125 66.0625 112.352C66.3906 112.578 66.5547 112.93 66.5547 113.398C66.5547 113.844 66.3984 114.195 66.0781 114.438C65.7578 114.68 65.2578 114.805 64.5703 114.805ZM64.4609 109.961H59.375V107.383H64.4297C65.0938 107.383 65.5781 107.492 65.8672 107.711C66.1562 107.93 66.3047 108.25 66.3047 108.68C66.3047 109.07 66.1562 109.383 65.8594 109.609C65.5547 109.844 65.0938 109.961 64.4609 109.961ZM78.8281 117.242C79.5 117.242 80.1484 117.188 80.7734 117.078C81.3984 116.977 81.9844 116.812 82.5391 116.586C83.0859 116.367 83.5859 116.086 84.0391 115.75C84.4844 115.414 84.875 115.023 85.2031 114.562C85.5234 114.109 85.7734 113.594 85.9531 113.008C86.1328 112.43 86.2188 111.789 86.2188 111.078C86.2188 110.367 86.125 109.727 85.9453 109.141C85.7656 108.562 85.5078 108.047 85.1875 107.586C84.8594 107.133 84.4688 106.734 84.0156 106.398C83.5547 106.062 83.0547 105.789 82.5078 105.57C81.9609 105.352 81.375 105.188 80.7578 105.078C80.1328 104.977 79.4922 104.922 78.8281 104.922C78.1641 104.922 77.5234 104.977 76.9062 105.078C76.2812 105.188 75.6953 105.352 75.1562 105.57C74.6094 105.789 74.1094 106.062 73.6562 106.398C73.1953 106.734 72.8047 107.133 72.4844 107.586C72.1562 108.047 71.9062 108.562 71.7266 109.141C71.5469 109.727 71.4531 110.367 71.4531 111.078C71.4531 111.789 71.5391 112.43 71.7188 113.008C71.8984 113.594 72.1484 114.109 72.4688 114.562C72.7891 115.023 73.1797 115.414 73.6328 115.75C74.0781 116.086 74.5781 116.367 75.125 116.586C75.6719 116.812 76.2578 116.977 76.8828 117.078C77.5078 117.188 78.1562 117.242 78.8281 117.242ZM78.8281 114.906C78.0938 114.906 77.4453 114.812 76.875 114.633C76.3047 114.453 75.8203 114.188 75.4297 113.852C75.0391 113.516 74.7422 113.117 74.5391 112.648C74.3359 112.18 74.2344 111.656 74.2344 111.078C74.2344 110.5 74.3359 109.977 74.5391 109.516C74.7422 109.055 75.0391 108.656 75.4297 108.328C75.8203 108.008 76.3047 107.758 76.875 107.578C77.4453 107.406 78.0938 107.32 78.8281 107.32C79.5625 107.32 80.2188 107.406 80.7891 107.578C81.3594 107.758 81.8359 108.008 82.2266 108.328C82.6172 108.656 82.9141 109.055 83.1172 109.516C83.3203 109.977 83.4219 110.5 83.4219 111.078C83.4219 111.656 83.3203 112.18 83.1172 112.648C82.9141 113.117 82.6172 113.516 82.2266 113.852C81.8359 114.188 81.3594 114.453 80.7891 114.633C80.2188 114.812 79.5625 114.906 78.8281 114.906ZM88.6328 105.156V117H91.4141V112.719H96.2344L98.6641 117H101.664L99.0391 112.328C99.8594 112.086 100.469 111.688 100.883 111.133C101.297 110.578 101.5 109.844 101.5 108.93C101.5 108.25 101.391 107.664 101.18 107.188C100.961 106.711 100.648 106.32 100.242 106.016C99.8281 105.719 99.3281 105.5 98.7422 105.359C98.1562 105.227 97.4844 105.156 96.7422 105.156H88.6328ZM96.6406 110.484H91.4141V107.492H96.6406C97.3672 107.492 97.9062 107.609 98.25 107.852C98.5859 108.094 98.7578 108.477 98.7578 109.008C98.7578 109.531 98.5859 109.906 98.25 110.133C97.9062 110.367 97.3672 110.484 96.6406 110.484ZM104.148 105.156V117H111C111.594 117 112.172 116.953 112.727 116.852C113.281 116.75 113.797 116.602 114.281 116.391C114.766 116.188 115.211 115.93 115.617 115.609C116.016 115.289 116.367 114.914 116.656 114.469C116.945 114.023 117.164 113.516 117.328 112.945C117.484 112.375 117.562 111.727 117.562 111.016C117.562 110.297 117.484 109.656 117.328 109.086C117.172 108.516 116.953 108.016 116.664 107.578C116.375 107.148 116.031 106.773 115.633 106.469C115.234 106.164 114.789 105.914 114.305 105.719C113.812 105.523 113.289 105.383 112.734 105.289C112.18 105.203 111.602 105.156 111 105.156H104.148ZM111.031 114.711H106.953V107.516H111C111.68 107.516 112.266 107.602 112.742 107.781C113.219 107.961 113.602 108.203 113.898 108.516C114.195 108.828 114.414 109.203 114.547 109.633C114.68 110.062 114.742 110.539 114.742 111.047C114.742 111.594 114.68 112.094 114.547 112.539C114.414 112.984 114.195 113.375 113.906 113.695C113.609 114.016 113.227 114.266 112.758 114.445C112.281 114.625 111.711 114.711 111.031 114.711ZM126.812 117.242C127.484 117.242 128.133 117.188 128.758 117.078C129.383 116.977 129.969 116.812 130.523 116.586C131.07 116.367 131.57 116.086 132.023 115.75C132.469 115.414 132.859 115.023 133.188 114.562C133.508 114.109 133.758 113.594 133.938 113.008C134.117 112.43 134.203 111.789 134.203 111.078C134.203 110.367 134.109 109.727 133.93 109.141C133.75 108.562 133.492 108.047 133.172 107.586C132.844 107.133 132.453 106.734 132 106.398C131.539 106.062 131.039 105.789 130.492 105.57C129.945 105.352 129.359 105.188 128.742 105.078C128.117 104.977 127.477 104.922 126.812 104.922C126.148 104.922 125.508 104.977 124.891 105.078C124.266 105.188 123.68 105.352 123.141 105.57C122.594 105.789 122.094 106.062 121.641 106.398C121.18 106.734 120.789 107.133 120.469 107.586C120.141 108.047 119.891 108.562 119.711 109.141C119.531 109.727 119.438 110.367 119.438 111.078C119.438 111.789 119.523 112.43 119.703 113.008C119.883 113.594 120.133 114.109 120.453 114.562C120.773 115.023 121.164 115.414 121.617 115.75C122.062 116.086 122.562 116.367 123.109 116.586C123.656 116.812 124.242 116.977 124.867 117.078C125.492 117.188 126.141 117.242 126.812 117.242ZM126.812 114.906C126.078 114.906 125.43 114.812 124.859 114.633C124.289 114.453 123.805 114.188 123.414 113.852C123.023 113.516 122.727 113.117 122.523 112.648C122.32 112.18 122.219 111.656 122.219 111.078C122.219 110.5 122.32 109.977 122.523 109.516C122.727 109.055 123.023 108.656 123.414 108.328C123.805 108.008 124.289 107.758 124.859 107.578C125.43 107.406 126.078 107.32 126.812 107.32C127.547 107.32 128.203 107.406 128.773 107.578C129.344 107.758 129.82 108.008 130.211 108.328C130.602 108.656 130.898 109.055 131.102 109.516C131.305 109.977 131.406 110.5 131.406 111.078C131.406 111.656 131.305 112.18 131.102 112.648C130.898 113.117 130.602 113.516 130.211 113.852C129.82 114.188 129.344 114.453 128.773 114.633C128.203 114.812 127.547 114.906 126.812 114.906ZM136.617 105.156V117H139.328V108.539L147.227 117H149.984V105.156H147.289V113.273L139.742 105.156H136.617ZM152.961 105.156V117H155.672V108.539L163.57 117H166.328V105.156H163.633V113.273L156.086 105.156H152.961ZM175.508 101.562L172.391 104.414H174.586L178.344 101.562H175.508ZM169.305 105.156V117H180.969V114.664H172.125V112.086H179.211V109.812H172.125V107.562H180.719V105.156H169.305ZM183.305 105.156V117H194.969V114.664H186.125V112.086H193.211V109.812H186.125V107.562H194.719V105.156H183.305ZM203.492 117.227C204.344 117.227 205.094 117.18 205.75 117.086C206.398 116.992 206.969 116.859 207.445 116.688C207.922 116.523 208.328 116.32 208.656 116.086C208.977 115.859 209.242 115.602 209.438 115.328C209.633 115.055 209.773 114.758 209.859 114.453C209.945 114.148 209.984 113.828 209.984 113.508C209.984 113 209.891 112.57 209.711 112.203C209.531 111.836 209.281 111.523 208.969 111.266C208.648 111.008 208.281 110.797 207.867 110.633C207.445 110.469 206.992 110.336 206.516 110.234C206.039 110.133 205.547 110.055 205.039 109.992C204.531 109.938 204.031 109.883 203.539 109.828C202.906 109.766 202.352 109.703 201.891 109.641C201.422 109.586 201.039 109.508 200.734 109.406C200.43 109.305 200.211 109.18 200.062 109.016C199.914 108.859 199.844 108.648 199.844 108.383C199.844 107.977 200.117 107.672 200.664 107.469C201.211 107.273 202.062 107.172 203.227 107.172C203.797 107.172 204.305 107.203 204.742 107.266C205.172 107.336 205.547 107.43 205.867 107.555C206.18 107.68 206.438 107.828 206.641 108.008C206.844 108.188 207 108.391 207.109 108.617L209.703 107.711C209.609 107.5 209.484 107.289 209.336 107.07C209.18 106.859 208.984 106.648 208.75 106.438C208.516 106.227 208.234 106.031 207.906 105.852C207.578 105.672 207.188 105.508 206.742 105.375C206.297 105.242 205.781 105.133 205.203 105.047C204.625 104.969 203.969 104.93 203.242 104.93C202.25 104.93 201.367 105.008 200.609 105.172C199.844 105.336 199.203 105.57 198.68 105.883C198.156 106.195 197.766 106.578 197.5 107.031C197.227 107.492 197.094 108.016 197.094 108.609C197.094 109.102 197.18 109.523 197.359 109.875C197.531 110.234 197.766 110.539 198.07 110.789C198.375 111.047 198.727 111.258 199.133 111.422C199.531 111.586 199.961 111.727 200.422 111.828C200.883 111.93 201.359 112.016 201.852 112.078C202.344 112.141 202.82 112.195 203.297 112.242C203.961 112.312 204.539 112.375 205.031 112.438C205.523 112.508 205.93 112.594 206.258 112.695C206.578 112.805 206.82 112.945 206.984 113.109C207.148 113.281 207.227 113.508 207.227 113.781C207.227 114 207.156 114.188 207.016 114.352C206.875 114.516 206.656 114.656 206.352 114.773C206.047 114.891 205.648 114.977 205.172 115.031C204.695 115.086 204.109 115.117 203.43 115.117C202.734 115.117 202.133 115.07 201.625 114.969C201.117 114.875 200.695 114.742 200.352 114.57C200 114.406 199.727 114.203 199.523 113.969C199.32 113.734 199.172 113.477 199.078 113.203L196.438 113.789C196.578 114.25 196.797 114.688 197.094 115.102C197.391 115.516 197.812 115.883 198.352 116.195C198.891 116.516 199.586 116.766 200.422 116.945C201.258 117.133 202.281 117.227 203.492 117.227Z" fill="black"/>
<path d="M81.2608 49.0641C81.646 48.7302 81.9612 48.3872 82.2026 48.0305C82.4478 47.6783 82.6302 47.3341 82.7503 46.9896C82.8742 46.6495 82.9435 46.318 82.9538 45.9989C82.9679 45.6842 82.9307 45.3908 82.8586 45.1198L81.3951 45.7217C81.4569 45.9628 81.4696 46.1922 81.4372 46.4142C81.4047 46.6362 81.3398 46.8475 81.2469 47.0445C81.1539 47.2414 81.0374 47.42 80.9054 47.5809C80.7691 47.7456 80.6301 47.8894 80.4884 48.0122C80.2272 48.2387 79.9536 48.4061 79.6714 48.5189C79.3892 48.6317 79.1194 48.6872 78.8455 48.6843C78.5715 48.6814 78.3138 48.6257 78.0685 48.5127C77.827 48.4041 77.6062 48.2388 77.4181 48.0219C77.1993 47.7695 77.0523 47.5015 76.9846 47.2267C76.9126 46.9557 76.9111 46.6856 76.9636 46.4152C77.016 46.1448 77.1214 45.8906 77.2808 45.6362C77.444 45.3861 77.6429 45.1594 77.8819 44.9521C78.276 44.6105 78.6694 44.3935 79.0496 44.3043C79.4336 44.2195 79.81 44.2421 80.1737 44.3844L81.0254 43.0411C80.4193 42.7445 79.777 42.6655 79.1028 42.8003C78.428 42.9432 77.7367 43.3177 77.0284 43.9318C76.807 44.1237 76.5966 44.3371 76.3926 44.576C76.1887 44.8148 76.0084 45.072 75.8561 45.3436C75.6994 45.619 75.5796 45.9012 75.4917 46.2023C75.4038 46.5035 75.3655 46.8081 75.3806 47.1207C75.3995 47.4377 75.468 47.7583 75.5989 48.0791C75.7291 48.4083 75.9305 48.73 76.2107 49.0532C76.4678 49.3498 76.7418 49.5853 77.0243 49.7591C77.3069 49.933 77.5929 50.0572 77.8869 50.128C78.181 50.1988 78.4785 50.22 78.7752 50.1954C79.0757 50.1753 79.3664 50.1171 79.6563 50.0132C79.9417 49.913 80.2251 49.7837 80.4943 49.6201C80.7635 49.4565 81.0217 49.2714 81.2608 49.0641Z" fill="black"/>
<path d="M88.6471 43.7637C88.9237 43.5984 89.1883 43.413 89.4379 43.2024C89.6875 42.9918 89.9069 42.7651 90.1063 42.5162C90.3057 42.2673 90.47 42.0054 90.6061 41.7192C90.7403 41.4411 90.8232 41.1458 90.8629 40.8354C90.9026 40.5249 90.8811 40.2033 90.8113 39.8696C90.7415 39.5358 90.6034 39.202 90.396 38.8549C90.1856 38.5029 89.951 38.2131 89.6901 37.9935C89.4292 37.774 89.1562 37.6027 88.864 37.4907C88.5717 37.3786 88.2724 37.3118 87.9609 37.2932C87.6494 37.2745 87.3409 37.2951 87.0273 37.3528C86.7137 37.4106 86.408 37.5045 86.1043 37.6246C85.8007 37.7446 85.512 37.8898 85.2354 38.0552C84.9587 38.2205 84.6941 38.4059 84.4446 38.6165C84.195 38.8271 83.9675 39.0518 83.7681 39.3007C83.5687 39.5495 83.4045 39.8115 83.2733 40.0947C83.1422 40.3778 83.0593 40.6731 83.0246 40.9806C82.9849 41.291 83.0064 41.6126 83.0762 41.9463C83.146 42.2801 83.2901 42.624 83.5005 42.9761C83.7079 43.3231 83.9395 43.6079 84.2004 43.8274C84.4613 44.0469 84.7313 44.2132 85.0235 44.3252C85.3107 44.4403 85.6101 44.5071 85.9236 44.5177C86.2351 44.5363 86.5436 44.5158 86.8572 44.458C87.1708 44.4003 87.4795 44.3114 87.7832 44.1913C88.0868 44.0713 88.3705 43.9291 88.6471 43.7637ZM87.9798 42.6472C87.673 42.8305 87.3673 42.9586 87.0597 43.0264C86.7521 43.0942 86.4616 43.1108 86.1874 43.0631C85.9111 43.0234 85.662 42.9265 85.4352 42.7754C85.2084 42.6243 85.0198 42.423 84.8695 42.1715C84.7072 41.8999 84.6132 41.6284 84.5896 41.349C84.5639 41.0777 84.5965 40.8124 84.6924 40.5503C84.7863 40.2963 84.9335 40.0513 85.1419 39.8176C85.3533 39.5888 85.6109 39.3802 85.9177 39.1969C86.2245 39.0135 86.5302 38.8854 86.8348 38.8126C87.1424 38.7448 87.4278 38.7312 87.7041 38.7709C87.9754 38.8136 88.2244 38.9105 88.4512 39.0616C88.6811 39.2177 88.8727 39.4241 89.029 39.6856C89.1883 39.9522 89.2793 40.2186 89.3049 40.49C89.3336 40.7664 89.301 41.0316 89.2071 41.2857C89.1132 41.5398 88.966 41.7847 88.7576 42.0185C88.5492 42.2522 88.2916 42.4608 87.9798 42.6472Z" fill="black"/>
<path d="M91.2243 35.0238L93.486 40.9967L94.9546 40.4406L93.4025 36.3418C93.4789 36.2126 93.5848 36.0786 93.7235 35.932C93.8568 35.7876 94.0106 35.6479 94.1906 35.5108C94.3705 35.3738 94.5621 35.2511 94.7723 35.1277C94.9845 35.0097 95.1974 34.9103 95.4221 34.8252C95.9427 34.6281 96.3608 34.5575 96.673 34.621C96.9798 34.6865 97.195 34.8744 97.3133 35.1868L98.7575 39.0006L100.242 38.4383L98.6863 34.3286C98.5389 33.9395 98.3583 33.6445 98.1402 33.4326C97.9222 33.2207 97.681 33.0802 97.4092 33.0077C97.1395 32.9407 96.8404 32.9286 96.5272 32.9783C96.2139 33.028 95.8857 33.1209 95.546 33.2496C95.2117 33.3761 94.8988 33.526 94.6148 33.7024C94.3253 33.881 94.0728 34.058 93.8539 34.2412C93.6296 34.4264 93.4456 34.6025 93.2912 34.7738C93.1368 34.945 93.033 35.0846 92.9709 35.202L92.6929 34.4678L91.2243 35.0238Z" fill="black"/>
<path d="M102.08 40.5706C102.449 40.4777 102.743 40.3494 102.96 40.1799C103.178 40.0105 103.336 39.8255 103.434 39.6137C103.532 39.4018 103.579 39.1786 103.58 38.9427C103.581 38.7068 103.551 38.4667 103.492 38.2337L101.811 31.5512L100.288 31.9342L101.919 38.4178C101.966 38.6054 101.981 38.7588 101.965 38.8896C101.944 39.0218 101.904 39.1284 101.842 39.2166C101.78 39.3048 101.7 39.3731 101.598 39.423C101.497 39.4786 101.392 39.5171 101.278 39.5457C101.204 39.5643 101.123 39.5786 101.048 39.5915C100.967 39.6058 100.892 39.6187 100.822 39.6302C100.747 39.6431 100.682 39.6474 100.628 39.6489C100.569 39.6576 100.527 39.6562 100.497 39.6577L100.786 40.8055C100.815 40.804 100.875 40.8011 100.967 40.7839C101.056 40.7739 101.166 40.7581 101.287 40.7337C101.408 40.7094 101.541 40.6879 101.685 40.6578C101.823 40.6292 101.955 40.602 102.08 40.5706ZM99.6981 29.684L100.035 31.0251L101.609 30.6292L101.272 29.2881L99.6981 29.684Z" fill="black"/>
<path d="M109.468 36.755C109.787 36.7108 110.103 36.6434 110.415 36.547C110.727 36.4506 111.018 36.3275 111.299 36.1763C111.579 36.025 111.833 35.848 112.07 35.6377C112.302 35.434 112.494 35.1945 112.651 34.9242C112.809 34.654 112.915 34.3495 112.981 34.015C113.047 33.6805 113.05 33.3192 112.995 32.9188C112.939 32.5125 112.836 32.154 112.681 31.8501C112.527 31.5461 112.342 31.2818 112.117 31.0646C111.892 30.8473 111.642 30.6689 111.363 30.5301C111.083 30.3914 110.791 30.2898 110.48 30.2205C110.169 30.1512 109.851 30.1184 109.524 30.1103C109.198 30.1023 108.875 30.1232 108.556 30.1674C108.237 30.2116 107.921 30.279 107.609 30.3755C107.297 30.4719 107 30.5899 106.719 30.7412C106.438 30.8924 106.185 31.0695 105.954 31.279C105.722 31.4884 105.531 31.7279 105.379 31.9974C105.221 32.2677 105.115 32.5721 105.049 32.9066C104.983 33.2411 104.981 33.614 105.038 34.0203C105.093 34.4208 105.195 34.7734 105.35 35.0773C105.504 35.3813 105.688 35.6398 105.913 35.8571C106.132 36.0751 106.382 36.2535 106.666 36.3857C106.946 36.5245 107.238 36.626 107.549 36.6953C107.861 36.7646 108.179 36.8033 108.506 36.8113C108.832 36.8194 109.149 36.7992 109.468 36.755ZM109.29 35.4665C108.936 35.5155 108.604 35.5141 108.295 35.4564C107.985 35.3987 107.711 35.3006 107.477 35.1496C107.238 35.0052 107.047 34.8187 106.897 34.591C106.747 34.3633 106.652 34.1044 106.612 33.8142C106.569 33.5007 106.588 33.2141 106.676 32.9477C106.758 32.6878 106.891 32.4564 107.082 32.2525C107.268 32.0553 107.499 31.8873 107.782 31.7534C108.066 31.6254 108.385 31.534 108.739 31.4849C109.093 31.4359 109.424 31.4374 109.733 31.4893C110.043 31.547 110.311 31.6459 110.55 31.7903C110.783 31.9355 110.974 32.1219 111.124 32.3496C111.274 32.5831 111.37 32.8479 111.412 33.1497C111.455 33.4573 111.434 33.7381 111.352 33.998C111.27 34.2636 111.137 34.4951 110.951 34.6923C110.766 34.8895 110.535 35.0576 110.251 35.1914C109.968 35.3253 109.65 35.4167 109.29 35.4665Z" fill="black"/>
<path d="M115.795 29.6133V36H117.366V31.6172C117.483 31.5234 117.629 31.4355 117.811 31.3477C117.987 31.2598 118.18 31.1836 118.397 31.1191C118.614 31.0547 118.836 31.0078 119.077 30.9668C119.317 30.9316 119.551 30.9141 119.791 30.9141C120.348 30.9141 120.764 30.9961 121.034 31.166C121.297 31.3359 121.432 31.5879 121.432 31.9219V36H123.02V31.6055C123.02 31.1895 122.956 30.8496 122.827 30.5742C122.698 30.2988 122.522 30.082 122.293 29.918C122.065 29.7598 121.789 29.6426 121.479 29.5781C121.168 29.5137 120.829 29.4844 120.465 29.4844C120.108 29.4844 119.762 29.5137 119.434 29.5781C119.1 29.6426 118.801 29.7188 118.532 29.8125C118.256 29.9062 118.022 30.0059 117.817 30.1113C117.612 30.2168 117.465 30.3105 117.366 30.3984V29.6133H115.795Z" fill="black"/>
<path d="M128.044 36.6953C128.55 36.7596 129.016 36.7657 129.443 36.7078C129.869 36.6556 130.247 36.562 130.584 36.4217C130.92 36.2873 131.213 36.1178 131.458 35.9127C131.701 35.7134 131.895 35.4899 132.049 35.2555L130.625 34.5664C130.486 34.7732 130.324 34.9356 130.137 35.0595C129.95 35.1834 129.749 35.276 129.54 35.338C129.331 35.4001 129.121 35.4323 128.913 35.4413C128.699 35.4496 128.499 35.4419 128.313 35.4182C127.97 35.3746 127.663 35.2823 127.391 35.1473C127.118 35.0123 126.897 34.8483 126.717 34.6422C126.536 34.4361 126.406 34.2069 126.326 33.9487C126.246 33.6964 126.222 33.4216 126.258 33.1368C126.301 32.8055 126.402 32.5172 126.562 32.2835C126.716 32.0491 126.916 31.8678 127.153 31.7266C127.389 31.5854 127.649 31.4944 127.945 31.4434C128.24 31.3983 128.541 31.3953 128.855 31.4352C129.373 31.5011 129.797 31.6495 130.117 31.8733C130.436 32.1029 130.67 32.3985 130.807 32.7644L132.376 32.5032C132.192 31.8538 131.823 31.3225 131.273 30.9099C130.716 30.5025 129.976 30.2371 129.046 30.1188C128.756 30.0818 128.456 30.0673 128.142 30.0746C127.828 30.082 127.516 30.1191 127.213 30.1867C126.903 30.2536 126.613 30.3526 126.33 30.4879C126.047 30.6232 125.794 30.7978 125.571 31.0175C125.348 31.243 125.154 31.5079 125.003 31.8193C124.844 32.1359 124.739 32.5005 124.685 32.9248C124.635 33.3142 124.642 33.6755 124.701 34.0019C124.76 34.3283 124.858 34.6244 125.002 34.8907C125.145 35.157 125.328 35.3928 125.544 35.5975C125.759 35.808 125.996 35.9859 126.267 36.1325C126.532 36.2785 126.818 36.4034 127.119 36.4949C127.42 36.5864 127.731 36.6554 128.044 36.6953Z" fill="black"/>
<path d="M136.551 38.3655C136.744 38.4163 136.944 38.4629 137.145 38.5039C137.346 38.5449 137.538 38.5772 137.718 38.6065C137.892 38.6344 138.044 38.6562 138.173 38.6721C138.302 38.688 138.384 38.6976 138.426 38.7024L138.75 37.4729C138.696 37.4708 138.608 37.4597 138.492 37.4412C138.374 37.4283 138.252 37.4082 138.119 37.3852C137.985 37.3621 137.852 37.3391 137.72 37.3104C137.588 37.2817 137.485 37.2605 137.406 37.2395C137.224 37.1917 137.07 37.1329 136.947 37.0702C136.819 37.006 136.726 36.921 136.664 36.8136C136.599 36.7118 136.56 36.5862 136.558 36.4341C136.555 36.282 136.579 36.1004 136.636 35.8851L137.348 33.1826L139.819 33.8342L140.141 32.6104L137.671 31.9589L138.233 29.8286L136.698 29.4236L136.136 31.5539L134.283 31.0653L133.96 32.289L135.813 32.7777L135.003 35.8484C134.918 36.1714 134.881 36.4708 134.891 36.7338C134.9 36.9969 134.96 37.2307 135.081 37.4384C135.202 37.646 135.378 37.8259 135.622 37.9812C135.861 38.1349 136.171 38.2654 136.551 38.3655Z" fill="black"/>
<path d="M142.586 33.5135L140.311 39.4814L141.778 40.0407L144.053 34.0729L142.586 33.5135ZM143.392 31.3316L142.9 32.6237L144.416 33.2018L144.909 31.9097L143.392 31.3316Z" fill="black"/>
<path d="M145.994 34.7327L145.8 41.8759L147.512 42.7863L153.325 38.6301L151.964 37.9068L147.3 41.2266L147.453 35.5083L145.994 34.7327Z" fill="black"/>
<path d="M153.347 43.2976L158.19 47.0921L158.418 46.8015C158.71 46.4279 158.929 46.0633 159.071 45.7205C159.213 45.3778 159.294 45.0466 159.314 44.727C159.333 44.4074 159.301 44.1067 159.217 43.8247C159.132 43.5428 159.008 43.2741 158.848 43.0223C158.688 42.7704 158.504 42.5297 158.29 42.3095C158.071 42.0857 157.842 41.884 157.602 41.696C157.362 41.5081 157.103 41.335 156.83 41.1804C156.548 41.0268 156.261 40.8988 155.967 40.8094C155.667 40.7163 155.364 40.6571 155.061 40.6355C154.749 40.6149 154.444 40.6436 154.145 40.7216C153.841 40.7961 153.548 40.9318 153.262 41.1168C152.972 41.3064 152.703 41.5644 152.446 41.8919C152.081 42.3577 151.853 42.8194 151.767 43.2806C151.681 43.7418 151.694 44.191 151.818 44.6226C151.937 45.0588 152.142 45.4722 152.44 45.8618C152.737 46.2514 153.085 46.6057 153.491 46.9237C153.874 47.2236 154.237 47.4634 154.584 47.6465C154.928 47.8261 155.26 47.9527 155.579 48.0309C155.897 48.1091 156.196 48.1354 156.49 48.1123C156.78 48.0938 157.064 48.0259 157.334 47.9179L156.589 46.5894C156.214 46.735 155.845 46.7507 155.473 46.6455C155.101 46.5404 154.707 46.3211 154.292 45.9959C154.066 45.8188 153.872 45.6295 153.701 45.4207C153.529 45.212 153.398 44.99 153.308 44.7631C153.213 44.5325 153.171 44.2913 153.171 44.0452C153.17 43.799 153.228 43.5541 153.347 43.2976ZM156.825 42.6877C157.074 42.8828 157.282 43.0829 157.457 43.2871C157.627 43.4876 157.753 43.6977 157.833 43.9092C157.913 44.1207 157.939 44.3346 157.92 44.5581C157.901 44.7816 157.82 45.0084 157.681 45.234L154.065 42.4008C154.298 42.2264 154.539 42.1178 154.792 42.0704C155.042 42.0276 155.293 42.0305 155.537 42.0802C155.776 42.1263 156.011 42.2063 156.237 42.3166C156.455 42.4278 156.654 42.5539 156.825 42.6877Z" fill="black"/>
<path d="M159.752 52.8406C160.546 53.7261 161.267 54.2923 161.91 54.5264C162.548 54.7645 163.118 54.6544 163.629 54.1967C163.903 53.9503 164.071 53.6897 164.132 53.4067C164.189 53.1276 164.172 52.828 164.085 52.5121C163.995 52.2001 163.846 51.8766 163.645 51.5379C163.439 51.1947 163.209 50.8503 162.955 50.4962C162.75 50.2071 162.57 49.9441 162.408 49.7113C162.238 49.478 162.113 49.2678 162.019 49.0843C161.925 48.9008 161.871 48.7443 161.866 48.6071C161.857 48.4738 161.905 48.3602 162.014 48.2624C162.092 48.192 162.182 48.1512 162.286 48.1445C162.386 48.1333 162.505 48.1605 162.646 48.2305C162.779 48.3 162.94 48.4082 163.118 48.5632C163.292 48.7137 163.496 48.924 163.727 49.1814C163.931 49.4082 164.105 49.6293 164.247 49.8487C164.385 50.0636 164.498 50.2772 164.586 50.4812C164.671 50.6808 164.735 50.8752 164.779 51.056C164.815 51.2364 164.839 51.4037 164.839 51.5531L166.147 51.6782C166.163 51.4757 166.154 51.247 166.118 51.0044C166.077 50.7574 165.996 50.4916 165.875 50.2069C165.753 49.9223 165.588 49.6146 165.377 49.2836C165.163 48.9566 164.891 48.6099 164.559 48.2391C164.25 47.8945 163.933 47.6034 163.615 47.362C163.292 47.1245 162.977 46.958 162.671 46.8543C162.358 46.75 162.056 46.7212 161.772 46.7638C161.483 46.8103 161.214 46.941 160.962 47.1596C160.687 47.406 160.523 47.671 160.474 47.9588C160.426 48.2466 160.442 48.5462 160.537 48.8626C160.632 49.1789 160.78 49.5024 160.982 49.8411C161.183 50.1799 161.406 50.5156 161.645 50.8523C161.868 51.1632 162.065 51.4436 162.235 51.6769C162.4 51.9141 162.526 52.116 162.616 52.2952C162.702 52.47 162.743 52.6216 162.749 52.7505C162.746 52.879 162.694 52.9882 162.585 53.086C162.494 53.1682 162.387 53.2163 162.267 53.2222C162.146 53.2281 162.007 53.1873 161.85 53.1082C161.692 53.0291 161.521 52.8995 161.323 52.7227C161.125 52.546 160.897 52.3178 160.647 52.0386C160.408 51.7725 160.206 51.5126 160.05 51.2593C159.889 51.0099 159.765 50.7749 159.682 50.5505C159.59 50.3256 159.531 50.119 159.508 49.9269C159.482 49.7305 159.483 49.5563 159.508 49.3999L158.232 49.1272C158.175 49.344 158.154 49.5835 158.173 49.8418C158.188 50.104 158.255 50.3898 158.371 50.7032C158.486 51.0165 158.655 51.3535 158.88 51.7102C159.106 52.0668 159.396 52.4436 159.752 52.8406Z" fill="black"/>
<path d="M64.7696 132.556C65.0522 132.98 65.3528 133.336 65.6762 133.62C65.9946 133.908 66.3131 134.132 66.6397 134.295C66.9615 134.461 67.2816 134.571 67.5968 134.622C67.9072 134.675 68.203 134.675 68.4809 134.638L68.0684 133.11C67.8214 133.141 67.5922 133.125 67.3761 133.065C67.16 133.005 66.9585 132.914 66.7749 132.797C66.5913 132.679 66.4288 132.541 66.2858 132.39C66.1396 132.234 66.0145 132.078 65.9105 131.922C65.7188 131.634 65.5872 131.342 65.5109 131.048C65.4346 130.754 65.4135 130.479 65.4509 130.208C65.4883 129.936 65.5761 129.688 65.7192 129.458C65.8574 129.233 66.0492 129.034 66.2881 128.875C66.566 128.69 66.8504 128.578 67.1316 128.545C67.4095 128.508 67.6776 128.541 67.9392 128.627C68.2008 128.713 68.4397 128.849 68.6721 129.04C68.8995 129.233 69.0994 129.459 69.2749 129.722C69.564 130.156 69.7297 130.574 69.7703 130.962C69.806 131.354 69.736 131.725 69.5491 132.067L70.7742 133.082C71.1448 132.518 71.3042 131.891 71.2556 131.205C71.1988 130.517 70.9146 129.784 70.3947 129.004C70.2322 128.76 70.047 128.525 69.8358 128.292C69.6246 128.06 69.3922 127.849 69.142 127.663C68.8885 127.473 68.6236 127.319 68.336 127.193C68.0484 127.068 67.751 126.992 67.439 126.967C67.1221 126.946 66.7955 126.974 66.4607 127.063C66.1178 127.151 65.7732 127.31 65.4173 127.547C65.0906 127.765 64.8224 128.007 64.6143 128.265C64.4063 128.524 64.247 128.792 64.1397 129.075C64.0324 129.357 63.9738 129.65 63.9607 129.947C63.9428 130.248 63.9639 130.544 64.0304 130.844C64.0938 131.14 64.1863 131.437 64.3147 131.725C64.443 132.013 64.5941 132.292 64.7696 132.556Z" fill="black"/>
<path d="M73.305 133.208L68.4072 137.307L69.415 138.511L74.3128 134.412L73.305 133.208ZM75.0738 131.697L74.0134 132.585L75.055 133.829L76.1155 132.942L75.0738 131.697Z" fill="black"/>
<path d="M75.7432 136.114L71.2669 140.67L72.3869 141.77L75.2452 138.861C75.4109 138.852 75.6016 138.867 75.8174 138.906C76.0291 138.95 76.2535 139.022 76.4906 139.132C76.7277 139.242 76.9735 139.393 77.232 139.573C77.4863 139.757 77.7452 139.987 78.0087 140.262C78.0296 140.283 78.0547 140.308 78.0882 140.349L78.1844 140.46C78.2138 140.497 78.243 140.526 78.2682 140.559C78.2933 140.591 78.31 140.608 78.3184 140.616L79.3946 139.554L79.3276 139.472C79.0223 139.147 78.7217 138.885 78.4216 138.68C78.1215 138.476 77.8301 138.321 77.5556 138.207C77.2771 138.098 77.0113 138.026 76.7666 137.999C76.5177 137.968 76.294 137.97 76.0953 137.996L76.8633 137.215L75.7432 136.114Z" fill="black"/>
<path d="M79.5822 148.159C79.9941 148.459 80.3992 148.689 80.8009 148.844C81.1992 149.004 81.5756 149.105 81.9382 149.144C82.2974 149.189 82.6361 149.182 82.9493 149.12C83.2591 149.063 83.5367 148.961 83.7846 148.83L82.8696 147.539C82.6484 147.653 82.4278 147.717 82.2042 147.736C81.9806 147.754 81.76 147.738 81.5473 147.692C81.3345 147.645 81.1343 147.572 80.9479 147.479C80.7567 147.383 80.5854 147.28 80.4339 147.17C80.1546 146.966 79.9301 146.737 79.7568 146.487C79.5835 146.238 79.4688 145.987 79.4101 145.72C79.3515 145.452 79.348 145.188 79.403 144.924C79.4546 144.664 79.5661 144.412 79.7353 144.18C79.9321 143.91 80.1602 143.707 80.4128 143.579C80.6607 143.448 80.9236 143.386 81.1989 143.376C81.4742 143.367 81.7455 143.412 82.0293 143.511C82.3096 143.614 82.5752 143.756 82.8308 143.943C83.2522 144.25 83.552 144.585 83.7243 144.935C83.8931 145.291 83.9555 145.662 83.8985 146.049L85.3987 146.577C85.5517 145.92 85.4844 145.276 85.2018 144.65C84.911 144.024 84.391 143.434 83.6335 142.882C83.3968 142.709 83.1415 142.552 82.863 142.407C82.5845 142.262 82.2934 142.144 81.9946 142.057C81.691 141.966 81.3891 141.912 81.0759 141.894C80.7627 141.876 80.4573 141.907 80.156 141.992C79.8514 142.082 79.5544 142.221 79.2711 142.42C78.9796 142.621 78.7113 142.889 78.4592 143.235C78.2279 143.552 78.0599 143.872 77.954 144.186C77.848 144.501 77.7912 144.807 77.7882 145.11C77.7852 145.412 77.8313 145.707 77.9218 145.99C78.0089 146.279 78.1309 146.549 78.2973 146.808C78.4589 147.064 78.6486 147.311 78.8684 147.536C79.0882 147.762 79.3266 147.972 79.5822 148.159Z" fill="black"/>
<path d="M88.007 153.295C88.2962 153.438 88.5957 153.559 88.9081 153.654C89.2206 153.749 89.5302 153.809 89.8475 153.841C90.1648 153.873 90.474 153.869 90.7881 153.827C91.0945 153.789 91.3874 153.698 91.6695 153.562C91.9516 153.427 92.2098 153.234 92.4519 152.994C92.694 152.754 92.8991 152.456 93.0775 152.093C93.2585 151.725 93.3741 151.371 93.4164 151.032C93.4588 150.694 93.454 150.372 93.3891 150.066C93.3242 149.76 93.2175 149.472 93.0637 149.2C92.91 148.929 92.7249 148.681 92.5059 148.449C92.2869 148.218 92.0418 148.012 91.7759 147.823C91.51 147.633 91.2312 147.47 90.942 147.328C90.6528 147.185 90.3533 147.064 90.0408 146.969C89.7284 146.874 89.4161 146.806 89.0988 146.774C88.7815 146.742 88.4723 146.746 88.1634 146.79C87.8545 146.834 87.5616 146.925 87.2847 147.063C87.0026 147.199 86.7444 147.392 86.5023 147.632C86.2602 147.872 86.05 148.18 85.8689 148.548C85.6905 148.911 85.5775 149.26 85.5352 149.598C85.4929 149.937 85.5002 150.254 85.5651 150.56C85.6247 150.864 85.7314 151.151 85.893 151.42C86.0468 151.691 86.2319 151.939 86.4509 152.171C86.6699 152.403 86.9124 152.613 87.1783 152.803C87.4442 152.992 87.7178 153.153 88.007 153.295ZM88.581 152.128C88.2603 151.97 87.9866 151.784 87.7624 151.562C87.5382 151.341 87.3663 151.106 87.2572 150.85C87.1402 150.597 87.0861 150.335 87.0895 150.063C87.093 149.79 87.1594 149.522 87.2887 149.259C87.4283 148.975 87.605 148.749 87.8266 148.577C88.0404 148.408 88.2807 148.291 88.5528 148.229C88.8171 148.17 89.1027 148.16 89.4122 148.208C89.7191 148.261 90.0342 148.363 90.355 148.521C90.6757 148.679 90.9495 148.866 91.1762 149.082C91.4004 149.303 91.567 149.535 91.684 149.789C91.7957 150.039 91.8498 150.301 91.8464 150.574C91.8404 150.852 91.7714 151.124 91.6369 151.398C91.4999 151.677 91.3258 151.898 91.112 152.067C90.8956 152.241 90.6553 152.358 90.3911 152.418C90.1268 152.477 89.8412 152.487 89.5317 152.439C89.2222 152.391 88.907 152.288 88.581 152.128Z" fill="black"/>
<path d="M96.296 149.944L94.5102 156.076L96.0179 156.515L97.2433 152.307C97.3821 152.249 97.5473 152.206 97.7463 152.172C97.9396 152.137 98.1465 152.118 98.3727 152.117C98.5989 152.116 98.8258 152.133 99.0679 152.161C99.3084 152.194 99.5383 152.243 99.769 152.31C100.303 152.465 100.68 152.661 100.891 152.899C101.097 153.136 101.156 153.416 101.062 153.736L99.9221 157.652L101.447 158.096L102.675 153.876C102.792 153.477 102.825 153.133 102.778 152.832C102.731 152.532 102.623 152.274 102.45 152.053C102.274 151.837 102.043 151.648 101.763 151.499C101.483 151.35 101.164 151.227 100.816 151.126C100.472 151.026 100.132 150.957 99.7993 150.927C99.4606 150.896 99.1524 150.885 98.8674 150.9C98.5768 150.913 98.3239 150.943 98.0976 150.987C97.8712 151.031 97.7043 151.08 97.5841 151.137L97.8036 150.383L96.296 149.944Z" fill="black"/>
<path d="M107.7 159.349C108.878 159.512 109.793 159.479 110.435 159.242C111.077 159.012 111.441 158.559 111.535 157.88C111.585 157.515 111.545 157.207 111.409 156.952C111.272 156.702 111.066 156.484 110.795 156.299C110.525 156.12 110.202 155.969 109.83 155.84C109.451 155.711 109.053 155.597 108.63 155.491C108.287 155.402 107.98 155.318 107.706 155.244C107.425 155.176 107.194 155.097 107.004 155.017C106.814 154.938 106.672 154.853 106.579 154.751C106.486 154.656 106.449 154.538 106.469 154.393C106.484 154.288 106.525 154.2 106.601 154.127C106.67 154.054 106.778 153.998 106.931 153.96C107.078 153.927 107.27 153.906 107.506 153.909C107.736 153.912 108.028 153.94 108.371 153.988C108.673 154.03 108.949 154.086 109.198 154.162C109.442 154.237 109.667 154.327 109.866 154.425C110.059 154.523 110.234 154.63 110.384 154.74C110.528 154.854 110.655 154.966 110.751 155.08L111.831 154.331C111.712 154.166 111.558 153.997 111.373 153.836C111.183 153.673 110.949 153.522 110.673 153.384C110.396 153.245 110.071 153.117 109.696 153C109.321 152.889 108.89 152.8 108.397 152.731C107.938 152.668 107.509 152.65 107.11 152.672C106.71 152.699 106.362 152.775 106.062 152.893C105.755 153.016 105.506 153.189 105.316 153.405C105.126 153.627 105.005 153.9 104.954 154.23C104.903 154.596 104.949 154.904 105.098 155.155C105.246 155.407 105.453 155.625 105.729 155.805C106.006 155.985 106.328 156.136 106.701 156.265C107.074 156.393 107.46 156.506 107.86 156.609C108.232 156.701 108.563 156.789 108.843 156.857C109.123 156.931 109.349 157.004 109.534 157.083C109.712 157.161 109.842 157.25 109.929 157.344C110.01 157.444 110.041 157.561 110.021 157.706C110.004 157.828 109.954 157.934 109.866 158.016C109.777 158.098 109.645 158.157 109.474 158.198C109.302 158.24 109.088 158.251 108.823 158.244C108.557 158.237 108.236 158.21 107.864 158.159C107.51 158.11 107.188 158.042 106.905 157.949C106.622 157.863 106.375 157.763 106.167 157.646C105.952 157.533 105.773 157.414 105.631 157.282C105.484 157.149 105.373 157.015 105.291 156.88L104.141 157.496C104.237 157.698 104.375 157.895 104.557 158.08C104.737 158.27 104.974 158.445 105.264 158.609C105.555 158.774 105.901 158.922 106.304 159.049C106.706 159.176 107.171 159.276 107.7 159.349Z" fill="black"/>
<path d="M117.503 160.082C117.702 160.086 117.908 160.085 118.113 160.078C118.318 160.071 118.512 160.057 118.694 160.044C118.87 160.03 119.023 160.016 119.152 160.001C119.281 159.986 119.363 159.977 119.405 159.972L119.433 158.7C119.38 158.711 119.292 158.721 119.174 158.73C119.057 158.745 118.933 158.754 118.798 158.763C118.663 158.771 118.528 158.78 118.394 158.783C118.259 158.786 118.153 158.789 118.071 158.787C117.884 158.783 117.72 158.762 117.586 158.73C117.446 158.697 117.336 158.636 117.25 158.547C117.164 158.463 117.096 158.35 117.058 158.202C117.021 158.055 117.001 157.873 117.006 157.65L117.068 154.856L119.622 154.913L119.65 153.647L117.096 153.591L117.145 151.388L115.558 151.353L115.509 153.556L113.593 153.513L113.565 154.778L115.481 154.821L115.41 157.996C115.403 158.33 115.437 158.629 115.508 158.883C115.578 159.137 115.691 159.35 115.857 159.524C116.023 159.697 116.237 159.831 116.51 159.925C116.778 160.019 117.111 160.073 117.503 160.082Z" fill="black"/>
<path d="M124.798 159.932C125.113 159.904 125.431 159.851 125.754 159.774C126.071 159.704 126.375 159.612 126.659 159.504C126.943 159.395 127.203 159.272 127.432 159.139C127.661 159.006 127.848 158.866 127.988 158.718C128.009 158.886 128.04 159.036 128.082 159.168C128.124 159.305 128.163 159.419 128.206 159.504L129.77 159.361C129.734 159.282 129.696 159.197 129.67 159.105C129.644 159.014 129.617 158.91 129.589 158.789C129.56 158.674 129.542 158.54 129.523 158.395C129.504 158.25 129.482 158.075 129.465 157.883L129.23 155.315C129.194 154.913 129.103 154.568 128.953 154.276C128.803 153.983 128.593 153.749 128.318 153.569C128.043 153.388 127.702 153.266 127.29 153.198C126.878 153.135 126.395 153.126 125.835 153.177C125.35 153.222 124.909 153.291 124.512 153.386C124.115 153.487 123.766 153.596 123.46 153.718C123.154 153.846 122.895 153.975 122.678 154.113C122.462 154.256 122.286 154.39 122.15 154.514L122.998 155.495C123.125 155.396 123.285 155.287 123.481 155.181C123.678 155.075 123.898 154.978 124.143 154.885C124.387 154.792 124.645 154.71 124.915 154.638C125.185 154.572 125.463 154.523 125.737 154.498C126.076 154.467 126.363 154.459 126.6 154.478C126.838 154.498 127.035 154.539 127.188 154.601C127.341 154.664 127.46 154.747 127.534 154.846C127.608 154.945 127.654 155.059 127.666 155.193L127.679 155.333C127.174 155.409 126.693 155.488 126.224 155.572C125.755 155.656 125.311 155.755 124.903 155.869C124.496 155.982 124.12 156.117 123.786 156.259C123.452 156.407 123.167 156.574 122.932 156.767C122.696 156.959 122.522 157.18 122.409 157.42C122.29 157.666 122.245 157.941 122.273 158.251C122.304 158.589 122.394 158.869 122.539 159.097C122.683 159.325 122.87 159.508 123.1 159.64C123.324 159.773 123.585 159.861 123.877 159.905C124.17 159.954 124.477 159.962 124.798 159.932ZM125.244 158.638C124.778 158.681 124.427 158.648 124.194 158.546C123.956 158.444 123.828 158.273 123.807 158.04C123.788 157.836 123.872 157.657 124.064 157.505C124.256 157.352 124.526 157.209 124.879 157.083C125.233 156.963 125.658 156.847 126.155 156.749C126.646 156.651 127.19 156.555 127.781 156.459L127.897 157.726C127.81 157.804 127.671 157.893 127.485 157.987C127.294 158.087 127.073 158.177 126.828 158.264C126.583 158.351 126.32 158.434 126.044 158.501C125.767 158.567 125.501 158.615 125.244 158.638Z" fill="black"/>
<path d="M130.505 152.865L131.978 159.079L133.506 158.717L132.495 154.453C132.587 154.334 132.71 154.215 132.866 154.088C133.017 153.962 133.188 153.843 133.384 153.73C133.58 153.617 133.786 153.52 134.01 153.425C134.236 153.335 134.46 153.264 134.693 153.209C135.235 153.081 135.659 153.064 135.96 153.168C136.256 153.272 136.445 153.486 136.522 153.811L137.463 157.779L139.008 157.413L137.994 153.137C137.898 152.732 137.757 152.416 137.568 152.178C137.379 151.94 137.158 151.77 136.898 151.663C136.639 151.561 136.344 151.511 136.027 151.52C135.71 151.529 135.373 151.579 135.019 151.662C134.671 151.745 134.342 151.853 134.037 151.991C133.727 152.131 133.454 152.274 133.213 152.428C132.967 152.582 132.762 152.733 132.587 152.883C132.412 153.033 132.291 153.158 132.214 153.267L132.033 152.503L130.505 152.865Z" fill="black"/>
<path d="M145.9 155.053C146.369 154.853 146.774 154.623 147.113 154.357C147.455 154.097 147.734 153.825 147.954 153.534C148.176 153.248 148.344 152.954 148.451 152.654C148.561 152.358 148.615 152.068 148.63 151.788L147.052 151.912C147.037 152.161 146.979 152.383 146.88 152.584C146.781 152.785 146.655 152.967 146.506 153.126C146.357 153.285 146.191 153.419 146.017 153.532C145.836 153.647 145.66 153.741 145.487 153.815C145.169 153.95 144.858 154.026 144.554 154.046C144.251 154.067 143.977 154.038 143.718 153.951C143.458 153.864 143.229 153.732 143.031 153.549C142.834 153.372 142.674 153.147 142.562 152.883C142.431 152.576 142.373 152.275 142.393 151.993C142.407 151.713 142.489 151.456 142.621 151.214C142.754 150.973 142.932 150.763 143.162 150.57C143.394 150.382 143.653 150.227 143.944 150.103C144.424 149.899 144.865 149.812 145.254 149.844C145.646 149.881 145.997 150.018 146.299 150.265L147.522 149.247C147.036 148.779 146.449 148.507 145.765 148.429C145.079 148.358 144.307 148.503 143.444 148.87C143.175 148.985 142.909 149.124 142.642 149.289C142.374 149.453 142.124 149.643 141.896 149.855C141.662 150.069 141.462 150.301 141.286 150.561C141.11 150.82 140.98 151.099 140.898 151.401C140.819 151.708 140.786 152.034 140.813 152.38C140.836 152.733 140.929 153.101 141.096 153.495C141.25 153.856 141.439 154.164 141.655 154.416C141.87 154.668 142.105 154.874 142.363 155.031C142.621 155.189 142.898 155.3 143.188 155.368C143.48 155.441 143.774 155.474 144.082 155.464C144.385 155.456 144.694 155.42 145 155.347C145.307 155.274 145.609 155.177 145.9 155.053Z" fill="black"/>
<path d="M148.13 146.736L151.342 152.256L152.699 151.467L149.487 145.946L148.13 146.736ZM146.939 144.737L147.635 145.933L149.038 145.116L148.342 143.921L146.939 144.737Z" fill="black"/>
<path d="M154.4 147.314L159.289 143.579L159.065 143.285C158.777 142.908 158.479 142.605 158.182 142.382C157.886 142.158 157.586 141.997 157.282 141.897C156.977 141.798 156.678 141.754 156.384 141.765C156.09 141.775 155.799 141.828 155.515 141.92C155.231 142.012 154.952 142.129 154.685 142.281C154.413 142.437 154.16 142.608 153.918 142.793C153.676 142.978 153.443 143.185 153.225 143.411C153.006 143.645 152.81 143.891 152.649 144.153C152.484 144.42 152.35 144.699 152.253 144.987C152.155 145.283 152.106 145.586 152.107 145.895C152.102 146.208 152.16 146.525 152.268 146.849C152.378 147.177 152.56 147.502 152.813 147.833C153.172 148.303 153.562 148.64 153.987 148.839C154.412 149.038 154.85 149.138 155.298 149.127C155.751 149.121 156.202 149.026 156.654 148.836C157.106 148.646 157.536 148.398 157.946 148.085C158.332 147.79 158.656 147.499 158.92 147.208C159.18 146.921 159.386 146.631 159.542 146.342C159.697 146.054 159.798 145.77 159.849 145.481C159.904 145.195 159.91 144.903 159.873 144.614L158.4 145.002C158.447 145.402 158.369 145.763 158.174 146.097C157.979 146.43 157.668 146.756 157.249 147.076C157.021 147.251 156.789 147.391 156.544 147.504C156.299 147.618 156.051 147.689 155.809 147.72C155.562 147.753 155.318 147.733 155.079 147.672C154.841 147.611 154.618 147.493 154.4 147.314ZM154.683 143.794C154.934 143.602 155.18 143.451 155.422 143.333C155.658 143.218 155.893 143.15 156.118 143.125C156.343 143.101 156.557 143.13 156.768 143.204C156.98 143.278 157.179 143.414 157.362 143.605L153.712 146.394C153.602 146.124 153.557 145.863 153.575 145.607C153.596 145.354 153.662 145.112 153.771 144.889C153.876 144.669 154.012 144.461 154.176 144.27C154.338 144.087 154.51 143.926 154.683 143.794Z" fill="black"/>
<path d="M156.19 137.784L162.434 144.102L163.551 142.998L157.307 136.68L156.19 137.784Z" fill="black"/>
<path d="M158.853 135.058L165.573 140.867L166.6 139.679L159.879 133.87L158.853 135.058Z" fill="black"/>
<path d="M166.912 135.125L170.356 130.027L170.05 129.821C169.657 129.555 169.278 129.363 168.926 129.245C168.574 129.128 168.238 129.07 167.918 129.073C167.598 129.076 167.3 129.129 167.025 129.233C166.749 129.337 166.49 129.48 166.25 129.658C166.01 129.835 165.783 130.035 165.578 130.265C165.37 130.499 165.185 130.742 165.015 130.994C164.844 131.247 164.69 131.517 164.555 131.801C164.421 132.092 164.314 132.387 164.245 132.688C164.174 132.993 164.136 133.3 164.136 133.604C164.137 133.916 164.187 134.218 164.286 134.511C164.382 134.809 164.538 135.091 164.743 135.364C164.952 135.64 165.228 135.89 165.573 136.123C166.064 136.454 166.54 136.649 167.006 136.702C167.472 136.756 167.92 136.711 168.341 136.558C168.768 136.408 169.166 136.174 169.534 135.85C169.901 135.526 170.23 135.154 170.519 134.727C170.791 134.324 171.005 133.945 171.163 133.585C171.318 133.23 171.421 132.889 171.476 132.566C171.532 132.243 171.537 131.943 171.493 131.651C171.455 131.364 171.367 131.085 171.24 130.823L169.967 131.66C170.139 132.023 170.181 132.391 170.102 132.769C170.023 133.147 169.832 133.556 169.537 133.993C169.376 134.231 169.201 134.437 169.005 134.623C168.809 134.809 168.597 134.955 168.377 135.061C168.153 135.172 167.916 135.231 167.67 135.249C167.425 135.267 167.176 135.226 166.912 135.125ZM166.059 131.699C166.236 131.437 166.421 131.216 166.612 131.027C166.8 130.843 167.001 130.702 167.206 130.608C167.412 130.513 167.623 130.472 167.847 130.475C168.072 130.478 168.304 130.543 168.538 130.666L165.967 134.473C165.776 134.252 165.651 134.019 165.586 133.77C165.526 133.524 165.511 133.274 165.543 133.027C165.573 132.785 165.636 132.545 165.73 132.312C165.826 132.086 165.937 131.879 166.059 131.699Z" fill="black"/>
<path d="M175.193 126.508C175.695 125.43 175.932 124.545 175.894 123.862C175.862 123.181 175.537 122.7 174.915 122.411C174.58 122.255 174.275 122.203 173.991 122.259C173.712 122.316 173.443 122.45 173.186 122.653C172.935 122.86 172.696 123.123 172.464 123.442C172.229 123.766 172.003 124.113 171.778 124.486C171.592 124.788 171.422 125.057 171.271 125.297C171.123 125.545 170.98 125.743 170.848 125.902C170.716 126.06 170.593 126.171 170.469 126.23C170.35 126.291 170.227 126.291 170.094 126.23C169.999 126.185 169.926 126.119 169.879 126.026C169.829 125.938 169.807 125.818 169.816 125.661C169.828 125.511 169.864 125.321 169.936 125.096C170.006 124.877 170.119 124.606 170.265 124.293C170.394 124.017 170.528 123.769 170.674 123.553C170.818 123.341 170.97 123.154 171.122 122.992C171.273 122.836 171.426 122.7 171.575 122.589C171.727 122.485 171.871 122.397 172.008 122.338L171.609 121.086C171.417 121.151 171.21 121.249 171.001 121.378C170.79 121.512 170.577 121.691 170.363 121.915C170.149 122.139 169.932 122.412 169.71 122.736C169.494 123.061 169.282 123.448 169.072 123.899C168.876 124.319 168.733 124.724 168.637 125.112C168.545 125.503 168.516 125.857 168.541 126.179C168.568 126.508 168.66 126.797 168.812 127.042C168.968 127.289 169.194 127.484 169.494 127.631C169.829 127.786 170.137 127.833 170.42 127.764C170.704 127.696 170.973 127.563 171.227 127.351C171.48 127.14 171.719 126.876 171.951 126.557C172.184 126.239 172.405 125.902 172.62 125.55C172.818 125.222 172.999 124.932 173.147 124.684C173.3 124.438 173.436 124.243 173.565 124.09C173.692 123.942 173.815 123.844 173.931 123.789C174.051 123.741 174.171 123.745 174.304 123.807C174.416 123.859 174.502 123.938 174.555 124.046C174.608 124.155 174.625 124.299 174.614 124.475C174.603 124.65 174.551 124.859 174.467 125.11C174.382 125.362 174.262 125.661 174.104 126.001C173.953 126.326 173.793 126.613 173.622 126.856C173.456 127.102 173.289 127.309 173.115 127.474C172.944 127.646 172.778 127.782 172.61 127.878C172.44 127.98 172.279 128.048 172.126 128.086L172.377 129.366C172.598 129.334 172.827 129.259 173.057 129.14C173.292 129.023 173.529 128.849 173.771 128.619C174.014 128.389 174.257 128.102 174.497 127.755C174.736 127.407 174.968 126.992 175.193 126.508Z" fill="black"/>
<circle cx="110" cy="70" r="8" fill="#EFC65F"/>
<path d="M144.476 78.5481C144.24 74.6225 140.975 71.5047 136.991 71.5047C136.084 71.5047 135.226 71.6714 134.436 71.963C132.327 68.5521 128.564 66.2557 124.243 66.2557C117.779 66.2557 112.5 71.3718 112.254 77.7859C107.548 78.8103 103.997 82.9661 103.997 88.0018C103.997 93.798 108.699 98.5 114.495 98.5H139.99C145.786 98.5 150.488 93.798 150.488 88.0018C150.488 83.7976 148.013 80.2235 144.476 78.5481ZM144.422 79.6023C144.422 79.6023 144.422 79.6023 144.422 79.6023L142.985 79.3231L144.422 79.6023Z" fill="#9CA4F0" stroke="black" stroke-width="3"/>
<path d="M103.632 63.6342L103.633 63.633C107.143 60.1227 112.848 60.1227 116.359 63.633L116.359 63.633C117.12 64.3945 117.7 65.2878 118.146 66.2615L118.729 67.5356L120.039 67.0407C120.827 66.7435 121.679 66.5496 122.597 66.4196L123.515 66.2898L123.809 65.4111L126.602 57.0796C127.378 54.7713 125.179 52.6342 122.914 53.3766L122.906 53.3791L115.91 55.7139L112.605 49.1199C111.532 46.948 108.451 46.9732 107.379 49.1165L104.081 55.7139L97.076 53.379L97.0724 53.3778C94.796 52.6254 92.6255 54.7961 93.3778 57.0723L93.3791 57.0765L95.7139 64.0728L89.1165 67.3795C89.1164 67.3796 89.1163 67.3796 89.1161 67.3797C86.9612 68.4576 86.9613 71.5253 89.1165 72.6029C89.1165 72.6029 89.1165 72.6029 89.1165 72.6029L95.7135 75.9014L93.3802 82.8935C93.38 82.8941 93.3797 82.8948 93.3795 82.8954C92.6055 85.203 94.8041 87.3387 97.0688 86.5965L97.0748 86.5945L104.208 84.2231L104.803 84.025L105.081 83.4618C105.585 82.4364 106.235 81.5094 107.018 80.7093L108.575 79.1205L106.518 78.2728C105.468 77.8397 104.482 77.1987 103.633 76.3494C100.122 72.8385 100.124 67.1342 103.632 63.6342Z" fill="#EFC65F" stroke="black" stroke-width="3"/>
</svg>
