<svg width="290" height="189" viewBox="0 0 290 189" fill="none" xmlns="http://www.w3.org/2000/svg">
<path d="M5.44064 32.827C-5.44373 19.8061 3.8146 -6.6162e-07 20.7856 0L269.58 9.69934e-06C286.551 1.0361e-05 295.809 19.8061 284.925 32.827L160.528 181.643C152.533 191.207 137.832 191.207 129.838 181.643L5.44064 32.827Z" fill="#EEBECE"/>
<path d="M137.203 158.811L147.41 167.376L149.427 164.972L145.98 162.08L149.482 157.905C149.765 157.569 150.033 157.208 150.287 156.837C150.542 156.465 150.758 156.084 150.929 155.689C151.107 155.299 151.228 154.895 151.298 154.484C151.368 154.072 151.357 153.661 151.283 153.243C151.203 152.832 151.043 152.422 150.782 152.008C150.528 151.6 150.168 151.195 149.69 150.794C149.212 150.393 148.756 150.102 148.309 149.91C147.863 149.731 147.435 149.625 147.022 149.611C146.609 149.597 146.21 149.663 145.828 149.79C145.44 149.924 145.069 150.106 144.71 150.344C144.357 150.587 144.007 150.867 143.674 151.195C143.341 151.524 143.028 151.87 142.723 152.233L137.203 158.811ZM147.65 156.219L144.074 160.481L141.233 158.097L144.809 153.835C145.097 153.491 145.374 153.23 145.646 153.057C145.917 152.883 146.17 152.774 146.416 152.74C146.663 152.706 146.896 152.729 147.115 152.81C147.341 152.896 147.558 153.02 147.766 153.196C147.975 153.371 148.135 153.563 148.26 153.77C148.384 153.977 148.447 154.203 148.457 154.452C148.466 154.7 148.402 154.968 148.271 155.26C148.148 155.558 147.939 155.876 147.65 156.219ZM147.915 146.046L158.121 154.61L160.133 152.213L156.443 149.118L159.929 144.963L165.375 145.965L167.545 143.38L161.62 142.264C162.005 141.382 162.102 140.568 161.924 139.811C161.745 139.053 161.259 138.346 160.471 137.685C159.885 137.194 159.301 136.865 158.738 136.702C158.169 136.546 157.607 136.532 157.05 136.662C156.495 136.804 155.945 137.077 155.4 137.48C154.862 137.889 154.315 138.417 153.779 139.057L147.915 146.046ZM158.297 142.998L154.518 147.502L151.939 145.338L155.718 140.834C156.244 140.208 156.735 139.828 157.192 139.707C157.644 139.592 158.098 139.721 158.556 140.105C159.007 140.484 159.206 140.903 159.158 141.356C159.111 141.822 158.822 142.371 158.297 142.998ZM174.493 135.523C174.979 134.944 175.401 134.346 175.759 133.728C176.123 133.116 176.405 132.492 176.611 131.85C176.818 131.221 176.937 130.586 176.976 129.953C177.008 129.326 176.954 128.707 176.794 128.091C176.635 127.487 176.372 126.899 175.997 126.321C175.628 125.748 175.138 125.21 174.526 124.696C173.913 124.182 173.293 123.8 172.658 123.531C172.03 123.268 171.399 123.117 170.77 123.06C170.143 123.015 169.517 123.063 168.9 123.211C168.277 123.365 167.679 123.598 167.095 123.911C166.511 124.224 165.946 124.611 165.406 125.064C164.866 125.529 164.356 126.041 163.876 126.614C163.396 127.186 162.979 127.778 162.621 128.383C162.263 129.001 161.981 129.624 161.779 130.247C161.572 130.876 161.446 131.505 161.408 132.139C161.364 132.779 161.425 133.403 161.584 134.007C161.744 134.623 162.008 135.212 162.376 135.784C162.751 136.363 163.235 136.907 163.848 137.421C164.461 137.935 165.075 138.325 165.703 138.588C166.338 138.857 166.963 139.014 167.585 139.066C168.214 139.123 168.833 139.069 169.451 138.921C170.062 138.78 170.666 138.553 171.25 138.24C171.841 137.932 172.406 137.546 172.945 137.081C173.491 136.621 174.008 136.102 174.493 135.523ZM172.48 133.834C171.949 134.467 171.4 134.958 170.832 135.319C170.265 135.681 169.686 135.906 169.114 136C168.542 136.093 167.984 136.061 167.433 135.897C166.882 135.733 166.358 135.442 165.859 135.024C165.361 134.606 164.983 134.14 164.733 133.632C164.483 133.123 164.354 132.58 164.354 132.006C164.36 131.437 164.495 130.839 164.753 130.218C165.017 129.602 165.412 128.981 165.943 128.348C166.474 127.715 167.022 127.212 167.583 126.845C168.15 126.483 168.71 126.253 169.269 126.148C169.834 126.049 170.392 126.081 170.936 126.239C171.48 126.397 172.005 126.688 172.503 127.107C173.001 127.525 173.379 127.991 173.636 128.505C173.893 129.019 174.022 129.563 174.029 130.142C174.036 130.722 173.92 131.325 173.663 131.946C173.405 132.567 173.011 133.201 172.48 133.834ZM171.168 118.333L181.375 126.898L183.392 124.494L179.944 121.602L183.447 117.428C183.73 117.091 183.998 116.731 184.252 116.359C184.506 115.987 184.723 115.607 184.894 115.211C185.072 114.821 185.193 114.418 185.263 114.006C185.333 113.594 185.322 113.184 185.248 112.766C185.168 112.355 185.007 111.945 184.747 111.531C184.493 111.123 184.133 110.717 183.655 110.316C183.177 109.915 182.721 109.624 182.274 109.433C181.827 109.253 181.4 109.147 180.987 109.133C180.574 109.12 180.175 109.186 179.793 109.313C179.405 109.447 179.034 109.629 178.674 109.866C178.321 110.109 177.972 110.389 177.638 110.718C177.305 111.046 176.992 111.392 176.687 111.755L171.168 118.333ZM181.615 115.741L178.039 120.003L175.198 117.619L178.774 113.357C179.062 113.014 179.339 112.753 179.61 112.579C179.882 112.406 180.135 112.296 180.381 112.262C180.628 112.228 180.861 112.251 181.08 112.332C181.306 112.418 181.523 112.543 181.731 112.718C181.94 112.893 182.1 113.085 182.224 113.292C182.349 113.5 182.412 113.725 182.421 113.974C182.431 114.223 182.367 114.49 182.236 114.782C182.113 115.08 181.903 115.398 181.615 115.741ZM197.238 108.417C197.724 107.838 198.146 107.239 198.504 106.621C198.868 106.009 199.15 105.386 199.356 104.744C199.563 104.114 199.682 103.48 199.721 102.847C199.753 102.22 199.699 101.601 199.539 100.985C199.38 100.381 199.116 99.7928 198.741 99.2142C198.373 98.6413 197.883 98.104 197.271 97.5899C196.658 97.0758 196.038 96.6933 195.403 96.4245C194.775 96.1613 194.144 96.0106 193.515 95.9533C192.887 95.9084 192.262 95.9569 191.644 96.1045C191.022 96.2588 190.424 96.492 189.84 96.8051C189.256 97.1182 188.691 97.5045 188.151 97.9573C187.611 98.4225 187.101 98.935 186.621 99.5073C186.14 100.08 185.724 100.671 185.366 101.277C185.008 101.894 184.725 102.518 184.524 103.141C184.317 103.77 184.191 104.399 184.153 105.032C184.109 105.672 184.17 106.297 184.329 106.901C184.489 107.517 184.753 108.105 185.121 108.678C185.496 109.257 185.98 109.801 186.593 110.315C187.206 110.829 187.82 111.218 188.448 111.481C189.083 111.75 189.708 111.908 190.33 111.959C190.959 112.017 191.578 111.962 192.195 111.815C192.807 111.674 193.411 111.446 193.995 111.133C194.586 110.826 195.151 110.44 195.69 109.974C196.236 109.515 196.752 108.996 197.238 108.417ZM195.225 106.727C194.694 107.36 194.144 107.851 193.577 108.213C193.01 108.574 192.431 108.8 191.859 108.893C191.287 108.987 190.729 108.955 190.178 108.791C189.627 108.627 189.102 108.336 188.604 107.918C188.106 107.5 187.728 107.034 187.478 106.526C187.228 106.017 187.099 105.473 187.099 104.899C187.105 104.331 187.24 103.733 187.497 103.111C187.762 102.496 188.157 101.875 188.688 101.242C189.219 100.609 189.767 100.105 190.328 99.7382C190.895 99.3767 191.455 99.1468 192.014 99.0417C192.579 98.9424 193.137 98.9747 193.681 99.1329C194.225 99.2912 194.75 99.5822 195.248 100C195.746 100.418 196.124 100.884 196.381 101.398C196.638 101.912 196.767 102.456 196.774 103.036C196.781 103.616 196.665 104.218 196.408 104.84C196.15 105.461 195.756 106.095 195.225 106.727ZM208.789 94.6232C209.405 93.8894 209.907 93.2091 210.301 92.5758C210.689 91.9491 210.987 91.3616 211.183 90.8266C211.387 90.2973 211.505 89.8003 211.541 89.348C211.577 88.9081 211.547 88.4928 211.453 88.1267C211.358 87.7607 211.204 87.4248 211.004 87.1304C210.803 86.836 210.555 86.5707 210.279 86.3391C209.842 85.9719 209.404 85.742 208.957 85.6313C208.511 85.5206 208.061 85.5101 207.613 85.593C207.159 85.6826 206.711 85.8465 206.271 86.0847C205.824 86.3296 205.382 86.6241 204.95 86.9613C204.518 87.2986 204.094 87.6663 203.673 88.0587C203.259 88.4568 202.85 88.8481 202.447 89.2328C201.936 89.7329 201.481 90.1657 201.094 90.5178C200.708 90.8822 200.363 91.1556 200.056 91.3448C199.748 91.5339 199.482 91.632 199.233 91.6413C198.991 91.6562 198.758 91.5643 198.529 91.3722C198.179 91.0784 198.115 90.6225 198.335 90.0043C198.562 89.3917 199.09 88.5844 199.932 87.5812C200.345 87.0897 200.739 86.6747 201.109 86.3429C201.48 86.0234 201.832 85.768 202.172 85.5824C202.505 85.4034 202.82 85.2886 203.121 85.2435C203.423 85.1984 203.711 85.2106 203.985 85.2802L205.08 82.3895C204.831 82.3178 204.558 82.273 204.263 82.2427C203.968 82.2249 203.645 82.2406 203.293 82.2901C202.942 82.3395 202.57 82.4407 202.178 82.5935C201.786 82.7464 201.362 82.9644 200.926 83.2521C200.489 83.5398 200.022 83.9051 199.53 84.3412C199.045 84.7829 198.537 85.3202 198.011 85.9464C197.294 86.8014 196.723 87.6187 196.316 88.3905C195.904 89.1689 195.642 89.8905 195.533 90.5676C195.424 91.2446 195.471 91.8581 195.67 92.4147C195.869 92.9837 196.224 93.4766 196.736 93.906C197.16 94.2619 197.586 94.4929 198.019 94.5923C198.453 94.7041 198.885 94.7224 199.321 94.6406C199.763 94.5645 200.199 94.414 200.634 94.1826C201.064 93.9578 201.496 93.6892 201.917 93.3654C202.338 93.0416 202.756 92.6931 203.166 92.3141C203.576 91.9351 203.968 91.564 204.353 91.1872C204.893 90.6657 205.365 90.2127 205.775 89.8337C206.192 89.4604 206.559 89.1724 206.884 88.9631C207.21 88.7661 207.506 88.6591 207.766 88.6364C208.033 88.6193 208.285 88.7158 208.521 88.9135C208.709 89.0717 208.82 89.2679 208.86 89.5077C208.899 89.7475 208.862 90.0378 208.743 90.3851C208.624 90.7324 208.41 91.1379 208.112 91.5882C207.815 92.0384 207.418 92.566 206.926 93.1517C206.423 93.7509 205.948 94.2355 205.493 94.5997C205.045 94.9695 204.626 95.237 204.229 95.409C203.833 95.5933 203.461 95.6821 203.112 95.6877C202.763 95.6932 202.433 95.6347 202.13 95.5178L200.725 98.2172C201.224 98.4293 201.76 98.5572 202.331 98.6007C202.903 98.6443 203.524 98.5463 204.183 98.3077C204.849 98.0747 205.567 97.6563 206.327 97.0658C207.093 96.481 207.914 95.6668 208.789 94.6232ZM204.946 78.078L215.153 86.6426L217.187 84.2188L206.98 75.6541L204.946 78.078ZM214.416 71.0171L222.543 77.8361L224.633 75.3449L216.507 68.526L220.252 64.0621L218.172 62.3164L208.584 73.742L210.671 75.481L214.416 71.0171ZM219.782 60.3976L229.989 68.9622L232.023 66.5384L221.816 57.9738L219.782 60.3976ZM239.395 58.1763C239.881 57.5973 240.302 56.999 240.66 56.3812C241.025 55.7692 241.307 55.1456 241.513 54.5037C241.72 53.8742 241.839 53.2399 241.877 52.6065C241.91 51.9798 241.855 51.3607 241.695 50.7446C241.537 50.1409 241.273 49.5526 240.898 48.974C240.53 48.4011 240.04 47.8638 239.427 47.3496C238.814 46.8355 238.195 46.4531 237.56 46.1842C236.931 45.921 236.301 45.7703 235.672 45.7131C235.044 45.6682 234.418 45.7167 233.801 45.8643C233.178 46.0186 232.581 46.2517 231.997 46.5648C231.413 46.8779 230.848 47.2643 230.307 47.7171C229.768 48.1823 229.257 48.6948 228.777 49.2671C228.297 49.8394 227.881 50.431 227.522 51.0363C227.164 51.6541 226.882 52.2777 226.681 52.9004C226.474 53.5299 226.348 54.1585 226.31 54.792C226.266 55.4321 226.327 56.0569 226.486 56.6606C226.646 57.2767 226.909 57.865 227.278 58.4379C227.653 59.0165 228.137 59.5606 228.75 60.0747C229.362 60.5888 229.976 60.978 230.605 61.2412C231.24 61.51 231.865 61.6675 232.487 61.7191C233.116 61.7764 233.735 61.7222 234.352 61.5746C234.963 61.4338 235.567 61.2063 236.151 60.8931C236.742 60.5857 237.307 60.1994 237.847 59.7342C238.393 59.2746 238.909 58.7554 239.395 58.1763ZM237.382 56.4871C236.851 57.12 236.301 57.6111 235.734 57.9726C235.166 58.3342 234.587 58.5595 234.015 58.6532C233.443 58.7469 232.885 58.7147 232.334 58.5508C231.784 58.3868 231.259 58.0958 230.761 57.6778C230.263 57.2597 229.885 56.7937 229.635 56.2853C229.384 55.7769 229.255 55.233 229.255 54.659C229.262 54.0908 229.396 53.4926 229.654 52.8711C229.918 52.2553 230.313 51.6344 230.844 51.0015C231.375 50.3686 231.924 49.8652 232.484 49.498C233.052 49.1364 233.612 48.9065 234.17 48.8015C234.735 48.7021 235.294 48.7344 235.838 48.8927C236.382 49.0509 236.906 49.3419 237.405 49.76C237.903 50.1781 238.28 50.6441 238.538 51.1581C238.795 51.6721 238.923 52.2161 238.93 52.7957C238.937 53.3753 238.822 53.978 238.564 54.5995C238.307 55.2209 237.913 55.8543 237.382 56.4871ZM236.069 40.9869L246.276 49.5515L248.237 47.2152L240.945 41.0968L253.948 40.4084L255.943 38.0317L245.736 29.467L243.787 31.7899L250.782 37.6597L238.329 38.2938L236.069 40.9869ZM262.765 30.2979C263.38 29.5641 263.882 28.8838 264.276 28.2505C264.664 27.6238 264.962 27.0363 265.159 26.5013C265.362 25.972 265.481 25.475 265.516 25.0227C265.552 24.5828 265.522 24.1675 265.428 23.8014C265.333 23.4354 265.179 23.0995 264.979 22.8051C264.778 22.5107 264.531 22.2454 264.255 22.0138C263.817 21.6466 263.379 21.4167 262.932 21.306C262.486 21.1953 262.036 21.1848 261.588 21.2677C261.134 21.3573 260.687 21.5212 260.246 21.7594C259.799 22.0043 259.357 22.2988 258.925 22.636C258.493 22.9733 258.07 23.341 257.649 23.7334C257.234 24.1315 256.826 24.5228 256.423 24.9075C255.911 25.4076 255.456 25.8405 255.069 26.1925C254.683 26.5569 254.339 26.8303 254.031 27.0195C253.723 27.2086 253.457 27.3067 253.208 27.316C252.966 27.3309 252.734 27.239 252.505 27.0469C252.155 26.7532 252.09 26.2972 252.31 25.679C252.537 25.0665 253.066 24.2591 253.907 23.2559C254.32 22.7644 254.714 22.3494 255.084 22.0176C255.456 21.6981 255.808 21.4427 256.147 21.2571C256.481 21.0782 256.795 20.9633 257.097 20.9182C257.398 20.8731 257.686 20.8853 257.961 20.9549L259.055 18.0643C258.806 17.9925 258.534 17.9477 258.238 17.9174C257.943 17.8996 257.62 17.9153 257.269 17.9648C256.917 18.0142 256.546 18.1154 256.154 18.2682C255.762 18.4211 255.338 18.6391 254.901 18.9268C254.465 19.2145 253.998 19.5798 253.505 20.0159C253.02 20.4576 252.512 20.9949 251.986 21.6211C251.269 22.4761 250.698 23.2934 250.291 24.0652C249.879 24.8436 249.618 25.5652 249.509 26.2423C249.399 26.9194 249.447 27.5328 249.645 28.0894C249.845 28.6584 250.2 29.1513 250.711 29.5807C251.136 29.9366 251.561 30.1676 251.994 30.267C252.428 30.3788 252.86 30.3971 253.296 30.3153C253.739 30.2392 254.175 30.0887 254.61 29.8573C255.039 29.6325 255.471 29.3639 255.892 29.0401C256.313 28.7163 256.732 28.3678 257.141 27.9888C257.551 27.6098 257.943 27.2387 258.328 26.8619C258.869 26.3404 259.341 25.8874 259.75 25.5084C260.167 25.1351 260.535 24.8471 260.86 24.6378C261.185 24.4409 261.482 24.3338 261.742 24.3111C262.009 24.294 262.26 24.3905 262.496 24.5882C262.684 24.7464 262.795 24.9426 262.835 25.1824C262.875 25.4223 262.838 25.7125 262.718 26.0598C262.599 26.4071 262.385 26.8126 262.087 27.2629C261.79 27.7131 261.393 28.2407 260.902 28.8264C260.399 29.4257 259.923 29.9102 259.469 30.2744C259.021 30.6442 258.601 30.9117 258.204 31.0837C257.809 31.268 257.436 31.3568 257.087 31.3624C256.738 31.3679 256.409 31.3094 256.105 31.1925L254.701 33.8919C255.2 34.104 255.735 34.2319 256.306 34.2754C256.878 34.319 257.499 34.221 258.159 33.9824C258.824 33.7495 259.543 33.331 260.302 32.7405C261.068 32.1557 261.889 31.3415 262.765 30.2979Z" fill="black"/>
<path d="M36.2031 22.6367V33H38.0352V22.6367H36.2031ZM42.7793 33.1367C43.1484 33.1367 43.5244 33.1094 43.9072 33.0547C44.2832 33.0068 44.6455 32.9316 44.9873 32.8359C45.3291 32.7402 45.6436 32.624 45.9238 32.4941C46.2041 32.3643 46.4365 32.2207 46.6143 32.0635C46.6211 32.2617 46.6416 32.4395 46.6758 32.5967C46.71 32.7607 46.7441 32.8975 46.7852 33H48.6172C48.583 32.9043 48.5488 32.8018 48.5283 32.6924C48.5078 32.583 48.4873 32.46 48.4668 32.3164C48.4463 32.1797 48.4395 32.0225 48.4326 31.8516C48.4258 31.6807 48.4189 31.4756 48.4189 31.25V28.2422C48.4189 27.7705 48.3506 27.3604 48.207 27.0049C48.0635 26.6494 47.8447 26.3555 47.5439 26.1162C47.2432 25.877 46.8604 25.6992 46.3887 25.5762C45.917 25.46 45.3564 25.3984 44.7002 25.3984C44.1328 25.3984 43.6133 25.4326 43.1416 25.501C42.6699 25.5762 42.2529 25.665 41.8838 25.7744C41.5146 25.8906 41.2002 26.0137 40.9336 26.1504C40.667 26.2939 40.4482 26.4307 40.2773 26.5605L41.1592 27.791C41.3164 27.6885 41.5146 27.5791 41.7539 27.4766C41.9932 27.374 42.2598 27.2852 42.5537 27.2031C42.8477 27.1211 43.1553 27.0527 43.4766 26.998C43.7979 26.9502 44.126 26.9229 44.4473 26.9229C44.8438 26.9229 45.1787 26.9434 45.4521 26.9912C45.7256 27.0391 45.9512 27.1074 46.1221 27.1963C46.293 27.2852 46.4229 27.3945 46.498 27.5176C46.5732 27.6406 46.6143 27.7773 46.6143 27.9346V28.0986C46.0195 28.1328 45.4521 28.1738 44.8984 28.2217C44.3447 28.2695 43.8184 28.3379 43.333 28.4268C42.8477 28.5156 42.3965 28.6318 41.9932 28.7617C41.5898 28.8984 41.2412 29.0625 40.9473 29.2607C40.6533 29.459 40.4277 29.6982 40.2705 29.9648C40.1064 30.2383 40.0244 30.5527 40.0244 30.915C40.0244 31.3115 40.0996 31.6465 40.2432 31.9268C40.3867 32.207 40.585 32.4395 40.8379 32.6172C41.084 32.7949 41.3779 32.9248 41.7129 33.0068C42.0479 33.0957 42.4033 33.1367 42.7793 33.1367ZM43.4355 31.6807C42.8887 31.6807 42.4854 31.6055 42.2256 31.4619C41.959 31.3184 41.8291 31.1064 41.8291 30.833C41.8291 30.5938 41.9453 30.3955 42.1846 30.2383C42.4238 30.0811 42.752 29.9443 43.1758 29.835C43.5996 29.7324 44.1055 29.6436 44.6934 29.582C45.2744 29.5205 45.917 29.4658 46.6143 29.418V30.9014C46.5049 30.9834 46.334 31.0723 46.1084 31.1611C45.876 31.2568 45.6094 31.3389 45.3154 31.4141C45.0215 31.4893 44.707 31.5576 44.3789 31.6055C44.0508 31.6533 43.7363 31.6807 43.4355 31.6807ZM57.9346 33.1572C59.3223 33.1572 60.375 32.9727 61.0791 32.5967C61.7832 32.2275 62.1318 31.6465 62.1318 30.8467C62.1318 30.416 62.0361 30.0674 61.8379 29.7939C61.6396 29.5273 61.3662 29.3086 61.0244 29.1377C60.6826 28.9736 60.2861 28.8506 59.835 28.7617C59.377 28.6729 58.8984 28.6045 58.3926 28.5498C57.9824 28.502 57.6133 28.4541 57.2852 28.4131C56.9502 28.3789 56.6699 28.3242 56.4375 28.2627C56.2051 28.2012 56.0273 28.126 55.9043 28.0234C55.7812 27.9277 55.7197 27.7979 55.7197 27.627C55.7197 27.5039 55.7539 27.3945 55.8291 27.2988C55.8975 27.2031 56.0137 27.1211 56.1846 27.0527C56.3486 26.9912 56.5674 26.9365 56.8408 26.9023C57.1074 26.8682 57.4492 26.8545 57.8525 26.8545C58.208 26.8545 58.5361 26.875 58.8369 26.9229C59.1309 26.9707 59.4043 27.0391 59.6504 27.1211C59.8896 27.2031 60.1084 27.2988 60.2998 27.4014C60.4844 27.5107 60.6484 27.6201 60.7783 27.7363L61.9062 26.6973C61.7422 26.5264 61.5371 26.3555 61.2979 26.1982C61.0518 26.041 60.7578 25.9043 60.416 25.7881C60.0742 25.6719 59.6777 25.5762 59.2266 25.501C58.7754 25.4326 58.2627 25.3984 57.6816 25.3984C57.1416 25.3984 56.6426 25.4463 56.1846 25.5352C55.7266 25.6309 55.3369 25.7744 55.0088 25.959C54.6738 26.1504 54.4141 26.3896 54.2295 26.6699C54.0449 26.957 53.9492 27.292 53.9424 27.6816C53.9424 28.1123 54.0449 28.4609 54.2568 28.7275C54.4688 28.9941 54.7422 29.2129 55.0908 29.377C55.4395 29.541 55.8359 29.6641 56.2871 29.7529C56.7383 29.8418 57.2031 29.9102 57.6816 29.9648C58.126 30.0127 58.5225 30.0605 58.8574 30.0947C59.1924 30.1357 59.4658 30.1836 59.6914 30.2451C59.9102 30.3066 60.0742 30.3887 60.1904 30.4844C60.2998 30.5869 60.3545 30.7168 60.3545 30.8877C60.3545 31.0312 60.3135 31.1611 60.2246 31.2705C60.1357 31.3799 59.9922 31.4688 59.8008 31.5439C59.6094 31.6191 59.3633 31.667 59.0557 31.7012C58.748 31.7354 58.3721 31.7559 57.9346 31.7559C57.5176 31.7559 57.1348 31.7285 56.793 31.667C56.4512 31.6123 56.1504 31.5371 55.8906 31.4346C55.624 31.3389 55.3984 31.2295 55.2139 31.0996C55.0225 30.9697 54.8721 30.833 54.7559 30.6895L53.5254 31.585C53.6689 31.8037 53.8604 32.0088 54.0996 32.1934C54.3389 32.3848 54.6396 32.5488 55.002 32.6924C55.3643 32.8359 55.7881 32.9521 56.2734 33.0342C56.7588 33.1162 57.3125 33.1572 57.9346 33.1572ZM65.5361 35.8848C65.8916 35.8848 66.2129 35.8369 66.4932 35.748C66.7734 35.6592 67.0332 35.5361 67.2588 35.3652C67.4844 35.2012 67.6826 34.9961 67.8672 34.7568C68.0449 34.5176 68.209 34.2373 68.3525 33.9297L72.6113 25.5557H70.7725L67.8672 31.3184L64.9619 25.5557H62.9795L66.7803 33.0615L66.4932 33.5332C66.3496 33.793 66.1855 33.9844 66.0146 34.1074C65.8438 34.2305 65.6113 34.292 65.3174 34.292C65.1875 34.292 65.0439 34.2852 64.9004 34.2646C64.75 34.2441 64.6064 34.2236 64.4697 34.2031C64.333 34.1826 64.21 34.1553 64.0938 34.1279C63.9775 34.1006 63.8818 34.0801 63.8066 34.0596L63.4033 35.5977C63.5127 35.6318 63.6357 35.6592 63.7793 35.6934C63.9229 35.7275 64.0801 35.7617 64.251 35.7891C64.4219 35.8164 64.6201 35.8369 64.832 35.8574C65.0439 35.8779 65.2832 35.8848 65.5361 35.8848ZM74.0332 25.5488V33H75.8652V27.8867C76.002 27.7773 76.1729 27.6748 76.3848 27.5723C76.5898 27.4697 76.8154 27.3809 77.0684 27.3057C77.3213 27.2305 77.5811 27.1758 77.8613 27.1279C78.1416 27.0869 78.415 27.0664 78.6953 27.0664C79.3447 27.0664 79.8301 27.1621 80.1445 27.3604C80.4521 27.5586 80.6094 27.8525 80.6094 28.2422V33H82.4619V27.873C82.4619 27.3877 82.3867 26.9912 82.2363 26.6699C82.0859 26.3486 81.8809 26.0957 81.6143 25.9043C81.3477 25.7197 81.0264 25.583 80.6641 25.5078C80.3018 25.4326 79.9053 25.3984 79.4814 25.3984C79.0645 25.3984 78.6611 25.4326 78.2783 25.5078C77.8887 25.583 77.54 25.6719 77.2256 25.7812C76.9043 25.8906 76.6309 26.0068 76.3916 26.1299C76.1523 26.2529 75.9814 26.3623 75.8652 26.4648V25.5488H74.0332ZM88.7305 33.1094C88.9629 33.1094 89.2021 33.1025 89.4414 33.0889C89.6807 33.0752 89.9062 33.0547 90.1182 33.0342C90.3232 33.0137 90.501 32.9932 90.6514 32.9727C90.8018 32.9521 90.8975 32.9385 90.9453 32.9316V31.4482C90.8838 31.4619 90.7812 31.4756 90.6445 31.4893C90.5078 31.5098 90.3643 31.5234 90.207 31.5371C90.0498 31.5508 89.8926 31.5645 89.7354 31.5713C89.5781 31.5781 89.4551 31.585 89.3594 31.585C89.1406 31.585 88.9492 31.5645 88.792 31.5303C88.6279 31.4961 88.498 31.4277 88.3955 31.3252C88.293 31.2295 88.2109 31.0996 88.1631 30.9287C88.1152 30.7578 88.0879 30.5459 88.0879 30.2861V27.0254H91.0684V25.5488H88.0879V22.9785H86.2354V25.5488H84V27.0254H86.2354V30.7305C86.2354 31.1201 86.2832 31.4688 86.3721 31.7627C86.4609 32.0566 86.5977 32.3027 86.7959 32.501C86.9941 32.6992 87.2471 32.8496 87.5684 32.9521C87.8828 33.0547 88.2725 33.1094 88.7305 33.1094ZM95.5527 33.1367C95.9219 33.1367 96.2979 33.1094 96.6807 33.0547C97.0566 33.0068 97.4189 32.9316 97.7607 32.8359C98.1025 32.7402 98.417 32.624 98.6973 32.4941C98.9775 32.3643 99.21 32.2207 99.3877 32.0635C99.3945 32.2617 99.415 32.4395 99.4492 32.5967C99.4834 32.7607 99.5176 32.8975 99.5586 33H101.391C101.356 32.9043 101.322 32.8018 101.302 32.6924C101.281 32.583 101.261 32.46 101.24 32.3164C101.22 32.1797 101.213 32.0225 101.206 31.8516C101.199 31.6807 101.192 31.4756 101.192 31.25V28.2422C101.192 27.7705 101.124 27.3604 100.98 27.0049C100.837 26.6494 100.618 26.3555 100.317 26.1162C100.017 25.877 99.6338 25.6992 99.1621 25.5762C98.6904 25.46 98.1299 25.3984 97.4736 25.3984C96.9062 25.3984 96.3867 25.4326 95.915 25.501C95.4434 25.5762 95.0264 25.665 94.6572 25.7744C94.2881 25.8906 93.9736 26.0137 93.707 26.1504C93.4404 26.2939 93.2217 26.4307 93.0508 26.5605L93.9326 27.791C94.0898 27.6885 94.2881 27.5791 94.5273 27.4766C94.7666 27.374 95.0332 27.2852 95.3271 27.2031C95.6211 27.1211 95.9287 27.0527 96.25 26.998C96.5713 26.9502 96.8994 26.9229 97.2207 26.9229C97.6172 26.9229 97.9521 26.9434 98.2256 26.9912C98.499 27.0391 98.7246 27.1074 98.8955 27.1963C99.0664 27.2852 99.1963 27.3945 99.2715 27.5176C99.3467 27.6406 99.3877 27.7773 99.3877 27.9346V28.0986C98.793 28.1328 98.2256 28.1738 97.6719 28.2217C97.1182 28.2695 96.5918 28.3379 96.1064 28.4268C95.6211 28.5156 95.1699 28.6318 94.7666 28.7617C94.3633 28.8984 94.0146 29.0625 93.7207 29.2607C93.4268 29.459 93.2012 29.6982 93.0439 29.9648C92.8799 30.2383 92.7979 30.5527 92.7979 30.915C92.7979 31.3115 92.873 31.6465 93.0166 31.9268C93.1602 32.207 93.3584 32.4395 93.6113 32.6172C93.8574 32.7949 94.1514 32.9248 94.4863 33.0068C94.8213 33.0957 95.1768 33.1367 95.5527 33.1367ZM96.209 31.6807C95.6621 31.6807 95.2588 31.6055 94.999 31.4619C94.7324 31.3184 94.6025 31.1064 94.6025 30.833C94.6025 30.5938 94.7188 30.3955 94.958 30.2383C95.1973 30.0811 95.5254 29.9443 95.9492 29.835C96.373 29.7324 96.8789 29.6436 97.4668 29.582C98.0479 29.5205 98.6904 29.4658 99.3877 29.418V30.9014C99.2783 30.9834 99.1074 31.0723 98.8818 31.1611C98.6494 31.2568 98.3828 31.3389 98.0889 31.4141C97.7949 31.4893 97.4805 31.5576 97.1523 31.6055C96.8242 31.6533 96.5098 31.6807 96.209 31.6807ZM106.381 29.2061L102.73 33H104.699L107.365 30.3271L110.011 33H112.164L108.514 29.1787L112.041 25.5488H110.065L107.543 28.0986L105.055 25.5488H102.895L106.381 29.2061ZM115.22 29.9307H122.397V29.5C122.397 28.9463 122.336 28.4541 122.22 28.0371C122.104 27.6201 121.939 27.2578 121.728 26.9502C121.516 26.6426 121.27 26.3896 120.989 26.1914C120.709 25.9932 120.401 25.8359 120.073 25.7197C119.745 25.6035 119.403 25.5146 119.048 25.4668C118.686 25.4189 118.33 25.3984 117.975 25.3984C117.619 25.3984 117.257 25.4258 116.895 25.4805C116.525 25.542 116.17 25.6309 115.835 25.7607C115.493 25.8906 115.172 26.0547 114.878 26.2529C114.577 26.458 114.317 26.7041 114.099 26.9912C113.873 27.2783 113.702 27.6133 113.572 27.9893C113.442 28.3721 113.381 28.8027 113.381 29.2881C113.381 29.9785 113.504 30.5664 113.757 31.0518C114.01 31.5371 114.345 31.9404 114.769 32.248C115.192 32.5625 115.678 32.7949 116.231 32.9385C116.785 33.082 117.359 33.1572 117.961 33.1572C118.528 33.1572 119.034 33.1162 119.485 33.0342C119.93 32.9521 120.326 32.8291 120.675 32.6719C121.023 32.5146 121.317 32.3232 121.57 32.0908C121.823 31.8652 122.035 31.5986 122.206 31.3047L120.565 30.6211C120.326 31.0244 119.998 31.3047 119.581 31.4756C119.164 31.6465 118.645 31.7285 118.029 31.7285C117.694 31.7285 117.38 31.6943 117.072 31.626C116.765 31.5576 116.484 31.4482 116.238 31.3047C115.985 31.1611 115.773 30.9697 115.596 30.7441C115.418 30.5186 115.295 30.252 115.22 29.9307ZM117.975 26.8682C118.344 26.8682 118.679 26.9023 118.986 26.9639C119.287 27.0254 119.554 27.1279 119.779 27.2646C120.005 27.4014 120.183 27.5791 120.326 27.7979C120.47 28.0166 120.559 28.2832 120.593 28.5908H115.233C115.322 28.2627 115.466 27.9893 115.664 27.7637C115.862 27.5449 116.095 27.3672 116.354 27.2373C116.607 27.1074 116.881 27.0117 117.168 26.9502C117.448 26.8955 117.722 26.8682 117.975 26.8682ZM131.223 33.1367C131.626 33.1367 131.995 33.1094 132.337 33.0479C132.672 32.9863 132.979 32.9111 133.253 32.8154C133.52 32.7197 133.759 32.6104 133.964 32.4873C134.169 32.3711 134.34 32.248 134.47 32.1182C134.483 32.4805 134.538 32.7744 134.634 33H136.527C136.438 32.7676 136.377 32.501 136.356 32.207C136.329 31.9131 136.315 31.5986 136.315 31.2773V22.6367H134.47V26.2256C134.155 25.9795 133.745 25.7812 133.232 25.624C132.72 25.4736 132.146 25.3984 131.517 25.3984C130.99 25.3984 130.478 25.4873 129.979 25.665C129.479 25.8428 129.042 26.0957 128.659 26.4238C128.27 26.7588 127.962 27.1621 127.729 27.6338C127.497 28.1123 127.381 28.6523 127.381 29.2471C127.381 29.8896 127.49 30.457 127.716 30.9424C127.935 31.4277 128.229 31.8379 128.591 32.1592C128.953 32.4805 129.363 32.7266 129.821 32.8906C130.279 33.0547 130.744 33.1367 131.223 33.1367ZM131.92 31.626C131.564 31.626 131.229 31.585 130.908 31.4961C130.587 31.4072 130.3 31.2705 130.054 31.0859C129.808 30.9014 129.609 30.6689 129.466 30.3887C129.322 30.1084 129.247 29.7666 129.247 29.377C129.247 28.9873 129.322 28.6455 129.466 28.3516C129.609 28.0576 129.808 27.8184 130.054 27.6201C130.3 27.4287 130.58 27.2852 130.901 27.1826C131.223 27.0869 131.551 27.0391 131.893 27.0391C132.125 27.0391 132.364 27.0527 132.604 27.0869C132.843 27.1211 133.075 27.1689 133.301 27.2305C133.526 27.2988 133.745 27.3809 133.943 27.4766C134.142 27.5791 134.319 27.6885 134.47 27.8184V30.8193C134.395 30.9014 134.278 30.9902 134.121 31.0791C133.964 31.1748 133.772 31.2637 133.547 31.3389C133.321 31.4209 133.075 31.4893 132.802 31.5439C132.521 31.5986 132.228 31.626 131.92 31.626ZM140.021 29.9307H147.198V29.5C147.198 28.9463 147.137 28.4541 147.021 28.0371C146.904 27.6201 146.74 27.2578 146.528 26.9502C146.316 26.6426 146.07 26.3896 145.79 26.1914C145.51 25.9932 145.202 25.8359 144.874 25.7197C144.546 25.6035 144.204 25.5146 143.849 25.4668C143.486 25.4189 143.131 25.3984 142.775 25.3984C142.42 25.3984 142.058 25.4258 141.695 25.4805C141.326 25.542 140.971 25.6309 140.636 25.7607C140.294 25.8906 139.973 26.0547 139.679 26.2529C139.378 26.458 139.118 26.7041 138.899 26.9912C138.674 27.2783 138.503 27.6133 138.373 27.9893C138.243 28.3721 138.182 28.8027 138.182 29.2881C138.182 29.9785 138.305 30.5664 138.558 31.0518C138.811 31.5371 139.146 31.9404 139.569 32.248C139.993 32.5625 140.479 32.7949 141.032 32.9385C141.586 33.082 142.16 33.1572 142.762 33.1572C143.329 33.1572 143.835 33.1162 144.286 33.0342C144.73 32.9521 145.127 32.8291 145.476 32.6719C145.824 32.5146 146.118 32.3232 146.371 32.0908C146.624 31.8652 146.836 31.5986 147.007 31.3047L145.366 30.6211C145.127 31.0244 144.799 31.3047 144.382 31.4756C143.965 31.6465 143.445 31.7285 142.83 31.7285C142.495 31.7285 142.181 31.6943 141.873 31.626C141.565 31.5576 141.285 31.4482 141.039 31.3047C140.786 31.1611 140.574 30.9697 140.396 30.7441C140.219 30.5186 140.096 30.252 140.021 29.9307ZM142.775 26.8682C143.145 26.8682 143.479 26.9023 143.787 26.9639C144.088 27.0254 144.354 27.1279 144.58 27.2646C144.806 27.4014 144.983 27.5791 145.127 27.7979C145.271 28.0166 145.359 28.2832 145.394 28.5908H140.034C140.123 28.2627 140.267 27.9893 140.465 27.7637C140.663 27.5449 140.896 27.3672 141.155 27.2373C141.408 27.1074 141.682 27.0117 141.969 26.9502C142.249 26.8955 142.522 26.8682 142.775 26.8682ZM152.817 33.1572C154.205 33.1572 155.258 32.9727 155.962 32.5967C156.666 32.2275 157.015 31.6465 157.015 30.8467C157.015 30.416 156.919 30.0674 156.721 29.7939C156.522 29.5273 156.249 29.3086 155.907 29.1377C155.565 28.9736 155.169 28.8506 154.718 28.7617C154.26 28.6729 153.781 28.6045 153.275 28.5498C152.865 28.502 152.496 28.4541 152.168 28.4131C151.833 28.3789 151.553 28.3242 151.32 28.2627C151.088 28.2012 150.91 28.126 150.787 28.0234C150.664 27.9277 150.603 27.7979 150.603 27.627C150.603 27.5039 150.637 27.3945 150.712 27.2988C150.78 27.2031 150.896 27.1211 151.067 27.0527C151.231 26.9912 151.45 26.9365 151.724 26.9023C151.99 26.8682 152.332 26.8545 152.735 26.8545C153.091 26.8545 153.419 26.875 153.72 26.9229C154.014 26.9707 154.287 27.0391 154.533 27.1211C154.772 27.2031 154.991 27.2988 155.183 27.4014C155.367 27.5107 155.531 27.6201 155.661 27.7363L156.789 26.6973C156.625 26.5264 156.42 26.3555 156.181 26.1982C155.935 26.041 155.641 25.9043 155.299 25.7881C154.957 25.6719 154.561 25.5762 154.109 25.501C153.658 25.4326 153.146 25.3984 152.564 25.3984C152.024 25.3984 151.525 25.4463 151.067 25.5352C150.609 25.6309 150.22 25.7744 149.892 25.959C149.557 26.1504 149.297 26.3896 149.112 26.6699C148.928 26.957 148.832 27.292 148.825 27.6816C148.825 28.1123 148.928 28.4609 149.14 28.7275C149.352 28.9941 149.625 29.2129 149.974 29.377C150.322 29.541 150.719 29.6641 151.17 29.7529C151.621 29.8418 152.086 29.9102 152.564 29.9648C153.009 30.0127 153.405 30.0605 153.74 30.0947C154.075 30.1357 154.349 30.1836 154.574 30.2451C154.793 30.3066 154.957 30.3887 155.073 30.4844C155.183 30.5869 155.237 30.7168 155.237 30.8877C155.237 31.0312 155.196 31.1611 155.107 31.2705C155.019 31.3799 154.875 31.4688 154.684 31.5439C154.492 31.6191 154.246 31.667 153.938 31.7012C153.631 31.7354 153.255 31.7559 152.817 31.7559C152.4 31.7559 152.018 31.7285 151.676 31.667C151.334 31.6123 151.033 31.5371 150.773 31.4346C150.507 31.3389 150.281 31.2295 150.097 31.0996C149.905 30.9697 149.755 30.833 149.639 30.6895L148.408 31.585C148.552 31.8037 148.743 32.0088 148.982 32.1934C149.222 32.3848 149.522 32.5488 149.885 32.6924C150.247 32.8359 150.671 32.9521 151.156 33.0342C151.642 33.1162 152.195 33.1572 152.817 33.1572Z" fill="black"/>
<path d="M145 70.9975C146.666 70.9317 148 69.5565 148 67.875V64.125C148 62.4435 146.666 61.0683 145 61.0025V58.5C145 54.9111 142.089 52 138.5 52H108.5C104.911 52 102 54.9111 102 58.5V97.5C102 101.089 104.911 104 108.5 104H138.5C142.089 104 145 101.089 145 97.5V94.9975C146.666 94.9317 148 93.5565 148 91.875V88.125C148 86.4435 146.666 85.0683 145 85.0025V82.9975C146.666 82.9317 148 81.5565 148 79.875V76.125C148 74.4435 146.666 73.0683 145 73.0025V70.9975ZM123.5 68C125.705 68 127.5 69.7952 127.5 72C127.5 74.2048 125.705 76 123.5 76C121.295 76 119.5 74.2048 119.5 72C119.5 69.7952 121.295 68 123.5 68ZM132 86.4V87.9891C131.973 87.9955 131.939 88 131.9 88H115.1C115.061 88 115.027 87.9955 115 87.9891V86.4C115 84.8015 116.626 83 119.3 83H119.389C120.665 83.4785 122.048 83.75 123.5 83.75C124.948 83.75 126.338 83.48 127.613 83H127.7C130.374 83 132 84.8015 132 86.4Z" fill="#E17774" stroke="black" stroke-width="4"/>
<path d="M120.535 79.1525L120.167 79H119.769H119.3C115.018 79 111 82.0361 111 86.4V88.2C111 90.5748 113.131 92 115.1 92H131.9C133.869 92 136 90.5748 136 88.2V86.4C136 82.0361 131.982 79 127.7 79H127.231H126.83L126.46 79.1547C125.551 79.5347 124.547 79.75 123.5 79.75C122.456 79.75 121.459 79.5358 120.535 79.1525Z" fill="#EFC65F" stroke="black" stroke-width="4"/>
<path d="M131.5 72C131.5 67.586 127.914 64 123.5 64C119.086 64 115.5 67.586 115.5 72C115.5 76.414 119.086 80 123.5 80C127.914 80 131.5 76.414 131.5 72Z" fill="#EFC65F" stroke="black" stroke-width="4"/>
</svg>
