<svg width="180" height="180" viewBox="0 0 180 180" fill="none" xmlns="http://www.w3.org/2000/svg">
	<circle cx="90" cy="90" r="90" fill="#EEBECE"/>
	<path d="M26.8993 99.3998C26.9538 99.7412 27.0269 100.05 27.1251 100.331C27.2225 100.606 27.3277 100.856 27.4457 101.075C27.5627 101.288 27.6876 101.475 27.8195 101.632C27.9456 101.79 28.0728 101.918 28.2003 102.011C27.8955 102.071 27.6541 102.157 27.4761 102.269L27.732 103.871C27.9167 103.765 28.1341 103.677 28.3801 103.619C28.6252 103.557 28.8895 103.503 29.1615 103.459L36.4751 102.291L36.2256 100.729L33.1879 101.214C33.3537 100.915 33.4661 100.541 33.5298 100.085C33.5878 99.6312 33.5739 99.135 33.4889 98.6027C33.4177 98.1571 33.2732 97.7352 33.0553 97.3368C32.8374 96.9385 32.5642 96.6024 32.2347 96.3227C31.8986 96.0382 31.5156 95.8323 31.085 95.6993C30.6485 95.5673 30.1757 95.5419 29.6723 95.6223C29.1284 95.7091 28.663 95.8784 28.2826 96.1349C27.9014 96.3857 27.594 96.6899 27.371 97.04C27.148 97.3901 26.9952 97.7705 26.9182 98.1804C26.8412 98.5902 26.8346 98.9948 26.8993 99.3998ZM28.2723 99.7858C28.2242 99.4849 28.2137 99.1958 28.2455 98.9119C28.2773 98.6279 28.3542 98.3664 28.4771 98.1332C28.6001 97.8999 28.77 97.7007 28.9879 97.5413C29.2057 97.3819 29.4848 97.2721 29.8146 97.2194C30.1444 97.1668 30.4439 97.1842 30.7121 97.266C30.9803 97.3478 31.2096 97.4832 31.4107 97.6647C31.6059 97.8472 31.7653 98.065 31.8956 98.3231C32.02 98.5821 32.1048 98.8534 32.151 99.1427C32.1824 99.3394 32.2032 99.5437 32.2066 99.7509C32.21 99.958 32.2009 100.161 32.1794 100.36C32.152 100.561 32.1121 100.757 32.0579 100.938C31.9979 101.119 31.9294 101.284 31.8398 101.429L29.2997 101.835C29.2201 101.782 29.1291 101.696 29.0327 101.575C28.9304 101.455 28.8293 101.305 28.7352 101.124C28.6353 100.944 28.5441 100.745 28.4609 100.521C28.3767 100.291 28.3139 100.046 28.2723 99.7858Z" fill="black"/>
	<path d="M28.8528 108.461C28.9446 108.764 29.0604 109.065 29.2004 109.366C29.3331 109.662 29.4848 109.941 29.6483 110.197C29.8117 110.454 29.9852 110.683 30.1614 110.881C30.3376 111.078 30.5131 111.233 30.6863 111.34C30.5253 111.395 30.3846 111.456 30.2641 111.523C30.1381 111.592 30.0344 111.654 29.9605 111.713L30.4158 113.216C30.4858 113.164 30.5614 113.11 30.646 113.066C30.7306 113.022 30.8265 112.975 30.9392 112.923C31.0462 112.872 31.1735 112.827 31.312 112.779C31.4505 112.731 31.617 112.674 31.8021 112.618L34.2695 111.871C34.6564 111.754 34.9759 111.596 35.2318 111.389C35.4877 111.183 35.6745 110.931 35.796 110.625C35.9175 110.318 35.9682 109.96 35.9519 109.543C35.93 109.127 35.8412 108.652 35.6781 108.114C35.5371 107.648 35.3799 107.23 35.2067 106.86C35.0278 106.492 34.8512 106.172 34.6698 105.897C34.4827 105.623 34.3036 105.395 34.1252 105.211C33.9412 105.028 33.7747 104.882 33.6257 104.774L32.8354 105.803C32.9586 105.907 33.0976 106.042 33.2412 106.213C33.3847 106.384 33.5239 106.58 33.6642 106.801C33.8046 107.022 33.9371 107.257 34.0618 107.507C34.1809 107.759 34.2849 108.021 34.3647 108.285C34.4633 108.61 34.5297 108.89 34.5584 109.126C34.5871 109.362 34.5871 109.564 34.5566 109.727C34.5262 109.889 34.4688 110.023 34.3865 110.115C34.3042 110.207 34.2023 110.275 34.0733 110.314L33.9387 110.355C33.7629 109.875 33.5882 109.42 33.4114 108.978C33.2345 108.535 33.0476 108.121 32.8541 107.745C32.6606 107.368 32.4532 107.027 32.2464 106.729C32.034 106.432 31.8128 106.187 31.5771 105.995C31.3414 105.803 31.0891 105.677 30.8313 105.615C30.5662 105.548 30.2879 105.559 29.9907 105.649C29.6654 105.747 29.4094 105.892 29.2151 106.08C29.0209 106.267 28.8795 106.487 28.7965 106.739C28.7119 106.985 28.6784 107.259 28.6943 107.554C28.7047 107.851 28.7594 108.152 28.8528 108.461ZM30.2103 108.637C30.0744 108.189 30.0359 107.839 30.0891 107.59C30.1406 107.336 30.2822 107.177 30.5065 107.109C30.7027 107.049 30.8942 107.095 31.0827 107.253C31.2711 107.41 31.4648 107.645 31.6599 107.966C31.8493 108.288 32.0479 108.681 32.2445 109.148C32.4394 109.609 32.6439 110.122 32.8564 110.683L31.6396 111.051C31.5451 110.982 31.4297 110.864 31.3008 110.701C31.1645 110.534 31.0309 110.336 30.8962 110.113C30.7615 109.891 30.6273 109.65 30.5065 109.392C30.3857 109.135 30.2851 108.884 30.2103 108.637Z" fill="black"/>
	<path d="M37.2504 113.284L31.4398 115.935L32.0915 117.364L36.079 115.545C36.2129 115.613 36.3537 115.709 36.509 115.838C36.662 115.962 36.8115 116.106 36.9601 116.276C37.1087 116.447 37.2438 116.63 37.3808 116.832C37.5125 117.036 37.6258 117.241 37.7255 117.46C37.9565 117.966 38.0545 118.379 38.0118 118.695C37.9666 119.005 37.7934 119.232 37.4895 119.371L33.7792 121.064L34.4382 122.508L38.4364 120.684C38.8149 120.512 39.0973 120.312 39.2944 120.08C39.4914 119.849 39.6157 119.599 39.6701 119.323C39.7192 119.049 39.7116 118.75 39.6413 118.441C39.5711 118.132 39.4567 117.81 39.3059 117.48C39.1575 117.155 38.9874 116.852 38.7926 116.58C38.5953 116.303 38.402 116.063 38.2048 115.857C38.0053 115.645 37.8174 115.473 37.6363 115.33C37.4552 115.188 37.3091 115.093 37.1878 115.039L37.9022 114.713L37.2504 113.284Z" fill="black"/>
	<path d="M37.5639 128.012C38.2057 129.013 38.8259 129.688 39.4228 130.022C40.0149 130.359 40.5955 130.342 41.1726 129.972C41.4834 129.773 41.6907 129.543 41.7964 129.273C41.8971 129.007 41.9284 128.708 41.8937 128.383C41.854 128.06 41.7594 127.717 41.6149 127.35C41.4671 126.979 41.2951 126.602 41.1006 126.212C40.9455 125.893 40.8093 125.605 40.6871 125.349C40.5568 125.092 40.4667 124.864 40.4036 124.668C40.3405 124.472 40.3125 124.309 40.3296 124.172C40.3417 124.039 40.407 123.935 40.5303 123.856C40.6191 123.799 40.7139 123.773 40.8177 123.783C40.9184 123.788 41.0314 123.834 41.1597 123.926C41.28 124.016 41.4207 124.148 41.5718 124.33C41.7198 124.506 41.8877 124.747 42.0743 125.038C42.2387 125.294 42.3756 125.54 42.4802 125.78C42.5817 126.014 42.6588 126.243 42.7134 126.458C42.7649 126.669 42.797 126.871 42.8115 127.057C42.818 127.24 42.8149 127.409 42.7911 127.557L44.0627 127.89C44.1101 127.693 44.1386 127.466 44.1414 127.22C44.141 126.97 44.1037 126.695 44.0295 126.394C43.9553 126.094 43.841 125.764 43.6865 125.403C43.5272 125.046 43.3147 124.66 43.046 124.241C42.7962 123.851 42.5308 123.513 42.2549 123.224C41.974 122.938 41.6902 122.723 41.4052 122.571C41.1121 122.418 40.8193 122.341 40.5317 122.338C40.2391 122.337 39.9532 122.423 39.6688 122.599C39.358 122.798 39.1539 123.033 39.0595 123.309C38.9651 123.585 38.9337 123.884 38.9766 124.211C39.0194 124.539 39.114 124.882 39.2586 125.249C39.4031 125.615 39.5688 125.982 39.7507 126.353C39.9217 126.696 40.0705 127.004 40.2008 127.262C40.3261 127.522 40.418 127.742 40.478 127.933C40.5348 128.119 40.5514 128.276 40.5361 128.404C40.5127 128.53 40.4443 128.63 40.321 128.709C40.2174 128.775 40.1047 128.806 39.9846 128.792C39.8646 128.778 39.7341 128.716 39.5913 128.613C39.4485 128.509 39.3001 128.354 39.1332 128.148C38.9662 127.941 38.7775 127.68 38.5752 127.364C38.3823 127.063 38.225 126.774 38.1113 126.499C37.9927 126.227 37.9078 125.975 37.8617 125.74C37.8074 125.504 37.782 125.29 37.7904 125.097C37.7956 124.899 37.8247 124.727 37.8745 124.577L36.6592 124.103C36.5677 124.308 36.5082 124.541 36.4857 124.799C36.4582 125.06 36.479 125.353 36.5429 125.681C36.6069 126.009 36.7191 126.368 36.8844 126.756C37.0497 127.145 37.2762 127.563 37.5639 128.012Z" fill="black"/>
	<path d="M49.9544 129.58L43.3467 135.516L44.3962 136.684L51.0039 130.748L49.9544 129.58Z" fill="black"/>
	<path d="M48.7371 137.423L53.3558 141.487L53.5996 141.21C53.9132 140.854 54.1523 140.502 54.3136 140.168C54.475 139.834 54.5745 139.508 54.6124 139.19C54.6502 138.872 54.6351 138.57 54.567 138.284C54.4989 137.998 54.39 137.722 54.2446 137.462C54.0993 137.201 53.9297 136.95 53.728 136.718C53.522 136.482 53.3049 136.268 53.0761 136.067C52.8474 135.865 52.5988 135.678 52.3347 135.508C52.0623 135.338 51.7832 135.194 51.4941 135.088C51.2007 134.978 50.901 134.902 50.5996 134.863C50.29 134.825 49.9835 134.836 49.6801 134.897C49.3724 134.954 49.0727 135.073 48.7763 135.241C48.4759 135.414 48.1925 135.656 47.9177 135.968C47.5267 136.413 47.273 136.861 47.1609 137.316C47.0489 137.772 47.036 138.221 47.1346 138.659C47.2292 139.101 47.4099 139.525 47.6849 139.931C47.96 140.337 48.2869 140.711 48.674 141.051C49.0391 141.373 49.3878 141.633 49.7246 141.835C50.0569 142.034 50.3817 142.18 50.6951 142.276C51.0085 142.372 51.306 142.415 51.6004 142.409C51.8909 142.407 52.1782 142.356 52.4546 142.263L51.786 140.894C51.4036 141.018 51.0338 141.013 50.6687 140.887C50.3036 140.761 49.9228 140.519 49.5269 140.171C49.3114 139.981 49.1284 139.781 48.9692 139.563C48.8099 139.345 48.6915 139.116 48.6145 138.884C48.533 138.648 48.505 138.405 48.5184 138.159C48.5317 137.914 48.6035 137.672 48.7371 137.423ZM52.2439 137.012C52.4814 137.221 52.6776 137.433 52.8407 137.647C52.9994 137.857 53.1129 138.074 53.1807 138.289C53.2484 138.505 53.2621 138.72 53.2306 138.942C53.1992 139.164 53.1054 139.386 52.9532 139.603L49.5045 136.569C49.7475 136.408 49.9947 136.313 50.25 136.28C50.5015 136.252 50.7517 136.269 50.9924 136.332C51.2287 136.392 51.4588 136.485 51.6784 136.608C51.8897 136.732 52.0811 136.869 52.2439 137.012Z" fill="black"/>
	<path d="M60.469 146.624C60.9312 146.865 61.3787 147.046 61.8116 147.167C62.2445 147.287 62.6472 147.339 63.017 147.327C63.3867 147.316 63.7134 147.222 64.0019 147.062C64.2904 146.902 64.5203 146.652 64.6912 146.325C64.8296 146.06 64.9052 145.789 64.9129 145.508C65.0931 145.543 65.2783 145.594 65.4738 145.649C65.6667 145.711 65.8514 145.787 66.02 145.882L66.6306 144.714C66.5265 144.672 66.4014 144.633 66.2449 144.591C66.0884 144.549 65.9161 144.512 65.7384 144.485C65.5555 144.456 65.3723 144.439 65.1862 144.441C64.9949 144.441 64.8268 144.458 64.6662 144.5C64.4837 144.154 64.2093 143.818 63.8506 143.505C63.4867 143.19 63.0568 142.899 62.5531 142.636C62.0961 142.397 61.6486 142.216 61.2129 142.101C60.7773 141.985 60.3747 141.934 60.0022 141.951C59.627 141.973 59.2952 142.064 59.0012 142.234C58.7073 142.404 58.4722 142.652 58.2985 142.984C58.1194 143.327 58.053 143.669 58.0941 144.008C58.1353 144.347 58.2656 144.679 58.4852 145.006C58.2459 145.046 58.0325 145.113 57.8445 145.219C57.6565 145.326 57.5177 145.465 57.4309 145.631C57.3495 145.787 57.297 145.938 57.2813 146.082C57.2656 146.226 57.2813 146.373 57.3364 146.521C57.0877 146.503 56.8675 146.507 56.6651 146.54C56.4627 146.573 56.2863 146.62 56.1358 146.68C55.9853 146.74 55.8581 146.819 55.7544 146.904C55.6507 146.989 55.5756 147.082 55.5241 147.18C55.4427 147.336 55.3874 147.492 55.3636 147.652C55.3398 147.811 55.3474 147.974 55.3995 148.14C55.4436 148.308 55.5323 148.48 55.6679 148.664C55.8035 148.847 55.9888 149.036 56.2342 149.237C56.4717 149.441 56.7692 149.656 57.1217 149.879C57.4741 150.103 57.897 150.344 58.3903 150.602C59.0395 150.941 59.622 151.193 60.1405 151.364C60.6538 151.533 61.1082 151.625 61.4984 151.638C61.8887 151.65 62.2174 151.59 62.4792 151.456C62.7411 151.322 62.9414 151.116 63.0825 150.846C63.2534 150.518 63.3112 150.218 63.2561 149.931C63.2009 149.645 63.0486 149.367 62.8098 149.09C62.5631 148.816 62.2379 148.54 61.8313 148.268C61.4246 147.996 60.9555 147.705 60.4211 147.399C59.9853 147.145 59.643 146.939 59.3891 146.78C59.1323 146.626 58.9434 146.494 58.8246 146.393C58.7007 146.288 58.6314 146.206 58.6143 146.137C58.5972 146.069 58.6063 146.001 58.6443 145.928C58.6741 145.871 58.7274 145.82 58.8043 145.774C58.8811 145.728 58.976 145.698 59.0837 145.682C59.4602 146.024 59.9237 146.339 60.469 146.624ZM60.9945 145.669C60.6725 145.501 60.4057 145.328 60.1964 145.159C59.982 144.988 59.8199 144.817 59.7102 144.647C59.5954 144.475 59.5327 144.317 59.5172 144.156C59.5017 143.996 59.5253 143.85 59.5959 143.715C59.6664 143.58 59.7731 143.477 59.9134 143.398C60.0537 143.32 60.2222 143.275 60.4294 143.271C60.6313 143.264 60.8639 143.3 61.1299 143.373C61.3907 143.443 61.6847 143.564 62.0067 143.732C62.3287 143.9 62.5955 144.073 62.8125 144.252C63.0242 144.429 63.1863 144.6 63.3011 144.772C63.4108 144.942 63.476 145.108 63.4915 145.268C63.5069 145.428 63.4834 145.575 63.4128 145.71C63.3422 145.845 63.2356 145.947 63.0953 146.026C62.9549 146.105 62.7839 146.141 62.582 146.148C62.3749 146.152 62.1423 146.117 61.879 146.039C61.6105 145.958 61.3165 145.837 60.9945 145.669ZM59.6405 148.399C60.0634 148.64 60.4213 148.853 60.7245 149.045C61.0225 149.234 61.2659 149.401 61.444 149.553C61.6221 149.706 61.7428 149.842 61.8035 149.966C61.8615 150.095 61.8567 150.218 61.7942 150.338C61.683 150.551 61.3963 150.606 60.9291 150.501C60.4618 150.395 59.8244 150.135 59.0091 149.709C58.5573 149.473 58.1759 149.254 57.873 149.049C57.5621 148.847 57.3217 148.662 57.1544 148.488C56.982 148.312 56.8721 148.156 56.8301 148.008C56.7803 147.863 56.7906 147.73 56.8557 147.605C56.9344 147.454 57.0777 147.357 57.2907 147.317C57.4985 147.273 57.737 147.272 58.006 147.327C58.1945 147.485 58.4247 147.651 58.6968 147.827C58.9637 147.999 59.28 148.191 59.6405 148.399Z" fill="black"/>
	<path d="M68.0906 145.357L66.0624 151.413L67.5514 151.912L68.8465 148.045C68.9912 147.963 69.1691 147.893 69.3805 147.834C69.5899 147.781 69.8234 147.748 70.0847 147.742C70.346 147.737 70.6331 147.765 70.9443 147.814C71.2537 147.868 71.5871 147.961 71.9445 148.093C71.9723 148.103 72.0056 148.114 72.0538 148.136L72.1889 148.194C72.2315 148.214 72.2704 148.227 72.3075 148.246C72.3445 148.264 72.3667 148.272 72.3778 148.276L72.8801 146.85L72.7838 146.805C72.3672 146.647 71.9819 146.543 71.6225 146.49C71.2631 146.438 70.9333 146.426 70.6368 146.444C70.3385 146.468 70.0679 146.519 69.8362 146.603C69.5989 146.684 69.3986 146.784 69.2317 146.894L69.5797 145.855L68.0906 145.357Z" fill="black"/>
	<path d="M76.5638 154.435C76.8808 154.493 77.202 154.528 77.5285 154.534C77.855 154.54 78.1695 154.514 78.4835 154.458C78.7975 154.403 79.0937 154.314 79.3846 154.188C79.6688 154.067 79.9258 153.9 80.1602 153.693C80.3947 153.485 80.5904 153.229 80.7579 152.932C80.9253 152.635 81.0415 152.293 81.1142 151.895C81.188 151.492 81.2025 151.119 81.1509 150.782C81.0993 150.445 81.0069 150.137 80.8609 149.86C80.715 149.583 80.5339 149.335 80.3119 149.116C80.0899 148.897 79.8443 148.709 79.5703 148.546C79.2964 148.382 79.0046 148.252 78.6971 148.142C78.3896 148.032 78.0768 147.951 77.7597 147.893C77.4427 147.835 77.1215 147.8 76.795 147.794C76.4685 147.788 76.1493 147.807 75.8354 147.863C75.5214 147.919 75.2252 148.007 74.94 148.134C74.6548 148.261 74.3978 148.428 74.1691 148.636C73.9346 148.844 73.7389 149.1 73.5714 149.397C73.404 149.694 73.2857 150.047 73.212 150.451C73.1393 150.849 73.1258 151.215 73.1774 151.552C73.2289 151.889 73.3224 152.192 73.4684 152.469C73.6086 152.745 73.7897 152.993 74.0185 153.207C74.2405 153.427 74.4861 153.614 74.76 153.778C75.034 153.941 75.3247 154.077 75.6322 154.187C75.9398 154.297 76.2468 154.377 76.5638 154.435ZM76.7977 153.155C76.4461 153.091 76.1318 152.986 75.8557 152.834C75.5797 152.683 75.3503 152.504 75.1755 152.287C74.9938 152.075 74.8704 151.838 74.7994 151.575C74.7283 151.312 74.7192 151.036 74.7719 150.748C74.8288 150.437 74.937 150.171 75.1033 149.945C75.2629 149.724 75.4622 149.546 75.707 149.412C75.9451 149.283 76.2172 149.195 76.528 149.157C76.8378 149.124 77.169 149.137 77.5206 149.201C77.8722 149.266 78.1865 149.371 78.4636 149.517C78.7396 149.668 78.9633 149.846 79.1449 150.058C79.3208 150.269 79.4442 150.506 79.5153 150.769C79.5852 151.038 79.5934 151.32 79.5386 151.619C79.4827 151.925 79.3756 152.185 79.216 152.406C79.0554 152.633 78.8561 152.811 78.6181 152.94C78.38 153.069 78.1079 153.157 77.7971 153.195C77.4863 153.234 77.1551 153.221 76.7977 153.155Z" fill="black"/>
	<path d="M85.9674 155.546C86.3246 155.558 86.6654 155.534 87.0013 155.481C87.3314 155.427 87.6326 155.361 87.9109 155.276C88.1832 155.197 88.4207 155.105 88.6292 155.007C88.8316 154.914 88.9811 154.825 89.0775 154.746L89.0522 155.513L90.6333 155.565L90.844 149.182L89.2628 149.13L89.1167 153.557C88.9965 153.647 88.8472 153.73 88.6686 153.812C88.4842 153.894 88.2886 153.958 88.0756 154.015C87.8568 154.073 87.6326 154.118 87.3911 154.151C87.1496 154.184 86.909 154.194 86.6689 154.186C86.1125 154.167 85.7055 154.066 85.4476 153.888C85.1896 153.709 85.0631 153.459 85.0741 153.125L85.2103 148.996L83.6292 148.944L83.4842 153.336C83.4705 153.752 83.5235 154.1 83.6433 154.379C83.7572 154.658 83.9315 154.881 84.1547 155.047C84.3777 155.218 84.6434 155.338 84.9517 155.413C85.2599 155.488 85.5984 155.534 85.9674 155.546Z" fill="black"/>
	<path d="M93.8078 149.127L94.7713 157.863L96.3322 157.691L96.0033 154.709C96.3008 154.894 96.6863 155.023 97.1489 155.101C97.6121 155.186 98.1492 155.192 98.7665 155.123C99.0403 155.093 99.3108 155.034 99.5774 154.94C99.8448 154.851 100.091 154.73 100.328 154.58C100.565 154.43 100.781 154.253 100.976 154.048C101.172 153.844 101.335 153.608 101.465 153.346C101.595 153.084 101.687 152.797 101.746 152.478C101.8 152.166 101.81 151.828 101.77 151.462C101.707 150.891 101.559 150.406 101.327 150.013C101.089 149.621 100.807 149.304 100.469 149.07C100.13 148.836 99.7533 148.678 99.349 148.592C98.9388 148.508 98.5299 148.488 98.1222 148.533C97.7844 148.57 97.4725 148.628 97.1923 148.707C96.9127 148.79 96.6576 148.883 96.4337 148.991C96.2097 149.098 96.0161 149.214 95.8523 149.332C95.6892 149.456 95.5551 149.577 95.4502 149.694L95.3686 148.955L93.8078 149.127ZM98.1366 153.902C97.9386 153.924 97.7387 153.928 97.5316 153.921C97.3246 153.915 97.1162 153.897 96.9176 153.86C96.7196 153.828 96.5256 153.779 96.347 153.71C96.1691 153.647 96.0068 153.565 95.8665 153.468L95.5857 150.923C95.6479 150.846 95.7444 150.758 95.8694 150.662C95.995 150.572 96.1497 150.478 96.3342 150.387C96.5135 150.302 96.7167 150.221 96.9446 150.149C97.1724 150.076 97.4202 150.025 97.6823 149.997C97.9852 149.963 98.2802 149.966 98.5623 150.011C98.8444 150.057 99.1012 150.141 99.3282 150.275C99.5552 150.409 99.7466 150.594 99.9011 150.819C100.05 151.044 100.146 151.328 100.183 151.66C100.219 151.992 100.187 152.29 100.092 152.554C99.9978 152.818 99.8514 153.041 99.6597 153.227C99.4687 153.419 99.2434 153.568 98.9786 153.679C98.7145 153.797 98.4337 153.869 98.1366 153.902Z" fill="black"/>
	<path d="M105.157 151.309L111.098 149.71L111.002 149.354C110.879 148.896 110.719 148.502 110.529 148.183C110.34 147.864 110.124 147.6 109.88 147.393C109.636 147.185 109.376 147.031 109.1 146.929C108.824 146.828 108.534 146.766 108.237 146.743C107.939 146.72 107.636 146.722 107.332 146.762C107.021 146.803 106.722 146.865 106.428 146.944C106.134 147.024 105.84 147.127 105.552 147.253C105.26 147.386 104.986 147.539 104.738 147.721C104.484 147.905 104.254 148.112 104.055 148.341C103.852 148.578 103.692 148.84 103.575 149.126C103.452 149.414 103.385 149.729 103.361 150.069C103.339 150.415 103.384 150.785 103.492 151.187C103.646 151.759 103.879 152.218 104.196 152.563C104.514 152.909 104.881 153.168 105.3 153.328C105.721 153.494 106.175 153.578 106.665 153.574C107.155 153.569 107.647 153.503 108.145 153.369C108.615 153.243 109.024 153.096 109.379 152.928C109.729 152.761 110.03 152.571 110.283 152.363C110.537 152.155 110.737 151.931 110.895 151.683C111.054 151.44 111.17 151.172 111.246 150.89L109.736 150.69C109.628 151.077 109.418 151.382 109.111 151.617C108.804 151.851 108.393 152.035 107.883 152.172C107.606 152.246 107.338 152.288 107.068 152.3C106.799 152.312 106.542 152.284 106.307 152.22C106.065 152.157 105.847 152.046 105.65 151.899C105.452 151.752 105.291 151.559 105.157 151.309ZM106.755 148.161C107.061 148.079 107.346 148.032 107.614 148.015C107.877 147.999 108.12 148.024 108.337 148.087C108.555 148.15 108.741 148.257 108.909 148.407C109.076 148.556 109.209 148.757 109.306 149.004L104.87 150.197C104.871 149.906 104.929 149.648 105.042 149.417C105.158 149.192 105.311 148.993 105.497 148.827C105.677 148.663 105.882 148.523 106.106 148.408C106.326 148.301 106.546 148.217 106.755 148.161Z" fill="black"/>
	<path d="M114.556 144.344L117.592 149.963L118.973 149.216L116.89 145.36C116.948 145.222 117.035 145.075 117.153 144.912C117.266 144.751 117.4 144.592 117.56 144.432C117.72 144.272 117.894 144.125 118.086 143.975C118.28 143.83 118.478 143.703 118.69 143.589C119.179 143.324 119.584 143.198 119.902 143.22C120.215 143.244 120.453 143.402 120.612 143.695L122.551 147.283L123.948 146.528L121.859 142.662C121.661 142.296 121.443 142.028 121.198 141.847C120.954 141.666 120.696 141.559 120.417 141.523C120.141 141.492 119.843 141.52 119.539 141.611C119.235 141.702 118.922 141.838 118.603 142.011C118.288 142.18 117.998 142.371 117.74 142.583C117.477 142.799 117.25 143.008 117.058 143.218C116.86 143.432 116.701 143.631 116.571 143.821C116.441 144.011 116.356 144.163 116.31 144.288L115.937 143.597L114.556 144.344Z" fill="black"/>
	<path d="M129.774 142.37C130.023 142.165 130.257 141.943 130.473 141.697C130.688 141.452 130.872 141.195 131.032 140.919C131.192 140.644 131.316 140.36 131.408 140.057C131.499 139.762 131.538 139.458 131.531 139.145C131.524 138.832 131.455 138.517 131.336 138.198C131.218 137.878 131.032 137.568 130.775 137.256C130.515 136.939 130.24 136.687 129.949 136.509C129.659 136.33 129.363 136.201 129.058 136.134C128.752 136.067 128.446 136.045 128.135 136.073C127.824 136.1 127.522 136.167 127.221 136.27C126.919 136.374 126.631 136.512 126.348 136.676C126.066 136.84 125.802 137.026 125.553 137.231C125.304 137.435 125.07 137.658 124.854 137.903C124.639 138.149 124.447 138.405 124.287 138.68C124.127 138.956 124.003 139.239 123.915 139.539C123.828 139.838 123.79 140.143 123.801 140.452C123.808 140.765 123.877 141.08 123.995 141.399C124.114 141.719 124.307 142.038 124.568 142.355C124.824 142.667 125.096 142.914 125.386 143.093C125.677 143.271 125.968 143.395 126.274 143.463C126.575 143.534 126.881 143.556 127.193 143.52C127.503 143.492 127.806 143.426 128.107 143.322C128.409 143.218 128.701 143.085 128.983 142.921C129.266 142.757 129.525 142.574 129.774 142.37ZM128.948 141.365C128.672 141.591 128.389 141.764 128.095 141.876C127.801 141.989 127.516 142.048 127.238 142.042C126.959 142.044 126.698 141.985 126.451 141.869C126.204 141.753 125.988 141.582 125.802 141.356C125.601 141.111 125.468 140.857 125.403 140.584C125.338 140.319 125.33 140.052 125.386 139.779C125.442 139.514 125.551 139.25 125.722 138.987C125.897 138.73 126.121 138.485 126.397 138.259C126.673 138.032 126.957 137.86 127.247 137.742C127.541 137.63 127.821 137.574 128.101 137.572C128.375 137.574 128.636 137.633 128.883 137.749C129.133 137.869 129.353 138.045 129.547 138.28C129.744 138.52 129.873 138.77 129.939 139.035C130.008 139.304 130.015 139.571 129.96 139.836C129.905 140.101 129.796 140.365 129.624 140.627C129.453 140.89 129.229 141.134 128.948 141.365Z" fill="black"/>
	<path d="M130.192 133.618L135.249 137.518L136.208 136.275L132.738 133.598C132.735 133.448 132.751 133.283 132.786 133.095C132.82 132.907 132.874 132.712 132.948 132.51C133.022 132.308 133.118 132.108 133.225 131.902C133.336 131.7 133.466 131.503 133.612 131.313C133.949 130.877 134.257 130.612 134.538 130.525C134.82 130.439 135.091 130.5 135.355 130.704L138.584 133.194L139.558 131.932L136.078 129.248L136.073 129.245C136.108 128.835 136.199 128.439 136.349 128.052C136.496 127.669 136.697 127.314 136.951 126.984C137.291 126.543 137.603 126.273 137.884 126.187C138.165 126.1 138.44 126.157 138.704 126.361L141.934 128.851L142.9 127.599L139.42 124.915C139.091 124.661 138.786 124.5 138.493 124.429C138.199 124.358 137.927 124.356 137.665 124.427C137.407 124.502 137.154 124.639 136.92 124.837C136.683 125.039 136.456 125.285 136.23 125.577C135.844 126.079 135.552 126.601 135.355 127.144C135.162 127.691 135.064 128.222 135.064 128.74C134.854 128.696 134.653 128.697 134.462 128.734C134.27 128.772 134.083 128.842 133.904 128.948C133.726 129.055 133.547 129.191 133.376 129.355C133.21 129.523 133.042 129.712 132.881 129.92C132.663 130.203 132.478 130.49 132.336 130.78C132.19 131.075 132.075 131.349 131.989 131.615C131.902 131.881 131.845 132.118 131.806 132.332C131.771 132.549 131.759 132.718 131.763 132.847L131.151 132.375L130.192 133.618Z" fill="black"/>
	<path d="M138.572 121.815L144.16 124.908L144.921 123.534L139.333 120.441L138.572 121.815ZM136.526 120.709L137.736 121.379L138.522 119.959L137.312 119.289L136.526 120.709Z" fill="black"/>
	<path d="M140.544 118.287L146.42 120.79L147.035 119.345L143.003 117.628C142.962 117.483 142.939 117.314 142.929 117.112C142.917 116.916 142.923 116.708 142.949 116.484C142.974 116.259 143.018 116.036 143.075 115.799C143.136 115.564 143.212 115.341 143.306 115.12C143.524 114.608 143.763 114.258 144.025 114.076C144.284 113.9 144.569 113.875 144.876 114.006L148.628 115.603L149.25 114.142L145.207 112.421C144.824 112.258 144.487 112.184 144.183 112.195C143.879 112.205 143.61 112.282 143.37 112.428C143.135 112.576 142.919 112.784 142.738 113.044C142.557 113.305 142.397 113.606 142.255 113.94C142.115 114.269 142.006 114.599 141.937 114.926C141.865 115.258 141.818 115.563 141.799 115.848C141.777 116.138 141.777 116.393 141.794 116.623C141.811 116.853 141.84 117.024 141.881 117.15L141.159 116.843L140.544 118.287Z" fill="black"/>
	<path d="M150.851 109.479C150.936 109.175 151 108.858 151.043 108.529C151.09 108.208 151.111 107.891 151.111 107.587C151.11 107.283 151.086 106.996 151.044 106.735C151.001 106.474 150.936 106.249 150.847 106.066C151.012 106.106 151.164 106.13 151.301 106.138C151.445 106.147 151.565 106.15 151.659 106.14L152.081 104.627C151.994 104.634 151.901 104.638 151.806 104.63C151.711 104.622 151.605 104.611 151.482 104.594C151.364 104.58 151.233 104.549 151.09 104.516C150.947 104.482 150.776 104.441 150.59 104.389L148.106 103.697C147.717 103.589 147.362 103.551 147.036 103.588C146.709 103.624 146.416 103.738 146.15 103.931C145.883 104.124 145.648 104.399 145.438 104.761C145.234 105.123 145.054 105.572 144.903 106.114C144.773 106.583 144.681 107.019 144.629 107.425C144.583 107.831 144.561 108.196 144.566 108.526C144.577 108.858 144.606 109.146 144.658 109.397C144.715 109.65 144.778 109.862 144.846 110.033L146.065 109.588C146.016 109.435 145.971 109.246 145.942 109.025C145.912 108.804 145.9 108.563 145.9 108.301C145.9 108.04 145.914 107.77 145.943 107.492C145.977 107.216 146.03 106.939 146.104 106.673C146.195 106.346 146.289 106.074 146.391 105.859C146.494 105.645 146.602 105.474 146.715 105.353C146.827 105.233 146.947 105.151 147.066 105.117C147.185 105.083 147.308 105.08 147.437 105.117L147.573 105.154C147.464 105.653 147.368 106.131 147.28 106.599C147.192 107.068 147.128 107.518 147.089 107.939C147.051 108.36 147.043 108.76 147.058 109.123C147.078 109.487 147.133 109.813 147.229 110.101C147.326 110.389 147.471 110.631 147.655 110.822C147.843 111.02 148.084 111.16 148.383 111.243C148.711 111.335 149.005 111.349 149.269 111.295C149.533 111.241 149.771 111.131 149.976 110.963C150.179 110.801 150.354 110.588 150.499 110.33C150.649 110.074 150.765 109.79 150.851 109.479ZM149.8 108.603C149.674 109.054 149.519 109.37 149.341 109.552C149.161 109.739 148.956 109.797 148.731 109.734C148.533 109.679 148.396 109.538 148.321 109.304C148.246 109.07 148.209 108.768 148.216 108.393C148.229 108.019 148.272 107.581 148.356 107.082C148.439 106.588 148.541 106.044 148.662 105.458L149.887 105.799C149.93 105.908 149.964 106.069 149.985 106.276C150.011 106.49 150.017 106.729 150.012 106.989C150.006 107.249 149.991 107.525 149.955 107.806C149.919 108.088 149.869 108.354 149.8 108.603Z" fill="black"/>
	<path d="M143.791 100.481L152.537 102.034L152.812 100.488L144.065 98.9352L143.791 100.481Z" fill="black"/>
	<path d="M27.6231 69.7083L38.7046 73.8883L42.6476 63.4354L40.462 62.611L37.5144 70.4251L28.6184 67.0694L27.6231 69.7083Z" fill="black"/>
	<path d="M33.4117 55.7507L43.2675 62.3186L49.7358 52.6123L47.7919 51.3169L42.8877 58.6762L40.7423 57.2466L44.6717 51.35L42.7799 50.0892L38.8504 55.9858L36.9781 54.7381L41.7437 47.5868L39.7413 46.2524L33.4117 55.7507Z" fill="black"/>
	<path d="M55.4951 47.5354C56.1343 46.9728 56.6664 46.4421 57.0971 45.9382C57.5219 45.4394 57.8623 44.9629 58.1065 44.519C58.3558 44.081 58.5266 43.6602 58.618 43.2674C58.7088 42.8857 58.7379 42.5167 58.7038 42.1824C58.6698 41.8481 58.5792 41.5323 58.4424 41.2469C58.3056 40.9614 58.1233 40.6951 57.9117 40.4546C57.5762 40.0734 57.2219 39.8128 56.8445 39.6559C56.467 39.499 56.0729 39.4296 55.6679 39.4425C55.2572 39.4606 54.8422 39.5448 54.4229 39.6952C53.9979 39.8508 53.57 40.0505 53.1451 40.2891C52.7203 40.5277 52.2992 40.7942 51.8767 41.0828C51.4594 41.3773 51.0479 41.6666 50.6423 41.9507C50.126 42.3219 49.6683 42.6414 49.281 42.899C48.893 43.1677 48.554 43.3619 48.2582 43.487C47.9624 43.612 47.7156 43.6627 47.4958 43.6377C47.2811 43.6184 47.089 43.5065 46.9135 43.3071C46.6451 43.0022 46.649 42.5928 46.9254 42.079C47.2068 41.5711 47.779 40.9322 48.6528 40.1632C49.0809 39.7864 49.4828 39.4743 49.8525 39.2322C50.2215 39.0011 50.5649 38.8237 50.888 38.7059C51.2051 38.5933 51.4967 38.5344 51.7679 38.5351C52.0391 38.5358 52.2906 38.585 52.5224 38.6828L53.8707 36.2889C53.661 36.1925 53.4278 36.1168 53.1718 36.0506C52.9152 35.9955 52.6292 35.9662 52.3139 35.9627C51.9986 35.9592 51.6584 35.9984 51.2934 36.0803C50.9284 36.1622 50.5268 36.2971 50.1047 36.4916C49.6827 36.6861 49.2234 36.9447 48.7326 37.2621C48.247 37.5854 47.7286 37.9897 47.1832 38.4697C46.4384 39.1252 45.8273 39.7671 45.3668 40.391C44.9005 41.0199 44.5744 41.6191 44.3879 42.1995C44.2015 42.7799 44.1612 43.3254 44.2611 43.841C44.3604 44.3677 44.6065 44.8484 44.9988 45.2941C45.324 45.6635 45.6672 45.9235 46.0344 46.0687C46.4008 46.2249 46.7781 46.2987 47.172 46.2851C47.571 46.2773 47.9743 46.2034 48.3876 46.0582C48.7951 45.9181 49.2106 45.7398 49.6237 45.5115C50.0368 45.2832 50.4513 45.0328 50.8621 44.7546C51.2728 44.4763 51.6667 44.2025 52.0554 43.9229C52.6004 43.5369 53.0756 43.2019 53.4864 42.9236C53.9023 42.6512 54.2641 42.4473 54.5775 42.3068C54.8902 42.1773 55.1649 42.1228 55.3965 42.1376C55.6332 42.1582 55.8415 42.2767 56.0222 42.4819C56.1667 42.6461 56.2378 42.8333 56.2406 43.0494C56.2434 43.2655 56.1721 43.5156 56.0208 43.8048C55.8695 44.0941 55.6272 44.4219 55.3056 44.7778C54.984 45.1337 54.5648 45.5442 54.0546 45.9933C53.5326 46.4527 53.0501 46.8149 52.6018 47.0742C52.1586 47.3393 51.7542 47.5183 51.3826 47.6164C51.0103 47.7255 50.6708 47.7537 50.3635 47.712C50.0562 47.6702 49.7744 47.5748 49.5234 47.4314L47.9283 49.6159C48.3384 49.869 48.7916 50.0529 49.288 50.1676C49.7845 50.2823 50.3437 50.2792 50.9549 50.1576C51.5711 50.0419 52.2583 49.7702 53.0045 49.3528C53.7559 48.9413 54.5861 48.3355 55.4951 47.5354Z" fill="black"/>
	<path d="M65.2098 27.512L63.6078 40.812L66.2316 39.8433L66.5681 37.1457L73.1714 34.7077L75.1949 36.5339L78.0311 35.4868L68.1487 26.4269L65.2098 27.512ZM71.4541 33.1015L66.8296 34.8089L67.493 29.5005L71.4541 33.1015Z" fill="black"/>
	<path d="M86.0169 35.0286C86.8802 34.9468 87.6725 34.7776 88.3944 34.5287C89.1086 34.2805 89.7368 33.9542 90.2885 33.5645C90.8401 33.1748 91.2996 32.7232 91.6746 32.209C92.0497 31.6948 92.3348 31.142 92.5206 30.5358L89.904 29.9205C89.7894 30.2844 89.6259 30.6295 89.3965 30.9416C89.1679 31.2615 88.8881 31.5391 88.5424 31.7837C88.1968 32.0284 87.8 32.2307 87.3444 32.3916C86.8888 32.5525 86.3814 32.6633 85.8136 32.7171C85.067 32.7878 84.4048 32.7564 83.8193 32.6235C83.2346 32.4984 82.7351 32.2789 82.3224 31.9806C81.9096 31.6822 81.5835 31.3051 81.3441 30.849C81.1047 30.393 80.962 29.8808 80.9075 29.3052C80.8522 28.7219 80.904 28.1912 81.055 27.7139C81.2059 27.2366 81.4639 26.8119 81.8141 26.4492C82.165 26.0942 82.6158 25.8004 83.1674 25.5755C83.7112 25.3513 84.3486 25.2046 85.0797 25.1353C85.6475 25.0816 86.1737 25.0866 86.6429 25.1521C87.1121 25.2175 87.5384 25.3262 87.9068 25.4875C88.2752 25.6488 88.5928 25.8541 88.859 26.0957C89.1259 26.3451 89.332 26.6159 89.4782 26.916L92.0226 25.8588C91.7959 25.3702 91.478 24.9138 91.0767 24.4888C90.6684 24.0723 90.172 23.7191 89.5873 23.4292C88.9957 23.1478 88.3088 22.9382 87.5274 22.8082C86.739 22.6867 85.8583 22.6681 84.8706 22.7617C84.2017 22.825 83.5613 22.9406 82.9564 23.1C82.3445 23.2678 81.7767 23.4864 81.2529 23.7557C80.7291 24.0251 80.2571 24.3444 79.8454 24.7209C79.426 25.098 79.0747 25.5315 78.7985 26.0129C78.5146 26.4949 78.3143 27.0318 78.19 27.6243C78.0656 28.2168 78.0405 28.8627 78.1075 29.5704C78.2077 30.6282 78.4736 31.529 78.912 32.2644C79.3513 33.0075 79.9172 33.5974 80.6107 34.0418C81.3041 34.4862 82.1172 34.7859 83.0345 34.9422C83.9518 35.0986 84.9513 35.1295 86.0169 35.0286Z" fill="black"/>
	<path d="M100.946 35.2396C101.807 35.3422 102.617 35.3443 103.375 35.2537C104.126 35.1621 104.809 34.976 105.431 34.7117C106.052 34.4475 106.597 34.1032 107.072 33.6799C107.547 33.2566 107.943 32.7765 108.252 32.2234L105.825 31.0688C105.636 31.4003 105.403 31.703 105.113 31.9596C104.822 32.2239 104.49 32.4361 104.1 32.6021C103.711 32.7681 103.28 32.882 102.801 32.9429C102.322 33.0039 101.802 33.0049 101.236 32.9375C100.491 32.8488 99.8506 32.678 99.3065 32.4244C98.7615 32.1785 98.3197 31.8584 97.9793 31.4795C97.6389 31.1007 97.3999 30.6631 97.2623 30.1667C97.1248 29.6704 97.0936 29.1396 97.162 28.5655C97.2313 27.9837 97.3941 27.4759 97.6425 27.0413C97.891 26.6067 98.2329 26.2462 98.6518 25.9657C99.0699 25.6929 99.5726 25.501 100.159 25.3978C100.738 25.2937 101.392 25.285 102.121 25.3719C102.688 25.4394 103.201 25.5556 103.646 25.7187C104.091 25.8819 104.484 26.0782 104.81 26.3138C105.136 26.5493 105.403 26.8171 105.612 27.1095C105.82 27.4097 105.965 27.718 106.044 28.0422L108.754 27.5468C108.636 27.0213 108.422 26.508 108.12 26.0078C107.809 25.5144 107.398 25.0642 106.888 24.6573C106.369 24.2572 105.742 23.9071 105.006 23.6148C104.261 23.3294 103.404 23.125 102.419 23.0077C101.752 22.9282 101.101 22.9058 100.476 22.9336C99.8429 22.9683 99.2417 23.0619 98.6727 23.2145C98.1038 23.367 97.575 23.5794 97.0931 23.8603C96.6034 24.1402 96.1684 24.4897 95.7967 24.9017C95.4173 25.3129 95.1081 25.7953 94.8612 26.3481C94.6144 26.9009 94.4533 27.5269 94.3692 28.2328C94.2435 29.2879 94.3129 30.2245 94.586 31.036C94.8582 31.8552 95.2867 32.5514 95.8705 33.1323C96.4543 33.7133 97.1858 34.178 98.0492 34.5248C98.9127 34.8716 99.8831 35.113 100.946 35.2396Z" fill="black"/>
	<path d="M115.243 38.9145C115.863 39.1726 116.483 39.3711 117.102 39.5102C117.718 39.6565 118.322 39.7301 118.921 39.7339C119.51 39.742 120.08 39.6744 120.627 39.5383C121.168 39.3992 121.678 39.1885 122.158 38.889C122.628 38.5937 123.057 38.2136 123.448 37.7416C123.836 37.2769 124.161 36.7184 124.434 36.062C124.707 35.4056 124.867 34.7781 124.926 34.1681C124.982 33.5653 124.942 32.9902 124.823 32.4416C124.695 31.8972 124.487 31.3793 124.198 30.8951C123.901 30.4078 123.544 29.9633 123.124 29.5513C122.703 29.1393 122.225 28.7627 121.697 28.4247C121.159 28.0909 120.588 27.7943 119.975 27.5392C119.362 27.2842 118.75 27.0886 118.141 26.9453C117.522 26.8062 116.918 26.7327 116.336 26.7276C115.747 26.7195 115.18 26.7799 114.633 26.916C114.078 27.0492 113.565 27.267 113.095 27.5623C112.615 27.8619 112.186 28.2419 111.798 28.7067C111.407 29.1787 111.074 29.7341 110.801 30.3905C110.528 31.0469 110.361 31.6714 110.305 32.2742C110.246 32.8842 110.279 33.4563 110.401 33.9977C110.519 34.5463 110.73 35.057 111.019 35.5413C111.301 36.0225 111.655 36.4742 112.076 36.8862C112.494 37.3055 112.972 37.682 113.51 38.0158C114.045 38.3569 114.623 38.6564 115.243 38.9145ZM116.14 36.7577C115.462 36.4757 114.899 36.14 114.442 35.7551C113.984 35.3701 113.639 34.9388 113.408 34.4786C113.176 34.0184 113.055 33.5365 113.047 33.0257C113.04 32.5149 113.147 31.9926 113.369 31.4588C113.591 30.925 113.886 30.4808 114.251 30.1332C114.615 29.7856 115.042 29.5318 115.529 29.3789C116.013 29.2332 116.556 29.1884 117.152 29.2415C117.744 29.3019 118.376 29.4716 119.054 29.7537C119.732 30.0358 120.305 30.3672 120.765 30.7449C121.223 31.1299 121.567 31.5438 121.805 31.9895C122.039 32.4425 122.16 32.9244 122.171 33.428C122.181 33.9316 122.074 34.4539 121.852 34.9877C121.63 35.5215 121.335 35.9658 120.967 36.3205C120.6 36.6753 120.173 36.9292 119.683 37.0893C119.193 37.2494 118.651 37.3116 118.056 37.2585C117.46 37.2053 116.818 37.0398 116.14 36.7577Z" fill="black"/>
	<path d="M130.748 33.2502L123.001 42.2091L125.105 44.0283L127.905 40.7898L131.551 43.9427L130.589 48.7703L132.858 50.7326L133.928 45.4817C134.707 45.835 135.429 45.9322 136.105 45.7835C136.781 45.6347 137.415 45.2121 138.013 44.5206C138.457 44.0065 138.758 43.4917 138.91 42.9933C139.056 42.4897 139.075 41.9898 138.967 41.4937C138.848 40.9983 138.613 40.5058 138.262 40.0161C137.906 39.5324 137.443 39.0398 136.882 38.5543L130.748 33.2502ZM133.32 42.5182L129.367 39.0997L131.324 36.8363L135.277 40.2549C135.827 40.7301 136.158 41.1713 136.26 41.5794C136.355 41.9823 136.235 42.3843 135.887 42.7861C135.545 43.1821 135.17 43.3533 134.767 43.305C134.354 43.2574 133.87 42.9935 133.32 42.5182Z" fill="black"/>
	<path d="M143.652 45.4377L133.605 51.7098L137.233 57.5217C137.548 58.0254 137.894 58.491 138.274 58.9077C138.654 59.3244 139.053 59.6832 139.488 59.9824C139.917 60.2857 140.371 60.5269 140.858 60.7019C141.341 60.8703 141.845 60.9699 142.376 60.9793C142.907 60.9886 143.453 60.9053 144.024 60.7424C144.591 60.573 145.182 60.2958 145.785 59.9193C146.395 59.5387 146.897 59.1332 147.298 58.6986C147.699 58.2641 148.007 57.8137 148.225 57.3368C148.437 56.8641 148.573 56.3739 148.62 55.8746C148.668 55.3752 148.644 54.8651 148.553 54.3508C148.458 53.8299 148.3 53.3114 148.086 52.7912C147.865 52.2752 147.599 51.7599 147.28 51.2497L143.652 45.4377ZM139.192 56.336L137.032 52.8767L143.136 49.0663L145.279 52.4991C145.639 53.0757 145.876 53.6182 145.976 54.1176C146.076 54.617 146.073 55.07 145.965 55.4873C145.858 55.9046 145.655 56.2888 145.361 56.629C145.067 56.9692 144.696 57.2746 144.265 57.5435C143.801 57.8331 143.344 58.0449 142.896 58.1681C142.448 58.2912 142.001 58.3125 141.576 58.2369C141.147 58.1547 140.732 57.9624 140.331 57.6599C139.927 57.3508 139.552 56.9126 139.192 56.336Z" fill="black"/>
	<path d="M142.77 70.6596C143.006 71.4779 143.259 72.1857 143.53 72.7904C143.8 73.3876 144.085 73.8989 144.382 74.3093C144.672 74.7218 144.979 75.056 145.295 75.3065C145.602 75.5516 145.923 75.7355 146.24 75.8475C146.557 75.9596 146.881 76.0126 147.197 76.0108C147.514 76.0091 147.833 75.958 148.14 75.8694C148.628 75.7289 149.015 75.5199 149.318 75.2456C149.622 74.9714 149.853 74.6447 150.014 74.273C150.173 73.8939 150.274 73.4827 150.317 73.0394C150.358 72.5886 150.361 72.1164 150.326 71.6304C150.292 71.1443 150.231 70.6497 150.15 70.1444C150.062 69.6413 149.977 69.1457 149.893 68.6576C149.778 68.0322 149.685 67.4819 149.617 67.0216C149.54 66.556 149.509 66.1666 149.522 65.8457C149.536 65.5248 149.595 65.28 149.712 65.0919C149.821 64.9061 150.004 64.7801 150.259 64.7066C150.65 64.5942 151.018 64.7727 151.365 65.242C151.704 65.7135 152.037 66.5037 152.359 67.6223C152.517 68.1704 152.627 68.667 152.688 69.1047C152.74 69.5371 152.753 69.9234 152.722 70.2658C152.688 70.6007 152.617 70.8895 152.5 71.1344C152.384 71.3793 152.232 71.5857 152.045 71.7535L153.633 73.9952C153.81 73.8467 153.978 73.6683 154.147 73.4651C154.307 73.2566 154.455 73.0105 154.593 72.7269C154.731 72.4434 154.841 72.119 154.923 71.754C155.005 71.389 155.054 70.9682 155.059 70.5035C155.063 70.0389 155.025 69.5131 154.948 68.9338C154.863 68.3566 154.719 67.7152 154.518 67.017C154.244 66.0635 153.924 65.2368 153.557 64.5539C153.187 63.8636 152.785 63.3128 152.34 62.8963C151.895 62.4798 151.419 62.2103 150.91 62.0804C150.391 61.9452 149.851 61.9624 149.281 62.1267C148.808 62.2629 148.426 62.4622 148.138 62.7321C147.84 62.9967 147.612 63.3063 147.456 63.6682C147.293 64.0324 147.188 64.4286 147.142 64.8643C147.095 65.2926 147.079 65.7444 147.109 66.2155C147.139 66.6865 147.188 67.1683 147.264 67.6585C147.34 68.1488 147.419 68.6219 147.506 69.0928C147.622 69.7504 147.722 70.3232 147.798 70.8135C147.867 71.3059 147.897 71.7201 147.89 72.0635C147.874 72.4016 147.805 72.6732 147.693 72.8763C147.573 73.0815 147.377 73.2193 147.115 73.2949C146.904 73.3554 146.705 73.3398 146.508 73.25C146.312 73.1603 146.116 72.989 145.919 72.7286C145.722 72.4682 145.529 72.1091 145.345 71.6663C145.16 71.2235 144.968 70.6691 144.78 70.0159C144.588 69.3477 144.466 68.7567 144.424 68.2406C144.373 67.7267 144.384 67.2845 144.454 66.9066C144.514 66.5234 144.634 66.2044 144.803 65.9444C144.972 65.6844 145.179 65.4704 145.416 65.3046L144.122 62.9292C143.718 63.1919 143.358 63.5232 143.042 63.923C142.726 64.3229 142.49 64.8299 142.339 65.4343C142.18 66.041 142.133 66.7783 142.191 67.6313C142.242 68.4865 142.435 69.496 142.77 70.6596Z" fill="black"/>
	<path d="M68 80.5L67.5 95L80 105.5L94.5 104.5H98.5L103.5 96.5L92 87.5L82 88.5V83.5L88.5 76L80.5 74L72.5 80.5H68Z" fill="#EFC65F"/>
	<path d="M83 82.5V87.5H86.5L91.5 86L104 95.5L110.5 97L116.5 84L102 75H91.5L83 82.5Z" fill="#5AAA67"/>
	<path d="M108.675 77.9906L104.213 73.5281C103.225 72.5492 101.891 72 100.5 72H79.2375C77.85 72 76.5094 72.5531 75.525 73.5281L71.0625 77.9906H60V101.963H66C67.65 101.963 68.9813 100.631 68.9906 98.9906H69.8438L77.775 106.153C80.6719 108.506 84.6938 108.563 87.675 106.509C88.8469 107.522 90.1125 108 91.5281 108C93.2344 108 94.8375 107.306 96.1031 105.75C98.175 106.566 100.622 105.994 102.103 104.175L104.559 101.147C105.084 100.5 105.413 99.7594 105.581 98.9906H111.009C111.019 100.631 112.359 101.963 114 101.963H120V77.9906H108.675ZM64.5 98.9625C63.675 98.9625 63 98.2875 63 97.4625C63 96.6375 63.675 95.9625 64.5 95.9625C65.325 95.9625 66 96.6375 66 97.4625C66 98.2969 65.325 98.9625 64.5 98.9625ZM101.062 98.3156L98.6156 101.334C98.3531 101.653 97.8844 101.709 97.5563 101.447L95.3156 99.6281L92.5031 103.05C91.9406 103.734 91.0969 103.5 90.8156 103.275L87.3656 100.322L85.9031 102.122C84.6 103.725 82.2281 103.969 80.7188 102.741L71.5969 94.4906H69V82.4813H72.9281L78.7125 76.7062C78.9 76.6312 79.0594 76.5656 79.2469 76.4906H84.5625L80.9344 79.8187C78.1781 82.3406 78.0187 86.5969 80.5219 89.3156C81.9094 90.8344 86.2594 93.1781 90.0375 89.7281L90.8063 89.025L100.95 97.2562C101.269 97.5187 101.316 97.9969 101.062 98.3156V98.3156ZM111 94.4906H104.512C104.297 94.2281 104.053 93.9844 103.791 93.7688L94.1625 85.95L95.3344 84.8812C95.9437 84.3187 95.9906 83.3719 95.4281 82.7625L94.4062 81.6656C93.8438 81.0563 92.8969 81.0188 92.2875 81.5719L87.1125 86.3156C86.2219 87.1312 84.7031 87.1969 83.8688 86.3156C82.9969 85.3875 83.0719 83.9625 83.9813 83.1375L90.1312 77.5031C90.825 76.8656 91.725 76.5187 92.6625 76.5187L100.509 76.5C100.706 76.5 100.894 76.575 101.025 76.7156L106.809 82.4906H111V94.4906V94.4906ZM115.5 98.9625C114.675 98.9625 114 98.2875 114 97.4625C114 96.6375 114.675 95.9625 115.5 95.9625C116.325 95.9625 117 96.6375 117 97.4625C117 98.2969 116.325 98.9625 115.5 98.9625Z" fill="black"/>
</svg>
