<svg width="270" height="200" viewBox="0 0 270 200" fill="none" xmlns="http://www.w3.org/2000/svg">
<ellipse cx="135" cy="100" rx="135" ry="100" fill="#5AAA67"/>
<path d="M75.9473 124.676V138H88.5156V135.372H79.1201V124.676H75.9473ZM90.8711 124.676V138H103.993V135.372H94.0439V132.472H102.016V129.914H94.0439V127.383H103.712V124.676H90.8711ZM110.506 124.676L117.396 138.079H120.938L127.829 124.676H124.595L119.286 134.959L113.986 124.676H110.506ZM130.123 124.676V138H143.245V135.372H133.296V132.472H141.268V129.914H133.296V127.383H142.964V124.676H130.123ZM145.873 124.676V138H149.002V133.184H154.425L157.158 138H160.533L157.58 132.744C158.503 132.472 159.188 132.023 159.654 131.399C160.12 130.775 160.349 129.949 160.349 128.921C160.349 128.156 160.226 127.497 159.988 126.961C159.742 126.425 159.391 125.985 158.934 125.643C158.468 125.309 157.905 125.062 157.246 124.904C156.587 124.755 155.831 124.676 154.996 124.676H145.873ZM154.882 130.67H149.002V127.304H154.882C155.699 127.304 156.306 127.436 156.692 127.708C157.07 127.98 157.264 128.411 157.264 129.009C157.264 129.598 157.07 130.02 156.692 130.274C156.306 130.538 155.699 130.67 154.882 130.67ZM163.354 124.676V138H172.732C173.312 138 173.893 137.938 174.473 137.824C175.053 137.71 175.58 137.508 176.046 137.227C176.512 136.945 176.89 136.567 177.18 136.102C177.47 135.636 177.61 135.047 177.61 134.344C177.61 133.772 177.531 133.298 177.382 132.911C177.224 132.524 177.013 132.208 176.749 131.953C176.485 131.698 176.187 131.505 175.844 131.364C175.501 131.224 175.141 131.118 174.763 131.048C175.079 130.969 175.387 130.854 175.686 130.705C175.976 130.556 176.239 130.362 176.477 130.116C176.714 129.87 176.898 129.571 177.039 129.211C177.18 128.859 177.25 128.446 177.25 127.972C177.25 127.488 177.188 127.075 177.057 126.724C176.925 126.372 176.74 126.073 176.512 125.827C176.283 125.59 176.011 125.388 175.703 125.238C175.396 125.089 175.062 124.966 174.701 124.887C174.341 124.808 173.972 124.746 173.576 124.72C173.181 124.693 172.794 124.676 172.407 124.676H163.354ZM172.293 135.53H166.448V132.384H172.205C173.005 132.384 173.594 132.516 173.972 132.771C174.341 133.025 174.525 133.421 174.525 133.948C174.525 134.449 174.35 134.845 173.989 135.117C173.629 135.39 173.066 135.53 172.293 135.53ZM172.17 130.081H166.448V127.181H172.135C172.882 127.181 173.427 127.304 173.752 127.55C174.077 127.796 174.244 128.156 174.244 128.64C174.244 129.079 174.077 129.431 173.743 129.686C173.4 129.949 172.882 130.081 172.17 130.081ZM180.643 124.676V138H193.765V135.372H183.815V132.472H191.787V129.914H183.815V127.383H193.483V124.676H180.643Z" fill="black"/>
<path d="M52.874 46.6528L60.1812 52.3523L62.4494 51.2653L62.5839 41.9991L60.7817 42.8629L60.6576 50.2871L54.8064 45.7267L52.874 46.6528Z" fill="black"/>
<path d="M70.075 48.0111C70.4551 47.8567 70.8309 47.6713 71.2023 47.4548C71.5695 47.2483 71.9112 47.0193 72.2232 46.7778C72.5352 46.5363 72.8104 46.2851 73.0448 46.0341C73.2791 45.7831 73.4584 45.538 73.5757 45.3017C73.6657 45.5031 73.7611 45.6775 73.8621 45.8252C73.9659 45.9798 74.0583 46.1063 74.1434 46.1948L76.0302 45.4285C75.955 45.3443 75.8769 45.2529 75.81 45.1489C75.7432 45.0448 75.6706 44.9267 75.5894 44.7874C75.5111 44.6552 75.4383 44.4961 75.3598 44.3229C75.2813 44.1498 75.1885 43.9414 75.0941 43.7091L73.836 40.6114C73.6388 40.1256 73.3968 39.7318 73.1003 39.4257C72.8038 39.1196 72.4555 38.9084 72.0457 38.7878C71.6358 38.6672 71.1672 38.6443 70.63 38.7148C70.0956 38.7924 69.4925 38.9635 68.8167 39.238C68.2323 39.4753 67.7116 39.7278 67.2544 39.9955C66.8 40.2702 66.4077 40.5362 66.0733 40.8032C65.7417 41.0773 65.4693 41.3356 65.252 41.5879C65.0374 41.8472 64.8693 42.0795 64.7476 42.2848L66.1705 43.1832C66.2895 43.0118 66.448 42.8163 66.6515 42.6106C66.855 42.4049 67.0924 42.2019 67.3608 41.9944C67.6293 41.787 67.9175 41.5879 68.2255 41.3972C68.5364 41.2136 68.8629 41.0482 69.1938 40.9138C69.6021 40.748 69.9557 40.629 70.2573 40.5639C70.5589 40.4988 70.8199 40.4748 71.033 40.4949C71.2462 40.5149 71.4257 40.5733 71.5546 40.6685C71.6835 40.7638 71.783 40.8875 71.8487 41.0494L71.9174 41.2184C71.3191 41.5023 70.7519 41.7819 70.2017 42.0627C69.6514 42.3436 69.1379 42.6342 68.6752 42.9287C68.2125 43.2232 67.7965 43.5316 67.4354 43.8341C67.0772 44.1436 66.7868 44.4584 66.567 44.7855C66.3472 45.1126 66.2149 45.4534 66.1645 45.7937C66.1099 46.144 66.1569 46.5021 66.3085 46.8753C66.4743 47.2836 66.6918 47.5971 66.9569 47.8257C67.222 48.0543 67.5234 48.2108 67.8582 48.2881C68.186 48.3682 68.5431 48.379 68.9223 48.3234C69.3045 48.2748 69.6877 48.1684 70.075 48.0111ZM70.1418 46.237C69.5786 46.4658 69.1318 46.557 68.8042 46.5178C68.4696 46.4815 68.2472 46.3176 68.1328 46.0359C68.0327 45.7895 68.0695 45.5368 68.2502 45.2748C68.4308 45.0128 68.7116 44.7347 69.1023 44.4448C69.4959 44.1619 69.9797 43.8588 70.5595 43.5495C71.1322 43.2431 71.7711 42.9181 72.4692 42.5771L73.0896 44.1049C73.0113 44.2351 72.8725 44.3981 72.6773 44.584C72.478 44.7798 72.2377 44.9758 71.9664 45.1762C71.6951 45.3766 71.3999 45.5785 71.0819 45.765C70.764 45.9515 70.4516 46.1112 70.1418 46.237Z" fill="black"/>
<path d="M74.0528 33.9327L77.9188 44.7844L79.8371 44.101L75.9712 33.2493L74.0528 33.9327Z" fill="black"/>
<path d="M82.756 39.478L90.3854 37.1431L90.2453 36.6853C90.0652 36.0968 89.8397 35.5936 89.5805 35.1882C89.3213 34.7828 89.0291 34.451 88.7038 34.193C88.3785 33.935 88.0346 33.7462 87.6722 33.6266C87.3098 33.5071 86.9317 33.44 86.5451 33.4232C86.1585 33.4065 85.7663 33.4232 85.3729 33.488C84.9722 33.555 84.5877 33.6488 84.2099 33.7644C83.8321 33.8801 83.4558 34.027 83.0885 34.203C82.7162 34.3885 82.3672 34.5985 82.0535 34.8456C81.7324 35.0948 81.4443 35.3737 81.1963 35.6801C80.9433 35.9959 80.7473 36.342 80.6081 36.7183C80.4618 37.0969 80.3891 37.5085 80.3733 37.9504C80.3598 38.3995 80.4345 38.8773 80.5924 39.3932C80.817 40.1271 81.139 40.7119 81.5657 41.1456C81.9925 41.5792 82.4797 41.8989 83.0303 42.088C83.5831 42.2844 84.1746 42.3735 84.8098 42.346C85.4451 42.3185 86.0799 42.2116 86.7193 42.0159C87.3224 41.8313 87.8468 41.6232 88.2996 41.3892C88.7453 41.1575 89.1267 40.8977 89.4461 40.6172C89.7655 40.3367 90.0157 40.0376 90.2089 39.7083C90.4044 39.3862 90.5429 39.0339 90.6289 38.6658L88.6627 38.4729C88.5396 38.9795 88.282 39.3841 87.8943 39.7014C87.5067 40.0187 86.9812 40.2749 86.3272 40.4751C85.9712 40.584 85.6258 40.65 85.2766 40.6774C84.9274 40.7048 84.5939 40.6797 84.2856 40.6072C83.9701 40.5369 83.6826 40.4024 83.4203 40.2204C83.158 40.0384 82.9404 39.7951 82.756 39.478ZM84.688 35.3266C85.0804 35.2066 85.4475 35.1339 85.7945 35.0993C86.1342 35.0668 86.451 35.0891 86.7352 35.161C87.0195 35.2329 87.2662 35.364 87.49 35.5499C87.7137 35.7357 87.8949 35.9901 88.0313 36.306L82.3347 38.0494C82.3224 37.6717 82.386 37.3344 82.5234 37.0301C82.6629 36.7331 82.8522 36.4686 83.086 36.246C83.3126 36.0257 83.5721 35.835 83.8573 35.6762C84.1374 35.5269 84.4192 35.4089 84.688 35.3266Z" fill="black"/>
<path d="M97.3609 39.094C97.8125 38.9896 98.2316 38.8459 98.6348 38.6669C99.0305 38.4896 99.3859 38.306 99.7064 38.1071C100.021 37.9173 100.288 37.723 100.517 37.5298C100.739 37.3458 100.897 37.1845 100.991 37.0535L101.216 38.0234L103.215 37.5612L101.349 29.4914L99.3499 29.9536L100.644 35.5506C100.523 35.7033 100.364 35.8571 100.167 36.0195C99.9636 36.1837 99.7399 36.329 99.4922 36.472C99.2371 36.6168 98.9712 36.7485 98.6796 36.8705C98.388 36.9925 98.0896 37.0849 97.7861 37.1551C97.0827 37.3177 96.5388 37.3265 96.156 37.1888C95.7732 37.0511 95.5311 36.7795 95.4335 36.3575L94.2267 31.1381L92.2278 31.6002L93.5116 37.1529C93.6331 37.6785 93.8155 38.0965 94.0589 38.4068C94.2948 38.7188 94.5876 38.9397 94.9226 39.0728C95.2593 39.2133 95.6323 39.2753 96.0436 39.266C96.4548 39.2567 96.8944 39.2018 97.3609 39.094Z" fill="black"/>
<path d="M104.166 28.9615L105.542 37.1291L107.55 36.7908L106.672 31.5755C106.788 31.3942 106.948 31.2053 107.154 31.0088C107.361 30.8198 107.608 30.6395 107.904 30.4741C108.2 30.3087 108.546 30.1656 108.931 30.0313C109.318 29.9045 109.757 29.8075 110.246 29.7404C110.284 29.7341 110.329 29.7266 110.397 29.7227L110.587 29.7061C110.649 29.7035 110.701 29.6947 110.755 29.6933C110.808 29.692 110.838 29.6869 110.853 29.6844L110.558 27.7461L110.42 27.7539C109.847 27.8273 109.343 27.9431 108.899 28.1025C108.456 28.262 108.072 28.45 107.743 28.6517C107.417 28.8609 107.138 29.085 106.924 29.3215C106.702 29.5592 106.534 29.7956 106.41 30.0245L106.174 28.6232L104.166 28.9615Z" fill="black"/>
<path d="M123.119 34.914C123.376 34.8919 123.64 34.8617 123.904 34.8238C124.168 34.786 124.416 34.7419 124.648 34.699C124.873 34.6569 125.068 34.6173 125.233 34.5803C125.398 34.5433 125.502 34.5191 125.555 34.507L125.414 32.8641C125.347 32.8851 125.235 32.9099 125.085 32.938C124.935 32.9737 124.778 33.0025 124.605 33.0326C124.432 33.0626 124.259 33.0927 124.086 33.1152C123.912 33.1376 123.776 33.1569 123.67 33.166C123.428 33.1867 123.214 33.1822 123.037 33.1592C122.852 33.1369 122.702 33.0736 122.578 32.9697C122.456 32.8735 122.352 32.7374 122.283 32.5526C122.214 32.3679 122.164 32.1358 122.139 31.8481L121.83 28.2367L125.131 27.9539L124.99 26.3186L121.69 26.6014L121.446 23.7547L119.394 23.9304L119.638 26.7771L117.162 26.9892L117.302 28.6246L119.778 28.4125L120.129 32.516C120.166 32.9475 120.252 33.3291 120.379 33.6462C120.505 33.9634 120.68 34.223 120.918 34.4237C121.157 34.6245 121.451 34.767 121.817 34.8501C122.175 34.9338 122.611 34.9574 123.119 34.914Z" fill="black"/>
<path d="M129.953 30.9465L137.931 30.7998L137.922 30.3212C137.911 29.7058 137.832 29.16 137.695 28.6989C137.557 28.2379 137.367 27.8385 137.125 27.501C136.884 27.1634 136.605 26.8873 136.289 26.6727C135.974 26.4581 135.629 26.2897 135.262 26.1672C134.895 26.0448 134.513 25.953 134.117 25.9071C133.713 25.8613 133.318 25.8458 132.923 25.853C132.528 25.8603 132.125 25.8981 131.724 25.9663C131.315 26.0422 130.922 26.1482 130.552 26.2994C130.175 26.4507 129.821 26.6396 129.498 26.866C129.168 27.1001 128.885 27.3789 128.647 27.7024C128.402 28.0261 128.219 28.4019 128.083 28.8224C127.946 29.2505 127.887 29.7304 127.897 30.2699C127.911 31.0372 128.059 31.6881 128.35 32.2223C128.641 32.7566 129.022 33.198 129.499 33.5312C129.977 33.872 130.521 34.1204 131.139 34.2687C131.758 34.4169 132.397 34.4888 133.066 34.4765C133.697 34.4649 134.258 34.4089 134.758 34.3086C135.25 34.2083 135.688 34.0635 136.072 33.8816C136.456 33.6997 136.779 33.481 137.056 33.2175C137.332 32.9616 137.562 32.661 137.746 32.3308L135.909 31.6046C135.651 32.0577 135.292 32.3759 134.832 32.5744C134.372 32.7728 133.796 32.8746 133.113 32.8872C132.74 32.894 132.39 32.8625 132.047 32.7928C131.704 32.7231 131.39 32.6073 131.113 32.4527C130.829 32.2984 130.59 32.09 130.388 31.8429C130.186 31.5958 130.044 31.302 129.953 30.9465ZM132.953 27.4865C133.363 27.4789 133.736 27.5101 134.079 27.5722C134.415 27.6344 134.713 27.7429 134.966 27.8903C135.22 28.0376 135.421 28.2315 135.585 28.4717C135.749 28.7119 135.853 29.0064 135.898 29.3476L129.941 29.4571C130.033 29.0906 130.187 28.7837 130.403 28.529C130.619 28.2818 130.874 28.0795 131.16 27.9299C131.438 27.7803 131.74 27.6684 132.058 27.5941C132.368 27.5276 132.672 27.4917 132.953 27.4865Z" fill="black"/>
<path d="M140.099 25.8257L139.477 34.0849L141.507 34.238L141.934 28.5701C142.095 28.4603 142.286 28.3604 142.514 28.2633C142.742 28.1662 142.992 28.086 143.264 28.0226C143.535 27.9592 143.82 27.9197 144.119 27.889C144.418 27.8658 144.723 27.8659 145.034 27.8893C145.746 27.943 146.253 28.0879 146.548 28.3311C146.842 28.5742 146.969 28.9115 146.936 29.3434L146.539 34.6172L148.6 34.7725L149.028 29.0895L149.029 29.082C149.497 28.8277 149.991 28.6439 150.518 28.5312C151.037 28.418 151.566 28.3816 152.104 28.4221C152.823 28.4764 153.338 28.6219 153.632 28.865C153.926 29.1082 154.061 29.446 154.028 29.8779L153.631 35.1517L155.677 35.3059L156.105 29.6229C156.146 29.0849 156.103 28.6398 155.971 28.2716C155.838 27.9035 155.647 27.6071 155.383 27.3739C155.118 27.1481 154.789 26.9709 154.408 26.8584C154.021 26.7454 153.592 26.6749 153.114 26.639C152.296 26.5773 151.522 26.6333 150.793 26.8069C150.063 26.9881 149.417 27.2595 148.856 27.6287C148.754 27.3695 148.61 27.1529 148.433 26.972C148.256 26.791 148.047 26.638 147.804 26.5207C147.562 26.4033 147.287 26.3064 146.987 26.2381C146.687 26.1774 146.363 26.1301 146.022 26.1044C145.56 26.0696 145.117 26.0743 144.702 26.1268C144.279 26.1788 143.9 26.2493 143.55 26.3448C143.2 26.4404 142.902 26.5475 142.643 26.6575C142.382 26.775 142.191 26.8825 142.054 26.9789L142.13 25.9787L140.099 25.8257Z" fill="black"/>
<path d="M160.486 27.7301L158.48 38.9503L160.485 39.3087L161.169 35.4789C161.471 35.8185 161.904 36.1197 162.45 36.3872C162.996 36.6622 163.662 36.8662 164.455 37.008C164.806 37.0708 165.164 37.0963 165.531 37.0768C165.896 37.0649 166.246 37.004 166.596 36.9045C166.946 36.8049 167.28 36.6639 167.598 36.4815C167.916 36.2991 168.205 36.0651 168.463 35.787C168.721 35.509 168.941 35.1855 169.132 34.8104C169.313 34.4415 169.449 34.0259 169.534 33.5546C169.665 32.8215 169.659 32.1643 169.514 31.5904C169.362 31.0152 169.127 30.5177 168.792 30.1028C168.457 29.6878 168.046 29.3519 167.575 29.0977C167.095 28.8422 166.594 28.6677 166.07 28.5741C165.637 28.4965 165.227 28.4542 164.85 28.4485C164.471 28.4503 164.12 28.4724 163.802 28.5237C163.484 28.5749 163.201 28.6478 162.954 28.7348C162.705 28.8293 162.494 28.9305 162.321 29.0384L162.491 28.0885L160.486 27.7301ZM164.119 35.2575C163.865 35.212 163.614 35.1441 163.359 35.0599C163.104 34.9757 162.852 34.8765 162.618 34.7576C162.383 34.6461 162.16 34.5136 161.963 34.3626C161.765 34.2191 161.593 34.0571 161.454 33.8856L162.039 30.6168C162.144 30.543 162.296 30.4699 162.487 30.3959C162.677 30.3294 162.903 30.2696 163.166 30.224C163.42 30.1845 163.703 30.1578 164.013 30.1515C164.323 30.1451 164.65 30.1727 164.986 30.2329C165.375 30.3024 165.741 30.4142 166.076 30.5743C166.41 30.7344 166.699 30.9327 166.932 31.1828C167.165 31.4329 167.335 31.7335 167.445 32.0696C167.547 32.4044 167.562 32.7931 167.486 33.2194C167.41 33.6458 167.261 34.0051 167.046 34.2987C166.832 34.5922 166.568 34.8153 166.261 34.9766C165.953 35.1454 165.618 35.2476 165.248 35.2895C164.876 35.3388 164.501 35.3257 164.119 35.2575Z" fill="black"/>
<path d="M176.008 39.6011C176.412 39.707 176.824 39.7835 177.246 39.8232C177.668 39.863 178.077 39.8601 178.488 39.8187C178.9 39.7772 179.291 39.6912 179.68 39.5574C180.059 39.4289 180.408 39.2374 180.731 38.9922C181.055 38.747 181.333 38.4349 181.578 38.0672C181.824 37.6995 182.007 37.2684 182.14 36.7612C182.275 36.2467 182.33 35.7662 182.296 35.3254C182.263 34.8845 182.173 34.4762 182.012 34.1039C181.85 33.7316 181.64 33.3938 181.374 33.0886C181.108 32.7834 180.809 32.5165 180.471 32.2786C180.132 32.0408 179.768 31.8432 179.381 31.6711C178.994 31.4991 178.597 31.3638 178.193 31.2579C177.789 31.152 177.377 31.0755 176.955 31.0358C176.534 30.9961 176.119 30.9896 175.707 31.0311C175.296 31.0726 174.904 31.1585 174.523 31.2943C174.142 31.4301 173.793 31.6216 173.477 31.8687C173.154 32.1139 172.876 32.426 172.63 32.7937C172.385 33.1614 172.197 33.6072 172.062 34.1218C171.929 34.629 171.876 35.1021 171.91 35.5429C171.944 35.9838 172.035 36.3848 172.197 36.7571C172.351 37.1274 172.561 37.4652 172.836 37.765C173.102 38.0702 173.401 38.3371 173.74 38.575C174.078 38.8128 174.44 39.0178 174.827 39.1898C175.214 39.3619 175.604 39.4952 176.008 39.6011ZM176.435 37.9692C175.987 37.8518 175.591 37.6852 175.249 37.462C174.906 37.2389 174.627 36.9851 174.422 36.6879C174.208 36.3962 174.072 36.0776 174.005 35.7304C173.939 35.3831 173.954 35.0258 174.051 34.6582C174.154 34.2613 174.32 33.9277 174.558 33.652C174.785 33.3818 175.061 33.1711 175.39 33.0218C175.711 32.8779 176.071 32.7916 176.477 32.7722C176.881 32.7601 177.308 32.8091 177.756 32.9265C178.204 33.044 178.601 33.2106 178.945 33.4264C179.287 33.6496 179.559 33.9014 179.773 34.1932C179.98 34.483 180.116 34.8015 180.183 35.1488C180.247 35.5034 180.23 35.8681 180.13 36.2503C180.028 36.6399 179.864 36.9662 179.636 37.2364C179.406 37.514 179.131 37.7247 178.81 37.8686C178.49 38.0125 178.13 38.0987 177.724 38.1182C177.318 38.1376 176.891 38.0886 176.435 37.9692Z" fill="black"/>
<path d="M185.403 33.455L182.803 41.319L184.737 41.9583L186.397 36.9369C186.584 36.8307 186.814 36.7389 187.088 36.6613C187.36 36.591 187.662 36.547 188.001 36.5389C188.34 36.5309 188.712 36.566 189.116 36.6275C189.518 36.6962 189.951 36.8153 190.415 36.9848C190.451 36.9968 190.494 37.0111 190.557 37.0398L190.732 37.1138C190.788 37.1401 190.838 37.1568 190.886 37.1807C190.934 37.2046 190.963 37.2142 190.978 37.219L191.622 35.3671L191.497 35.3097C190.956 35.1068 190.455 34.9735 189.989 34.9073C189.523 34.8412 189.095 34.8278 188.711 34.8527C188.324 34.8849 187.973 34.9531 187.673 35.0619C187.366 35.1684 187.107 35.2988 186.891 35.4435L187.337 34.0943L185.403 33.455Z" fill="black"/>
<path d="M193.219 41.2635L200.634 44.2108L200.811 43.7659C201.038 43.194 201.177 42.6603 201.228 42.1818C201.279 41.7034 201.258 41.2617 201.166 40.857C201.073 40.4522 200.923 40.0899 200.715 39.77C200.507 39.4501 200.253 39.1614 199.962 38.9066C199.671 38.6519 199.354 38.4197 199.007 38.2243C198.652 38.0261 198.293 37.859 197.926 37.713C197.559 37.567 197.174 37.4465 196.777 37.3542C196.37 37.2662 195.967 37.2121 195.567 37.2087C195.161 37.2025 194.762 37.24 194.377 37.3241C193.982 37.4124 193.612 37.56 193.268 37.7667C192.917 37.9707 192.603 38.2465 192.315 38.5816C192.024 38.9237 191.783 39.3433 191.584 39.8446C191.3 40.5578 191.186 41.2156 191.248 41.8208C191.31 42.426 191.49 42.9802 191.802 43.472C192.111 43.9708 192.516 44.4102 193.029 44.7859C193.542 45.1615 194.105 45.475 194.726 45.722C195.312 45.955 195.852 46.1203 196.351 46.2209C196.844 46.3186 197.304 46.3543 197.729 46.335C198.153 46.3158 198.536 46.2387 198.892 46.1025C199.246 45.9734 199.575 45.785 199.872 45.5515L198.458 44.1717C198.045 44.4901 197.591 44.6449 197.09 44.6502C196.589 44.6555 196.019 44.5269 195.383 44.2743C195.037 44.1367 194.727 43.9723 194.437 43.7754C194.147 43.5784 193.903 43.3504 193.707 43.101C193.505 42.8489 193.365 42.5641 193.274 42.2581C193.183 41.9521 193.165 41.6262 193.219 41.2635ZM197.323 39.2312C197.704 39.3828 198.036 39.5556 198.328 39.7455C198.614 39.9325 198.847 40.1479 199.024 40.3818C199.201 40.6156 199.312 40.8722 199.37 41.1571C199.429 41.442 199.411 41.7539 199.32 42.0857L193.784 39.8851C194.01 39.5826 194.271 39.3591 194.568 39.2075C194.863 39.0629 195.176 38.9748 195.498 38.9473C195.812 38.9169 196.134 38.9304 196.456 38.9847C196.768 39.0433 197.061 39.1273 197.323 39.2312Z" fill="black"/>
<path d="M207.086 38.2457L202.297 48.7228L204.149 49.5694L208.938 39.0923L207.086 38.2457Z" fill="black"/>
<path d="M210.917 40.0158L205.867 50.3697L207.697 51.2624L212.747 40.9085L210.917 40.0158Z" fill="black"/>
<path d="M213.414 50.2992L220.419 54.1195L220.648 53.6992C220.943 53.1589 221.145 52.6458 221.253 52.177C221.362 51.7082 221.395 51.2673 221.351 50.8543C221.308 50.4413 221.203 50.0635 221.035 49.7209C220.867 49.3783 220.65 49.0611 220.392 48.773C220.134 48.485 219.847 48.2163 219.526 47.9804C219.198 47.7409 218.862 47.5317 218.515 47.3425C218.168 47.1533 217.8 46.9872 217.417 46.8477C217.024 46.7113 216.63 46.6088 216.234 46.5572C215.831 46.5021 215.431 46.4912 215.038 46.5282C214.635 46.5682 214.251 46.6701 213.885 46.8339C213.512 46.994 213.167 47.2299 212.84 47.5277C212.509 47.8322 212.22 48.2197 211.962 48.6933C211.594 49.3671 211.401 50.0063 211.39 50.6146C211.378 51.2229 211.491 51.7947 211.741 52.3205C211.987 52.853 212.337 53.3381 212.801 53.7729C213.265 54.2077 213.785 54.5867 214.372 54.9069C214.926 55.2089 215.441 55.4381 215.925 55.5982C216.402 55.7546 216.855 55.8456 217.279 55.8777C217.703 55.9098 218.091 55.8795 218.462 55.7873C218.829 55.7018 219.178 55.5544 219.501 55.3585L218.264 53.8182C217.815 54.0844 217.346 54.1833 216.848 54.1281C216.35 54.073 215.8 53.8765 215.199 53.549C214.872 53.3708 214.584 53.17 214.32 52.9396C214.056 52.7092 213.841 52.4532 213.677 52.1822C213.506 51.9074 213.402 51.6079 213.348 51.2931C213.295 50.9784 213.317 50.6527 213.414 50.2992ZM217.733 48.7768C218.093 48.9733 218.402 49.1849 218.669 49.4087C218.93 49.6288 219.135 49.8708 219.283 50.1243C219.43 50.3777 219.509 50.6458 219.533 50.9357C219.556 51.2256 219.501 51.533 219.371 51.8514L214.141 48.9989C214.402 48.726 214.688 48.5355 215.001 48.4209C215.311 48.313 215.633 48.2632 215.955 48.2747C216.271 48.2826 216.589 48.3347 216.902 48.4275C217.204 48.5233 217.486 48.6422 217.733 48.7768Z" fill="black"/>
<path d="M66.8622 157.148L67.8555 166.617L70.2768 167.52L77.2276 161.013L75.3038 160.296L69.723 165.497L68.925 157.917L66.8622 157.148Z" fill="black"/>
<path d="M79.0436 170.669C79.4471 170.791 79.8671 170.885 80.3036 170.952C80.7305 171.024 81.1514 171.062 81.5567 171.07C81.9619 171.079 82.3441 171.056 82.6934 171.007C83.0428 170.957 83.3443 170.877 83.5906 170.764C83.5325 170.983 83.4961 171.184 83.4815 171.368C83.4646 171.558 83.4567 171.719 83.4676 171.845L85.4702 172.451C85.4645 172.335 85.461 172.211 85.4748 172.085C85.4886 171.959 85.5069 171.817 85.532 171.654C85.5548 171.498 85.5993 171.323 85.6484 171.134C85.6975 170.945 85.7578 170.719 85.8325 170.472L86.8276 167.184C86.9837 166.669 87.0447 166.198 87.0054 165.762C86.9661 165.326 86.8242 164.932 86.5746 164.571C86.3249 164.21 85.9653 163.889 85.4904 163.598C85.0133 163.315 84.4209 163.063 83.7036 162.846C83.0833 162.658 82.5041 162.523 81.9659 162.442C81.4255 162.368 80.9402 162.327 80.5006 162.325C80.0586 162.33 79.6742 162.36 79.3375 162.421C78.9986 162.49 78.7142 162.567 78.4845 162.653L79.0413 164.289C79.2471 164.229 79.5 164.175 79.7954 164.142C80.0909 164.109 80.4117 164.1 80.7601 164.108C81.1086 164.116 81.4675 164.143 81.8368 164.189C82.2038 164.243 82.5715 164.322 82.9227 164.428C83.3561 164.559 83.7155 164.693 83.9985 164.835C84.2816 164.978 84.5056 165.128 84.663 165.281C84.8204 165.435 84.9262 165.597 84.9676 165.757C85.0091 165.916 85.0087 166.079 84.9567 166.251L84.9024 166.43C84.241 166.271 83.6073 166.128 82.9862 165.997C82.3651 165.866 81.7671 165.767 81.2071 165.703C80.6472 165.64 80.1156 165.618 79.6317 165.626C79.1456 165.642 78.7103 165.706 78.3234 165.826C77.9365 165.945 77.6107 166.132 77.3507 166.371C77.0808 166.616 76.8871 166.933 76.7673 167.329C76.6361 167.762 76.6075 168.153 76.6717 168.507C76.7358 168.861 76.8756 169.181 77.0933 169.458C77.3035 169.734 77.5819 169.973 77.9209 170.174C78.2576 170.382 78.6326 170.544 79.0436 170.669ZM80.2427 169.294C79.6449 169.113 79.2289 168.898 78.9924 168.655C78.7485 168.41 78.6766 168.135 78.7671 167.836C78.8463 167.575 79.0389 167.396 79.3524 167.304C79.666 167.211 80.0699 167.17 80.5694 167.191C81.0666 167.219 81.6489 167.289 82.3119 167.416C82.9674 167.541 83.6879 167.694 84.4659 167.873L83.9751 169.494C83.8284 169.548 83.6122 169.588 83.3362 169.611C83.0505 169.638 82.7319 169.64 82.3858 169.625C82.0396 169.61 81.6732 169.58 81.2987 169.524C80.9242 169.468 80.5714 169.394 80.2427 169.294Z" fill="black"/>
<path d="M91.5604 161.787L88.6705 173.264L90.6995 173.775L93.5894 162.298L91.5604 161.787Z" fill="black"/>
<path d="M96.747 171.608L104.785 173.215L104.882 172.733C105.006 172.113 105.047 171.548 105.01 171.055C104.974 170.562 104.871 170.12 104.703 169.728C104.534 169.336 104.315 168.997 104.046 168.712C103.776 168.428 103.467 168.183 103.126 167.979C102.784 167.775 102.421 167.599 102.034 167.466C101.639 167.331 101.245 167.229 100.847 167.149C100.449 167.069 100.037 167.019 99.6195 166.999C99.1923 166.985 98.7743 167.005 98.3701 167.076C97.9582 167.144 97.5617 167.256 97.1881 167.412C96.8053 167.575 96.4592 167.792 96.15 168.065C95.833 168.336 95.5666 168.672 95.3369 169.064C95.1057 169.464 94.9403 169.933 94.8316 170.476C94.6769 171.249 94.683 171.935 94.8576 172.535C95.0321 173.136 95.3169 173.662 95.7226 174.102C96.1268 174.549 96.6183 174.918 97.2062 175.203C97.7941 175.487 98.4204 175.7 99.094 175.835C99.7294 175.962 100.305 176.03 100.829 176.039C101.345 176.046 101.816 175.997 102.242 175.899C102.668 175.801 103.04 175.653 103.375 175.449C103.709 175.253 104.006 175.002 104.263 174.711L102.579 173.578C102.221 173.976 101.79 174.217 101.285 174.315C100.78 174.413 100.18 174.388 99.4906 174.25C99.1155 174.175 98.771 174.067 98.4418 173.921C98.1127 173.776 97.8233 173.59 97.5799 173.374C97.3288 173.157 97.1343 172.895 96.9858 172.603C96.8373 172.31 96.7592 171.984 96.747 171.608ZM100.518 168.795C100.932 168.878 101.299 168.991 101.63 169.129C101.953 169.265 102.228 169.44 102.45 169.643C102.672 169.847 102.832 170.086 102.943 170.363C103.055 170.64 103.095 170.959 103.064 171.311L97.0624 170.11C97.2355 169.763 97.4575 169.489 97.73 169.28C98.001 169.08 98.3011 168.933 98.6211 168.846C98.9335 168.757 99.2611 168.711 99.5964 168.706C99.9226 168.708 100.235 168.738 100.518 168.795Z" fill="black"/>
<path d="M109.637 177.634C110.109 177.695 110.564 177.707 111.017 177.679C111.461 177.65 111.869 177.6 112.249 177.523C112.62 177.453 112.947 177.362 113.236 177.257C113.516 177.16 113.726 177.061 113.864 176.969L113.733 177.983L115.823 178.253L116.914 169.813L114.823 169.543L114.067 175.397C113.896 175.501 113.687 175.592 113.44 175.678C113.185 175.763 112.918 175.823 112.628 175.872C112.33 175.92 112.027 175.952 111.703 175.965C111.378 175.978 111.058 175.96 110.74 175.919C110.005 175.824 109.478 175.638 109.158 175.368C108.839 175.099 108.703 174.751 108.76 174.309L109.466 168.851L107.375 168.58L106.624 174.387C106.553 174.937 106.579 175.405 106.703 175.791C106.818 176.176 107.021 176.493 107.296 176.741C107.57 176.997 107.907 177.19 108.307 177.329C108.706 177.467 109.149 177.571 109.637 177.634Z" fill="black"/>
<path d="M120.247 170.106L119.708 178.599L121.796 178.731L122.141 173.309C122.299 173.154 122.504 173.003 122.756 172.855C123.008 172.714 123.297 172.592 123.632 172.496C123.966 172.4 124.346 172.338 124.763 172.294C125.18 172.258 125.641 172.264 126.147 172.311C126.186 172.314 126.232 172.317 126.302 172.329L126.496 172.357C126.558 172.369 126.612 172.372 126.666 172.383C126.72 172.395 126.751 172.397 126.767 172.398L126.926 170.389L126.787 170.365C126.196 170.304 125.664 170.302 125.183 170.357C124.703 170.413 124.274 170.511 123.898 170.635C123.522 170.768 123.192 170.927 122.922 171.113C122.644 171.299 122.42 171.496 122.243 171.696L122.336 170.239L120.247 170.106Z" fill="black"/>
<path d="M133.437 170.885L133.841 179.385L135.93 179.286L135.653 173.453C135.803 173.321 135.985 173.195 136.206 173.067C136.426 172.94 136.671 172.826 136.94 172.728C137.209 172.629 137.494 172.553 137.796 172.484C138.098 172.422 138.409 172.384 138.728 172.369C139.461 172.334 139.997 172.418 140.327 172.629C140.658 172.84 140.83 173.168 140.851 173.613L141.109 179.04L143.23 178.939L142.952 173.091L142.951 173.083C143.398 172.765 143.878 172.515 144.401 172.334C144.916 172.153 145.45 172.05 146.004 172.023C146.745 171.988 147.288 172.072 147.619 172.283C147.949 172.494 148.129 172.821 148.15 173.266L148.408 178.693L150.513 178.593L150.236 172.745C150.209 172.191 150.11 171.742 149.929 171.384C149.747 171.025 149.515 170.747 149.216 170.542C148.918 170.345 148.56 170.206 148.158 170.139C147.748 170.073 147.302 170.055 146.811 170.078C145.968 170.118 145.186 170.272 144.464 170.541C143.743 170.818 143.119 171.176 142.593 171.623C142.456 171.371 142.282 171.168 142.079 171.006C141.876 170.844 141.643 170.714 141.381 170.625C141.119 170.536 140.827 170.472 140.512 170.44C140.199 170.416 139.862 170.408 139.511 170.425C139.036 170.447 138.585 170.508 138.168 170.614C137.743 170.72 137.366 170.839 137.021 170.981C136.676 171.122 136.386 171.269 136.135 171.414C135.884 171.566 135.703 171.7 135.576 171.815L135.527 170.786L133.437 170.885Z" fill="black"/>
<path d="M159.533 177.496C159.958 177.432 160.378 177.338 160.793 177.205C161.207 177.072 161.592 176.904 161.964 176.699C162.336 176.493 162.671 176.254 162.984 175.971C163.291 175.696 163.543 175.374 163.749 175.012C163.956 174.649 164.092 174.242 164.175 173.796C164.259 173.349 164.258 172.868 164.179 172.335C164.098 171.794 163.956 171.318 163.746 170.916C163.536 170.513 163.286 170.163 162.983 169.877C162.68 169.591 162.345 169.356 161.971 169.175C161.596 168.994 161.206 168.863 160.79 168.775C160.374 168.687 159.95 168.648 159.515 168.642C159.08 168.636 158.651 168.668 158.226 168.732C157.801 168.795 157.381 168.889 156.967 169.022C156.553 169.155 156.158 169.316 155.786 169.522C155.415 169.727 155.079 169.967 154.774 170.249C154.469 170.531 154.217 170.853 154.018 171.214C153.812 171.577 153.675 171.984 153.592 172.43C153.508 172.877 153.512 173.374 153.592 173.914C153.672 174.447 153.813 174.915 154.023 175.318C154.233 175.721 154.481 176.063 154.784 176.349C155.08 176.637 155.415 176.871 155.795 177.043C156.17 177.224 156.56 177.355 156.976 177.443C157.392 177.531 157.817 177.578 158.252 177.584C158.687 177.59 159.109 177.559 159.533 177.496ZM159.278 175.781C158.807 175.852 158.365 175.854 157.952 175.782C157.538 175.709 157.172 175.582 156.858 175.385C156.538 175.196 156.28 174.95 156.078 174.649C155.875 174.347 155.745 174.004 155.687 173.618C155.625 173.201 155.647 172.818 155.759 172.462C155.865 172.115 156.04 171.805 156.291 171.53C156.536 171.265 156.841 171.038 157.217 170.855C157.593 170.681 158.017 170.555 158.488 170.484C158.959 170.414 159.4 170.411 159.812 170.476C160.226 170.549 160.584 170.677 160.905 170.866C161.217 171.056 161.475 171.302 161.678 171.603C161.882 171.912 162.013 172.263 162.073 172.665C162.134 173.074 162.111 173.449 162.005 173.796C161.9 174.151 161.725 174.461 161.481 174.727C161.236 174.992 160.93 175.219 160.555 175.401C160.18 175.584 159.757 175.71 159.278 175.781Z" fill="black"/>
<path d="M171.927 175.183C172.375 175.079 172.779 174.954 173.144 174.797C173.501 174.643 173.824 174.48 174.103 174.304C174.375 174.129 174.614 173.945 174.81 173.756C175.009 173.574 175.167 173.393 175.278 173.215C175.387 173.615 175.523 173.928 175.687 174.154L177.795 173.668C177.636 173.432 177.499 173.151 177.401 172.829C177.295 172.509 177.199 172.163 177.116 171.805L174.897 162.19L172.843 162.664L173.765 166.658C173.352 166.465 172.845 166.349 172.234 166.306C171.624 166.27 170.966 166.334 170.266 166.496C169.681 166.631 169.133 166.861 168.623 167.187C168.113 167.513 167.692 167.907 167.35 168.371C167.002 168.843 166.764 169.371 166.626 169.956C166.49 170.548 166.5 171.179 166.652 171.841C166.817 172.556 167.085 173.159 167.461 173.641C167.829 174.125 168.261 174.506 168.747 174.771C169.232 175.035 169.752 175.204 170.304 175.269C170.856 175.334 171.394 175.305 171.927 175.183ZM172.314 173.322C171.919 173.414 171.536 173.454 171.155 173.438C170.775 173.421 170.42 173.343 170.099 173.201C169.778 173.058 169.497 172.851 169.266 172.576C169.034 172.301 168.863 171.94 168.762 171.506C168.662 171.072 168.658 170.673 168.743 170.309C168.827 169.945 168.986 169.628 169.209 169.344C169.434 169.068 169.709 168.836 170.04 168.639C170.373 168.45 170.726 168.313 171.106 168.225C171.365 168.165 171.634 168.119 171.909 168.096C172.185 168.072 172.455 168.066 172.722 168.076C172.991 168.094 173.255 168.129 173.501 168.185C173.747 168.248 173.973 168.324 174.174 168.43L174.945 171.77C174.882 171.88 174.776 172.009 174.624 172.148C174.473 172.295 174.283 172.443 174.051 172.585C173.821 172.734 173.565 172.873 173.275 173.005C172.977 173.137 172.657 173.243 172.314 173.322Z" fill="black"/>
<path d="M184.301 171.951C184.703 171.826 185.104 171.668 185.503 171.478C185.896 171.298 186.266 171.093 186.606 170.872C186.946 170.652 187.249 170.418 187.51 170.181C187.772 169.944 187.976 169.709 188.117 169.477C188.192 169.691 188.274 169.877 188.365 170.037C188.458 170.204 188.542 170.342 188.622 170.44L190.619 169.817C190.549 169.724 190.477 169.624 190.417 169.511C190.358 169.399 190.294 169.272 190.222 169.122C190.154 168.98 190.093 168.811 190.027 168.627C189.961 168.443 189.884 168.222 189.807 167.976L188.784 164.697C188.624 164.183 188.41 163.759 188.132 163.42C187.855 163.081 187.516 162.835 187.107 162.677C186.698 162.518 186.22 162.455 185.664 162.481C185.11 162.515 184.478 162.638 183.763 162.862C183.144 163.055 182.589 163.269 182.098 163.504C181.61 163.746 181.185 163.985 180.82 164.23C180.457 164.482 180.156 164.723 179.912 164.963C179.67 165.21 179.478 165.433 179.336 165.633L180.716 166.675C180.853 166.509 181.031 166.323 181.257 166.129C181.483 165.936 181.744 165.749 182.036 165.559C182.329 165.37 182.641 165.191 182.973 165.022C183.307 164.86 183.655 164.719 184.005 164.61C184.438 164.475 184.81 164.383 185.124 164.342C185.439 164.301 185.708 164.299 185.924 164.338C186.141 164.377 186.32 164.452 186.444 164.56C186.567 164.669 186.659 164.804 186.712 164.975L186.768 165.154C186.131 165.394 185.527 165.632 184.939 165.872C184.352 166.113 183.801 166.366 183.302 166.628C182.803 166.89 182.351 167.17 181.955 167.449C181.562 167.735 181.238 168.033 180.985 168.349C180.732 168.665 180.567 169.003 180.487 169.347C180.401 169.701 180.418 170.072 180.542 170.467C180.676 170.899 180.872 171.238 181.124 171.495C181.376 171.752 181.671 171.938 182.007 172.046C182.336 172.156 182.701 172.197 183.094 172.173C183.489 172.156 183.891 172.079 184.301 171.951ZM184.521 170.141C183.925 170.327 183.459 170.382 183.127 170.314C182.788 170.248 182.574 170.061 182.481 169.763C182.4 169.502 182.459 169.247 182.666 168.994C182.874 168.741 183.185 168.48 183.61 168.217C184.037 167.961 184.558 167.692 185.178 167.425C185.791 167.16 186.473 166.882 187.217 166.593L187.721 168.21C187.63 168.337 187.474 168.492 187.258 168.665C187.037 168.849 186.775 169.029 186.48 169.211C186.185 169.393 185.865 169.574 185.524 169.738C185.182 169.902 184.849 170.038 184.521 170.141Z" fill="black"/>
<path d="M188.429 157.991L192.474 169.113L194.441 168.398L190.395 157.275L188.429 157.991Z" fill="black"/>
<path d="M198.419 163.144L205.971 159.956L205.78 159.503C205.534 158.92 205.251 158.43 204.943 158.043C204.636 157.656 204.302 157.347 203.943 157.118C203.583 156.888 203.212 156.731 202.829 156.647C202.446 156.563 202.052 156.534 201.656 156.558C201.259 156.581 200.86 156.639 200.464 156.747C200.062 156.858 199.679 156.994 199.305 157.152C198.931 157.31 198.562 157.499 198.205 157.718C197.844 157.946 197.509 158.198 197.214 158.483C196.912 158.772 196.647 159.087 196.426 159.426C196.2 159.775 196.036 160.15 195.934 160.549C195.824 160.951 195.793 161.38 195.823 161.833C195.857 162.293 195.983 162.774 196.199 163.284C196.505 164.011 196.896 164.575 197.377 164.973C197.859 165.372 198.391 165.647 198.973 165.783C199.559 165.925 200.173 165.954 200.819 165.859C201.465 165.764 202.103 165.589 202.736 165.321C203.333 165.069 203.847 164.802 204.285 164.515C204.716 164.231 205.079 163.926 205.376 163.606C205.673 163.285 205.897 162.953 206.06 162.596C206.226 162.247 206.331 161.872 206.38 161.487L204.35 161.496C204.278 162.027 204.057 162.468 203.694 162.833C203.331 163.198 202.821 163.515 202.173 163.788C201.821 163.937 201.475 164.04 201.121 164.105C200.767 164.17 200.423 164.179 200.101 164.137C199.771 164.099 199.463 163.991 199.176 163.833C198.889 163.674 198.641 163.449 198.419 163.144ZM199.957 158.698C200.346 158.534 200.713 158.421 201.064 158.349C201.408 158.281 201.734 158.27 202.032 158.314C202.33 158.357 202.596 158.466 202.845 158.632C203.093 158.798 203.305 159.039 203.477 159.348L197.838 161.728C197.786 161.343 197.816 160.992 197.924 160.666C198.035 160.348 198.201 160.058 198.417 159.806C198.625 159.557 198.87 159.335 199.145 159.143C199.416 158.961 199.691 158.81 199.957 158.698Z" fill="black"/>
<path d="M123.436 79.8571C120.435 79.8571 118.007 82.2847 118.007 85.2857C118.007 88.2867 120.435 90.7143 123.436 90.7143C126.437 90.7143 128.864 88.2867 128.864 85.2857C128.864 82.2847 126.437 79.8571 123.436 79.8571ZM135.436 79.8571C132.435 79.8571 130.007 82.2847 130.007 85.2857C130.007 88.2867 132.435 90.7143 135.436 90.7143C138.437 90.7143 140.864 88.2867 140.864 85.2857C140.864 82.2847 138.437 79.8571 135.436 79.8571ZM147.436 79.8571C144.435 79.8571 142.007 82.2847 142.007 85.2857C142.007 88.2867 144.435 90.7143 147.436 90.7143C150.437 90.7143 152.864 88.2867 152.864 85.2857C152.864 82.2847 150.437 79.8571 147.436 79.8571Z" fill="#EFC65F" stroke="black" stroke-width="4"/>
<mask id="path-32-outside-1" maskUnits="userSpaceOnUse" x="103" y="59" width="64" height="56" fill="black">
<rect fill="white" x="103" y="59" width="64" height="56"/>
<path fill-rule="evenodd" clip-rule="evenodd" d="M108.007 85.2857C108.007 72.975 120.286 63 135.436 63C150.586 63 162.864 72.975 162.864 85.2857C162.864 97.5964 150.586 107.571 135.436 107.571C131.921 107.571 128.579 107.014 125.482 106.039C122.364 108.246 117.168 111 110.579 111C109.55 111 108.618 110.389 108.211 109.446C107.804 108.504 107.996 107.411 108.704 106.661C108.757 106.618 112.079 103.039 113.675 98.8179C110.139 95.0571 108.007 90.3857 108.007 85.2857ZM127.036 101.132C129.746 101.989 132.575 102.429 135.436 102.429C147.725 102.429 157.721 94.7357 157.721 85.2857C157.721 75.8357 147.725 68.1429 135.436 68.1429C123.146 68.1429 113.15 75.8357 113.15 85.2857C113.15 89.8071 115.475 93.225 117.414 95.2929L119.621 97.6286L118.486 100.639C117.896 102.193 117.136 103.65 116.354 104.946C118.882 104.132 120.982 102.921 122.514 101.839L124.604 100.361L127.036 101.132Z"/>
</mask>
<path fill-rule="evenodd" clip-rule="evenodd" d="M108.007 85.2857C108.007 72.975 120.286 63 135.436 63C150.586 63 162.864 72.975 162.864 85.2857C162.864 97.5964 150.586 107.571 135.436 107.571C131.921 107.571 128.579 107.014 125.482 106.039C122.364 108.246 117.168 111 110.579 111C109.55 111 108.618 110.389 108.211 109.446C107.804 108.504 107.996 107.411 108.704 106.661C108.757 106.618 112.079 103.039 113.675 98.8179C110.139 95.0571 108.007 90.3857 108.007 85.2857ZM127.036 101.132C129.746 101.989 132.575 102.429 135.436 102.429C147.725 102.429 157.721 94.7357 157.721 85.2857C157.721 75.8357 147.725 68.1429 135.436 68.1429C123.146 68.1429 113.15 75.8357 113.15 85.2857C113.15 89.8071 115.475 93.225 117.414 95.2929L119.621 97.6286L118.486 100.639C117.896 102.193 117.136 103.65 116.354 104.946C118.882 104.132 120.982 102.921 122.514 101.839L124.604 100.361L127.036 101.132Z" fill="#E17774"/>
<path d="M125.482 106.039L126.683 102.224L124.791 101.628L123.171 102.775L125.482 106.039ZM108.211 109.446L104.538 111.032L104.538 111.032L108.211 109.446ZM108.704 106.661L106.205 103.537L105.986 103.712L105.793 103.917L108.704 106.661ZM113.675 98.8179L117.416 100.233L118.3 97.8972L116.589 96.078L113.675 98.8179ZM127.036 101.132L125.826 104.945L125.83 104.946L127.036 101.132ZM117.414 95.2929L114.497 98.0291L114.502 98.0346L114.507 98.0401L117.414 95.2929ZM119.621 97.6286L123.364 99.0404L124.247 96.6996L122.529 94.8813L119.621 97.6286ZM118.486 100.639L122.226 102.058L122.228 102.051L118.486 100.639ZM116.354 104.946L112.929 102.88L107.409 112.029L117.58 108.754L116.354 104.946ZM122.514 101.839L124.822 105.107L124.825 105.104L122.514 101.839ZM124.604 100.361L125.813 96.5479L123.917 95.9465L122.293 97.0956L124.604 100.361ZM135.436 59C118.893 59 104.007 70.0296 104.007 85.2857H112.007C112.007 75.9204 121.679 67 135.436 67V59ZM166.864 85.2857C166.864 70.0296 151.979 59 135.436 59V67C149.193 67 158.864 75.9204 158.864 85.2857H166.864ZM135.436 111.571C151.979 111.571 166.864 100.542 166.864 85.2857H158.864C158.864 94.6511 149.193 103.571 135.436 103.571V111.571ZM124.281 109.855C127.749 110.947 131.496 111.571 135.436 111.571V103.571C132.347 103.571 129.409 103.082 126.683 102.224L124.281 109.855ZM110.579 115C118.293 115 124.291 111.783 127.793 109.304L123.171 102.775C120.437 104.71 116.043 107 110.579 107V115ZM104.538 111.032C105.581 113.447 107.961 115 110.579 115V107C111.139 107 111.655 107.332 111.883 107.861L104.538 111.032ZM105.793 103.917C103.994 105.825 103.496 108.619 104.538 111.032L111.883 107.861C112.111 108.389 111.999 108.997 111.614 109.405L105.793 103.917ZM109.934 97.403C109.31 99.0518 108.302 100.678 107.374 101.956C106.921 102.58 106.513 103.086 106.221 103.431C106.076 103.603 105.963 103.732 105.892 103.81C105.856 103.85 105.835 103.874 105.828 103.881C105.824 103.885 105.831 103.878 105.845 103.863C105.852 103.856 105.871 103.837 105.897 103.811C105.91 103.798 105.935 103.774 105.968 103.743C105.981 103.73 106.076 103.641 106.205 103.537L111.202 109.784C111.332 109.68 111.428 109.59 111.443 109.576C111.478 109.543 111.505 109.516 111.52 109.501C111.551 109.471 111.576 109.445 111.59 109.43C111.621 109.399 111.65 109.368 111.673 109.343C111.722 109.291 111.779 109.229 111.842 109.159C111.969 109.017 112.137 108.826 112.335 108.591C112.732 108.121 113.264 107.46 113.847 106.656C114.993 105.079 116.443 102.805 117.416 100.233L109.934 97.403ZM104.007 85.2857C104.007 91.5564 106.639 97.1743 110.761 101.558L116.589 96.078C113.639 92.94 112.007 89.2151 112.007 85.2857H104.007ZM135.436 98.4286C132.985 98.4286 130.563 98.0524 128.242 97.3183L125.83 104.946C128.929 105.926 132.165 106.429 135.436 106.429V98.4286ZM153.721 85.2857C153.721 88.5087 152.025 91.7091 148.748 94.2306C145.468 96.754 140.771 98.4286 135.436 98.4286V106.429C142.389 106.429 148.836 104.257 153.626 100.571C158.419 96.8838 161.721 91.5127 161.721 85.2857H153.721ZM135.436 72.1429C140.771 72.1429 145.468 73.8174 148.748 76.3409C152.025 78.8624 153.721 82.0627 153.721 85.2857H161.721C161.721 79.0587 158.419 73.6876 153.626 70.0002C148.836 66.3148 142.389 64.1429 135.436 64.1429V72.1429ZM117.15 85.2857C117.15 82.0627 118.846 78.8624 122.123 76.3409C125.403 73.8174 130.1 72.1429 135.436 72.1429V64.1429C128.482 64.1429 122.036 66.3148 117.245 70.0002C112.452 73.6876 109.15 79.0587 109.15 85.2857H117.15ZM120.332 92.5566C118.745 90.8639 117.15 88.3804 117.15 85.2857H109.15C109.15 91.2338 112.205 95.5861 114.497 98.0291L120.332 92.5566ZM122.529 94.8813L120.322 92.5456L114.507 98.0401L116.714 100.376L122.529 94.8813ZM122.228 102.051L123.364 99.0404L115.879 96.2168L114.743 99.2275L122.228 102.051ZM119.779 107.013C120.648 105.571 121.529 103.894 122.226 102.058L114.746 99.2207C114.264 100.491 113.623 101.729 112.929 102.88L119.779 107.013ZM120.207 98.572C118.92 99.4811 117.181 100.478 115.127 101.139L117.58 108.754C120.583 107.787 123.045 106.362 124.822 105.107L120.207 98.572ZM122.293 97.0956L120.204 98.5742L124.825 105.104L126.914 103.626L122.293 97.0956ZM128.245 97.3193L125.813 96.5479L123.394 104.174L125.826 104.945L128.245 97.3193Z" fill="black" mask="url(#path-32-outside-1)"/>
</svg>
