<svg width="180" height="180" viewBox="0 0 180 180" fill="none" xmlns="http://www.w3.org/2000/svg">
<circle cx="90" cy="90" r="90" fill="#9CA4F0"/>
<path d="M49.9641 124.317L40.5605 133.757L49.4647 142.627L51.3193 140.765L44.663 134.134L52.2119 126.556L49.9641 124.317Z" fill="black"/>
<path d="M59.4315 133.546L53.206 145.326L64.8078 151.457L66.0356 149.134L57.2391 144.485L58.5943 141.921L65.6423 145.645L66.8373 143.384L59.7892 139.66L60.9719 137.422L69.5197 141.939L70.7845 139.545L59.4315 133.546Z" fill="black"/>
<path d="M75.2703 147.097L67.7236 152.675L71.3259 153.35L76.6644 149.343L80.3446 155.041L84.1628 155.757L79.0448 147.76L86.0305 142.55L82.4628 141.882L77.6437 145.503L74.3598 140.363L70.5416 139.647L75.2703 147.097Z" fill="black"/>
<path d="M88.7046 142.182L88.759 155.506L91.923 155.493L91.8686 142.169L88.7046 142.182Z" fill="black"/>
<path d="M107.426 157.219L109.869 156.75L109.39 154.256L107.655 154.589C107.215 154.674 106.849 154.726 106.55 154.756C106.243 154.789 106.002 154.79 105.806 154.747C105.611 154.713 105.453 154.636 105.351 154.522C105.239 154.409 105.156 154.255 105.108 154.049C106.066 153.775 106.945 153.41 107.724 152.947C108.503 152.484 109.157 151.929 109.674 151.265C110.184 150.613 110.54 149.855 110.743 149.002C110.946 148.148 110.943 147.2 110.74 146.147C110.589 145.362 110.35 144.674 110.027 144.065C109.706 143.464 109.311 142.949 108.86 142.508C108.401 142.077 107.885 141.72 107.313 141.445C106.732 141.171 106.122 140.975 105.471 140.85C104.821 140.724 104.138 140.667 103.433 140.678C102.721 140.698 102.002 140.774 101.268 140.915C100.535 141.056 99.8385 141.252 99.1782 141.495C98.5109 141.749 97.8984 142.054 97.3493 142.41C96.7916 142.768 96.2972 143.176 95.8679 143.644C95.43 144.113 95.083 144.636 94.8253 145.205C94.5607 145.783 94.3939 146.406 94.3181 147.083C94.244 147.768 94.2764 148.496 94.4273 149.282C94.6197 150.283 94.9529 151.132 95.4182 151.83C95.8835 152.528 96.448 153.091 97.1119 153.518C97.7774 153.954 98.5319 154.248 99.37 154.418C100.208 154.588 101.094 154.632 102.022 154.571C102.181 155.166 102.394 155.671 102.66 156.077C102.928 156.491 103.275 156.809 103.703 157.031C104.13 157.253 104.646 157.378 105.253 157.413C105.859 157.449 106.589 157.38 107.426 157.219ZM103.388 151.945C102.576 152.101 101.84 152.135 101.172 152.058C100.504 151.98 99.9122 151.79 99.4093 151.501C98.9065 151.213 98.4939 150.836 98.17 150.361C97.8461 149.887 97.6228 149.33 97.5 148.691C97.3773 148.052 97.3784 147.453 97.505 146.9C97.6315 146.348 97.8749 145.845 98.2368 145.399C98.6004 144.962 99.0825 144.583 99.6744 144.264C100.268 143.953 100.966 143.72 101.777 143.564C102.589 143.409 103.332 143.364 103.999 143.433C104.667 143.51 105.246 143.685 105.746 143.956C106.247 144.236 106.66 144.613 106.982 145.079C107.304 145.545 107.528 146.102 107.65 146.741C107.773 147.38 107.772 147.979 107.647 148.54C107.522 149.101 107.279 149.605 106.918 150.059C106.558 150.513 106.088 150.907 105.496 151.227C104.904 151.547 104.199 151.789 103.388 151.945Z" fill="black"/>
<path d="M123.397 147.319C124.445 146.709 125.309 146.063 126.002 145.384C126.688 144.71 127.187 144.013 127.507 143.287C127.823 142.574 127.953 141.837 127.901 141.084C127.842 140.335 127.596 139.583 127.158 138.831L123.079 131.829L120.421 133.378L124.465 140.319C124.713 140.744 124.834 141.162 124.836 141.567C124.839 141.973 124.727 142.374 124.515 142.762C124.304 143.149 123.985 143.528 123.567 143.894C123.154 144.267 122.649 144.622 122.064 144.963C121.472 145.308 120.914 145.572 120.385 145.748C119.862 145.931 119.375 146.021 118.933 146.014C118.492 146.007 118.095 145.902 117.744 145.7C117.392 145.498 117.088 145.187 116.841 144.761L112.797 137.82L110.078 139.404L114.157 146.406C114.595 147.158 115.129 147.742 115.758 148.159C116.38 148.58 117.085 148.83 117.87 148.902C118.659 148.981 119.511 148.891 120.443 148.623C121.368 148.359 122.356 147.926 123.397 147.319Z" fill="black"/>
<path d="M123.765 130.987L133.745 139.815L142.44 129.987L140.471 128.246L133.879 135.698L131.707 133.776L136.989 127.805L135.073 126.111L129.791 132.082L127.895 130.404L134.301 123.163L132.273 121.37L123.765 130.987Z" fill="black"/>
<path d="M57.9169 44.4515C58.2597 44.2141 58.5623 43.9547 58.8399 43.671C59.1118 43.3913 59.3479 43.1198 59.5498 42.847C59.7499 42.5837 59.9086 42.3325 60.0353 42.0951C60.1602 41.8673 60.2385 41.6801 60.2739 41.5391L60.7837 42.2754L62.3012 41.2248L58.0597 35.0986L56.5422 36.1492L59.484 40.3982C59.4338 40.5659 59.3517 40.7475 59.2415 40.9486C59.1256 41.1535 58.9868 41.3494 58.8273 41.5513C58.6621 41.7571 58.4836 41.9555 58.2804 42.1544C58.0772 42.3533 57.8584 42.5297 57.628 42.6892C57.0941 43.0589 56.6423 43.247 56.2765 43.2591C55.9108 43.2712 55.6181 43.1247 55.3963 42.8043L52.6529 38.842L51.1354 39.8926L54.0539 44.1078C54.3301 44.5069 54.6216 44.7957 54.9281 44.9742C55.229 45.1567 55.5472 45.244 55.8715 45.244C56.1996 45.2496 56.5321 45.1774 56.8728 45.033C57.2134 44.8886 57.5628 44.6966 57.9169 44.4515Z" fill="black"/>
<path d="M60.8816 33.5186L63.7806 40.3826L65.4683 39.6698L63.4789 34.9595C63.5623 34.8055 63.6798 34.6446 63.8351 34.4676C63.9841 34.2934 64.1574 34.1238 64.3611 33.9561C64.5649 33.7884 64.7829 33.637 65.0225 33.4838C65.2647 33.337 65.5086 33.2117 65.7668 33.1027C66.365 32.85 66.8494 32.7493 67.2162 32.8096C67.5767 32.8725 67.8359 33.0821 67.9875 33.4411L69.8386 37.824L71.5452 37.1032L69.5504 32.3803C69.3616 31.9332 69.1381 31.5972 68.8745 31.3597C68.611 31.1222 68.3237 30.969 68.0036 30.8964C67.6862 30.8301 67.337 30.8292 66.974 30.9009C66.611 30.9726 66.2324 31.0954 65.842 31.2603C65.4579 31.4225 65.0996 31.6109 64.7762 31.8291C64.4466 32.05 64.16 32.2675 63.9128 32.4906C63.6594 32.7164 63.4527 32.9298 63.2802 33.1363C63.1077 33.3427 62.9928 33.5099 62.9256 33.6496L62.5693 32.8058L60.8816 33.5186Z" fill="black"/>
<path d="M75.7668 28.3614L76.9423 38.5477L78.7622 38.3377L78.361 34.8608C78.7092 35.0752 79.1597 35.2228 79.6999 35.3118C80.2408 35.4077 80.8674 35.4111 81.5872 35.328C81.9064 35.2912 82.2216 35.2204 82.5322 35.1089C82.8435 35.0041 83.1298 34.861 83.4053 34.6847C83.6809 34.5084 83.9321 34.3005 84.1591 34.061C84.3861 33.8215 84.5744 33.5451 84.7248 33.2387C84.8753 32.9324 84.9811 32.5967 85.0482 32.2243C85.1093 31.8594 85.119 31.4661 85.0696 31.0382C84.9928 30.3727 84.8175 29.808 84.5446 29.351C84.2649 28.8947 83.9334 28.5269 83.5374 28.2561C83.1415 27.9852 82.7006 27.8021 82.2284 27.7052C81.7493 27.6091 81.2722 27.5885 80.7968 27.6433C80.4029 27.6888 80.0394 27.7583 79.7129 27.851C79.3872 27.9505 79.0902 28.0605 78.8295 28.1869C78.5689 28.3133 78.3437 28.4494 78.1533 28.5883C77.9637 28.7341 77.808 28.8759 77.6863 29.0138L77.5868 28.1514L75.7668 28.3614ZM80.8452 33.9066C80.6143 33.9333 80.381 33.9395 80.1394 33.933C79.8978 33.9265 79.6547 33.9064 79.4227 33.8643C79.1916 33.8291 78.9649 33.7726 78.7562 33.6935C78.5483 33.6212 78.3584 33.5261 78.1941 33.4143L77.8517 30.4467C77.9238 30.3558 78.0358 30.2534 78.181 30.1403C78.327 30.034 78.507 29.9238 78.7217 29.8164C78.9304 29.7167 79.167 29.6205 79.4324 29.5349C79.6977 29.4492 79.9866 29.3883 80.2922 29.3531C80.6453 29.3123 80.9896 29.3139 81.3189 29.3654C81.6483 29.4168 81.9484 29.5129 82.214 29.6681C82.4796 29.8232 82.704 30.0382 82.8855 30.2993C83.0603 30.5613 83.1742 30.8922 83.2188 31.2793C83.2635 31.6664 83.228 32.0146 83.1191 32.323C83.0101 32.6315 82.8406 32.8919 82.6181 33.1103C82.3964 33.3354 82.1344 33.5101 81.8262 33.642C81.5188 33.7807 81.1915 33.8667 80.8452 33.9066Z" fill="black"/>
<path d="M88.7072 31.8234L95.8664 32.3394L95.8974 31.9098C95.9372 31.3575 95.9112 30.8622 95.8252 30.4379C95.7393 30.0137 95.6017 29.6405 95.4125 29.3185C95.2232 28.9964 94.9959 28.7264 94.7306 28.5086C94.4653 28.2907 94.1698 28.1118 93.8509 27.9723C93.532 27.8328 93.1974 27.7196 92.8463 27.6463C92.4884 27.5725 92.1353 27.5265 91.7808 27.5009C91.4262 27.4754 91.0629 27.4766 90.6976 27.5051C90.325 27.54 89.9641 27.603 89.6206 27.7085C89.2704 27.8135 88.9381 27.954 88.6307 28.1306C88.3159 28.3136 88.0392 28.5403 87.8003 28.811C87.5547 29.0811 87.3602 29.4029 87.2036 29.7686C87.0465 30.1411 86.9542 30.5662 86.9193 31.0503C86.8697 31.739 86.9502 32.3342 87.1675 32.8365C87.3849 33.3387 87.69 33.7651 88.0906 34.1024C88.4908 34.4465 88.9582 34.7132 89.5001 34.8962C90.0421 35.0792 90.6094 35.1954 91.2094 35.2387C91.7753 35.2795 92.2828 35.2749 92.7387 35.2255C93.1878 35.1757 93.5921 35.0814 93.9512 34.9497C94.3102 34.8179 94.6171 34.6481 94.8861 34.4345C95.1546 34.2277 95.3851 33.977 95.5767 33.6961L93.9895 32.8963C93.7218 33.2814 93.3744 33.5374 92.9462 33.6778C92.518 33.8183 91.9939 33.8628 91.3803 33.8186C91.0462 33.7945 90.735 33.7378 90.4331 33.6475C90.1312 33.5572 89.8595 33.428 89.6244 33.2671C89.3824 33.1057 89.1848 32.8996 89.0238 32.6618C88.8627 32.424 88.7591 32.1493 88.7072 31.8234ZM91.6751 28.9669C92.0433 28.9934 92.375 29.0516 92.6774 29.1351C92.9729 29.218 93.2315 29.3395 93.4467 29.4921C93.6618 29.6446 93.8263 29.8347 93.9538 30.0632C94.0812 30.2917 94.1507 30.564 94.1627 30.8733L88.8172 30.488C88.9294 30.1671 89.0922 29.9047 89.3062 29.694C89.5196 29.49 89.7642 29.3295 90.0327 29.2186C90.2943 29.1072 90.5739 29.0314 90.8647 28.9907C91.1482 28.9563 91.4229 28.9487 91.6751 28.9669Z" fill="black"/>
<path d="M100.068 36.4676C100.474 36.5631 100.869 36.6141 101.266 36.6302C101.655 36.6447 102.015 36.6381 102.353 36.6053C102.683 36.5776 102.975 36.5271 103.236 36.4622C103.489 36.4023 103.681 36.335 103.809 36.267L103.604 37.1386L105.4 37.5616L107.108 30.3088L105.312 29.8858L104.127 34.9162C103.969 34.9913 103.779 35.052 103.556 35.1048C103.326 35.156 103.088 35.1842 102.831 35.201C102.568 35.2162 102.301 35.2165 102.017 35.1989C101.733 35.1812 101.456 35.1369 101.183 35.0727C100.551 34.9239 100.108 34.7144 99.8544 34.4509C99.6004 34.1874 99.5132 33.8719 99.6025 33.4927L100.707 28.8016L98.9105 28.3786L97.7354 33.3691C97.6242 33.8415 97.605 34.2513 97.6777 34.5985C97.7438 34.9442 97.8921 35.2389 98.1093 35.4797C98.3249 35.7271 98.6013 35.9256 98.9367 36.0818C99.2721 36.2381 99.6486 36.3689 100.068 36.4676Z" fill="black"/>
<path d="M113.819 41.1131C114.18 41.2916 114.523 41.4304 114.857 41.5265C115.185 41.6196 115.494 41.6883 115.781 41.7235C116.063 41.7556 116.326 41.7634 116.564 41.7438C116.8 41.7304 117.007 41.6957 117.181 41.6367C117.033 41.9676 116.952 42.2554 116.938 42.5001L118.636 43.3381C118.659 43.0903 118.722 42.824 118.834 42.5513C118.939 42.2757 119.066 41.9876 119.208 41.6995L123.032 33.9511L121.377 33.1343L119.789 36.3526C119.616 35.9927 119.336 35.6334 118.946 35.2655C118.552 34.9038 118.071 34.5822 117.507 34.3039C117.035 34.071 116.536 33.9238 116.01 33.8623C115.483 33.8008 114.979 33.834 114.491 33.9589C113.993 34.0868 113.539 34.3123 113.122 34.6324C112.701 34.9587 112.358 35.3915 112.095 35.9249C111.811 36.5011 111.658 37.0583 111.645 37.5933C111.626 38.1254 111.708 38.6233 111.891 39.0717C112.074 39.5202 112.333 39.9224 112.671 40.2722C113.009 40.622 113.39 40.9013 113.819 41.1131ZM115.112 40.0669C114.794 39.9096 114.512 39.7246 114.263 39.5027C114.014 39.2808 113.817 39.0311 113.678 38.7567C113.539 38.4823 113.464 38.1861 113.459 37.8713C113.455 37.5564 113.539 37.2166 113.711 36.8672C113.883 36.5178 114.102 36.2446 114.361 36.0445C114.62 35.8445 114.903 35.7176 115.212 35.6488C115.517 35.586 115.832 35.5813 116.166 35.6316C116.496 35.6879 116.811 35.7902 117.118 35.9415C117.326 36.0444 117.535 36.1625 117.734 36.2991C117.934 36.4356 118.121 36.5814 118.296 36.7364C118.468 36.8975 118.628 37.0679 118.763 37.2414C118.896 37.4211 119.007 37.5978 119.084 37.7809L117.756 40.472C117.652 40.5123 117.509 40.5405 117.328 40.5506C117.145 40.5669 116.934 40.5618 116.699 40.5294C116.46 40.5032 116.209 40.4556 115.94 40.3836C115.664 40.3086 115.388 40.203 115.112 40.0669Z" fill="black"/>
<path d="M123.05 42.5914L128.884 46.7728L129.135 46.4228C129.457 45.9727 129.694 45.5369 129.843 45.1302C129.991 44.7236 130.069 44.3335 130.076 43.9601C130.083 43.5866 130.03 43.2376 129.918 42.9132C129.805 42.5888 129.647 42.2818 129.448 41.9962C129.249 41.7106 129.023 41.4393 128.762 41.1933C128.495 40.9433 128.218 40.7196 127.929 40.5125C127.641 40.3054 127.33 40.1166 127.004 39.95C126.668 39.7849 126.327 39.6501 125.979 39.5605C125.626 39.467 125.269 39.4131 124.915 39.403C124.551 39.3945 124.196 39.4432 123.851 39.5491C123.501 39.6511 123.167 39.8238 122.842 40.0537C122.513 40.2892 122.212 40.6034 121.93 40.9978C121.528 41.559 121.285 42.1085 121.208 42.6504C121.131 43.1922 121.168 43.7151 121.333 44.2121C121.495 44.7146 121.754 45.1862 122.12 45.6255C122.487 46.0647 122.909 46.4604 123.398 46.8108C123.86 47.1413 124.295 47.4027 124.709 47.5989C125.118 47.791 125.512 47.922 125.887 47.9973C126.262 48.0726 126.612 48.0883 126.953 48.0467C127.29 48.0107 127.618 47.9175 127.928 47.7781L126.993 46.2667C126.563 46.4552 126.133 46.4918 125.695 46.3878C125.256 46.2838 124.786 46.0478 124.286 45.6894C124.014 45.4943 123.778 45.2833 123.568 45.0485C123.358 44.8137 123.194 44.5616 123.077 44.3015C122.955 44.0375 122.895 43.7585 122.882 43.4716C122.869 43.1847 122.924 42.8963 123.05 42.5914ZM127.073 41.7071C127.373 41.9221 127.626 42.1451 127.84 42.3743C128.048 42.5995 128.205 42.8381 128.309 43.0807C128.413 43.3232 128.454 43.5712 128.443 43.8327C128.432 44.0941 128.349 44.3625 128.198 44.6325L123.842 41.5103C124.105 41.2954 124.381 41.1568 124.674 41.0889C124.962 41.0266 125.255 41.0175 125.541 41.0633C125.823 41.1051 126.101 41.1866 126.37 41.3038C126.629 41.4227 126.868 41.5597 127.073 41.7071Z" fill="black"/>
<rect x="74" y="71" width="33" height="27" fill="#5AAA67"/>
<rect x="74" y="101" width="32" height="9" fill="#EFC65F"/>
<path d="M81 78.5C81 78.2239 81.2238 78 81.5 78H101.5C101.776 78 102 78.2239 102 78.5V80.5C102 80.7761 101.776 81 101.5 81H81.5C81.2238 81 81 80.7761 81 80.5V78.5Z" fill="black"/>
<path d="M81.5 84C81.2238 84 81 84.2239 81 84.5V86.5C81 86.7761 81.2238 87 81.5 87H101.5C101.776 87 102 86.7761 102 86.5V84.5C102 84.2239 101.776 84 101.5 84H81.5Z" fill="black"/>
<path fill-rule="evenodd" clip-rule="evenodd" d="M108.75 66C109.997 66 111 67.0031 111 68.25V99.75C111 100.453 110.672 101.091 110.166 101.494C109.772 102.938 109.772 107.053 110.166 108.497C110.672 108.909 111 109.547 111 110.25V111.75C111 112.997 109.997 114 108.75 114H78C73.0312 114 69 109.969 69 105V75C69 70.0312 73.0312 66 78 66H108.75ZM78 108H104.756C104.578 106.397 104.578 103.603 104.756 102H78C76.35 102 75 103.35 75 105C75 106.659 76.3406 108 78 108ZM75 76C75 73.7909 76.7909 72 79 72H105V96H78C76 96 75.1667 96.6667 75 97V76Z" fill="black"/>
</svg>
