<svg width="200" height="200" viewBox="0 0 200 200" fill="none" xmlns="http://www.w3.org/2000/svg">
<path d="M1.01398 130.841C-1.79169 137.615 1.42482 145.38 8.19824 148.186L39.0395 160.96L51.8144 191.802C54.62 198.575 62.3853 201.792 69.1587 198.986L100 186.211L130.841 198.986C137.615 201.792 145.38 198.575 148.186 191.802L160.96 160.961L191.802 148.186C198.575 145.38 201.792 137.615 198.986 130.841L186.211 100L198.986 69.1587C201.792 62.3853 198.575 54.62 191.802 51.8144L160.96 39.0395L148.186 8.19823C145.38 1.42484 137.615 -1.79168 130.841 1.01396L100 13.7889L69.1587 1.01397C62.3853 -1.79166 54.62 1.42485 51.8144 8.19823L39.0395 39.0395L8.19823 51.8144C1.42487 54.62 -1.79166 62.3853 1.01397 69.1587L13.7888 100L1.01398 130.841Z" fill="#9CA4F0"/>
<path d="M32.4031 108.874L44.2416 109.226L44.5737 98.0593L42.2388 97.9899L41.9906 106.338L32.4869 106.055L32.4031 108.874Z" fill="black"/>
<path d="M36.1197 93.8752L38.2168 94.9457L38.4257 93.6658L36.1879 92.0024L33.7976 91.6123L33.3471 94.3726L35.9687 94.8005L36.1197 93.8752Z" fill="black"/>
<path d="M34.5626 87.9253L46.0369 90.8606L46.7339 88.1358L35.2597 85.2005L34.5626 87.9253Z" fill="black"/>
<path d="M36.3001 80.7289L47.0098 85.7862L48.1674 83.3349L40.5166 79.722L51.54 76.1927L52.7176 73.6989L42.0079 68.6416L40.857 71.0789L48.197 74.5449L37.6345 77.9031L36.3001 80.7289Z" fill="black"/>
<path d="M49.6653 62.786L56.6269 69.1465L58.5767 67.0124L51.6151 60.652L55.1088 56.828L53.3266 55.1997L44.3841 64.9875L46.1716 66.61L49.6653 62.786Z" fill="black"/>
<path d="M56.6135 52.629L62.9166 62.6563L72.7917 56.4489L71.5486 54.4712L64.0612 59.1777L62.6892 56.995L68.6883 53.224L67.4784 51.2992L61.4793 55.0702L60.2819 53.1653L67.5576 48.5919L66.277 46.5547L56.6135 52.629Z" fill="black"/>
<path d="M70.5121 44.5392L74.3485 55.7445L76.9798 54.8436L75.593 50.7931L80.1535 49.2318L83.8389 52.4952L86.6772 51.5235L82.6804 47.9538C83.3781 47.4589 83.8255 46.8846 84.0376 46.2257C84.2497 45.5668 84.204 44.8062 83.9079 43.9414C83.6877 43.2984 83.3945 42.7795 83.0405 42.3969C82.6792 42.0169 82.257 41.7485 81.774 41.5919C81.2861 41.4451 80.7422 41.4001 80.1423 41.4569C79.5449 41.521 78.8865 41.6721 78.1843 41.9125L70.5121 44.5392ZM79.8141 46.9863L74.8693 48.6792L73.9001 45.8484L78.8449 44.1554C79.5323 43.9201 80.0802 43.8563 80.4839 43.9741C80.8802 44.0944 81.1668 44.4009 81.3388 44.9036C81.5084 45.3988 81.4673 45.8092 81.2228 46.1324C80.9735 46.4655 80.5015 46.751 79.8141 46.9863Z" fill="black"/>
<path d="M86.3073 39.5525L88.1069 51.2588L90.8558 50.8362L90.2053 46.6046L94.9697 45.8722L98.0217 49.7346L100.987 49.2787L97.6825 45.06C98.4564 44.6959 98.9982 44.2095 99.3232 43.5984C99.6481 42.9872 99.7373 42.2305 99.5984 41.3271C99.4952 40.6553 99.298 40.0927 99.0171 39.6538C98.7285 39.216 98.3603 38.8774 97.9125 38.6379C97.4581 38.4074 96.9307 38.2672 96.3302 38.2172C95.7308 38.175 95.0561 38.2076 94.3225 38.3204L86.3073 39.5525ZM95.0317 43.602L89.8658 44.3962L89.4112 41.4387L94.5771 40.6446C95.2952 40.5342 95.8458 40.5681 96.2224 40.7553C96.5912 40.9436 96.8192 41.2959 96.9 41.8209C96.9795 42.3383 96.8666 42.7351 96.569 43.01C96.2648 43.2939 95.7498 43.4916 95.0317 43.602Z" fill="black"/>
<path d="M109.656 51.1662C110.312 51.311 110.957 51.3973 111.591 51.4252C112.223 51.4607 112.83 51.4267 113.421 51.325C114.002 51.2292 114.551 51.0623 115.066 50.8319C115.573 50.5998 116.039 50.3025 116.458 49.9231C116.869 49.5496 117.224 49.1 117.526 48.5665C117.826 48.0407 118.048 47.4337 118.201 46.7394C118.354 46.0452 118.401 45.3994 118.351 44.7885C118.3 44.1853 118.16 43.6262 117.946 43.1071C117.724 42.5939 117.428 42.1206 117.058 41.695C116.68 41.2676 116.251 40.8928 115.764 40.5614C115.277 40.2299 114.74 39.9435 114.161 39.7037C113.573 39.4698 112.959 39.2784 112.31 39.1353C111.662 38.9922 111.025 38.9076 110.4 38.8738C109.766 38.8459 109.159 38.8799 108.585 38.9773C108.004 39.0731 107.457 39.2324 106.942 39.4628C106.419 39.6915 105.952 39.9964 105.542 40.3699C105.122 40.7493 104.767 41.1989 104.467 41.7248C104.165 42.2582 103.935 42.8636 103.782 43.5578C103.629 44.2521 103.575 44.8962 103.626 45.4994C103.675 46.1103 103.808 46.6677 104.023 47.1792C104.237 47.6983 104.534 48.1639 104.904 48.5896C105.266 49.0136 105.694 49.396 106.181 49.7274C106.666 50.0665 107.203 50.353 107.791 50.5868C108.378 50.8283 109 51.0214 109.656 51.1662ZM110.159 48.8851C109.442 48.7269 108.829 48.4956 108.311 48.1973C107.793 47.8989 107.377 47.5352 107.068 47.123C106.759 46.7107 106.555 46.2577 106.457 45.7562C106.36 45.2547 106.373 44.7217 106.498 44.1571C106.623 43.5926 106.835 43.1033 107.132 42.697C107.43 42.2906 107.806 41.9655 108.258 41.7293C108.708 41.5006 109.235 41.3609 109.831 41.3083C110.425 41.2634 111.076 41.3192 111.794 41.4774C112.511 41.6356 113.133 41.861 113.653 42.1517C114.171 42.45 114.583 42.7969 114.895 43.1938C115.206 43.5984 115.41 44.0514 115.509 44.5453C115.608 45.0392 115.594 45.5722 115.47 46.1368C115.345 46.7013 115.133 47.1906 114.834 47.6045C114.534 48.0185 114.159 48.3436 113.705 48.5875C113.251 48.8314 112.728 48.9881 112.133 49.0407C111.537 49.0932 110.876 49.0434 110.159 48.8851Z" fill="black"/>
<path d="M124.125 55.9446C124.871 56.2861 125.55 56.5111 126.159 56.6266C126.767 56.7421 127.301 56.7972 127.765 56.7778C128.229 56.7584 128.612 56.6929 128.912 56.5812C129.212 56.4696 129.418 56.3577 129.533 56.2384L128.808 57.8224L130.818 58.7429L133.335 53.245L127.227 50.4477L126.355 52.3514L130.048 54.0428C129.655 54.5072 129.073 54.7474 128.294 54.7601C127.507 54.7695 126.548 54.5192 125.404 53.9955C124.744 53.693 124.187 53.352 123.733 52.9725C123.276 52.6001 122.937 52.1782 122.708 51.7211C122.479 51.264 122.367 50.7574 122.384 50.215C122.4 49.6726 122.548 49.0872 122.837 48.455C123.026 48.043 123.252 47.6997 123.508 47.4217C123.761 47.1509 124.04 46.9351 124.346 46.7743C124.652 46.6135 124.966 46.5083 125.307 46.4582C125.641 46.4048 125.983 46.3896 126.337 46.4229C126.691 46.4562 127.05 46.5174 127.407 46.6205C127.763 46.7237 128.107 46.8552 128.448 47.0114C128.867 47.2033 129.27 47.4307 129.653 47.7007C130.036 47.9708 130.365 48.2672 130.648 48.5861C130.925 48.9017 131.142 49.2334 131.298 49.5881C131.446 49.9396 131.5 50.2909 131.467 50.6451L134.234 51.0188C134.284 50.4228 134.233 49.8407 134.073 49.2694C133.91 48.7051 133.629 48.1554 133.241 47.6338C132.853 47.1122 132.343 46.6123 131.715 46.1444C131.087 45.6765 130.334 45.2373 129.461 44.8372C128.431 44.3656 127.442 44.0673 126.497 43.9528C125.553 43.8383 124.688 43.8889 123.891 44.1085C123.095 44.328 122.387 44.7088 121.77 45.2509C121.149 45.8 120.641 46.4956 120.254 47.3409C120.01 47.8736 119.833 48.4111 119.718 48.9429C119.6 49.4818 119.559 50.0041 119.594 50.5273C119.622 51.0472 119.731 51.5609 119.926 52.0541C120.118 52.5544 120.397 53.0343 120.762 53.4938C121.127 53.9532 121.59 54.3883 122.149 54.7992C122.705 55.2171 123.365 55.5966 124.125 55.9446Z" fill="black"/>
<path d="M144.197 53.8562L131.913 59.2004L134.076 60.974L136.573 59.9L142.016 64.3637L141.464 67.0329L143.801 68.9502L146.619 55.8428L144.197 53.8562ZM142.533 62.0699L138.721 58.9439L143.636 56.8316L142.533 62.0699Z" fill="black"/>
<path d="M154.372 67.9052L146.563 73.1907L148.183 75.5846L155.992 70.299L158.896 74.5885L160.895 73.2354L153.464 62.256L151.469 63.6157L154.372 67.9052Z" fill="black"/>
<path d="M162.258 76.8383L151.311 81.3595L152.385 83.959L163.331 79.4378L162.258 76.8383Z" fill="black"/>
<path d="M154.584 92.8542C154.705 93.5151 154.875 94.1432 155.095 94.7383C155.308 95.3348 155.574 95.8817 155.897 96.3866C156.211 96.8852 156.577 97.3264 156.989 97.7118C157.4 98.0894 157.854 98.4034 158.367 98.6432C158.87 98.8768 159.422 99.03 160.031 99.1013C160.632 99.1741 161.278 99.1434 161.977 99.0155C162.676 98.8876 163.29 98.6802 163.834 98.398C164.37 98.1172 164.831 97.7709 165.227 97.3729C165.613 96.9686 165.935 96.5127 166.184 96.0065C166.432 95.4927 166.611 94.9516 166.727 94.3743C166.844 93.797 166.9 93.1911 166.897 92.5643C166.884 91.9313 166.823 91.2913 166.703 90.638C166.584 89.9848 166.415 89.3645 166.204 88.7756C165.984 88.1805 165.717 87.6336 165.405 87.1427C165.091 86.6441 164.733 86.2014 164.321 85.8161C163.907 85.4231 163.445 85.1105 162.942 84.877C162.429 84.6371 161.877 84.4839 161.276 84.4112C160.667 84.3398 160.02 84.3628 159.321 84.4907C158.622 84.6186 158.007 84.8184 157.47 85.0991C156.926 85.3813 156.464 85.72 156.076 86.1166C155.68 86.5146 155.366 86.9691 155.117 87.4752C154.867 87.9737 154.68 88.5162 154.563 89.0935C154.439 89.6722 154.383 90.2781 154.395 90.9111C154.4 91.5456 154.463 92.1933 154.584 92.8542ZM156.882 92.434C156.75 91.7116 156.725 91.0569 156.8 90.4636C156.874 89.8703 157.048 89.346 157.308 88.9013C157.568 88.4566 157.907 88.0929 158.331 87.8088C158.756 87.5247 159.253 87.3306 159.821 87.2266C160.39 87.1226 160.923 87.1284 161.413 87.2453C161.903 87.3622 162.348 87.5825 162.741 87.9077C163.127 88.2344 163.46 88.6659 163.739 89.1946C164.011 89.7247 164.212 90.3471 164.344 91.0695C164.476 91.7919 164.51 92.4529 164.443 93.0448C164.369 93.6381 164.209 94.1519 163.964 94.5938C163.711 95.037 163.373 95.4007 162.956 95.6835C162.539 95.9662 162.043 96.1602 161.474 96.2642C160.905 96.3682 160.372 96.3625 159.874 96.247C159.377 96.1315 158.931 95.9111 158.531 95.5873C158.13 95.2635 157.783 94.8425 157.504 94.3138C157.224 93.7851 157.014 93.1564 156.882 92.434Z" fill="black"/>
<path d="M167.868 102.361L156.048 101.603L155.875 104.309L164.318 104.85L155.369 112.191L155.193 114.943L167.012 115.701L167.184 113.011L159.084 112.492L167.668 105.48L167.868 102.361Z" fill="black"/>
<path d="M100 70.5C81.4995 70.5 66.5 85.505 66.5 104C66.5 122.506 81.4999 137.5 100 137.5C118.5 137.5 133.5 122.506 133.5 104C133.5 85.505 118.5 70.5 100 70.5ZM100 128.306C86.5661 128.306 75.6935 117.438 75.6935 104C75.6935 90.5708 86.5669 79.6935 100 79.6935C113.429 79.6935 124.306 90.5668 124.306 104C124.306 117.434 113.438 128.306 100 128.306Z" fill="#E17774" stroke="black" stroke-width="3"/>
<mask id="path-18-outside-1" maskUnits="userSpaceOnUse" x="84.4994" y="82.4193" width="33" height="32" fill="black">
<rect fill="white" x="84.4994" y="82.4193" width="33" height="32"/>
<path fill-rule="evenodd" clip-rule="evenodd" d="M113.838 96.8774C113.838 102.258 110.224 104.344 107.49 105.921C105.829 106.88 104.493 107.651 104.493 108.86V109.677C104.493 110.533 103.8 111.226 102.945 111.226H97.055C96.1999 111.226 95.5066 110.533 95.5066 109.677V108.56C95.5066 104.058 98.838 102.194 101.455 100.73L101.646 100.623C103.912 99.3522 105.301 98.4882 105.301 96.8059C105.301 94.5806 102.462 93.1036 100.167 93.1036C97.175 93.1036 95.7937 94.52 93.8521 96.9706C93.3286 97.6312 92.3733 97.7539 91.7016 97.2446L88.1114 94.5223C87.4524 94.0227 87.3048 93.0944 87.7702 92.411C90.8189 87.9343 94.702 85.4193 100.748 85.4193C107.079 85.4193 113.838 90.3618 113.838 96.8774Z"/>
</mask>
<path fill-rule="evenodd" clip-rule="evenodd" d="M113.838 96.8774C113.838 102.258 110.224 104.344 107.49 105.921C105.829 106.88 104.493 107.651 104.493 108.86V109.677C104.493 110.533 103.8 111.226 102.945 111.226H97.055C96.1999 111.226 95.5066 110.533 95.5066 109.677V108.56C95.5066 104.058 98.838 102.194 101.455 100.73L101.646 100.623C103.912 99.3522 105.301 98.4882 105.301 96.8059C105.301 94.5806 102.462 93.1036 100.167 93.1036C97.175 93.1036 95.7937 94.52 93.8521 96.9706C93.3286 97.6312 92.3733 97.7539 91.7016 97.2446L88.1114 94.5223C87.4524 94.0227 87.3048 93.0944 87.7702 92.411C90.8189 87.9343 94.702 85.4193 100.748 85.4193C107.079 85.4193 113.838 90.3618 113.838 96.8774Z" fill="#EEBECE"/>
<path d="M107.49 105.921L105.991 103.323L105.991 103.323L107.49 105.921ZM101.455 100.73L102.92 103.348L102.92 103.347L101.455 100.73ZM101.646 100.623L103.112 103.24L103.113 103.239L101.646 100.623ZM93.8521 96.9706L96.2034 98.8337L96.2034 98.8336L93.8521 96.9706ZM91.7016 97.2446L89.889 99.6351L89.8891 99.6352L91.7016 97.2446ZM88.1114 94.5223L89.924 92.1318L89.9239 92.1317L88.1114 94.5223ZM87.7702 92.411L85.2906 90.7223L85.2906 90.7224L87.7702 92.411ZM108.99 108.52C110.303 107.762 112.311 106.629 113.924 104.827C115.641 102.909 116.838 100.337 116.838 96.8774H110.838C110.838 98.7984 110.228 99.9602 109.454 100.825C108.577 101.805 107.411 102.504 105.991 103.323L108.99 108.52ZM107.493 108.86C107.493 109.147 107.405 109.392 107.314 109.546C107.243 109.667 107.204 109.675 107.32 109.576C107.433 109.479 107.619 109.343 107.92 109.154C108.221 108.964 108.563 108.766 108.99 108.52L105.991 103.323C105.241 103.756 104.216 104.334 103.418 105.018C102.581 105.735 101.493 106.987 101.493 108.86H107.493ZM107.493 109.677V108.86H101.493V109.677H107.493ZM102.945 114.226C105.457 114.226 107.493 112.189 107.493 109.677H101.493C101.493 108.876 102.143 108.226 102.945 108.226V114.226ZM97.055 114.226H102.945V108.226H97.055V114.226ZM92.5066 109.677C92.5066 112.189 94.5431 114.226 97.055 114.226V108.226C97.8568 108.226 98.5066 108.876 98.5066 109.677H92.5066ZM92.5066 108.56V109.677H98.5066V108.56H92.5066ZM99.9896 98.1117C97.547 99.4786 92.5066 102.115 92.5066 108.56H98.5066C98.5066 106.002 100.129 104.909 102.92 103.348L99.9896 98.1117ZM100.18 98.005L99.9889 98.1121L102.92 103.347L103.112 103.24L100.18 98.005ZM102.301 96.8059C102.301 96.8077 102.301 96.782 102.311 96.7378C102.321 96.6927 102.337 96.6487 102.355 96.6116C102.391 96.5376 102.404 96.557 102.282 96.6698C102.152 96.7903 101.933 96.9597 101.561 97.1966C101.19 97.4327 100.745 97.6886 100.179 98.0057L103.113 103.239C104.177 102.643 105.423 101.94 106.364 101.068C107.455 100.055 108.301 98.6674 108.301 96.8059H102.301ZM100.167 96.1036C100.743 96.1036 101.457 96.309 101.96 96.636C102.486 96.978 102.301 97.0926 102.301 96.8059H108.301C108.301 94.2939 106.695 92.5574 105.229 91.6046C103.739 90.6367 101.887 90.1036 100.167 90.1036V96.1036ZM96.2034 98.8336C97.1849 97.5949 97.7676 96.9662 98.3135 96.5914C98.7278 96.3071 99.2162 96.1036 100.167 96.1036V90.1036C98.126 90.1036 96.4277 90.6083 94.9178 91.6448C93.5396 92.5909 92.4609 93.8956 91.5007 95.1075L96.2034 98.8336ZM89.8891 99.6352C91.866 101.134 94.6701 100.769 96.2034 98.8337L91.5007 95.1074C91.987 94.4937 92.8807 94.3738 93.5141 94.854L89.8891 99.6352ZM86.2988 96.9128L89.889 99.6351L93.5142 94.8542L89.924 92.1318L86.2988 96.9128ZM85.2906 90.7224C83.9343 92.7141 84.3551 95.4392 86.2989 96.9129L89.9239 92.1317C90.5498 92.6062 90.6753 93.4748 90.2499 94.0995L85.2906 90.7224ZM100.748 82.4193C97.29 82.4193 94.2848 83.1441 91.6616 84.6232C89.0524 86.0943 87.0017 88.2098 85.2906 90.7223L90.2499 94.0996C91.5875 92.1354 93.0026 90.7551 94.6085 89.8496C96.2004 88.9521 98.1597 88.4193 100.748 88.4193V82.4193ZM116.838 96.8774C116.838 92.5235 114.577 88.8703 111.578 86.3923C108.592 83.925 104.652 82.4193 100.748 82.4193V88.4193C103.175 88.4193 105.78 89.3849 107.756 91.0177C109.72 92.6399 110.838 94.7157 110.838 96.8774H116.838Z" fill="black" mask="url(#path-18-outside-1)"/>
<circle cx="100" cy="118.5" r="7" fill="#EEBECE" stroke="black" stroke-width="3"/>
</svg>
