<svg width="180" height="180" viewBox="0 0 180 180" fill="none" xmlns="http://www.w3.org/2000/svg">
<circle cx="90" cy="90" r="90" fill="#EEBECE"/>
<path d="M29.0492 65.3809L39.8289 70.2873L44.457 60.1192L42.3309 59.1515L38.8712 66.7527L30.2175 62.814L29.0492 65.3809Z" fill="black"/>
<path d="M39.0137 47.4336L44.44 59.6815L46.1991 57.507L45.1084 55.0169L49.5356 49.5444L52.2084 50.0787L54.11 47.7281L40.9841 44.998L39.0137 47.4336ZM47.2384 49.0426L44.1379 52.8752L41.9928 47.9745L47.2384 49.0426Z" fill="black"/>
<path d="M51.8016 34.5657L57.6286 44.8769L59.9888 43.5431L55.8261 36.177L66.8652 39.6572L69.2661 38.3004L63.4391 27.9892L61.0926 29.3152L65.0862 36.3821L54.5223 33.0282L51.8016 34.5657Z" fill="black"/>
<path d="M73.2079 21.2941L70.8804 24.8198L73.0094 24.2843L75.9582 20.6023L73.2079 21.2941ZM68.0687 26.2923L70.9577 37.7783L82.2695 34.9332L81.6997 32.6678L73.123 34.825L72.4942 32.3248L79.3661 30.5963L78.8115 28.3916L71.9396 30.12L71.3908 27.938L79.725 25.8417L79.138 23.5082L68.0687 26.2923Z" fill="black"/>
<path d="M90.5302 34.767C91.3503 34.7488 92.0593 34.655 92.6574 34.4932C93.2556 34.3315 93.7594 34.1484 94.1687 33.9283C94.578 33.7083 94.8934 33.4825 95.1149 33.2509C95.3364 33.0194 95.4728 32.8288 95.524 32.6714L95.5626 34.4132L97.773 34.3641L97.6389 28.3188L90.9218 28.4677L90.9683 30.561L95.0298 30.4709C94.8787 31.0603 94.4594 31.5307 93.7639 31.8821C93.0606 32.2337 92.088 32.4272 90.8305 32.4551C90.1042 32.4712 89.4541 32.4075 88.8805 32.2639C88.307 32.1282 87.8174 31.8968 87.412 31.5854C87.0065 31.274 86.6849 30.867 86.463 30.3718C86.241 29.8766 86.1185 29.2854 86.1031 28.5903C86.093 28.1372 86.1465 27.7297 86.2557 27.3678C86.365 27.0137 86.5221 26.6977 86.7269 26.4196C86.9318 26.1416 87.1689 25.9097 87.4537 25.7158C87.7307 25.5222 88.0319 25.3592 88.3651 25.2346C88.6984 25.11 89.0478 25.0084 89.4137 24.9456C89.7796 24.8828 90.1461 24.8512 90.521 24.8429C90.9819 24.8327 91.4436 24.8615 91.9063 24.9372C92.369 25.0129 92.7937 25.1364 93.1881 25.2995C93.5746 25.4629 93.9151 25.6663 94.2098 25.9176C94.4967 26.1692 94.6986 26.4616 94.8232 26.7949L97.4764 25.9233C97.2608 25.3655 96.9606 24.8642 96.5678 24.4197C96.1752 23.983 95.6825 23.611 95.1054 23.3112C94.5283 23.0114 93.8512 22.7842 93.0821 22.6372C92.3131 22.4901 91.4442 22.4234 90.4835 22.4447C89.3509 22.4699 88.3309 22.6331 87.4313 22.9422C86.5316 23.2513 85.7752 23.6744 85.1543 24.2196C84.5335 24.7647 84.0634 25.416 83.7442 26.1732C83.4251 26.9383 83.272 27.7856 83.2926 28.7151C83.3056 29.3009 83.3806 29.8619 83.5095 30.3904C83.6386 30.9267 83.8292 31.4148 84.0893 31.8701C84.3417 32.3255 84.6635 32.7404 85.0543 33.099C85.4454 33.4654 85.9055 33.7756 86.4347 34.0296C86.9639 34.2835 87.5698 34.4732 88.2524 34.5988C88.9353 34.7321 89.6944 34.7856 90.5302 34.767Z" fill="black"/>
<path d="M107.82 24.013L99.2535 34.3121L101.983 34.9232L103.73 32.8405L110.599 34.3785L111.307 37.0107L114.257 37.6713L110.877 24.6975L107.82 24.013ZM110.029 32.0972L105.218 31.0202L108.658 26.9226L110.029 32.0972Z" fill="black"/>
<path d="M123.279 31.9692L118.711 40.2186L121.24 41.6189L125.808 33.3695L130.34 35.8787L131.509 33.7668L119.911 27.3443L118.748 29.46L123.279 31.9692Z" fill="black"/>
<path d="M134.429 36.4337L126.683 45.3926L128.81 47.2322L136.557 38.2733L134.429 36.4337Z" fill="black"/>
<path d="M134.575 54.0271C134.976 54.5667 135.406 55.055 135.866 55.4918C136.32 55.9333 136.801 56.3061 137.313 56.6167C137.815 56.9256 138.338 57.1596 138.878 57.3235C139.413 57.481 139.96 57.562 140.525 57.551C141.08 57.5383 141.643 57.4319 142.221 57.2272C142.792 57.0271 143.358 56.7145 143.929 56.2909C144.5 55.8674 144.959 55.4104 145.322 54.9171C145.68 54.4283 145.94 53.9141 146.119 53.3822C146.288 52.8487 146.375 52.2976 146.375 51.7335C146.37 51.1632 146.292 50.5987 146.142 50.0292C145.992 49.4596 145.775 48.8912 145.495 48.3304C145.204 47.7679 144.866 47.2208 144.471 46.6874C144.075 46.1541 143.649 45.6721 143.2 45.2369C142.74 44.8001 142.259 44.4272 141.762 44.1245C141.261 43.8156 140.743 43.5769 140.204 43.4131C139.659 43.243 139.106 43.1667 138.552 43.1793C137.986 43.1904 137.423 43.2968 136.852 43.4969C136.274 43.7016 135.704 44.008 135.133 44.4315C134.562 44.855 134.098 45.3057 133.741 45.7944C133.377 46.2878 133.112 46.7958 132.939 47.323C132.76 47.8549 132.679 48.4013 132.679 48.9654C132.674 49.5232 132.746 50.0923 132.896 50.6619C133.04 51.2361 133.257 51.8044 133.548 52.3669C133.833 52.9341 134.175 53.4875 134.575 54.0271ZM136.451 52.6355C136.014 52.0457 135.703 51.469 135.507 50.9039C135.312 50.3388 135.237 49.7915 135.274 49.2776C135.311 48.7637 135.454 48.2879 135.71 47.8455C135.965 47.4031 136.325 47.0097 136.789 46.6653C137.254 46.3209 137.735 46.0907 138.226 45.9792C138.717 45.8677 139.214 45.8688 139.71 45.9871C140.2 46.11 140.69 46.3501 141.174 46.7011C141.651 47.0568 142.107 47.5264 142.544 48.1163C142.982 48.7061 143.304 49.2844 143.505 49.8448C143.701 50.4099 143.784 50.9416 143.759 51.4462C143.729 51.9554 143.585 52.4312 143.336 52.869C143.087 53.3067 142.727 53.7001 142.263 54.0445C141.798 54.3889 141.318 54.6192 140.82 54.7353C140.323 54.8514 139.826 54.8503 139.323 54.7367C138.821 54.6231 138.323 54.3986 137.839 54.0476C137.355 53.6966 136.889 53.2253 136.451 52.6355Z" fill="black"/>
<path d="M150.869 57.1198L139.713 61.0975L140.624 63.651L148.593 60.8094L143.276 71.0907L144.203 73.6883L155.358 69.7106L154.453 67.1718L146.807 69.898L151.918 60.0633L150.869 57.1198Z" fill="black"/>
<path d="M63.0608 139.104L58.1344 148.222L59.7462 149.092L64.6726 139.975L63.0608 139.104Z" fill="black"/>
<path d="M65.2523 148.348L72.0036 150.786L72.1498 150.381C72.3378 149.86 72.4471 149.376 72.4794 148.944C72.5117 148.513 72.4804 148.116 72.3855 147.755C72.2907 147.394 72.1451 147.072 71.9488 146.791C71.7525 146.509 71.5166 146.257 71.2474 146.036C70.9782 145.815 70.6869 145.615 70.3688 145.45C70.0443 145.282 69.7169 145.142 69.3826 145.021C69.0482 144.9 68.6981 144.803 68.3388 144.731C67.9707 144.664 67.6062 144.627 67.247 144.635C66.8814 144.641 66.5235 144.687 66.1797 144.773C65.8272 144.864 65.4993 145.007 65.196 145.203C64.8864 145.396 64.6119 145.653 64.362 145.963C64.1099 146.279 63.9058 146.663 63.7409 147.12C63.5065 147.769 63.4226 148.364 63.4957 148.906C63.5688 149.449 63.7469 149.942 64.0411 150.375C64.3329 150.815 64.7105 151.198 65.1826 151.521C65.6546 151.844 66.1692 152.11 66.735 152.314C67.2687 152.507 67.7584 152.64 68.2106 152.716C68.6564 152.79 69.0711 152.809 69.4524 152.779C69.8337 152.75 70.1752 152.669 70.492 152.537C70.8065 152.41 71.0964 152.232 71.357 152.013L70.046 150.813C69.684 151.111 69.2802 151.263 68.8299 151.283C68.3797 151.302 67.8631 151.202 67.2845 150.994C66.9694 150.88 66.6852 150.741 66.4191 150.572C66.153 150.403 65.9265 150.205 65.7438 149.987C65.5546 149.766 65.4203 149.514 65.3297 149.241C65.2392 148.969 65.214 148.676 65.2523 148.348ZM68.8835 146.403C69.2307 146.529 69.5341 146.675 69.8026 146.837C70.0646 146.997 70.2805 147.184 70.4463 147.389C70.612 147.594 70.7189 147.822 70.7796 148.076C70.8404 148.331 70.8334 148.612 70.7611 148.913L65.7202 147.093C65.9152 146.814 66.1431 146.606 66.4061 146.461C66.6669 146.323 66.9458 146.234 67.2343 146.2C67.5163 146.164 67.806 146.167 68.0969 146.207C68.3791 146.25 68.6456 146.318 68.8835 146.403Z" fill="black"/>
<path d="M77.7264 151.171L73.5232 154.342L75.4673 154.653L78.5216 152.434L80.7124 155.49L82.8387 155.83L79.8368 151.481L83.8926 148.453L81.9417 148.141L79.0486 150.261L76.9937 147.351L74.8606 147.01L77.7264 151.171Z" fill="black"/>
<path d="M85.96 148.445L85.6519 155.889L87.4824 155.965L87.7905 148.52L85.96 148.445ZM86.0449 145.732L85.9782 147.344L87.8701 147.422L87.9368 145.81L86.0449 145.732Z" fill="black"/>
<path d="M95.5774 155.962C96.1706 155.92 96.7049 155.82 97.1799 155.656C97.6553 155.499 98.0664 155.306 98.4196 155.068C98.7732 154.837 99.0699 154.576 99.3028 154.286C99.5362 154.002 99.7068 153.702 99.8291 153.398L98.0418 152.936C97.9307 153.204 97.7821 153.427 97.5965 153.612C97.4108 153.797 97.2023 153.948 96.9778 154.067C96.7532 154.186 96.5194 154.271 96.2836 154.329C96.0411 154.387 95.8107 154.424 95.5925 154.44C95.1902 154.468 94.8176 154.433 94.4753 154.341C94.1329 154.249 93.8422 154.112 93.5885 153.918C93.3348 153.723 93.1333 153.491 92.9833 153.214C92.8339 152.943 92.7434 152.634 92.7197 152.3C92.692 151.912 92.7423 151.559 92.8715 151.255C92.9938 150.951 93.1814 150.698 93.4196 150.482C93.6579 150.267 93.9341 150.103 94.2609 149.977C94.5882 149.858 94.9326 149.785 95.3008 149.759C95.9077 149.716 96.4268 149.789 96.8442 149.972C97.262 150.161 97.5975 150.446 97.8375 150.833L99.5725 150.175C99.2143 149.474 98.6699 148.951 97.9463 148.605C97.2163 148.266 96.309 148.132 95.218 148.209C94.8771 148.234 94.5313 148.286 94.1738 148.366C93.8163 148.446 93.468 148.56 93.1358 148.707C92.7967 148.855 92.4874 149.034 92.1946 149.254C91.9019 149.473 91.6529 149.731 91.4482 150.033C91.2441 150.342 91.0837 150.69 90.9813 151.081C90.8726 151.479 90.8354 151.92 90.8708 152.418C90.9033 152.875 90.9942 153.286 91.1363 153.646C91.2784 154.006 91.4585 154.323 91.6835 154.594C91.9084 154.866 92.1713 155.094 92.4654 155.279C92.76 155.47 93.0722 155.62 93.4155 155.725C93.752 155.832 94.107 155.909 94.4728 155.945C94.8386 155.981 95.2092 155.988 95.5774 155.962Z" fill="black"/>
<path d="M105.225 154.614C105.584 154.526 105.942 154.411 106.301 154.266C106.655 154.131 106.989 153.972 107.298 153.797C107.608 153.623 107.885 153.436 108.127 153.243C108.368 153.05 108.56 152.855 108.695 152.66C108.749 152.851 108.811 153.019 108.882 153.164C108.954 153.315 109.019 153.44 109.084 153.529L110.863 153.094C110.807 153.009 110.75 152.918 110.704 152.816C110.658 152.715 110.609 152.6 110.555 152.466C110.502 152.338 110.458 152.187 110.411 152.022C110.364 151.858 110.308 151.661 110.255 151.441L109.54 148.52C109.428 148.062 109.264 147.679 109.04 147.368C108.816 147.057 108.534 146.824 108.185 146.663C107.836 146.502 107.422 146.42 106.934 146.413C106.449 146.412 105.89 146.485 105.252 146.641C104.701 146.776 104.204 146.933 103.763 147.111C103.322 147.296 102.938 147.482 102.606 147.675C102.275 147.876 101.999 148.07 101.772 148.266C101.547 148.469 101.367 148.654 101.232 148.821L102.381 149.807C102.509 149.67 102.676 149.516 102.884 149.36C103.092 149.203 103.33 149.054 103.596 148.904C103.862 148.755 104.145 148.615 104.444 148.486C104.744 148.363 105.057 148.258 105.369 148.182C105.754 148.088 106.084 148.028 106.361 148.01C106.638 147.991 106.873 148.004 107.06 148.05C107.248 148.095 107.4 148.171 107.502 148.272C107.604 148.374 107.677 148.497 107.714 148.65L107.753 148.809C107.183 148.984 106.642 149.158 106.116 149.336C105.589 149.514 105.094 149.706 104.644 149.908C104.193 150.109 103.783 150.329 103.422 150.551C103.062 150.78 102.763 151.022 102.524 151.285C102.286 151.547 102.124 151.833 102.034 152.129C101.94 152.434 101.935 152.759 102.021 153.111C102.115 153.496 102.268 153.803 102.474 154.041C102.68 154.28 102.928 154.458 103.216 154.571C103.497 154.685 103.813 154.741 104.158 154.741C104.505 154.748 104.86 154.703 105.225 154.614ZM105.516 153.044C104.985 153.174 104.576 153.197 104.289 153.119C103.996 153.043 103.82 152.868 103.755 152.602C103.698 152.37 103.763 152.15 103.959 151.94C104.154 151.73 104.44 151.52 104.826 151.313C105.213 151.112 105.683 150.906 106.24 150.706C106.789 150.509 107.401 150.303 108.066 150.091L108.419 151.532C108.332 151.637 108.187 151.764 107.989 151.904C107.786 152.052 107.547 152.195 107.279 152.338C107.011 152.481 106.722 152.622 106.415 152.747C106.108 152.871 105.809 152.972 105.516 153.044Z" fill="black"/>
<path d="M110.352 142.189L114.232 151.799L115.931 151.113L112.05 141.503L110.352 142.189Z" fill="black"/>
<path d="M119.103 146.306L125.272 142.636L125.051 142.265C124.768 141.79 124.464 141.398 124.151 141.099C123.838 140.8 123.511 140.573 123.172 140.417C122.832 140.261 122.492 140.169 122.149 140.142C121.807 140.115 121.462 140.137 121.121 140.205C120.78 140.273 120.44 140.371 120.11 140.512C119.775 140.656 119.459 140.82 119.153 141.002C118.848 141.184 118.55 141.392 118.267 141.625C117.981 141.866 117.721 142.124 117.5 142.407C117.272 142.694 117.08 142.999 116.929 143.32C116.775 143.65 116.678 143.994 116.637 144.353C116.589 144.715 116.614 145.09 116.694 145.479C116.779 145.875 116.946 146.276 117.194 146.694C117.547 147.287 117.953 147.729 118.419 148.017C118.885 148.305 119.379 148.48 119.9 148.528C120.425 148.581 120.961 148.533 121.51 148.373C122.06 148.213 122.592 147.984 123.109 147.677C123.596 147.387 124.01 147.093 124.356 146.792C124.696 146.494 124.973 146.185 125.193 145.872C125.412 145.559 125.567 145.244 125.665 144.915C125.767 144.592 125.813 144.254 125.81 143.914L124.05 144.166C124.051 144.635 123.912 145.043 123.641 145.403C123.37 145.763 122.965 146.099 122.437 146.414C122.149 146.585 121.861 146.717 121.562 146.815C121.263 146.914 120.966 146.963 120.681 146.966C120.39 146.972 120.11 146.915 119.842 146.812C119.574 146.709 119.332 146.543 119.103 146.306ZM119.905 142.265C120.222 142.076 120.527 141.934 120.823 141.83C121.113 141.729 121.395 141.681 121.658 141.683C121.922 141.685 122.166 141.747 122.401 141.862C122.636 141.976 122.849 142.16 123.036 142.407L118.43 145.147C118.338 144.82 118.322 144.511 118.377 144.216C118.435 143.927 118.544 143.655 118.701 143.411C118.852 143.17 119.038 142.948 119.253 142.748C119.466 142.558 119.687 142.394 119.905 142.265Z" fill="black"/>
<mask id="path-20-outside-1" maskUnits="userSpaceOnUse" x="72.4097" y="72.4097" width="36" height="36" fill="black">
<rect fill="white" x="72.4097" y="72.4097" width="36" height="36"/>
<path d="M95.1097 90L103.135 81.9742C103.742 81.3677 103.742 80.3871 103.135 79.7806L100.219 76.8645C99.6129 76.2581 98.6323 76.2581 98.0258 76.8645L90 84.8903L81.9742 76.8645C81.3677 76.2581 80.3871 76.2581 79.7806 76.8645L76.8645 79.7806C76.2581 80.3871 76.2581 81.3677 76.8645 81.9742L84.8903 90L76.8645 98.0258C76.2581 98.6323 76.2581 99.6129 76.8645 100.219L79.7806 103.135C80.3871 103.742 81.3677 103.742 81.9742 103.135L90 95.1097L98.0258 103.135C98.6323 103.742 99.6129 103.742 100.219 103.135L103.135 100.219C103.742 99.6129 103.742 98.6323 103.135 98.0258L95.1097 90Z"/>
</mask>
<path d="M95.1097 90L103.135 81.9742C103.742 81.3677 103.742 80.3871 103.135 79.7806L100.219 76.8645C99.6129 76.2581 98.6323 76.2581 98.0258 76.8645L90 84.8903L81.9742 76.8645C81.3677 76.2581 80.3871 76.2581 79.7806 76.8645L76.8645 79.7806C76.2581 80.3871 76.2581 81.3677 76.8645 81.9742L84.8903 90L76.8645 98.0258C76.2581 98.6323 76.2581 99.6129 76.8645 100.219L79.7806 103.135C80.3871 103.742 81.3677 103.742 81.9742 103.135L90 95.1097L98.0258 103.135C98.6323 103.742 99.6129 103.742 100.219 103.135L103.135 100.219C103.742 99.6129 103.742 98.6323 103.135 98.0258L95.1097 90Z" fill="#E17774"/>
<path d="M103.135 81.9742L100.307 79.1457L100.307 79.1458L103.135 81.9742ZM95.1097 90L92.2812 87.1716L89.4528 90L92.2812 92.8284L95.1097 90ZM103.135 79.7806L100.307 82.6091L100.307 82.6091L103.135 79.7806ZM100.219 76.8645L103.048 74.0361L103.048 74.036L100.219 76.8645ZM98.0258 76.8645L95.1974 74.036L95.1974 74.0361L98.0258 76.8645ZM90 84.8903L87.1716 87.7187L90 90.5472L92.8284 87.7187L90 84.8903ZM81.9742 76.8645L84.8026 74.0361L84.8026 74.036L81.9742 76.8645ZM79.7806 76.8645L76.9522 74.036L76.9522 74.0361L79.7806 76.8645ZM76.8645 79.7806L79.6929 82.6091L79.6929 82.6091L76.8645 79.7806ZM76.8645 81.9742L79.6929 79.1458L79.6929 79.1457L76.8645 81.9742ZM84.8903 90L87.7187 92.8284L90.5472 90L87.7187 87.1716L84.8903 90ZM76.8645 98.0258L79.6929 100.854L79.6929 100.854L76.8645 98.0258ZM76.8645 100.219L79.6929 97.3909L79.6929 97.3909L76.8645 100.219ZM79.7806 103.135L82.6091 100.307L82.6091 100.307L79.7806 103.135ZM81.9742 103.135L79.1458 100.307L79.1457 100.307L81.9742 103.135ZM90 95.1097L92.8284 92.2813L90 89.4528L87.1716 92.2813L90 95.1097ZM98.0258 103.135L100.854 100.307L100.854 100.307L98.0258 103.135ZM100.219 103.135L97.3909 100.307L97.3909 100.307L100.219 103.135ZM103.135 100.219L100.307 97.3909L100.307 97.3909L103.135 100.219ZM103.135 98.0258L100.307 100.854L100.307 100.854L103.135 98.0258ZM100.307 79.1458L92.2812 87.1716L97.9381 92.8284L105.964 84.8026L100.307 79.1458ZM100.307 82.6091C99.3514 81.6535 99.3514 80.1014 100.307 79.1457L105.964 84.8027C108.132 82.6341 108.132 79.1207 105.964 76.9521L100.307 82.6091ZM97.3909 79.6929L100.307 82.6091L105.964 76.9522L103.048 74.0361L97.3909 79.6929ZM100.854 79.693C99.8986 80.6486 98.3466 80.6486 97.391 79.693L103.048 74.036C100.879 71.8675 97.366 71.8675 95.1974 74.036L100.854 79.693ZM92.8284 87.7187L100.854 79.6929L95.1974 74.0361L87.1716 82.0619L92.8284 87.7187ZM79.1458 79.6929L87.1716 87.7187L92.8284 82.0619L84.8026 74.0361L79.1458 79.6929ZM82.609 79.693C81.6534 80.6486 80.1014 80.6486 79.1458 79.693L84.8026 74.036C82.634 71.8675 79.1208 71.8675 76.9522 74.036L82.609 79.693ZM79.6929 82.6091L82.6091 79.6929L76.9522 74.0361L74.0361 76.9522L79.6929 82.6091ZM79.6929 79.1457C80.6486 80.1014 80.6486 81.6534 79.6929 82.6091L74.0361 76.9522C71.8675 79.1207 71.8675 82.6341 74.0361 84.8026L79.6929 79.1457ZM87.7187 87.1716L79.6929 79.1458L74.0361 84.8026L82.0619 92.8284L87.7187 87.1716ZM79.6929 100.854L87.7187 92.8284L82.0619 87.1716L74.0361 95.1974L79.6929 100.854ZM79.6929 97.3909C80.6486 98.3466 80.6486 99.8986 79.6929 100.854L74.0361 95.1974C71.8675 97.3659 71.8675 100.879 74.0361 103.048L79.6929 97.3909ZM82.6091 100.307L79.6929 97.3909L74.0361 103.048L76.9522 105.964L82.6091 100.307ZM79.1457 100.307C80.1014 99.3514 81.6535 99.3514 82.6091 100.307L76.9522 105.964C79.1207 108.132 82.6341 108.132 84.8027 105.964L79.1457 100.307ZM87.1716 92.2813L79.1458 100.307L84.8026 105.964L92.8284 97.9381L87.1716 92.2813ZM100.854 100.307L92.8284 92.2813L87.1716 97.9381L95.1974 105.964L100.854 100.307ZM97.3909 100.307C98.3465 99.3514 99.8986 99.3514 100.854 100.307L95.1973 105.964C97.3659 108.132 100.879 108.132 103.048 105.964L97.3909 100.307ZM100.307 97.3909L97.3909 100.307L103.048 105.964L105.964 103.048L100.307 97.3909ZM100.307 100.854C99.3514 99.8986 99.3514 98.3465 100.307 97.3909L105.964 103.048C108.132 100.879 108.132 97.3659 105.964 95.1973L100.307 100.854ZM92.2812 92.8284L100.307 100.854L105.964 95.1974L97.9381 87.1716L92.2812 92.8284Z" fill="black" mask="url(#path-20-outside-1)"/>
<path d="M90 56C71.218 56 56 71.218 56 90C56 108.782 71.218 124 90 124C108.782 124 124 108.782 124 90C124 71.218 108.782 56 90 56ZM90 113.806C76.8465 113.806 66.1935 103.153 66.1935 90C66.1935 76.8465 76.8465 66.1935 90 66.1935C103.153 66.1935 113.806 76.8465 113.806 90C113.806 103.153 103.153 113.806 90 113.806Z" fill="#EFC65F" stroke="black" stroke-width="4"/>
</svg>
