<svg width="295" height="200" viewBox="0 0 295 200" fill="none" xmlns="http://www.w3.org/2000/svg">
<path d="M257.209 160.539V182.507C257.209 192.168 249.463 200 239.908 200H53.6332C44.0781 200 36.3322 192.168 36.3322 182.507V160.31C15.0447 151.733 0 130.704 0 106.122V93.8775C0 69.2957 15.0447 48.2667 36.3322 39.6899V17.4927C36.3322 7.83179 44.0781 0 53.6332 0L239.908 0C249.463 0 257.209 7.83179 257.209 17.4927V39.4612C278.801 47.8882 294.118 69.0743 294.118 93.8775V106.122C294.118 130.926 278.801 152.112 257.209 160.539Z" fill="#EFC65F"/>
<path d="M63.75 118.676V132H76.3184V129.372H66.9229V118.676H63.75ZM84.5098 118.588L77.6367 132H80.7832L82.1895 129.284H90.1084L91.5322 132H94.9336L88.0342 118.588H84.5098ZM88.9219 126.92H83.376L86.1445 121.576L88.9219 126.92ZM102.158 118.676V132H105.208V122.481L114.094 132H117.196V118.676H114.164V127.808L105.674 118.676H102.158ZM127.523 114.633L124.017 117.841H126.486L130.714 114.633H127.523ZM120.545 118.676V132H133.667V129.372H123.718V126.472H131.689V123.914H123.718V121.383H133.386V118.676H120.545ZM143.678 132.272C144.601 132.272 145.4 132.185 146.077 132.018C146.754 131.851 147.325 131.657 147.791 131.42C148.257 131.183 148.617 130.937 148.872 130.682C149.127 130.427 149.285 130.216 149.347 130.04V132H151.834V125.197H144.275V127.553H148.846C148.661 128.212 148.178 128.73 147.387 129.108C146.587 129.486 145.488 129.68 144.073 129.68C143.256 129.68 142.526 129.592 141.885 129.416C141.243 129.249 140.698 128.977 140.25 128.616C139.802 128.256 139.45 127.79 139.213 127.228C138.976 126.665 138.853 125.997 138.853 125.215C138.853 124.705 138.923 124.248 139.055 123.844C139.187 123.448 139.371 123.097 139.608 122.789C139.846 122.481 140.118 122.227 140.443 122.016C140.76 121.805 141.103 121.629 141.48 121.497C141.858 121.365 142.254 121.26 142.667 121.198C143.08 121.137 143.493 121.11 143.915 121.11C144.434 121.11 144.952 121.154 145.471 121.251C145.989 121.348 146.464 121.497 146.903 121.69C147.334 121.884 147.712 122.121 148.037 122.411C148.354 122.701 148.573 123.035 148.705 123.413L151.711 122.499C151.482 121.866 151.157 121.295 150.727 120.785C150.296 120.284 149.751 119.854 149.109 119.502C148.468 119.15 147.712 118.878 146.851 118.693C145.989 118.509 145.014 118.412 143.933 118.412C142.658 118.412 141.507 118.57 140.487 118.896C139.468 119.221 138.606 119.678 137.895 120.275C137.183 120.873 136.638 121.594 136.26 122.438C135.882 123.29 135.688 124.239 135.688 125.285C135.688 125.944 135.759 126.577 135.891 127.175C136.022 127.781 136.225 128.335 136.506 128.854C136.778 129.372 137.13 129.847 137.561 130.26C137.991 130.682 138.501 131.042 139.09 131.341C139.679 131.64 140.355 131.868 141.12 132.026C141.885 132.193 142.737 132.272 143.678 132.272ZM160.693 118.588L153.82 132H156.967L158.373 129.284H166.292L167.716 132H171.117L164.218 118.588H160.693ZM165.105 126.92H159.56L162.328 121.576L165.105 126.92ZM178.28 121.392V132H181.532V121.392H187.359V118.676H172.444L172.453 121.392H178.28ZM189.864 118.676V132H193.028V118.676H189.864ZM204.173 132.272C204.929 132.272 205.658 132.211 206.361 132.088C207.064 131.974 207.724 131.789 208.348 131.534C208.963 131.288 209.525 130.972 210.035 130.594C210.536 130.216 210.976 129.776 211.345 129.258C211.705 128.748 211.986 128.168 212.188 127.509C212.391 126.858 212.487 126.138 212.487 125.338C212.487 124.538 212.382 123.817 212.18 123.158C211.978 122.508 211.688 121.928 211.327 121.409C210.958 120.899 210.519 120.451 210.009 120.073C209.49 119.695 208.928 119.388 208.312 119.142C207.697 118.896 207.038 118.711 206.344 118.588C205.641 118.474 204.92 118.412 204.173 118.412C203.426 118.412 202.705 118.474 202.011 118.588C201.308 118.711 200.648 118.896 200.042 119.142C199.427 119.388 198.864 119.695 198.354 120.073C197.836 120.451 197.396 120.899 197.036 121.409C196.667 121.928 196.386 122.508 196.184 123.158C195.981 123.817 195.876 124.538 195.876 125.338C195.876 126.138 195.973 126.858 196.175 127.509C196.377 128.168 196.658 128.748 197.019 129.258C197.379 129.776 197.818 130.216 198.328 130.594C198.829 130.972 199.392 131.288 200.007 131.534C200.622 131.789 201.281 131.974 201.984 132.088C202.688 132.211 203.417 132.272 204.173 132.272ZM204.173 129.645C203.347 129.645 202.617 129.539 201.976 129.337C201.334 129.135 200.789 128.836 200.35 128.458C199.91 128.08 199.576 127.632 199.348 127.104C199.119 126.577 199.005 125.988 199.005 125.338C199.005 124.688 199.119 124.099 199.348 123.58C199.576 123.062 199.91 122.613 200.35 122.244C200.789 121.884 201.334 121.603 201.976 121.4C202.617 121.207 203.347 121.11 204.173 121.11C204.999 121.11 205.737 121.207 206.379 121.4C207.021 121.603 207.557 121.884 207.996 122.244C208.436 122.613 208.77 123.062 208.998 123.58C209.227 124.099 209.341 124.688 209.341 125.338C209.341 125.988 209.227 126.577 208.998 127.104C208.77 127.632 208.436 128.08 207.996 128.458C207.557 128.836 207.021 129.135 206.379 129.337C205.737 129.539 204.999 129.645 204.173 129.645ZM215.203 118.676V132H218.253V122.481L227.139 132H230.241V118.676H227.209V127.808L218.719 118.676H215.203Z" fill="black"/>
<path d="M87.2812 33.1572C88.6689 33.1572 89.7217 32.9727 90.4258 32.5967C91.1299 32.2275 91.4785 31.6465 91.4785 30.8467C91.4785 30.416 91.3828 30.0674 91.1846 29.7939C90.9863 29.5273 90.7129 29.3086 90.3711 29.1377C90.0293 28.9736 89.6328 28.8506 89.1816 28.7617C88.7236 28.6729 88.2451 28.6045 87.7393 28.5498C87.3291 28.502 86.96 28.4541 86.6318 28.4131C86.2969 28.3789 86.0166 28.3242 85.7842 28.2627C85.5518 28.2012 85.374 28.126 85.251 28.0234C85.1279 27.9277 85.0664 27.7979 85.0664 27.627C85.0664 27.5039 85.1006 27.3945 85.1758 27.2988C85.2441 27.2031 85.3604 27.1211 85.5312 27.0527C85.6953 26.9912 85.9141 26.9365 86.1875 26.9023C86.4541 26.8682 86.7959 26.8545 87.1992 26.8545C87.5547 26.8545 87.8828 26.875 88.1836 26.9229C88.4775 26.9707 88.751 27.0391 88.9971 27.1211C89.2363 27.2031 89.4551 27.2988 89.6465 27.4014C89.8311 27.5107 89.9951 27.6201 90.125 27.7363L91.2529 26.6973C91.0889 26.5264 90.8838 26.3555 90.6445 26.1982C90.3984 26.041 90.1045 25.9043 89.7627 25.7881C89.4209 25.6719 89.0244 25.5762 88.5732 25.501C88.1221 25.4326 87.6094 25.3984 87.0283 25.3984C86.4883 25.3984 85.9893 25.4463 85.5312 25.5352C85.0732 25.6309 84.6836 25.7744 84.3555 25.959C84.0205 26.1504 83.7607 26.3896 83.5762 26.6699C83.3916 26.957 83.2959 27.292 83.2891 27.6816C83.2891 28.1123 83.3916 28.4609 83.6035 28.7275C83.8154 28.9941 84.0889 29.2129 84.4375 29.377C84.7861 29.541 85.1826 29.6641 85.6338 29.7529C86.085 29.8418 86.5498 29.9102 87.0283 29.9648C87.4727 30.0127 87.8691 30.0605 88.2041 30.0947C88.5391 30.1357 88.8125 30.1836 89.0381 30.2451C89.2568 30.3066 89.4209 30.3887 89.5371 30.4844C89.6465 30.5869 89.7012 30.7168 89.7012 30.8877C89.7012 31.0312 89.6602 31.1611 89.5713 31.2705C89.4824 31.3799 89.3389 31.4688 89.1475 31.5439C88.9561 31.6191 88.71 31.667 88.4023 31.7012C88.0947 31.7354 87.7188 31.7559 87.2812 31.7559C86.8643 31.7559 86.4814 31.7285 86.1396 31.667C85.7979 31.6123 85.4971 31.5371 85.2373 31.4346C84.9707 31.3389 84.7451 31.2295 84.5605 31.0996C84.3691 30.9697 84.2188 30.833 84.1025 30.6895L82.8721 31.585C83.0156 31.8037 83.207 32.0088 83.4463 32.1934C83.6855 32.3848 83.9863 32.5488 84.3486 32.6924C84.7109 32.8359 85.1348 32.9521 85.6201 33.0342C86.1055 33.1162 86.6592 33.1572 87.2812 33.1572ZM97.4531 33.1572C97.8291 33.1572 98.2051 33.1299 98.5811 33.0684C98.957 33.0068 99.3125 32.9111 99.6611 32.7812C100.01 32.6514 100.331 32.4873 100.639 32.2822C100.939 32.084 101.199 31.8379 101.425 31.5508C101.65 31.2637 101.821 30.9287 101.951 30.5527C102.081 30.1768 102.143 29.7598 102.143 29.2881C102.143 28.8096 102.081 28.3789 101.951 28.0029C101.821 27.627 101.65 27.292 101.425 27.0049C101.199 26.7178 100.939 26.4717 100.639 26.2666C100.338 26.0615 100.017 25.8975 99.668 25.7676C99.3193 25.6377 98.957 25.5488 98.5811 25.4873C98.2051 25.4258 97.8291 25.3984 97.4531 25.3984C97.0771 25.3984 96.7012 25.4258 96.3252 25.4873C95.9492 25.5488 95.5869 25.6377 95.2383 25.7676C94.8896 25.8975 94.5684 26.0615 94.2676 26.2666C93.9668 26.4717 93.707 26.7178 93.4883 27.0049C93.2627 27.292 93.0918 27.627 92.9619 28.0029C92.832 28.3789 92.7705 28.8096 92.7705 29.2881C92.7705 29.7598 92.832 30.1836 92.9619 30.5596C93.0918 30.9355 93.2627 31.2637 93.4883 31.5508C93.707 31.8379 93.9668 32.084 94.2744 32.2822C94.5752 32.4873 94.8965 32.6514 95.2451 32.7812C95.5938 32.9111 95.9561 33.0068 96.332 33.0684C96.708 33.1299 97.0771 33.1572 97.4531 33.1572ZM97.4531 31.6396C97.0361 31.6396 96.6533 31.585 96.3047 31.4688C95.9561 31.3525 95.6553 31.1953 95.4092 30.9834C95.1562 30.7783 94.9648 30.5322 94.8281 30.2451C94.6914 29.958 94.623 29.6436 94.623 29.3018C94.623 28.9326 94.6914 28.6045 94.835 28.3105C94.9717 28.0234 95.1631 27.7773 95.416 27.5723C95.6621 27.374 95.9561 27.2168 96.3047 27.1074C96.6533 27.0049 97.0361 26.9502 97.4531 26.9502C97.8701 26.9502 98.2529 27.0049 98.6016 27.1143C98.9502 27.2305 99.2441 27.3877 99.4971 27.5928C99.7432 27.7979 99.9346 28.0439 100.071 28.3311C100.208 28.625 100.276 28.9463 100.276 29.3018C100.276 29.6641 100.208 29.9854 100.071 30.2725C99.9346 30.5664 99.7432 30.8125 99.4971 31.0107C99.251 31.209 98.957 31.3662 98.6084 31.4756C98.2598 31.585 97.877 31.6396 97.4531 31.6396ZM104.009 25.5488V33H105.841V27.8867C105.978 27.7773 106.148 27.6748 106.36 27.5723C106.565 27.4697 106.791 27.3809 107.044 27.3057C107.297 27.2305 107.557 27.1758 107.837 27.1279C108.117 27.0869 108.391 27.0664 108.671 27.0664C109.32 27.0664 109.806 27.1621 110.12 27.3604C110.428 27.5586 110.585 27.8525 110.585 28.2422V33H112.438V27.873C112.438 27.3877 112.362 26.9912 112.212 26.6699C112.062 26.3486 111.856 26.0957 111.59 25.9043C111.323 25.7197 111.002 25.583 110.64 25.5078C110.277 25.4326 109.881 25.3984 109.457 25.3984C109.04 25.3984 108.637 25.4326 108.254 25.5078C107.864 25.583 107.516 25.6719 107.201 25.7812C106.88 25.8906 106.606 26.0068 106.367 26.1299C106.128 26.2529 105.957 26.3623 105.841 26.4648V25.5488H104.009ZM119.588 29.9307H126.766V29.5C126.766 28.9463 126.704 28.4541 126.588 28.0371C126.472 27.6201 126.308 27.2578 126.096 26.9502C125.884 26.6426 125.638 26.3896 125.357 26.1914C125.077 25.9932 124.77 25.8359 124.441 25.7197C124.113 25.6035 123.771 25.5146 123.416 25.4668C123.054 25.4189 122.698 25.3984 122.343 25.3984C121.987 25.3984 121.625 25.4258 121.263 25.4805C120.894 25.542 120.538 25.6309 120.203 25.7607C119.861 25.8906 119.54 26.0547 119.246 26.2529C118.945 26.458 118.686 26.7041 118.467 26.9912C118.241 27.2783 118.07 27.6133 117.94 27.9893C117.811 28.3721 117.749 28.8027 117.749 29.2881C117.749 29.9785 117.872 30.5664 118.125 31.0518C118.378 31.5371 118.713 31.9404 119.137 32.248C119.561 32.5625 120.046 32.7949 120.6 32.9385C121.153 33.082 121.728 33.1572 122.329 33.1572C122.896 33.1572 123.402 33.1162 123.854 33.0342C124.298 32.9521 124.694 32.8291 125.043 32.6719C125.392 32.5146 125.686 32.3232 125.938 32.0908C126.191 31.8652 126.403 31.5986 126.574 31.3047L124.934 30.6211C124.694 31.0244 124.366 31.3047 123.949 31.4756C123.532 31.6465 123.013 31.7285 122.397 31.7285C122.062 31.7285 121.748 31.6943 121.44 31.626C121.133 31.5576 120.853 31.4482 120.606 31.3047C120.354 31.1611 120.142 30.9697 119.964 30.7441C119.786 30.5186 119.663 30.252 119.588 29.9307ZM122.343 26.8682C122.712 26.8682 123.047 26.9023 123.354 26.9639C123.655 27.0254 123.922 27.1279 124.147 27.2646C124.373 27.4014 124.551 27.5791 124.694 27.7979C124.838 28.0166 124.927 28.2832 124.961 28.5908H119.602C119.69 28.2627 119.834 27.9893 120.032 27.7637C120.23 27.5449 120.463 27.3672 120.723 27.2373C120.976 27.1074 121.249 27.0117 121.536 26.9502C121.816 26.8955 122.09 26.8682 122.343 26.8682ZM131.612 29.2061L127.962 33H129.931L132.597 30.3271L135.242 33H137.396L133.745 29.1787L137.272 25.5488H135.297L132.774 28.0986L130.286 25.5488H128.126L131.612 29.2061ZM139.022 25.5488V35.8027H140.854V32.3027C141.176 32.5557 141.606 32.7539 142.133 32.9043C142.659 33.0615 143.281 33.1367 144.006 33.1367C144.327 33.1367 144.648 33.1025 144.97 33.0273C145.291 32.959 145.592 32.8496 145.886 32.7061C146.18 32.5625 146.453 32.3848 146.706 32.1729C146.959 31.9609 147.178 31.708 147.362 31.4209C147.547 31.1338 147.69 30.8125 147.8 30.4502C147.902 30.0947 147.957 29.7051 147.957 29.2744C147.957 28.6045 147.848 28.0234 147.629 27.5381C147.403 27.0527 147.116 26.6494 146.754 26.335C146.392 26.0205 145.975 25.7881 145.517 25.6377C145.052 25.4873 144.58 25.4121 144.102 25.4121C143.705 25.4121 143.336 25.4395 143.001 25.4941C142.666 25.5557 142.358 25.6309 142.085 25.7266C141.812 25.8223 141.572 25.9316 141.367 26.0479C141.162 26.1709 140.991 26.2939 140.854 26.417V25.5488H139.022ZM143.432 31.6396C143.199 31.6396 142.967 31.6191 142.728 31.585C142.488 31.5508 142.249 31.5029 142.023 31.4346C141.798 31.373 141.579 31.291 141.381 31.1885C141.183 31.0928 141.005 30.9766 140.854 30.8467V27.8594C140.937 27.7773 141.06 27.6885 141.217 27.5928C141.374 27.5039 141.565 27.415 141.791 27.333C142.01 27.2578 142.256 27.1895 142.529 27.1348C142.803 27.0801 143.097 27.0527 143.404 27.0527C143.76 27.0527 144.102 27.0938 144.423 27.1826C144.744 27.2715 145.031 27.4014 145.277 27.5859C145.523 27.7705 145.722 28.0098 145.872 28.29C146.016 28.5703 146.091 28.9121 146.091 29.3018C146.091 29.6914 146.016 30.0332 145.872 30.3271C145.729 30.6211 145.53 30.8604 145.284 31.0518C145.038 31.25 144.758 31.3936 144.437 31.4893C144.115 31.5918 143.78 31.6396 143.432 31.6396ZM149.823 25.5488V33H151.655V28.2422C151.785 28.0986 151.956 27.9551 152.168 27.8115C152.38 27.6748 152.626 27.5518 152.913 27.4492C153.2 27.3467 153.528 27.2715 153.891 27.21C154.253 27.1553 154.656 27.1348 155.101 27.1484C155.135 27.1484 155.176 27.1484 155.237 27.1553L155.408 27.1689C155.463 27.1758 155.511 27.1758 155.559 27.1826C155.606 27.1895 155.634 27.1895 155.647 27.1895L155.675 25.4258L155.552 25.4121C155.032 25.3916 154.567 25.4189 154.15 25.4941C153.733 25.5693 153.364 25.6787 153.043 25.8086C152.722 25.9453 152.441 26.1025 152.216 26.2803C151.983 26.458 151.799 26.6426 151.655 26.8271V25.5488H149.823ZM158.717 29.9307H165.895V29.5C165.895 28.9463 165.833 28.4541 165.717 28.0371C165.601 27.6201 165.437 27.2578 165.225 26.9502C165.013 26.6426 164.767 26.3896 164.486 26.1914C164.206 25.9932 163.898 25.8359 163.57 25.7197C163.242 25.6035 162.9 25.5146 162.545 25.4668C162.183 25.4189 161.827 25.3984 161.472 25.3984C161.116 25.3984 160.754 25.4258 160.392 25.4805C160.022 25.542 159.667 25.6309 159.332 25.7607C158.99 25.8906 158.669 26.0547 158.375 26.2529C158.074 26.458 157.814 26.7041 157.596 26.9912C157.37 27.2783 157.199 27.6133 157.069 27.9893C156.939 28.3721 156.878 28.8027 156.878 29.2881C156.878 29.9785 157.001 30.5664 157.254 31.0518C157.507 31.5371 157.842 31.9404 158.266 32.248C158.689 32.5625 159.175 32.7949 159.729 32.9385C160.282 33.082 160.856 33.1572 161.458 33.1572C162.025 33.1572 162.531 33.1162 162.982 33.0342C163.427 32.9521 163.823 32.8291 164.172 32.6719C164.521 32.5146 164.814 32.3232 165.067 32.0908C165.32 31.8652 165.532 31.5986 165.703 31.3047L164.062 30.6211C163.823 31.0244 163.495 31.3047 163.078 31.4756C162.661 31.6465 162.142 31.7285 161.526 31.7285C161.191 31.7285 160.877 31.6943 160.569 31.626C160.262 31.5576 159.981 31.4482 159.735 31.3047C159.482 31.1611 159.271 30.9697 159.093 30.7441C158.915 30.5186 158.792 30.252 158.717 29.9307ZM161.472 26.8682C161.841 26.8682 162.176 26.9023 162.483 26.9639C162.784 27.0254 163.051 27.1279 163.276 27.2646C163.502 27.4014 163.68 27.5791 163.823 27.7979C163.967 28.0166 164.056 28.2832 164.09 28.5908H158.73C158.819 28.2627 158.963 27.9893 159.161 27.7637C159.359 27.5449 159.592 27.3672 159.852 27.2373C160.104 27.1074 160.378 27.0117 160.665 26.9502C160.945 26.8955 161.219 26.8682 161.472 26.8682ZM171.514 33.1572C172.901 33.1572 173.954 32.9727 174.658 32.5967C175.362 32.2275 175.711 31.6465 175.711 30.8467C175.711 30.416 175.615 30.0674 175.417 29.7939C175.219 29.5273 174.945 29.3086 174.604 29.1377C174.262 28.9736 173.865 28.8506 173.414 28.7617C172.956 28.6729 172.478 28.6045 171.972 28.5498C171.562 28.502 171.192 28.4541 170.864 28.4131C170.529 28.3789 170.249 28.3242 170.017 28.2627C169.784 28.2012 169.606 28.126 169.483 28.0234C169.36 27.9277 169.299 27.7979 169.299 27.627C169.299 27.5039 169.333 27.3945 169.408 27.2988C169.477 27.2031 169.593 27.1211 169.764 27.0527C169.928 26.9912 170.146 26.9365 170.42 26.9023C170.687 26.8682 171.028 26.8545 171.432 26.8545C171.787 26.8545 172.115 26.875 172.416 26.9229C172.71 26.9707 172.983 27.0391 173.229 27.1211C173.469 27.2031 173.688 27.2988 173.879 27.4014C174.063 27.5107 174.228 27.6201 174.357 27.7363L175.485 26.6973C175.321 26.5264 175.116 26.3555 174.877 26.1982C174.631 26.041 174.337 25.9043 173.995 25.7881C173.653 25.6719 173.257 25.5762 172.806 25.501C172.354 25.4326 171.842 25.3984 171.261 25.3984C170.721 25.3984 170.222 25.4463 169.764 25.5352C169.306 25.6309 168.916 25.7744 168.588 25.959C168.253 26.1504 167.993 26.3896 167.809 26.6699C167.624 26.957 167.528 27.292 167.521 27.6816C167.521 28.1123 167.624 28.4609 167.836 28.7275C168.048 28.9941 168.321 29.2129 168.67 29.377C169.019 29.541 169.415 29.6641 169.866 29.7529C170.317 29.8418 170.782 29.9102 171.261 29.9648C171.705 30.0127 172.102 30.0605 172.437 30.0947C172.771 30.1357 173.045 30.1836 173.271 30.2451C173.489 30.3066 173.653 30.3887 173.77 30.4844C173.879 30.5869 173.934 30.7168 173.934 30.8877C173.934 31.0312 173.893 31.1611 173.804 31.2705C173.715 31.3799 173.571 31.4688 173.38 31.5439C173.188 31.6191 172.942 31.667 172.635 31.7012C172.327 31.7354 171.951 31.7559 171.514 31.7559C171.097 31.7559 170.714 31.7285 170.372 31.667C170.03 31.6123 169.729 31.5371 169.47 31.4346C169.203 31.3389 168.978 31.2295 168.793 31.0996C168.602 30.9697 168.451 30.833 168.335 30.6895L167.104 31.585C167.248 31.8037 167.439 32.0088 167.679 32.1934C167.918 32.3848 168.219 32.5488 168.581 32.6924C168.943 32.8359 169.367 32.9521 169.853 33.0342C170.338 33.1162 170.892 33.1572 171.514 33.1572ZM181.193 33.1572C182.581 33.1572 183.634 32.9727 184.338 32.5967C185.042 32.2275 185.391 31.6465 185.391 30.8467C185.391 30.416 185.295 30.0674 185.097 29.7939C184.898 29.5273 184.625 29.3086 184.283 29.1377C183.941 28.9736 183.545 28.8506 183.094 28.7617C182.636 28.6729 182.157 28.6045 181.651 28.5498C181.241 28.502 180.872 28.4541 180.544 28.4131C180.209 28.3789 179.929 28.3242 179.696 28.2627C179.464 28.2012 179.286 28.126 179.163 28.0234C179.04 27.9277 178.979 27.7979 178.979 27.627C178.979 27.5039 179.013 27.3945 179.088 27.2988C179.156 27.2031 179.272 27.1211 179.443 27.0527C179.607 26.9912 179.826 26.9365 180.1 26.9023C180.366 26.8682 180.708 26.8545 181.111 26.8545C181.467 26.8545 181.795 26.875 182.096 26.9229C182.39 26.9707 182.663 27.0391 182.909 27.1211C183.148 27.2031 183.367 27.2988 183.559 27.4014C183.743 27.5107 183.907 27.6201 184.037 27.7363L185.165 26.6973C185.001 26.5264 184.796 26.3555 184.557 26.1982C184.311 26.041 184.017 25.9043 183.675 25.7881C183.333 25.6719 182.937 25.5762 182.485 25.501C182.034 25.4326 181.521 25.3984 180.94 25.3984C180.4 25.3984 179.901 25.4463 179.443 25.5352C178.985 25.6309 178.596 25.7744 178.268 25.959C177.933 26.1504 177.673 26.3896 177.488 26.6699C177.304 26.957 177.208 27.292 177.201 27.6816C177.201 28.1123 177.304 28.4609 177.516 28.7275C177.728 28.9941 178.001 29.2129 178.35 29.377C178.698 29.541 179.095 29.6641 179.546 29.7529C179.997 29.8418 180.462 29.9102 180.94 29.9648C181.385 30.0127 181.781 30.0605 182.116 30.0947C182.451 30.1357 182.725 30.1836 182.95 30.2451C183.169 30.3066 183.333 30.3887 183.449 30.4844C183.559 30.5869 183.613 30.7168 183.613 30.8877C183.613 31.0312 183.572 31.1611 183.483 31.2705C183.395 31.3799 183.251 31.4688 183.06 31.5439C182.868 31.6191 182.622 31.667 182.314 31.7012C182.007 31.7354 181.631 31.7559 181.193 31.7559C180.776 31.7559 180.394 31.7285 180.052 31.667C179.71 31.6123 179.409 31.5371 179.149 31.4346C178.883 31.3389 178.657 31.2295 178.473 31.0996C178.281 30.9697 178.131 30.833 178.015 30.6895L176.784 31.585C176.928 31.8037 177.119 32.0088 177.358 32.1934C177.598 32.3848 177.898 32.5488 178.261 32.6924C178.623 32.8359 179.047 32.9521 179.532 33.0342C180.018 33.1162 180.571 33.1572 181.193 33.1572ZM187.161 25.5488V33H188.993V25.5488H187.161ZM187.134 22.835V24.4482H189.027V22.835H187.134ZM195.617 33.1572C195.993 33.1572 196.369 33.1299 196.745 33.0684C197.121 33.0068 197.477 32.9111 197.825 32.7812C198.174 32.6514 198.495 32.4873 198.803 32.2822C199.104 32.084 199.363 31.8379 199.589 31.5508C199.814 31.2637 199.985 30.9287 200.115 30.5527C200.245 30.1768 200.307 29.7598 200.307 29.2881C200.307 28.8096 200.245 28.3789 200.115 28.0029C199.985 27.627 199.814 27.292 199.589 27.0049C199.363 26.7178 199.104 26.4717 198.803 26.2666C198.502 26.0615 198.181 25.8975 197.832 25.7676C197.483 25.6377 197.121 25.5488 196.745 25.4873C196.369 25.4258 195.993 25.3984 195.617 25.3984C195.241 25.3984 194.865 25.4258 194.489 25.4873C194.113 25.5488 193.751 25.6377 193.402 25.7676C193.054 25.8975 192.732 26.0615 192.432 26.2666C192.131 26.4717 191.871 26.7178 191.652 27.0049C191.427 27.292 191.256 27.627 191.126 28.0029C190.996 28.3789 190.935 28.8096 190.935 29.2881C190.935 29.7598 190.996 30.1836 191.126 30.5596C191.256 30.9355 191.427 31.2637 191.652 31.5508C191.871 31.8379 192.131 32.084 192.438 32.2822C192.739 32.4873 193.061 32.6514 193.409 32.7812C193.758 32.9111 194.12 33.0068 194.496 33.0684C194.872 33.1299 195.241 33.1572 195.617 33.1572ZM195.617 31.6396C195.2 31.6396 194.817 31.585 194.469 31.4688C194.12 31.3525 193.819 31.1953 193.573 30.9834C193.32 30.7783 193.129 30.5322 192.992 30.2451C192.855 29.958 192.787 29.6436 192.787 29.3018C192.787 28.9326 192.855 28.6045 192.999 28.3105C193.136 28.0234 193.327 27.7773 193.58 27.5723C193.826 27.374 194.12 27.2168 194.469 27.1074C194.817 27.0049 195.2 26.9502 195.617 26.9502C196.034 26.9502 196.417 27.0049 196.766 27.1143C197.114 27.2305 197.408 27.3877 197.661 27.5928C197.907 27.7979 198.099 28.0439 198.235 28.3311C198.372 28.625 198.44 28.9463 198.44 29.3018C198.44 29.6641 198.372 29.9854 198.235 30.2725C198.099 30.5664 197.907 30.8125 197.661 31.0107C197.415 31.209 197.121 31.3662 196.772 31.4756C196.424 31.585 196.041 31.6396 195.617 31.6396ZM202.173 25.5488V33H204.005V27.8867C204.142 27.7773 204.312 27.6748 204.524 27.5723C204.729 27.4697 204.955 27.3809 205.208 27.3057C205.461 27.2305 205.721 27.1758 206.001 27.1279C206.281 27.0869 206.555 27.0664 206.835 27.0664C207.484 27.0664 207.97 27.1621 208.284 27.3604C208.592 27.5586 208.749 27.8525 208.749 28.2422V33H210.602V27.873C210.602 27.3877 210.526 26.9912 210.376 26.6699C210.226 26.3486 210.021 26.0957 209.754 25.9043C209.487 25.7197 209.166 25.583 208.804 25.5078C208.441 25.4326 208.045 25.3984 207.621 25.3984C207.204 25.3984 206.801 25.4326 206.418 25.5078C206.028 25.583 205.68 25.6719 205.365 25.7812C205.044 25.8906 204.771 26.0068 204.531 26.1299C204.292 26.2529 204.121 26.3623 204.005 26.4648V25.5488H202.173Z" fill="black"/>
<path d="M91.0352 176.137C91.4385 176.137 91.8076 176.109 92.1494 176.048C92.4844 175.986 92.792 175.911 93.0654 175.815C93.332 175.72 93.5713 175.61 93.7764 175.487C93.9814 175.371 94.1523 175.248 94.2822 175.118C94.2959 175.48 94.3506 175.774 94.4463 176H96.3398C96.251 175.768 96.1895 175.501 96.1689 175.207C96.1416 174.913 96.1279 174.599 96.1279 174.277V165.637H94.2822V169.226C93.9678 168.979 93.5576 168.781 93.0449 168.624C92.5322 168.474 91.958 168.398 91.3291 168.398C90.8027 168.398 90.29 168.487 89.791 168.665C89.292 168.843 88.8545 169.096 88.4717 169.424C88.082 169.759 87.7744 170.162 87.542 170.634C87.3096 171.112 87.1934 171.652 87.1934 172.247C87.1934 172.89 87.3027 173.457 87.5283 173.942C87.7471 174.428 88.041 174.838 88.4033 175.159C88.7656 175.48 89.1758 175.727 89.6338 175.891C90.0918 176.055 90.5566 176.137 91.0352 176.137ZM91.7324 174.626C91.377 174.626 91.042 174.585 90.7207 174.496C90.3994 174.407 90.1123 174.271 89.8662 174.086C89.6201 173.901 89.4219 173.669 89.2783 173.389C89.1348 173.108 89.0596 172.767 89.0596 172.377C89.0596 171.987 89.1348 171.646 89.2783 171.352C89.4219 171.058 89.6201 170.818 89.8662 170.62C90.1123 170.429 90.3926 170.285 90.7139 170.183C91.0352 170.087 91.3633 170.039 91.7051 170.039C91.9375 170.039 92.1768 170.053 92.416 170.087C92.6553 170.121 92.8877 170.169 93.1133 170.23C93.3389 170.299 93.5576 170.381 93.7559 170.477C93.9541 170.579 94.1318 170.688 94.2822 170.818V173.819C94.207 173.901 94.0908 173.99 93.9336 174.079C93.7764 174.175 93.585 174.264 93.3594 174.339C93.1338 174.421 92.8877 174.489 92.6143 174.544C92.334 174.599 92.04 174.626 91.7324 174.626ZM100.797 176.137C101.166 176.137 101.542 176.109 101.925 176.055C102.301 176.007 102.663 175.932 103.005 175.836C103.347 175.74 103.661 175.624 103.941 175.494C104.222 175.364 104.454 175.221 104.632 175.063C104.639 175.262 104.659 175.439 104.693 175.597C104.728 175.761 104.762 175.897 104.803 176H106.635C106.601 175.904 106.566 175.802 106.546 175.692C106.525 175.583 106.505 175.46 106.484 175.316C106.464 175.18 106.457 175.022 106.45 174.852C106.443 174.681 106.437 174.476 106.437 174.25V171.242C106.437 170.771 106.368 170.36 106.225 170.005C106.081 169.649 105.862 169.355 105.562 169.116C105.261 168.877 104.878 168.699 104.406 168.576C103.935 168.46 103.374 168.398 102.718 168.398C102.15 168.398 101.631 168.433 101.159 168.501C100.688 168.576 100.271 168.665 99.9014 168.774C99.5322 168.891 99.2178 169.014 98.9512 169.15C98.6846 169.294 98.4658 169.431 98.2949 169.561L99.1768 170.791C99.334 170.688 99.5322 170.579 99.7715 170.477C100.011 170.374 100.277 170.285 100.571 170.203C100.865 170.121 101.173 170.053 101.494 169.998C101.815 169.95 102.144 169.923 102.465 169.923C102.861 169.923 103.196 169.943 103.47 169.991C103.743 170.039 103.969 170.107 104.14 170.196C104.311 170.285 104.44 170.395 104.516 170.518C104.591 170.641 104.632 170.777 104.632 170.935V171.099C104.037 171.133 103.47 171.174 102.916 171.222C102.362 171.27 101.836 171.338 101.351 171.427C100.865 171.516 100.414 171.632 100.011 171.762C99.6074 171.898 99.2588 172.062 98.9648 172.261C98.6709 172.459 98.4453 172.698 98.2881 172.965C98.124 173.238 98.042 173.553 98.042 173.915C98.042 174.312 98.1172 174.646 98.2607 174.927C98.4043 175.207 98.6025 175.439 98.8555 175.617C99.1016 175.795 99.3955 175.925 99.7305 176.007C100.065 176.096 100.421 176.137 100.797 176.137ZM101.453 174.681C100.906 174.681 100.503 174.605 100.243 174.462C99.9766 174.318 99.8467 174.106 99.8467 173.833C99.8467 173.594 99.9629 173.396 100.202 173.238C100.441 173.081 100.77 172.944 101.193 172.835C101.617 172.732 102.123 172.644 102.711 172.582C103.292 172.521 103.935 172.466 104.632 172.418V173.901C104.522 173.983 104.352 174.072 104.126 174.161C103.894 174.257 103.627 174.339 103.333 174.414C103.039 174.489 102.725 174.558 102.396 174.605C102.068 174.653 101.754 174.681 101.453 174.681ZM108.617 168.549V176H110.449V170.887C110.586 170.777 110.757 170.675 110.969 170.572C111.174 170.47 111.399 170.381 111.652 170.306C111.905 170.23 112.165 170.176 112.445 170.128C112.726 170.087 112.999 170.066 113.279 170.066C113.929 170.066 114.414 170.162 114.729 170.36C115.036 170.559 115.193 170.853 115.193 171.242V176H117.046V170.873C117.046 170.388 116.971 169.991 116.82 169.67C116.67 169.349 116.465 169.096 116.198 168.904C115.932 168.72 115.61 168.583 115.248 168.508C114.886 168.433 114.489 168.398 114.065 168.398C113.648 168.398 113.245 168.433 112.862 168.508C112.473 168.583 112.124 168.672 111.81 168.781C111.488 168.891 111.215 169.007 110.976 169.13C110.736 169.253 110.565 169.362 110.449 169.465V168.549H108.617ZM122.993 176.157C124.381 176.157 125.434 175.973 126.138 175.597C126.842 175.228 127.19 174.646 127.19 173.847C127.19 173.416 127.095 173.067 126.896 172.794C126.698 172.527 126.425 172.309 126.083 172.138C125.741 171.974 125.345 171.851 124.894 171.762C124.436 171.673 123.957 171.604 123.451 171.55C123.041 171.502 122.672 171.454 122.344 171.413C122.009 171.379 121.729 171.324 121.496 171.263C121.264 171.201 121.086 171.126 120.963 171.023C120.84 170.928 120.778 170.798 120.778 170.627C120.778 170.504 120.812 170.395 120.888 170.299C120.956 170.203 121.072 170.121 121.243 170.053C121.407 169.991 121.626 169.937 121.899 169.902C122.166 169.868 122.508 169.854 122.911 169.854C123.267 169.854 123.595 169.875 123.896 169.923C124.189 169.971 124.463 170.039 124.709 170.121C124.948 170.203 125.167 170.299 125.358 170.401C125.543 170.511 125.707 170.62 125.837 170.736L126.965 169.697C126.801 169.526 126.596 169.355 126.356 169.198C126.11 169.041 125.816 168.904 125.475 168.788C125.133 168.672 124.736 168.576 124.285 168.501C123.834 168.433 123.321 168.398 122.74 168.398C122.2 168.398 121.701 168.446 121.243 168.535C120.785 168.631 120.396 168.774 120.067 168.959C119.732 169.15 119.473 169.39 119.288 169.67C119.104 169.957 119.008 170.292 119.001 170.682C119.001 171.112 119.104 171.461 119.315 171.728C119.527 171.994 119.801 172.213 120.149 172.377C120.498 172.541 120.895 172.664 121.346 172.753C121.797 172.842 122.262 172.91 122.74 172.965C123.185 173.013 123.581 173.061 123.916 173.095C124.251 173.136 124.524 173.184 124.75 173.245C124.969 173.307 125.133 173.389 125.249 173.484C125.358 173.587 125.413 173.717 125.413 173.888C125.413 174.031 125.372 174.161 125.283 174.271C125.194 174.38 125.051 174.469 124.859 174.544C124.668 174.619 124.422 174.667 124.114 174.701C123.807 174.735 123.431 174.756 122.993 174.756C122.576 174.756 122.193 174.729 121.852 174.667C121.51 174.612 121.209 174.537 120.949 174.435C120.683 174.339 120.457 174.229 120.272 174.1C120.081 173.97 119.931 173.833 119.814 173.689L118.584 174.585C118.728 174.804 118.919 175.009 119.158 175.193C119.397 175.385 119.698 175.549 120.061 175.692C120.423 175.836 120.847 175.952 121.332 176.034C121.817 176.116 122.371 176.157 122.993 176.157ZM132.516 165.637V176H134.348V165.637H132.516ZM139.092 176.137C139.461 176.137 139.837 176.109 140.22 176.055C140.596 176.007 140.958 175.932 141.3 175.836C141.642 175.74 141.956 175.624 142.236 175.494C142.517 175.364 142.749 175.221 142.927 175.063C142.934 175.262 142.954 175.439 142.988 175.597C143.022 175.761 143.057 175.897 143.098 176H144.93C144.896 175.904 144.861 175.802 144.841 175.692C144.82 175.583 144.8 175.46 144.779 175.316C144.759 175.18 144.752 175.022 144.745 174.852C144.738 174.681 144.731 174.476 144.731 174.25V171.242C144.731 170.771 144.663 170.36 144.52 170.005C144.376 169.649 144.157 169.355 143.856 169.116C143.556 168.877 143.173 168.699 142.701 168.576C142.229 168.46 141.669 168.398 141.013 168.398C140.445 168.398 139.926 168.433 139.454 168.501C138.982 168.576 138.565 168.665 138.196 168.774C137.827 168.891 137.513 169.014 137.246 169.15C136.979 169.294 136.761 169.431 136.59 169.561L137.472 170.791C137.629 170.688 137.827 170.579 138.066 170.477C138.306 170.374 138.572 170.285 138.866 170.203C139.16 170.121 139.468 170.053 139.789 169.998C140.11 169.95 140.438 169.923 140.76 169.923C141.156 169.923 141.491 169.943 141.765 169.991C142.038 170.039 142.264 170.107 142.435 170.196C142.605 170.285 142.735 170.395 142.811 170.518C142.886 170.641 142.927 170.777 142.927 170.935V171.099C142.332 171.133 141.765 171.174 141.211 171.222C140.657 171.27 140.131 171.338 139.646 171.427C139.16 171.516 138.709 171.632 138.306 171.762C137.902 171.898 137.554 172.062 137.26 172.261C136.966 172.459 136.74 172.698 136.583 172.965C136.419 173.238 136.337 173.553 136.337 173.915C136.337 174.312 136.412 174.646 136.556 174.927C136.699 175.207 136.897 175.439 137.15 175.617C137.396 175.795 137.69 175.925 138.025 176.007C138.36 176.096 138.716 176.137 139.092 176.137ZM139.748 174.681C139.201 174.681 138.798 174.605 138.538 174.462C138.271 174.318 138.142 174.106 138.142 173.833C138.142 173.594 138.258 173.396 138.497 173.238C138.736 173.081 139.064 172.944 139.488 172.835C139.912 172.732 140.418 172.644 141.006 172.582C141.587 172.521 142.229 172.466 142.927 172.418V173.901C142.817 173.983 142.646 174.072 142.421 174.161C142.188 174.257 141.922 174.339 141.628 174.414C141.334 174.489 141.02 174.558 140.691 174.605C140.363 174.653 140.049 174.681 139.748 174.681ZM150.467 168.549V178.803H152.299V175.303C152.62 175.556 153.051 175.754 153.577 175.904C154.104 176.062 154.726 176.137 155.45 176.137C155.771 176.137 156.093 176.103 156.414 176.027C156.735 175.959 157.036 175.85 157.33 175.706C157.624 175.562 157.897 175.385 158.15 175.173C158.403 174.961 158.622 174.708 158.807 174.421C158.991 174.134 159.135 173.812 159.244 173.45C159.347 173.095 159.401 172.705 159.401 172.274C159.401 171.604 159.292 171.023 159.073 170.538C158.848 170.053 158.561 169.649 158.198 169.335C157.836 169.021 157.419 168.788 156.961 168.638C156.496 168.487 156.024 168.412 155.546 168.412C155.149 168.412 154.78 168.439 154.445 168.494C154.11 168.556 153.803 168.631 153.529 168.727C153.256 168.822 153.017 168.932 152.812 169.048C152.606 169.171 152.436 169.294 152.299 169.417V168.549H150.467ZM154.876 174.64C154.644 174.64 154.411 174.619 154.172 174.585C153.933 174.551 153.693 174.503 153.468 174.435C153.242 174.373 153.023 174.291 152.825 174.188C152.627 174.093 152.449 173.977 152.299 173.847V170.859C152.381 170.777 152.504 170.688 152.661 170.593C152.818 170.504 153.01 170.415 153.235 170.333C153.454 170.258 153.7 170.189 153.974 170.135C154.247 170.08 154.541 170.053 154.849 170.053C155.204 170.053 155.546 170.094 155.867 170.183C156.188 170.271 156.476 170.401 156.722 170.586C156.968 170.771 157.166 171.01 157.316 171.29C157.46 171.57 157.535 171.912 157.535 172.302C157.535 172.691 157.46 173.033 157.316 173.327C157.173 173.621 156.975 173.86 156.729 174.052C156.482 174.25 156.202 174.394 155.881 174.489C155.56 174.592 155.225 174.64 154.876 174.64ZM161.268 165.637V176H163.1V170.887C163.236 170.777 163.407 170.675 163.619 170.572C163.824 170.47 164.05 170.381 164.303 170.306C164.556 170.23 164.815 170.176 165.096 170.128C165.376 170.087 165.649 170.066 165.93 170.066C166.579 170.066 167.064 170.162 167.379 170.36C167.687 170.559 167.844 170.853 167.844 171.242V176H169.696V170.873C169.696 170.388 169.621 169.991 169.471 169.67C169.32 169.349 169.115 169.096 168.849 168.904C168.582 168.72 168.261 168.583 167.898 168.508C167.536 168.433 167.14 168.398 166.716 168.398C166.299 168.398 165.896 168.433 165.513 168.508C165.123 168.583 164.774 168.672 164.46 168.781C164.139 168.891 163.865 169.007 163.626 169.123C163.387 169.246 163.216 169.355 163.1 169.451V165.637H161.268ZM171.863 168.549V176H173.695V171.242C173.825 171.099 173.996 170.955 174.208 170.812C174.42 170.675 174.666 170.552 174.953 170.449C175.24 170.347 175.568 170.271 175.931 170.21C176.293 170.155 176.696 170.135 177.141 170.148C177.175 170.148 177.216 170.148 177.277 170.155L177.448 170.169C177.503 170.176 177.551 170.176 177.599 170.183C177.646 170.189 177.674 170.189 177.688 170.189L177.715 168.426L177.592 168.412C177.072 168.392 176.607 168.419 176.19 168.494C175.773 168.569 175.404 168.679 175.083 168.809C174.762 168.945 174.481 169.103 174.256 169.28C174.023 169.458 173.839 169.643 173.695 169.827V168.549H171.863ZM181.721 176.137C182.09 176.137 182.466 176.109 182.849 176.055C183.225 176.007 183.587 175.932 183.929 175.836C184.271 175.74 184.585 175.624 184.865 175.494C185.146 175.364 185.378 175.221 185.556 175.063C185.562 175.262 185.583 175.439 185.617 175.597C185.651 175.761 185.686 175.897 185.727 176H187.559C187.524 175.904 187.49 175.802 187.47 175.692C187.449 175.583 187.429 175.46 187.408 175.316C187.388 175.18 187.381 175.022 187.374 174.852C187.367 174.681 187.36 174.476 187.36 174.25V171.242C187.36 170.771 187.292 170.36 187.148 170.005C187.005 169.649 186.786 169.355 186.485 169.116C186.185 168.877 185.802 168.699 185.33 168.576C184.858 168.46 184.298 168.398 183.642 168.398C183.074 168.398 182.555 168.433 182.083 168.501C181.611 168.576 181.194 168.665 180.825 168.774C180.456 168.891 180.142 169.014 179.875 169.15C179.608 169.294 179.39 169.431 179.219 169.561L180.101 170.791C180.258 170.688 180.456 170.579 180.695 170.477C180.935 170.374 181.201 170.285 181.495 170.203C181.789 170.121 182.097 170.053 182.418 169.998C182.739 169.95 183.067 169.923 183.389 169.923C183.785 169.923 184.12 169.943 184.394 169.991C184.667 170.039 184.893 170.107 185.063 170.196C185.234 170.285 185.364 170.395 185.439 170.518C185.515 170.641 185.556 170.777 185.556 170.935V171.099C184.961 171.133 184.394 171.174 183.84 171.222C183.286 171.27 182.76 171.338 182.274 171.427C181.789 171.516 181.338 171.632 180.935 171.762C180.531 171.898 180.183 172.062 179.889 172.261C179.595 172.459 179.369 172.698 179.212 172.965C179.048 173.238 178.966 173.553 178.966 173.915C178.966 174.312 179.041 174.646 179.185 174.927C179.328 175.207 179.526 175.439 179.779 175.617C180.025 175.795 180.319 175.925 180.654 176.007C180.989 176.096 181.345 176.137 181.721 176.137ZM182.377 174.681C181.83 174.681 181.427 174.605 181.167 174.462C180.9 174.318 180.771 174.106 180.771 173.833C180.771 173.594 180.887 173.396 181.126 173.238C181.365 173.081 181.693 172.944 182.117 172.835C182.541 172.732 183.047 172.644 183.635 172.582C184.216 172.521 184.858 172.466 185.556 172.418V173.901C185.446 173.983 185.275 174.072 185.05 174.161C184.817 174.257 184.551 174.339 184.257 174.414C183.963 174.489 183.648 174.558 183.32 174.605C182.992 174.653 182.678 174.681 182.377 174.681ZM193.321 176.157C194.709 176.157 195.762 175.973 196.466 175.597C197.17 175.228 197.519 174.646 197.519 173.847C197.519 173.416 197.423 173.067 197.225 172.794C197.026 172.527 196.753 172.309 196.411 172.138C196.069 171.974 195.673 171.851 195.222 171.762C194.764 171.673 194.285 171.604 193.779 171.55C193.369 171.502 193 171.454 192.672 171.413C192.337 171.379 192.057 171.324 191.824 171.263C191.592 171.201 191.414 171.126 191.291 171.023C191.168 170.928 191.106 170.798 191.106 170.627C191.106 170.504 191.141 170.395 191.216 170.299C191.284 170.203 191.4 170.121 191.571 170.053C191.735 169.991 191.954 169.937 192.228 169.902C192.494 169.868 192.836 169.854 193.239 169.854C193.595 169.854 193.923 169.875 194.224 169.923C194.518 169.971 194.791 170.039 195.037 170.121C195.276 170.203 195.495 170.299 195.687 170.401C195.871 170.511 196.035 170.62 196.165 170.736L197.293 169.697C197.129 169.526 196.924 169.355 196.685 169.198C196.438 169.041 196.145 168.904 195.803 168.788C195.461 168.672 195.064 168.576 194.613 168.501C194.162 168.433 193.649 168.398 193.068 168.398C192.528 168.398 192.029 168.446 191.571 168.535C191.113 168.631 190.724 168.774 190.396 168.959C190.061 169.15 189.801 169.39 189.616 169.67C189.432 169.957 189.336 170.292 189.329 170.682C189.329 171.112 189.432 171.461 189.644 171.728C189.855 171.994 190.129 172.213 190.478 172.377C190.826 172.541 191.223 172.664 191.674 172.753C192.125 172.842 192.59 172.91 193.068 172.965C193.513 173.013 193.909 173.061 194.244 173.095C194.579 173.136 194.853 173.184 195.078 173.245C195.297 173.307 195.461 173.389 195.577 173.484C195.687 173.587 195.741 173.717 195.741 173.888C195.741 174.031 195.7 174.161 195.611 174.271C195.522 174.38 195.379 174.469 195.188 174.544C194.996 174.619 194.75 174.667 194.442 174.701C194.135 174.735 193.759 174.756 193.321 174.756C192.904 174.756 192.521 174.729 192.18 174.667C191.838 174.612 191.537 174.537 191.277 174.435C191.011 174.339 190.785 174.229 190.601 174.1C190.409 173.97 190.259 173.833 190.143 173.689L188.912 174.585C189.056 174.804 189.247 175.009 189.486 175.193C189.726 175.385 190.026 175.549 190.389 175.692C190.751 175.836 191.175 175.952 191.66 176.034C192.146 176.116 192.699 176.157 193.321 176.157ZM200.649 172.931H207.827V172.5C207.827 171.946 207.766 171.454 207.649 171.037C207.533 170.62 207.369 170.258 207.157 169.95C206.945 169.643 206.699 169.39 206.419 169.191C206.139 168.993 205.831 168.836 205.503 168.72C205.175 168.604 204.833 168.515 204.478 168.467C204.115 168.419 203.76 168.398 203.404 168.398C203.049 168.398 202.687 168.426 202.324 168.48C201.955 168.542 201.6 168.631 201.265 168.761C200.923 168.891 200.602 169.055 200.308 169.253C200.007 169.458 199.747 169.704 199.528 169.991C199.303 170.278 199.132 170.613 199.002 170.989C198.872 171.372 198.811 171.803 198.811 172.288C198.811 172.979 198.934 173.566 199.187 174.052C199.439 174.537 199.774 174.94 200.198 175.248C200.622 175.562 201.107 175.795 201.661 175.938C202.215 176.082 202.789 176.157 203.391 176.157C203.958 176.157 204.464 176.116 204.915 176.034C205.359 175.952 205.756 175.829 206.104 175.672C206.453 175.515 206.747 175.323 207 175.091C207.253 174.865 207.465 174.599 207.636 174.305L205.995 173.621C205.756 174.024 205.428 174.305 205.011 174.476C204.594 174.646 204.074 174.729 203.459 174.729C203.124 174.729 202.81 174.694 202.502 174.626C202.194 174.558 201.914 174.448 201.668 174.305C201.415 174.161 201.203 173.97 201.025 173.744C200.848 173.519 200.725 173.252 200.649 172.931ZM203.404 169.868C203.773 169.868 204.108 169.902 204.416 169.964C204.717 170.025 204.983 170.128 205.209 170.265C205.435 170.401 205.612 170.579 205.756 170.798C205.899 171.017 205.988 171.283 206.022 171.591H200.663C200.752 171.263 200.896 170.989 201.094 170.764C201.292 170.545 201.524 170.367 201.784 170.237C202.037 170.107 202.311 170.012 202.598 169.95C202.878 169.896 203.151 169.868 203.404 169.868Z" fill="black"/>
<path d="M142.041 90.9123L147 85.9536L151.959 90.9123C152.999 91.9529 154.685 91.9529 155.725 90.9123L155.725 90.9123L157.912 88.7252C157.912 88.7252 157.912 88.7252 157.912 88.7252C158.953 87.6845 158.953 85.9993 157.912 84.9587L152.954 80L157.912 75.0413C158.953 74.0007 158.953 72.3155 157.912 71.2748C157.912 71.2748 157.912 71.2748 157.912 71.2748L155.725 69.0877L155.725 69.0877C154.685 68.0471 152.999 68.0471 151.959 69.0877L147 74.0464L142.041 69.0877C142.041 69.0877 142.041 69.0877 142.041 69.0877C141.001 68.0471 139.315 68.0471 138.275 69.0877L138.275 69.0877L136.088 71.2748C136.088 71.2748 136.088 71.2748 136.088 71.2748C135.047 72.3155 135.047 74.0007 136.088 75.0413C136.088 75.0413 136.088 75.0413 136.088 75.0413L141.046 80L136.088 84.9587C136.088 84.9587 136.088 84.9587 136.088 84.9587C135.047 85.9993 135.047 87.6845 136.088 88.7252C136.088 88.7252 136.088 88.7252 136.088 88.7252L138.275 90.9123L138.275 90.9123C139.315 91.9529 141.001 91.9529 142.041 90.9123Z" fill="#E17774" stroke="black" stroke-width="3"/>
<path d="M147 54.5C132.914 54.5 121.5 65.9135 121.5 80C121.5 94.0865 132.914 105.5 147 105.5C161.086 105.5 172.5 94.0865 172.5 80C172.5 65.9135 161.086 54.5 147 54.5ZM147 97.8548C137.135 97.8548 129.145 89.8651 129.145 80C129.145 70.1349 137.135 62.1452 147 62.1452C156.865 62.1452 164.855 70.1349 164.855 80C164.855 89.8651 156.865 97.8548 147 97.8548Z" fill="#5AAA67" stroke="black" stroke-width="3"/>
</svg>
