<svg width="256" height="200" viewBox="0 0 256 200" fill="none" xmlns="http://www.w3.org/2000/svg">
<path d="M0 16.6667C0 7.46192 8.18679 0 18.2857 0H237.714C247.813 0 256 7.46192 256 16.6667V183.333C256 192.538 247.813 200 237.714 200H18.2857C8.1868 200 0 192.538 0 183.333V16.6667Z" fill="#E17774"/>
<path d="M21.1348 25.5488V33H22.9668V28.2422C23.0967 28.0986 23.2676 27.9551 23.4795 27.8115C23.6914 27.6748 23.9375 27.5518 24.2246 27.4492C24.5117 27.3467 24.8398 27.2715 25.2021 27.21C25.5645 27.1553 25.9678 27.1348 26.4121 27.1484C26.4463 27.1484 26.4873 27.1484 26.5488 27.1553L26.7197 27.1689C26.7744 27.1758 26.8223 27.1758 26.8701 27.1826C26.918 27.1895 26.9453 27.1895 26.959 27.1895L26.9863 25.4258L26.8633 25.4121C26.3438 25.3916 25.8789 25.4189 25.4619 25.4941C25.0449 25.5693 24.6758 25.6787 24.3545 25.8086C24.0332 25.9453 23.7529 26.1025 23.5273 26.2803C23.2949 26.458 23.1104 26.6426 22.9668 26.8271V25.5488H21.1348ZM30.0283 29.9307H37.2061V29.5C37.2061 28.9463 37.1445 28.4541 37.0283 28.0371C36.9121 27.6201 36.748 27.2578 36.5361 26.9502C36.3242 26.6426 36.0781 26.3896 35.7979 26.1914C35.5176 25.9932 35.21 25.8359 34.8818 25.7197C34.5537 25.6035 34.2119 25.5146 33.8564 25.4668C33.4941 25.4189 33.1387 25.3984 32.7832 25.3984C32.4277 25.3984 32.0654 25.4258 31.7031 25.4805C31.334 25.542 30.9785 25.6309 30.6436 25.7607C30.3018 25.8906 29.9805 26.0547 29.6865 26.2529C29.3857 26.458 29.126 26.7041 28.9072 26.9912C28.6816 27.2783 28.5107 27.6133 28.3809 27.9893C28.251 28.3721 28.1895 28.8027 28.1895 29.2881C28.1895 29.9785 28.3125 30.5664 28.5654 31.0518C28.8184 31.5371 29.1533 31.9404 29.5771 32.248C30.001 32.5625 30.4863 32.7949 31.04 32.9385C31.5938 33.082 32.168 33.1572 32.7695 33.1572C33.3369 33.1572 33.8428 33.1162 34.2939 33.0342C34.7383 32.9521 35.1348 32.8291 35.4834 32.6719C35.832 32.5146 36.126 32.3232 36.3789 32.0908C36.6318 31.8652 36.8438 31.5986 37.0146 31.3047L35.374 30.6211C35.1348 31.0244 34.8066 31.3047 34.3896 31.4756C33.9727 31.6465 33.4531 31.7285 32.8379 31.7285C32.5029 31.7285 32.1885 31.6943 31.8809 31.626C31.5732 31.5576 31.293 31.4482 31.0469 31.3047C30.7939 31.1611 30.582 30.9697 30.4043 30.7441C30.2266 30.5186 30.1035 30.252 30.0283 29.9307ZM32.7832 26.8682C33.1523 26.8682 33.4873 26.9023 33.7949 26.9639C34.0957 27.0254 34.3623 27.1279 34.5879 27.2646C34.8135 27.4014 34.9912 27.5791 35.1348 27.7979C35.2783 28.0166 35.3672 28.2832 35.4014 28.5908H30.042C30.1309 28.2627 30.2744 27.9893 30.4727 27.7637C30.6709 27.5449 30.9033 27.3672 31.1631 27.2373C31.416 27.1074 31.6895 27.0117 31.9766 26.9502C32.2568 26.8955 32.5303 26.8682 32.7832 26.8682ZM39.1133 22.6367V33H40.9453V22.6367H39.1133ZM45.6895 33.1367C46.0586 33.1367 46.4346 33.1094 46.8174 33.0547C47.1934 33.0068 47.5557 32.9316 47.8975 32.8359C48.2393 32.7402 48.5537 32.624 48.834 32.4941C49.1143 32.3643 49.3467 32.2207 49.5244 32.0635C49.5312 32.2617 49.5518 32.4395 49.5859 32.5967C49.6201 32.7607 49.6543 32.8975 49.6953 33H51.5273C51.4932 32.9043 51.459 32.8018 51.4385 32.6924C51.418 32.583 51.3975 32.46 51.377 32.3164C51.3564 32.1797 51.3496 32.0225 51.3428 31.8516C51.3359 31.6807 51.3291 31.4756 51.3291 31.25V28.2422C51.3291 27.7705 51.2607 27.3604 51.1172 27.0049C50.9736 26.6494 50.7549 26.3555 50.4541 26.1162C50.1533 25.877 49.7705 25.6992 49.2988 25.5762C48.8271 25.46 48.2666 25.3984 47.6104 25.3984C47.043 25.3984 46.5234 25.4326 46.0518 25.501C45.5801 25.5762 45.1631 25.665 44.7939 25.7744C44.4248 25.8906 44.1104 26.0137 43.8438 26.1504C43.5771 26.2939 43.3584 26.4307 43.1875 26.5605L44.0693 27.791C44.2266 27.6885 44.4248 27.5791 44.6641 27.4766C44.9033 27.374 45.1699 27.2852 45.4639 27.2031C45.7578 27.1211 46.0654 27.0527 46.3867 26.998C46.708 26.9502 47.0361 26.9229 47.3574 26.9229C47.7539 26.9229 48.0889 26.9434 48.3623 26.9912C48.6357 27.0391 48.8613 27.1074 49.0322 27.1963C49.2031 27.2852 49.333 27.3945 49.4082 27.5176C49.4834 27.6406 49.5244 27.7773 49.5244 27.9346V28.0986C48.9297 28.1328 48.3623 28.1738 47.8086 28.2217C47.2549 28.2695 46.7285 28.3379 46.2432 28.4268C45.7578 28.5156 45.3066 28.6318 44.9033 28.7617C44.5 28.8984 44.1514 29.0625 43.8574 29.2607C43.5635 29.459 43.3379 29.6982 43.1807 29.9648C43.0166 30.2383 42.9346 30.5527 42.9346 30.915C42.9346 31.3115 43.0098 31.6465 43.1533 31.9268C43.2969 32.207 43.4951 32.4395 43.748 32.6172C43.9941 32.7949 44.2881 32.9248 44.623 33.0068C44.958 33.0957 45.3135 33.1367 45.6895 33.1367ZM46.3457 31.6807C45.7988 31.6807 45.3955 31.6055 45.1357 31.4619C44.8691 31.3184 44.7393 31.1064 44.7393 30.833C44.7393 30.5938 44.8555 30.3955 45.0947 30.2383C45.334 30.0811 45.6621 29.9443 46.0859 29.835C46.5098 29.7324 47.0156 29.6436 47.6035 29.582C48.1846 29.5205 48.8271 29.4658 49.5244 29.418V30.9014C49.415 30.9834 49.2441 31.0723 49.0186 31.1611C48.7861 31.2568 48.5195 31.3389 48.2256 31.4141C47.9316 31.4893 47.6172 31.5576 47.2891 31.6055C46.9609 31.6533 46.6465 31.6807 46.3457 31.6807ZM57.6113 33.1094C57.8438 33.1094 58.083 33.1025 58.3223 33.0889C58.5615 33.0752 58.7871 33.0547 58.999 33.0342C59.2041 33.0137 59.3818 32.9932 59.5322 32.9727C59.6826 32.9521 59.7783 32.9385 59.8262 32.9316V31.4482C59.7646 31.4619 59.6621 31.4756 59.5254 31.4893C59.3887 31.5098 59.2451 31.5234 59.0879 31.5371C58.9307 31.5508 58.7734 31.5645 58.6162 31.5713C58.459 31.5781 58.3359 31.585 58.2402 31.585C58.0215 31.585 57.8301 31.5645 57.6729 31.5303C57.5088 31.4961 57.3789 31.4277 57.2764 31.3252C57.1738 31.2295 57.0918 31.0996 57.0439 30.9287C56.9961 30.7578 56.9688 30.5459 56.9688 30.2861V27.0254H59.9492V25.5488H56.9688V22.9785H55.1162V25.5488H52.8809V27.0254H55.1162V30.7305C55.1162 31.1201 55.1641 31.4688 55.2529 31.7627C55.3418 32.0566 55.4785 32.3027 55.6768 32.501C55.875 32.6992 56.1279 32.8496 56.4492 32.9521C56.7637 33.0547 57.1533 33.1094 57.6113 33.1094ZM62.1094 25.5488V33H63.9414V25.5488H62.1094ZM62.082 22.835V24.4482H63.9756V22.835H62.082ZM70.5654 33.1572C70.9414 33.1572 71.3174 33.1299 71.6934 33.0684C72.0693 33.0068 72.4248 32.9111 72.7734 32.7812C73.1221 32.6514 73.4434 32.4873 73.751 32.2822C74.0518 32.084 74.3115 31.8379 74.5371 31.5508C74.7627 31.2637 74.9336 30.9287 75.0635 30.5527C75.1934 30.1768 75.2549 29.7598 75.2549 29.2881C75.2549 28.8096 75.1934 28.3789 75.0635 28.0029C74.9336 27.627 74.7627 27.292 74.5371 27.0049C74.3115 26.7178 74.0518 26.4717 73.751 26.2666C73.4502 26.0615 73.1289 25.8975 72.7803 25.7676C72.4316 25.6377 72.0693 25.5488 71.6934 25.4873C71.3174 25.4258 70.9414 25.3984 70.5654 25.3984C70.1895 25.3984 69.8135 25.4258 69.4375 25.4873C69.0615 25.5488 68.6992 25.6377 68.3506 25.7676C68.002 25.8975 67.6807 26.0615 67.3799 26.2666C67.0791 26.4717 66.8193 26.7178 66.6006 27.0049C66.375 27.292 66.2041 27.627 66.0742 28.0029C65.9443 28.3789 65.8828 28.8096 65.8828 29.2881C65.8828 29.7598 65.9443 30.1836 66.0742 30.5596C66.2041 30.9355 66.375 31.2637 66.6006 31.5508C66.8193 31.8379 67.0791 32.084 67.3867 32.2822C67.6875 32.4873 68.0088 32.6514 68.3574 32.7812C68.7061 32.9111 69.0684 33.0068 69.4443 33.0684C69.8203 33.1299 70.1895 33.1572 70.5654 33.1572ZM70.5654 31.6396C70.1484 31.6396 69.7656 31.585 69.417 31.4688C69.0684 31.3525 68.7676 31.1953 68.5215 30.9834C68.2686 30.7783 68.0771 30.5322 67.9404 30.2451C67.8037 29.958 67.7354 29.6436 67.7354 29.3018C67.7354 28.9326 67.8037 28.6045 67.9473 28.3105C68.084 28.0234 68.2754 27.7773 68.5283 27.5723C68.7744 27.374 69.0684 27.2168 69.417 27.1074C69.7656 27.0049 70.1484 26.9502 70.5654 26.9502C70.9824 26.9502 71.3652 27.0049 71.7139 27.1143C72.0625 27.2305 72.3564 27.3877 72.6094 27.5928C72.8555 27.7979 73.0469 28.0439 73.1836 28.3311C73.3203 28.625 73.3887 28.9463 73.3887 29.3018C73.3887 29.6641 73.3203 29.9854 73.1836 30.2725C73.0469 30.5664 72.8555 30.8125 72.6094 31.0107C72.3633 31.209 72.0693 31.3662 71.7207 31.4756C71.3721 31.585 70.9893 31.6396 70.5654 31.6396ZM77.1211 25.5488V33H78.9531V27.8867C79.0898 27.7773 79.2607 27.6748 79.4727 27.5723C79.6777 27.4697 79.9033 27.3809 80.1562 27.3057C80.4092 27.2305 80.6689 27.1758 80.9492 27.1279C81.2295 27.0869 81.5029 27.0664 81.7832 27.0664C82.4326 27.0664 82.918 27.1621 83.2324 27.3604C83.54 27.5586 83.6973 27.8525 83.6973 28.2422V33H85.5498V27.873C85.5498 27.3877 85.4746 26.9912 85.3242 26.6699C85.1738 26.3486 84.9688 26.0957 84.7021 25.9043C84.4355 25.7197 84.1143 25.583 83.752 25.5078C83.3896 25.4326 82.9932 25.3984 82.5693 25.3984C82.1523 25.3984 81.749 25.4326 81.3662 25.5078C80.9766 25.583 80.6279 25.6719 80.3135 25.7812C79.9922 25.8906 79.7188 26.0068 79.4795 26.1299C79.2402 26.2529 79.0693 26.3623 78.9531 26.4648V25.5488H77.1211ZM94.7031 33.1367C95.1064 33.1367 95.4756 33.1094 95.8174 33.0479C96.1523 32.9863 96.46 32.9111 96.7334 32.8154C97 32.7197 97.2393 32.6104 97.4443 32.4873C97.6494 32.3711 97.8203 32.248 97.9502 32.1182C97.9639 32.4805 98.0186 32.7744 98.1143 33H100.008C99.9189 32.7676 99.8574 32.501 99.8369 32.207C99.8096 31.9131 99.7959 31.5986 99.7959 31.2773V22.6367H97.9502V26.2256C97.6357 25.9795 97.2256 25.7812 96.7129 25.624C96.2002 25.4736 95.626 25.3984 94.9971 25.3984C94.4707 25.3984 93.958 25.4873 93.459 25.665C92.96 25.8428 92.5225 26.0957 92.1396 26.4238C91.75 26.7588 91.4424 27.1621 91.21 27.6338C90.9775 28.1123 90.8613 28.6523 90.8613 29.2471C90.8613 29.8896 90.9707 30.457 91.1963 30.9424C91.415 31.4277 91.709 31.8379 92.0713 32.1592C92.4336 32.4805 92.8438 32.7266 93.3018 32.8906C93.7598 33.0547 94.2246 33.1367 94.7031 33.1367ZM95.4004 31.626C95.0449 31.626 94.71 31.585 94.3887 31.4961C94.0674 31.4072 93.7803 31.2705 93.5342 31.0859C93.2881 30.9014 93.0898 30.6689 92.9463 30.3887C92.8027 30.1084 92.7275 29.7666 92.7275 29.377C92.7275 28.9873 92.8027 28.6455 92.9463 28.3516C93.0898 28.0576 93.2881 27.8184 93.5342 27.6201C93.7803 27.4287 94.0605 27.2852 94.3818 27.1826C94.7031 27.0869 95.0312 27.0391 95.373 27.0391C95.6055 27.0391 95.8447 27.0527 96.084 27.0869C96.3232 27.1211 96.5557 27.1689 96.7812 27.2305C97.0068 27.2988 97.2256 27.3809 97.4238 27.4766C97.6221 27.5791 97.7998 27.6885 97.9502 27.8184V30.8193C97.875 30.9014 97.7588 30.9902 97.6016 31.0791C97.4443 31.1748 97.2529 31.2637 97.0273 31.3389C96.8018 31.4209 96.5557 31.4893 96.2822 31.5439C96.002 31.5986 95.708 31.626 95.4004 31.626ZM104.465 33.1367C104.834 33.1367 105.21 33.1094 105.593 33.0547C105.969 33.0068 106.331 32.9316 106.673 32.8359C107.015 32.7402 107.329 32.624 107.609 32.4941C107.89 32.3643 108.122 32.2207 108.3 32.0635C108.307 32.2617 108.327 32.4395 108.361 32.5967C108.396 32.7607 108.43 32.8975 108.471 33H110.303C110.269 32.9043 110.234 32.8018 110.214 32.6924C110.193 32.583 110.173 32.46 110.152 32.3164C110.132 32.1797 110.125 32.0225 110.118 31.8516C110.111 31.6807 110.104 31.4756 110.104 31.25V28.2422C110.104 27.7705 110.036 27.3604 109.893 27.0049C109.749 26.6494 109.53 26.3555 109.229 26.1162C108.929 25.877 108.546 25.6992 108.074 25.5762C107.603 25.46 107.042 25.3984 106.386 25.3984C105.818 25.3984 105.299 25.4326 104.827 25.501C104.355 25.5762 103.938 25.665 103.569 25.7744C103.2 25.8906 102.886 26.0137 102.619 26.1504C102.353 26.2939 102.134 26.4307 101.963 26.5605L102.845 27.791C103.002 27.6885 103.2 27.5791 103.439 27.4766C103.679 27.374 103.945 27.2852 104.239 27.2031C104.533 27.1211 104.841 27.0527 105.162 26.998C105.483 26.9502 105.812 26.9229 106.133 26.9229C106.529 26.9229 106.864 26.9434 107.138 26.9912C107.411 27.0391 107.637 27.1074 107.808 27.1963C107.979 27.2852 108.108 27.3945 108.184 27.5176C108.259 27.6406 108.3 27.7773 108.3 27.9346V28.0986C107.705 28.1328 107.138 28.1738 106.584 28.2217C106.03 28.2695 105.504 28.3379 105.019 28.4268C104.533 28.5156 104.082 28.6318 103.679 28.7617C103.275 28.8984 102.927 29.0625 102.633 29.2607C102.339 29.459 102.113 29.6982 101.956 29.9648C101.792 30.2383 101.71 30.5527 101.71 30.915C101.71 31.3115 101.785 31.6465 101.929 31.9268C102.072 32.207 102.271 32.4395 102.523 32.6172C102.77 32.7949 103.063 32.9248 103.398 33.0068C103.733 33.0957 104.089 33.1367 104.465 33.1367ZM105.121 31.6807C104.574 31.6807 104.171 31.6055 103.911 31.4619C103.645 31.3184 103.515 31.1064 103.515 30.833C103.515 30.5938 103.631 30.3955 103.87 30.2383C104.109 30.0811 104.438 29.9443 104.861 29.835C105.285 29.7324 105.791 29.6436 106.379 29.582C106.96 29.5205 107.603 29.4658 108.3 29.418V30.9014C108.19 30.9834 108.02 31.0723 107.794 31.1611C107.562 31.2568 107.295 31.3389 107.001 31.4141C106.707 31.4893 106.393 31.5576 106.064 31.6055C105.736 31.6533 105.422 31.6807 105.121 31.6807ZM112.285 25.5488V33H114.117V27.8867C114.254 27.7773 114.425 27.6748 114.637 27.5723C114.842 27.4697 115.067 27.3809 115.32 27.3057C115.573 27.2305 115.833 27.1758 116.113 27.1279C116.394 27.0869 116.667 27.0664 116.947 27.0664C117.597 27.0664 118.082 27.1621 118.396 27.3604C118.704 27.5586 118.861 27.8525 118.861 28.2422V33H120.714V27.873C120.714 27.3877 120.639 26.9912 120.488 26.6699C120.338 26.3486 120.133 26.0957 119.866 25.9043C119.6 25.7197 119.278 25.583 118.916 25.5078C118.554 25.4326 118.157 25.3984 117.733 25.3984C117.316 25.3984 116.913 25.4326 116.53 25.5078C116.141 25.583 115.792 25.6719 115.478 25.7812C115.156 25.8906 114.883 26.0068 114.644 26.1299C114.404 26.2529 114.233 26.3623 114.117 26.4648V25.5488H112.285ZM126.661 33.1572C128.049 33.1572 129.102 32.9727 129.806 32.5967C130.51 32.2275 130.858 31.6465 130.858 30.8467C130.858 30.416 130.763 30.0674 130.564 29.7939C130.366 29.5273 130.093 29.3086 129.751 29.1377C129.409 28.9736 129.013 28.8506 128.562 28.7617C128.104 28.6729 127.625 28.6045 127.119 28.5498C126.709 28.502 126.34 28.4541 126.012 28.4131C125.677 28.3789 125.396 28.3242 125.164 28.2627C124.932 28.2012 124.754 28.126 124.631 28.0234C124.508 27.9277 124.446 27.7979 124.446 27.627C124.446 27.5039 124.48 27.3945 124.556 27.2988C124.624 27.2031 124.74 27.1211 124.911 27.0527C125.075 26.9912 125.294 26.9365 125.567 26.9023C125.834 26.8682 126.176 26.8545 126.579 26.8545C126.935 26.8545 127.263 26.875 127.563 26.9229C127.857 26.9707 128.131 27.0391 128.377 27.1211C128.616 27.2031 128.835 27.2988 129.026 27.4014C129.211 27.5107 129.375 27.6201 129.505 27.7363L130.633 26.6973C130.469 26.5264 130.264 26.3555 130.024 26.1982C129.778 26.041 129.484 25.9043 129.143 25.7881C128.801 25.6719 128.404 25.5762 127.953 25.501C127.502 25.4326 126.989 25.3984 126.408 25.3984C125.868 25.3984 125.369 25.4463 124.911 25.5352C124.453 25.6309 124.063 25.7744 123.735 25.959C123.4 26.1504 123.141 26.3896 122.956 26.6699C122.771 26.957 122.676 27.292 122.669 27.6816C122.669 28.1123 122.771 28.4609 122.983 28.7275C123.195 28.9941 123.469 29.2129 123.817 29.377C124.166 29.541 124.562 29.6641 125.014 29.7529C125.465 29.8418 125.93 29.9102 126.408 29.9648C126.853 30.0127 127.249 30.0605 127.584 30.0947C127.919 30.1357 128.192 30.1836 128.418 30.2451C128.637 30.3066 128.801 30.3887 128.917 30.4844C129.026 30.5869 129.081 30.7168 129.081 30.8877C129.081 31.0312 129.04 31.1611 128.951 31.2705C128.862 31.3799 128.719 31.4688 128.527 31.5439C128.336 31.6191 128.09 31.667 127.782 31.7012C127.475 31.7354 127.099 31.7559 126.661 31.7559C126.244 31.7559 125.861 31.7285 125.52 31.667C125.178 31.6123 124.877 31.5371 124.617 31.4346C124.351 31.3389 124.125 31.2295 123.94 31.0996C123.749 30.9697 123.599 30.833 123.482 30.6895L122.252 31.585C122.396 31.8037 122.587 32.0088 122.826 32.1934C123.065 32.3848 123.366 32.5488 123.729 32.6924C124.091 32.8359 124.515 32.9521 125 33.0342C125.485 33.1162 126.039 33.1572 126.661 33.1572ZM139 33.1572C139.417 33.1572 139.813 33.1162 140.203 33.041C140.586 32.9658 140.935 32.877 141.256 32.7676C141.57 32.665 141.844 32.5488 142.083 32.4258C142.315 32.3096 142.486 32.2002 142.596 32.1045V33H144.441V25.5488H142.596V30.7168C142.459 30.8262 142.288 30.9287 142.083 31.0312C141.871 31.1338 141.646 31.2158 141.399 31.291C141.146 31.3662 140.887 31.4277 140.606 31.4756C140.326 31.5234 140.046 31.5439 139.766 31.5439C139.116 31.5439 138.638 31.4414 138.33 31.2432C138.022 31.0449 137.865 30.7578 137.865 30.3682V25.5488H136.02V30.6758C136.02 31.1611 136.095 31.5645 136.245 31.8857C136.389 32.207 136.601 32.46 136.867 32.6445C137.134 32.8359 137.448 32.9658 137.811 33.041C138.173 33.1162 138.569 33.1572 139 33.1572ZM146.711 25.5488V33H148.543V27.8867C148.68 27.7773 148.851 27.6748 149.062 27.5723C149.268 27.4697 149.493 27.3809 149.746 27.3057C149.999 27.2305 150.259 27.1758 150.539 27.1279C150.819 27.0869 151.093 27.0664 151.373 27.0664C152.022 27.0664 152.508 27.1621 152.822 27.3604C153.13 27.5586 153.287 27.8525 153.287 28.2422V33H155.14V27.873C155.14 27.3877 155.064 26.9912 154.914 26.6699C154.764 26.3486 154.559 26.0957 154.292 25.9043C154.025 25.7197 153.704 25.583 153.342 25.5078C152.979 25.4326 152.583 25.3984 152.159 25.3984C151.742 25.3984 151.339 25.4326 150.956 25.5078C150.566 25.583 150.218 25.6719 149.903 25.7812C149.582 25.8906 149.309 26.0068 149.069 26.1299C148.83 26.2529 148.659 26.3623 148.543 26.4648V25.5488H146.711ZM158.735 29.9307H165.913V29.5C165.913 28.9463 165.852 28.4541 165.735 28.0371C165.619 27.6201 165.455 27.2578 165.243 26.9502C165.031 26.6426 164.785 26.3896 164.505 26.1914C164.225 25.9932 163.917 25.8359 163.589 25.7197C163.261 25.6035 162.919 25.5146 162.563 25.4668C162.201 25.4189 161.846 25.3984 161.49 25.3984C161.135 25.3984 160.772 25.4258 160.41 25.4805C160.041 25.542 159.686 25.6309 159.351 25.7607C159.009 25.8906 158.688 26.0547 158.394 26.2529C158.093 26.458 157.833 26.7041 157.614 26.9912C157.389 27.2783 157.218 27.6133 157.088 27.9893C156.958 28.3721 156.896 28.8027 156.896 29.2881C156.896 29.9785 157.02 30.5664 157.272 31.0518C157.525 31.5371 157.86 31.9404 158.284 32.248C158.708 32.5625 159.193 32.7949 159.747 32.9385C160.301 33.082 160.875 33.1572 161.477 33.1572C162.044 33.1572 162.55 33.1162 163.001 33.0342C163.445 32.9521 163.842 32.8291 164.19 32.6719C164.539 32.5146 164.833 32.3232 165.086 32.0908C165.339 31.8652 165.551 31.5986 165.722 31.3047L164.081 30.6211C163.842 31.0244 163.514 31.3047 163.097 31.4756C162.68 31.6465 162.16 31.7285 161.545 31.7285C161.21 31.7285 160.896 31.6943 160.588 31.626C160.28 31.5576 160 31.4482 159.754 31.3047C159.501 31.1611 159.289 30.9697 159.111 30.7441C158.934 30.5186 158.811 30.252 158.735 29.9307ZM161.49 26.8682C161.859 26.8682 162.194 26.9023 162.502 26.9639C162.803 27.0254 163.069 27.1279 163.295 27.2646C163.521 27.4014 163.698 27.5791 163.842 27.7979C163.985 28.0166 164.074 28.2832 164.108 28.5908H158.749C158.838 28.2627 158.981 27.9893 159.18 27.7637C159.378 27.5449 159.61 27.3672 159.87 27.2373C160.123 27.1074 160.396 27.0117 160.684 26.9502C160.964 26.8955 161.237 26.8682 161.49 26.8682Z" fill="black"/>
<path d="M90.2168 168.549V178.803H92.0488V175.303C92.3701 175.556 92.8008 175.754 93.3271 175.904C93.8535 176.062 94.4756 176.137 95.2002 176.137C95.5215 176.137 95.8428 176.103 96.1641 176.027C96.4854 175.959 96.7861 175.85 97.0801 175.706C97.374 175.562 97.6475 175.385 97.9004 175.173C98.1533 174.961 98.3721 174.708 98.5566 174.421C98.7412 174.134 98.8848 173.812 98.9941 173.45C99.0967 173.095 99.1514 172.705 99.1514 172.274C99.1514 171.604 99.042 171.023 98.8232 170.538C98.5977 170.053 98.3105 169.649 97.9482 169.335C97.5859 169.021 97.1689 168.788 96.7109 168.638C96.2461 168.487 95.7744 168.412 95.2959 168.412C94.8994 168.412 94.5303 168.439 94.1953 168.494C93.8604 168.556 93.5527 168.631 93.2793 168.727C93.0059 168.822 92.7666 168.932 92.5615 169.048C92.3564 169.171 92.1855 169.294 92.0488 169.417V168.549H90.2168ZM94.626 174.64C94.3936 174.64 94.1611 174.619 93.9219 174.585C93.6826 174.551 93.4434 174.503 93.2178 174.435C92.9922 174.373 92.7734 174.291 92.5752 174.188C92.377 174.093 92.1992 173.977 92.0488 173.847V170.859C92.1309 170.777 92.2539 170.688 92.4111 170.593C92.5684 170.504 92.7598 170.415 92.9854 170.333C93.2041 170.258 93.4502 170.189 93.7236 170.135C93.9971 170.08 94.291 170.053 94.5986 170.053C94.9541 170.053 95.2959 170.094 95.6172 170.183C95.9385 170.271 96.2256 170.401 96.4717 170.586C96.7178 170.771 96.916 171.01 97.0664 171.29C97.21 171.57 97.2852 171.912 97.2852 172.302C97.2852 172.691 97.21 173.033 97.0664 173.327C96.9229 173.621 96.7246 173.86 96.4785 174.052C96.2324 174.25 95.9521 174.394 95.6309 174.489C95.3096 174.592 94.9746 174.64 94.626 174.64ZM101.018 165.637V176H102.85V170.887C102.986 170.777 103.157 170.675 103.369 170.572C103.574 170.47 103.8 170.381 104.053 170.306C104.306 170.23 104.565 170.176 104.846 170.128C105.126 170.087 105.399 170.066 105.68 170.066C106.329 170.066 106.814 170.162 107.129 170.36C107.437 170.559 107.594 170.853 107.594 171.242V176H109.446V170.873C109.446 170.388 109.371 169.991 109.221 169.67C109.07 169.349 108.865 169.096 108.599 168.904C108.332 168.72 108.011 168.583 107.648 168.508C107.286 168.433 106.89 168.398 106.466 168.398C106.049 168.398 105.646 168.433 105.263 168.508C104.873 168.583 104.524 168.672 104.21 168.781C103.889 168.891 103.615 169.007 103.376 169.123C103.137 169.246 102.966 169.355 102.85 169.451V165.637H101.018ZM111.613 168.549V176H113.445V171.242C113.575 171.099 113.746 170.955 113.958 170.812C114.17 170.675 114.416 170.552 114.703 170.449C114.99 170.347 115.318 170.271 115.681 170.21C116.043 170.155 116.446 170.135 116.891 170.148C116.925 170.148 116.966 170.148 117.027 170.155L117.198 170.169C117.253 170.176 117.301 170.176 117.349 170.183C117.396 170.189 117.424 170.189 117.438 170.189L117.465 168.426L117.342 168.412C116.822 168.392 116.357 168.419 115.94 168.494C115.523 168.569 115.154 168.679 114.833 168.809C114.512 168.945 114.231 169.103 114.006 169.28C113.773 169.458 113.589 169.643 113.445 169.827V168.549H111.613ZM121.471 176.137C121.84 176.137 122.216 176.109 122.599 176.055C122.975 176.007 123.337 175.932 123.679 175.836C124.021 175.74 124.335 175.624 124.615 175.494C124.896 175.364 125.128 175.221 125.306 175.063C125.312 175.262 125.333 175.439 125.367 175.597C125.401 175.761 125.436 175.897 125.477 176H127.309C127.274 175.904 127.24 175.802 127.22 175.692C127.199 175.583 127.179 175.46 127.158 175.316C127.138 175.18 127.131 175.022 127.124 174.852C127.117 174.681 127.11 174.476 127.11 174.25V171.242C127.11 170.771 127.042 170.36 126.898 170.005C126.755 169.649 126.536 169.355 126.235 169.116C125.935 168.877 125.552 168.699 125.08 168.576C124.608 168.46 124.048 168.398 123.392 168.398C122.824 168.398 122.305 168.433 121.833 168.501C121.361 168.576 120.944 168.665 120.575 168.774C120.206 168.891 119.892 169.014 119.625 169.15C119.358 169.294 119.14 169.431 118.969 169.561L119.851 170.791C120.008 170.688 120.206 170.579 120.445 170.477C120.685 170.374 120.951 170.285 121.245 170.203C121.539 170.121 121.847 170.053 122.168 169.998C122.489 169.95 122.817 169.923 123.139 169.923C123.535 169.923 123.87 169.943 124.144 169.991C124.417 170.039 124.643 170.107 124.813 170.196C124.984 170.285 125.114 170.395 125.189 170.518C125.265 170.641 125.306 170.777 125.306 170.935V171.099C124.711 171.133 124.144 171.174 123.59 171.222C123.036 171.27 122.51 171.338 122.024 171.427C121.539 171.516 121.088 171.632 120.685 171.762C120.281 171.898 119.933 172.062 119.639 172.261C119.345 172.459 119.119 172.698 118.962 172.965C118.798 173.238 118.716 173.553 118.716 173.915C118.716 174.312 118.791 174.646 118.935 174.927C119.078 175.207 119.276 175.439 119.529 175.617C119.775 175.795 120.069 175.925 120.404 176.007C120.739 176.096 121.095 176.137 121.471 176.137ZM122.127 174.681C121.58 174.681 121.177 174.605 120.917 174.462C120.65 174.318 120.521 174.106 120.521 173.833C120.521 173.594 120.637 173.396 120.876 173.238C121.115 173.081 121.443 172.944 121.867 172.835C122.291 172.732 122.797 172.644 123.385 172.582C123.966 172.521 124.608 172.466 125.306 172.418V173.901C125.196 173.983 125.025 174.072 124.8 174.161C124.567 174.257 124.301 174.339 124.007 174.414C123.713 174.489 123.398 174.558 123.07 174.605C122.742 174.653 122.428 174.681 122.127 174.681ZM133.071 176.157C134.459 176.157 135.512 175.973 136.216 175.597C136.92 175.228 137.269 174.646 137.269 173.847C137.269 173.416 137.173 173.067 136.975 172.794C136.776 172.527 136.503 172.309 136.161 172.138C135.819 171.974 135.423 171.851 134.972 171.762C134.514 171.673 134.035 171.604 133.529 171.55C133.119 171.502 132.75 171.454 132.422 171.413C132.087 171.379 131.807 171.324 131.574 171.263C131.342 171.201 131.164 171.126 131.041 171.023C130.918 170.928 130.856 170.798 130.856 170.627C130.856 170.504 130.891 170.395 130.966 170.299C131.034 170.203 131.15 170.121 131.321 170.053C131.485 169.991 131.704 169.937 131.978 169.902C132.244 169.868 132.586 169.854 132.989 169.854C133.345 169.854 133.673 169.875 133.974 169.923C134.268 169.971 134.541 170.039 134.787 170.121C135.026 170.203 135.245 170.299 135.437 170.401C135.621 170.511 135.785 170.62 135.915 170.736L137.043 169.697C136.879 169.526 136.674 169.355 136.435 169.198C136.188 169.041 135.895 168.904 135.553 168.788C135.211 168.672 134.814 168.576 134.363 168.501C133.912 168.433 133.399 168.398 132.818 168.398C132.278 168.398 131.779 168.446 131.321 168.535C130.863 168.631 130.474 168.774 130.146 168.959C129.811 169.15 129.551 169.39 129.366 169.67C129.182 169.957 129.086 170.292 129.079 170.682C129.079 171.112 129.182 171.461 129.394 171.728C129.605 171.994 129.879 172.213 130.228 172.377C130.576 172.541 130.973 172.664 131.424 172.753C131.875 172.842 132.34 172.91 132.818 172.965C133.263 173.013 133.659 173.061 133.994 173.095C134.329 173.136 134.603 173.184 134.828 173.245C135.047 173.307 135.211 173.389 135.327 173.484C135.437 173.587 135.491 173.717 135.491 173.888C135.491 174.031 135.45 174.161 135.361 174.271C135.272 174.38 135.129 174.469 134.938 174.544C134.746 174.619 134.5 174.667 134.192 174.701C133.885 174.735 133.509 174.756 133.071 174.756C132.654 174.756 132.271 174.729 131.93 174.667C131.588 174.612 131.287 174.537 131.027 174.435C130.761 174.339 130.535 174.229 130.351 174.1C130.159 173.97 130.009 173.833 129.893 173.689L128.662 174.585C128.806 174.804 128.997 175.009 129.236 175.193C129.476 175.385 129.776 175.549 130.139 175.692C130.501 175.836 130.925 175.952 131.41 176.034C131.896 176.116 132.449 176.157 133.071 176.157ZM140.399 172.931H147.577V172.5C147.577 171.946 147.516 171.454 147.399 171.037C147.283 170.62 147.119 170.258 146.907 169.95C146.695 169.643 146.449 169.39 146.169 169.191C145.889 168.993 145.581 168.836 145.253 168.72C144.925 168.604 144.583 168.515 144.228 168.467C143.865 168.419 143.51 168.398 143.154 168.398C142.799 168.398 142.437 168.426 142.074 168.48C141.705 168.542 141.35 168.631 141.015 168.761C140.673 168.891 140.352 169.055 140.058 169.253C139.757 169.458 139.497 169.704 139.278 169.991C139.053 170.278 138.882 170.613 138.752 170.989C138.622 171.372 138.561 171.803 138.561 172.288C138.561 172.979 138.684 173.566 138.937 174.052C139.189 174.537 139.524 174.94 139.948 175.248C140.372 175.562 140.857 175.795 141.411 175.938C141.965 176.082 142.539 176.157 143.141 176.157C143.708 176.157 144.214 176.116 144.665 176.034C145.109 175.952 145.506 175.829 145.854 175.672C146.203 175.515 146.497 175.323 146.75 175.091C147.003 174.865 147.215 174.599 147.386 174.305L145.745 173.621C145.506 174.024 145.178 174.305 144.761 174.476C144.344 174.646 143.824 174.729 143.209 174.729C142.874 174.729 142.56 174.694 142.252 174.626C141.944 174.558 141.664 174.448 141.418 174.305C141.165 174.161 140.953 173.97 140.775 173.744C140.598 173.519 140.475 173.252 140.399 172.931ZM143.154 169.868C143.523 169.868 143.858 169.902 144.166 169.964C144.467 170.025 144.733 170.128 144.959 170.265C145.185 170.401 145.362 170.579 145.506 170.798C145.649 171.017 145.738 171.283 145.772 171.591H140.413C140.502 171.263 140.646 170.989 140.844 170.764C141.042 170.545 141.274 170.367 141.534 170.237C141.787 170.107 142.061 170.012 142.348 169.95C142.628 169.896 142.901 169.868 143.154 169.868ZM157.004 176.157C157.599 176.157 158.139 176.096 158.624 175.966C159.109 175.843 159.533 175.679 159.902 175.467C160.271 175.262 160.586 175.022 160.839 174.749C161.092 174.482 161.283 174.195 161.427 173.901L159.677 173.313C159.547 173.573 159.383 173.785 159.185 173.956C158.986 174.127 158.768 174.264 158.535 174.366C158.303 174.469 158.063 174.537 157.824 174.578C157.578 174.619 157.346 174.64 157.127 174.64C156.724 174.64 156.354 174.578 156.02 174.462C155.685 174.346 155.404 174.188 155.165 173.977C154.926 173.765 154.741 173.519 154.611 173.231C154.481 172.951 154.413 172.637 154.413 172.302C154.413 171.912 154.488 171.563 154.639 171.27C154.782 170.976 154.987 170.736 155.24 170.538C155.493 170.34 155.78 170.196 156.115 170.094C156.45 169.998 156.799 169.95 157.168 169.95C157.776 169.95 158.289 170.06 158.692 170.271C159.096 170.49 159.41 170.798 159.622 171.201L161.399 170.668C161.092 169.943 160.586 169.383 159.889 168.986C159.185 168.597 158.289 168.398 157.195 168.398C156.854 168.398 156.505 168.426 156.143 168.48C155.78 168.535 155.425 168.624 155.083 168.747C154.734 168.87 154.413 169.027 154.105 169.226C153.798 169.424 153.531 169.663 153.306 169.95C153.08 170.244 152.896 170.579 152.766 170.962C152.629 171.352 152.561 171.789 152.561 172.288C152.561 172.746 152.622 173.163 152.738 173.532C152.854 173.901 153.012 174.229 153.217 174.517C153.422 174.804 153.668 175.05 153.948 175.255C154.229 175.467 154.529 175.638 154.864 175.768C155.192 175.897 155.541 176 155.903 176.062C156.266 176.123 156.635 176.157 157.004 176.157ZM167.429 176.157C167.805 176.157 168.181 176.13 168.557 176.068C168.933 176.007 169.288 175.911 169.637 175.781C169.985 175.651 170.307 175.487 170.614 175.282C170.915 175.084 171.175 174.838 171.4 174.551C171.626 174.264 171.797 173.929 171.927 173.553C172.057 173.177 172.118 172.76 172.118 172.288C172.118 171.81 172.057 171.379 171.927 171.003C171.797 170.627 171.626 170.292 171.4 170.005C171.175 169.718 170.915 169.472 170.614 169.267C170.313 169.062 169.992 168.897 169.644 168.768C169.295 168.638 168.933 168.549 168.557 168.487C168.181 168.426 167.805 168.398 167.429 168.398C167.053 168.398 166.677 168.426 166.301 168.487C165.925 168.549 165.562 168.638 165.214 168.768C164.865 168.897 164.544 169.062 164.243 169.267C163.942 169.472 163.683 169.718 163.464 170.005C163.238 170.292 163.067 170.627 162.938 171.003C162.808 171.379 162.746 171.81 162.746 172.288C162.746 172.76 162.808 173.184 162.938 173.56C163.067 173.936 163.238 174.264 163.464 174.551C163.683 174.838 163.942 175.084 164.25 175.282C164.551 175.487 164.872 175.651 165.221 175.781C165.569 175.911 165.932 176.007 166.308 176.068C166.684 176.13 167.053 176.157 167.429 176.157ZM167.429 174.64C167.012 174.64 166.629 174.585 166.28 174.469C165.932 174.353 165.631 174.195 165.385 173.983C165.132 173.778 164.94 173.532 164.804 173.245C164.667 172.958 164.599 172.644 164.599 172.302C164.599 171.933 164.667 171.604 164.811 171.311C164.947 171.023 165.139 170.777 165.392 170.572C165.638 170.374 165.932 170.217 166.28 170.107C166.629 170.005 167.012 169.95 167.429 169.95C167.846 169.95 168.229 170.005 168.577 170.114C168.926 170.23 169.22 170.388 169.473 170.593C169.719 170.798 169.91 171.044 170.047 171.331C170.184 171.625 170.252 171.946 170.252 172.302C170.252 172.664 170.184 172.985 170.047 173.272C169.91 173.566 169.719 173.812 169.473 174.011C169.227 174.209 168.933 174.366 168.584 174.476C168.235 174.585 167.853 174.64 167.429 174.64ZM173.984 168.549V176H175.816V170.887C175.953 170.777 176.117 170.675 176.315 170.572C176.514 170.47 176.732 170.381 176.972 170.306C177.211 170.23 177.464 170.176 177.73 170.128C177.997 170.087 178.271 170.066 178.551 170.066C179.193 170.066 179.658 170.162 179.938 170.36C180.219 170.559 180.355 170.853 180.355 171.242V176H182.215V170.873V170.866C182.618 170.606 183.049 170.408 183.514 170.271C183.972 170.135 184.443 170.066 184.929 170.066C185.578 170.066 186.05 170.162 186.33 170.36C186.61 170.559 186.754 170.853 186.754 171.242V176H188.6V170.873C188.6 170.388 188.531 169.991 188.388 169.67C188.244 169.349 188.053 169.096 187.8 168.904C187.547 168.72 187.239 168.583 186.891 168.508C186.535 168.433 186.146 168.398 185.715 168.398C184.977 168.398 184.286 168.501 183.644 168.706C183.001 168.918 182.44 169.205 181.962 169.574C181.853 169.349 181.709 169.164 181.538 169.014C181.367 168.863 181.169 168.74 180.943 168.651C180.718 168.562 180.465 168.494 180.191 168.453C179.918 168.419 179.624 168.398 179.316 168.398C178.899 168.398 178.503 168.433 178.134 168.508C177.758 168.583 177.423 168.672 177.115 168.781C176.808 168.891 176.548 169.007 176.322 169.123C176.097 169.246 175.933 169.355 175.816 169.451V168.549H173.984ZM190.773 168.549V178.803H192.605V175.303C192.927 175.556 193.357 175.754 193.884 175.904C194.41 176.062 195.032 176.137 195.757 176.137C196.078 176.137 196.399 176.103 196.721 176.027C197.042 175.959 197.343 175.85 197.637 175.706C197.931 175.562 198.204 175.385 198.457 175.173C198.71 174.961 198.929 174.708 199.113 174.421C199.298 174.134 199.441 173.812 199.551 173.45C199.653 173.095 199.708 172.705 199.708 172.274C199.708 171.604 199.599 171.023 199.38 170.538C199.154 170.053 198.867 169.649 198.505 169.335C198.143 169.021 197.726 168.788 197.268 168.638C196.803 168.487 196.331 168.412 195.853 168.412C195.456 168.412 195.087 168.439 194.752 168.494C194.417 168.556 194.109 168.631 193.836 168.727C193.562 168.822 193.323 168.932 193.118 169.048C192.913 169.171 192.742 169.294 192.605 169.417V168.549H190.773ZM195.183 174.64C194.95 174.64 194.718 174.619 194.479 174.585C194.239 174.551 194 174.503 193.774 174.435C193.549 174.373 193.33 174.291 193.132 174.188C192.934 174.093 192.756 173.977 192.605 173.847V170.859C192.688 170.777 192.811 170.688 192.968 170.593C193.125 170.504 193.316 170.415 193.542 170.333C193.761 170.258 194.007 170.189 194.28 170.135C194.554 170.08 194.848 170.053 195.155 170.053C195.511 170.053 195.853 170.094 196.174 170.183C196.495 170.271 196.782 170.401 197.028 170.586C197.274 170.771 197.473 171.01 197.623 171.29C197.767 171.57 197.842 171.912 197.842 172.302C197.842 172.691 197.767 173.033 197.623 173.327C197.479 173.621 197.281 173.86 197.035 174.052C196.789 174.25 196.509 174.394 196.188 174.489C195.866 174.592 195.531 174.64 195.183 174.64ZM201.643 165.637V176H203.475V165.637H201.643ZM207.255 172.931H214.433V172.5C214.433 171.946 214.371 171.454 214.255 171.037C214.139 170.62 213.975 170.258 213.763 169.95C213.551 169.643 213.305 169.39 213.024 169.191C212.744 168.993 212.437 168.836 212.108 168.72C211.78 168.604 211.438 168.515 211.083 168.467C210.721 168.419 210.365 168.398 210.01 168.398C209.654 168.398 209.292 168.426 208.93 168.48C208.561 168.542 208.205 168.631 207.87 168.761C207.528 168.891 207.207 169.055 206.913 169.253C206.612 169.458 206.353 169.704 206.134 169.991C205.908 170.278 205.737 170.613 205.607 170.989C205.478 171.372 205.416 171.803 205.416 172.288C205.416 172.979 205.539 173.566 205.792 174.052C206.045 174.537 206.38 174.94 206.804 175.248C207.228 175.562 207.713 175.795 208.267 175.938C208.82 176.082 209.395 176.157 209.996 176.157C210.563 176.157 211.069 176.116 211.521 176.034C211.965 175.952 212.361 175.829 212.71 175.672C213.059 175.515 213.353 175.323 213.605 175.091C213.858 174.865 214.07 174.599 214.241 174.305L212.601 173.621C212.361 174.024 212.033 174.305 211.616 174.476C211.199 174.646 210.68 174.729 210.064 174.729C209.729 174.729 209.415 174.694 209.107 174.626C208.8 174.558 208.52 174.448 208.273 174.305C208.021 174.161 207.809 173.97 207.631 173.744C207.453 173.519 207.33 173.252 207.255 172.931ZM210.01 169.868C210.379 169.868 210.714 169.902 211.021 169.964C211.322 170.025 211.589 170.128 211.814 170.265C212.04 170.401 212.218 170.579 212.361 170.798C212.505 171.017 212.594 171.283 212.628 171.591H207.269C207.357 171.263 207.501 170.989 207.699 170.764C207.897 170.545 208.13 170.367 208.39 170.237C208.643 170.107 208.916 170.012 209.203 169.95C209.483 169.896 209.757 169.868 210.01 169.868ZM219.279 172.206L215.629 176H217.598L220.264 173.327L222.909 176H225.062L221.412 172.179L224.939 168.549H222.964L220.441 171.099L217.953 168.549H215.793L219.279 172.206ZM228.118 172.931H235.296V172.5C235.296 171.946 235.234 171.454 235.118 171.037C235.002 170.62 234.838 170.258 234.626 169.95C234.414 169.643 234.168 169.39 233.888 169.191C233.607 168.993 233.3 168.836 232.972 168.72C232.644 168.604 232.302 168.515 231.946 168.467C231.584 168.419 231.229 168.398 230.873 168.398C230.518 168.398 230.155 168.426 229.793 168.48C229.424 168.542 229.068 168.631 228.733 168.761C228.392 168.891 228.07 169.055 227.776 169.253C227.476 169.458 227.216 169.704 226.997 169.991C226.771 170.278 226.601 170.613 226.471 170.989C226.341 171.372 226.279 171.803 226.279 172.288C226.279 172.979 226.402 173.566 226.655 174.052C226.908 174.537 227.243 174.94 227.667 175.248C228.091 175.562 228.576 175.795 229.13 175.938C229.684 176.082 230.258 176.157 230.859 176.157C231.427 176.157 231.933 176.116 232.384 176.034C232.828 175.952 233.225 175.829 233.573 175.672C233.922 175.515 234.216 175.323 234.469 175.091C234.722 174.865 234.934 174.599 235.104 174.305L233.464 173.621C233.225 174.024 232.896 174.305 232.479 174.476C232.062 174.646 231.543 174.729 230.928 174.729C230.593 174.729 230.278 174.694 229.971 174.626C229.663 174.558 229.383 174.448 229.137 174.305C228.884 174.161 228.672 173.97 228.494 173.744C228.316 173.519 228.193 173.252 228.118 172.931ZM230.873 169.868C231.242 169.868 231.577 169.902 231.885 169.964C232.186 170.025 232.452 170.128 232.678 170.265C232.903 170.401 233.081 170.579 233.225 170.798C233.368 171.017 233.457 171.283 233.491 171.591H228.132C228.221 171.263 228.364 170.989 228.562 170.764C228.761 170.545 228.993 170.367 229.253 170.237C229.506 170.107 229.779 170.012 230.066 169.95C230.347 169.896 230.62 169.868 230.873 169.868Z" fill="black"/>
<path d="M18.5234 125.156V137H29.6953V134.664H21.3438V125.156H18.5234ZM36.9766 125.078L30.8672 137H33.6641L34.9141 134.586H41.9531L43.2188 137H46.2422L40.1094 125.078H36.9766ZM40.8984 132.484H35.9688L38.4297 127.734L40.8984 132.484ZM58.8516 137.227C59.7031 137.227 60.4531 137.18 61.1094 137.086C61.7578 136.992 62.3281 136.859 62.8047 136.688C63.2812 136.523 63.6875 136.32 64.0156 136.086C64.3359 135.859 64.6016 135.602 64.7969 135.328C64.9922 135.055 65.1328 134.758 65.2188 134.453C65.3047 134.148 65.3438 133.828 65.3438 133.508C65.3438 133 65.25 132.57 65.0703 132.203C64.8906 131.836 64.6406 131.523 64.3281 131.266C64.0078 131.008 63.6406 130.797 63.2266 130.633C62.8047 130.469 62.3516 130.336 61.875 130.234C61.3984 130.133 60.9062 130.055 60.3984 129.992C59.8906 129.938 59.3906 129.883 58.8984 129.828C58.2656 129.766 57.7109 129.703 57.25 129.641C56.7812 129.586 56.3984 129.508 56.0938 129.406C55.7891 129.305 55.5703 129.18 55.4219 129.016C55.2734 128.859 55.2031 128.648 55.2031 128.383C55.2031 127.977 55.4766 127.672 56.0234 127.469C56.5703 127.273 57.4219 127.172 58.5859 127.172C59.1562 127.172 59.6641 127.203 60.1016 127.266C60.5312 127.336 60.9062 127.43 61.2266 127.555C61.5391 127.68 61.7969 127.828 62 128.008C62.2031 128.188 62.3594 128.391 62.4688 128.617L65.0625 127.711C64.9688 127.5 64.8438 127.289 64.6953 127.07C64.5391 126.859 64.3438 126.648 64.1094 126.438C63.875 126.227 63.5938 126.031 63.2656 125.852C62.9375 125.672 62.5469 125.508 62.1016 125.375C61.6562 125.242 61.1406 125.133 60.5625 125.047C59.9844 124.969 59.3281 124.93 58.6016 124.93C57.6094 124.93 56.7266 125.008 55.9688 125.172C55.2031 125.336 54.5625 125.57 54.0391 125.883C53.5156 126.195 53.125 126.578 52.8594 127.031C52.5859 127.492 52.4531 128.016 52.4531 128.609C52.4531 129.102 52.5391 129.523 52.7188 129.875C52.8906 130.234 53.125 130.539 53.4297 130.789C53.7344 131.047 54.0859 131.258 54.4922 131.422C54.8906 131.586 55.3203 131.727 55.7812 131.828C56.2422 131.93 56.7188 132.016 57.2109 132.078C57.7031 132.141 58.1797 132.195 58.6562 132.242C59.3203 132.312 59.8984 132.375 60.3906 132.438C60.8828 132.508 61.2891 132.594 61.6172 132.695C61.9375 132.805 62.1797 132.945 62.3438 133.109C62.5078 133.281 62.5859 133.508 62.5859 133.781C62.5859 134 62.5156 134.188 62.375 134.352C62.2344 134.516 62.0156 134.656 61.7109 134.773C61.4062 134.891 61.0078 134.977 60.5312 135.031C60.0547 135.086 59.4688 135.117 58.7891 135.117C58.0938 135.117 57.4922 135.07 56.9844 134.969C56.4766 134.875 56.0547 134.742 55.7109 134.57C55.3594 134.406 55.0859 134.203 54.8828 133.969C54.6797 133.734 54.5312 133.477 54.4375 133.203L51.7969 133.789C51.9375 134.25 52.1562 134.688 52.4531 135.102C52.75 135.516 53.1719 135.883 53.7109 136.195C54.25 136.516 54.9453 136.766 55.7812 136.945C56.6172 137.133 57.6406 137.227 58.8516 137.227ZM74.3047 137.195C75.3828 137.195 76.3359 137.086 77.1719 136.875C78 136.664 78.6953 136.352 79.2656 135.938C79.8281 135.531 80.2578 135.023 80.5547 134.422C80.8438 133.82 80.9922 133.133 80.9922 132.359V125.156H78.2578V132.297C78.2578 132.734 78.1641 133.109 77.9844 133.422C77.8047 133.734 77.5391 133.992 77.2031 134.195C76.8672 134.398 76.4531 134.547 75.9688 134.641C75.4844 134.742 74.9375 134.789 74.3359 134.789C73.7266 134.789 73.1797 134.742 72.6953 134.641C72.2109 134.547 71.7969 134.398 71.4609 134.195C71.125 133.992 70.8672 133.734 70.6875 133.422C70.5078 133.109 70.4141 132.734 70.4141 132.297V125.156H67.6172V132.359C67.6172 133.133 67.7656 133.82 68.0625 134.422C68.3516 135.023 68.7812 135.531 69.3516 135.938C69.9219 136.352 70.6172 136.664 71.4531 136.875C72.2812 137.086 73.2344 137.195 74.3047 137.195ZM83.7812 125.156V137H92.1172C92.6328 137 93.1484 136.945 93.6641 136.844C94.1797 136.742 94.6484 136.562 95.0625 136.312C95.4766 136.062 95.8125 135.727 96.0703 135.312C96.3281 134.898 96.4531 134.375 96.4531 133.75C96.4531 133.242 96.3828 132.82 96.25 132.477C96.1094 132.133 95.9219 131.852 95.6875 131.625C95.4531 131.398 95.1875 131.227 94.8828 131.102C94.5781 130.977 94.2578 130.883 93.9219 130.82C94.2031 130.75 94.4766 130.648 94.7422 130.516C95 130.383 95.2344 130.211 95.4453 129.992C95.6562 129.773 95.8203 129.508 95.9453 129.188C96.0703 128.875 96.1328 128.508 96.1328 128.086C96.1328 127.656 96.0781 127.289 95.9609 126.977C95.8438 126.664 95.6797 126.398 95.4766 126.18C95.2734 125.969 95.0312 125.789 94.7578 125.656C94.4844 125.523 94.1875 125.414 93.8672 125.344C93.5469 125.273 93.2188 125.219 92.8672 125.195C92.5156 125.172 92.1719 125.156 91.8281 125.156H83.7812ZM91.7266 134.805H86.5312V132.008H91.6484C92.3594 132.008 92.8828 132.125 93.2188 132.352C93.5469 132.578 93.7109 132.93 93.7109 133.398C93.7109 133.844 93.5547 134.195 93.2344 134.438C92.9141 134.68 92.4141 134.805 91.7266 134.805ZM91.6172 129.961H86.5312V127.383H91.5859C92.25 127.383 92.7344 127.492 93.0234 127.711C93.3125 127.93 93.4609 128.25 93.4609 128.68C93.4609 129.07 93.3125 129.383 93.0156 129.609C92.7109 129.844 92.25 129.961 91.6172 129.961ZM105.984 137.242C106.656 137.242 107.305 137.188 107.93 137.078C108.555 136.977 109.141 136.812 109.695 136.586C110.242 136.367 110.742 136.086 111.195 135.75C111.641 135.414 112.031 135.023 112.359 134.562C112.68 134.109 112.93 133.594 113.109 133.008C113.289 132.43 113.375 131.789 113.375 131.078C113.375 130.367 113.281 129.727 113.102 129.141C112.922 128.562 112.664 128.047 112.344 127.586C112.016 127.133 111.625 126.734 111.172 126.398C110.711 126.062 110.211 125.789 109.664 125.57C109.117 125.352 108.531 125.188 107.914 125.078C107.289 124.977 106.648 124.922 105.984 124.922C105.32 124.922 104.68 124.977 104.062 125.078C103.438 125.188 102.852 125.352 102.312 125.57C101.766 125.789 101.266 126.062 100.812 126.398C100.352 126.734 99.9609 127.133 99.6406 127.586C99.3125 128.047 99.0625 128.562 98.8828 129.141C98.7031 129.727 98.6094 130.367 98.6094 131.078C98.6094 131.789 98.6953 132.43 98.875 133.008C99.0547 133.594 99.3047 134.109 99.625 134.562C99.9453 135.023 100.336 135.414 100.789 135.75C101.234 136.086 101.734 136.367 102.281 136.586C102.828 136.812 103.414 136.977 104.039 137.078C104.664 137.188 105.312 137.242 105.984 137.242ZM105.984 134.906C105.25 134.906 104.602 134.812 104.031 134.633C103.461 134.453 102.977 134.188 102.586 133.852C102.195 133.516 101.898 133.117 101.695 132.648C101.492 132.18 101.391 131.656 101.391 131.078C101.391 130.5 101.492 129.977 101.695 129.516C101.898 129.055 102.195 128.656 102.586 128.328C102.977 128.008 103.461 127.758 104.031 127.578C104.602 127.406 105.25 127.32 105.984 127.32C106.719 127.32 107.375 127.406 107.945 127.578C108.516 127.758 108.992 128.008 109.383 128.328C109.773 128.656 110.07 129.055 110.273 129.516C110.477 129.977 110.578 130.5 110.578 131.078C110.578 131.656 110.477 132.18 110.273 132.648C110.07 133.117 109.773 133.516 109.383 133.852C108.992 134.188 108.516 134.453 107.945 134.633C107.375 134.812 106.719 134.906 105.984 134.906ZM115.789 125.156V137H118.57V132.719H123.391L125.82 137H128.82L126.195 132.328C127.016 132.086 127.625 131.688 128.039 131.133C128.453 130.578 128.656 129.844 128.656 128.93C128.656 128.25 128.547 127.664 128.336 127.188C128.117 126.711 127.805 126.32 127.398 126.016C126.984 125.719 126.484 125.5 125.898 125.359C125.312 125.227 124.641 125.156 123.898 125.156H115.789ZM123.797 130.484H118.57V127.492H123.797C124.523 127.492 125.062 127.609 125.406 127.852C125.742 128.094 125.914 128.477 125.914 129.008C125.914 129.531 125.742 129.906 125.406 130.133C125.062 130.367 124.523 130.484 123.797 130.484ZM131.305 125.156V137H138.156C138.75 137 139.328 136.953 139.883 136.852C140.438 136.75 140.953 136.602 141.438 136.391C141.922 136.188 142.367 135.93 142.773 135.609C143.172 135.289 143.523 134.914 143.812 134.469C144.102 134.023 144.32 133.516 144.484 132.945C144.641 132.375 144.719 131.727 144.719 131.016C144.719 130.297 144.641 129.656 144.484 129.086C144.328 128.516 144.109 128.016 143.82 127.578C143.531 127.148 143.188 126.773 142.789 126.469C142.391 126.164 141.945 125.914 141.461 125.719C140.969 125.523 140.445 125.383 139.891 125.289C139.336 125.203 138.758 125.156 138.156 125.156H131.305ZM138.188 134.711H134.109V127.516H138.156C138.836 127.516 139.422 127.602 139.898 127.781C140.375 127.961 140.758 128.203 141.055 128.516C141.352 128.828 141.57 129.203 141.703 129.633C141.836 130.062 141.898 130.539 141.898 131.047C141.898 131.594 141.836 132.094 141.703 132.539C141.57 132.984 141.352 133.375 141.062 133.695C140.766 134.016 140.383 134.266 139.914 134.445C139.438 134.625 138.867 134.711 138.188 134.711ZM147.234 125.156V137H150.047V125.156H147.234ZM153.117 125.156V137H155.828V128.539L163.727 137H166.484V125.156H163.789V133.273L156.242 125.156H153.117ZM174.648 125.078L168.539 137H171.336L172.586 134.586H179.625L180.891 137H183.914L177.781 125.078H174.648ZM178.57 132.484H173.641L176.102 127.734L178.57 132.484ZM190.281 127.57V137H193.172V127.57H198.352V125.156H185.094L185.102 127.57H190.281ZM200.578 125.156V137H203.391V125.156H200.578ZM213.297 137.242C213.969 137.242 214.617 137.188 215.242 137.078C215.867 136.977 216.453 136.812 217.008 136.586C217.555 136.367 218.055 136.086 218.508 135.75C218.953 135.414 219.344 135.023 219.672 134.562C219.992 134.109 220.242 133.594 220.422 133.008C220.602 132.43 220.688 131.789 220.688 131.078C220.688 130.367 220.594 129.727 220.414 129.141C220.234 128.562 219.977 128.047 219.656 127.586C219.328 127.133 218.938 126.734 218.484 126.398C218.023 126.062 217.523 125.789 216.977 125.57C216.43 125.352 215.844 125.188 215.227 125.078C214.602 124.977 213.961 124.922 213.297 124.922C212.633 124.922 211.992 124.977 211.375 125.078C210.75 125.188 210.164 125.352 209.625 125.57C209.078 125.789 208.578 126.062 208.125 126.398C207.664 126.734 207.273 127.133 206.953 127.586C206.625 128.047 206.375 128.562 206.195 129.141C206.016 129.727 205.922 130.367 205.922 131.078C205.922 131.789 206.008 132.43 206.188 133.008C206.367 133.594 206.617 134.109 206.938 134.562C207.258 135.023 207.648 135.414 208.102 135.75C208.547 136.086 209.047 136.367 209.594 136.586C210.141 136.812 210.727 136.977 211.352 137.078C211.977 137.188 212.625 137.242 213.297 137.242ZM213.297 134.906C212.562 134.906 211.914 134.812 211.344 134.633C210.773 134.453 210.289 134.188 209.898 133.852C209.508 133.516 209.211 133.117 209.008 132.648C208.805 132.18 208.703 131.656 208.703 131.078C208.703 130.5 208.805 129.977 209.008 129.516C209.211 129.055 209.508 128.656 209.898 128.328C210.289 128.008 210.773 127.758 211.344 127.578C211.914 127.406 212.562 127.32 213.297 127.32C214.031 127.32 214.688 127.406 215.258 127.578C215.828 127.758 216.305 128.008 216.695 128.328C217.086 128.656 217.383 129.055 217.586 129.516C217.789 129.977 217.891 130.5 217.891 131.078C217.891 131.656 217.789 132.18 217.586 132.648C217.383 133.117 217.086 133.516 216.695 133.852C216.305 134.188 215.828 134.453 215.258 134.633C214.688 134.812 214.031 134.906 213.297 134.906ZM223.102 125.156V137H225.812V128.539L233.711 137H236.469V125.156H233.773V133.273L226.227 125.156H223.102Z" fill="black"/>
<path d="M158.899 72.7451L158.898 72.7431L151.399 59.7503C150.158 57.5914 147.4 56.8663 145.254 58.1009L145.252 58.1021L135.906 63.4985H126.727C125.317 63.4985 123.948 63.8982 122.761 64.6318L122.761 64.6318L122.755 64.6353L119.617 66.5931C118.285 67.4171 117.502 68.8708 117.502 70.4083V82.2499C117.502 85.1503 119.852 87.5003 122.752 87.5003C125.652 87.5003 128.002 85.1503 128.002 82.2499V75.4992H143.752C145.82 75.4992 147.502 77.1809 147.502 79.2497V81.9218V84.5203L149.752 83.2207L157.252 78.8891L157.256 78.8867C159.404 77.6376 160.136 74.8959 158.899 72.7451Z" fill="#EFC65F" stroke="black" stroke-width="3"/>
<path d="M129.502 75.4995H128.002V76.9995V82.2499C128.002 85.1438 125.645 87.5005 122.752 87.5005C119.859 87.5005 117.502 85.1438 117.502 82.2499V70.849V68.1975L115.229 69.5633L109.15 73.217C109.149 73.2175 109.148 73.218 109.147 73.2185C106.883 74.5689 105.502 77.0184 105.502 79.6435V83.2123L98.7542 87.1096C98.7538 87.1098 98.7534 87.11 98.753 87.1103C96.6031 88.3478 95.8552 91.1033 97.1073 93.2589C97.1077 93.2597 97.1082 93.2604 97.1086 93.2612L104.605 106.25C104.605 106.25 104.605 106.25 104.605 106.251C105.847 108.409 108.604 109.134 110.75 107.899L110.752 107.898L120.098 102.502H132.502C136.126 102.502 139.156 99.9219 139.852 96.501H140.002C142.49 96.501 144.502 94.4886 144.502 92.0008V87.4256C146.216 87.0794 147.502 85.5684 147.502 83.7501V79.2497C147.502 77.1744 145.827 75.4995 143.752 75.4995H129.502Z" fill="#EEBECE" stroke="black" stroke-width="3"/>
</svg>
