<svg width="200" height="200" viewBox="0 0 200 200" fill="none" xmlns="http://www.w3.org/2000/svg">
<path d="M1.01398 130.841C-1.79169 137.615 1.42482 145.38 8.19824 148.186L39.0395 160.96L51.8144 191.802C54.62 198.575 62.3853 201.792 69.1587 198.986L100 186.211L130.841 198.986C137.615 201.792 145.38 198.575 148.186 191.802L160.96 160.961L191.802 148.186C198.575 145.38 201.792 137.615 198.986 130.841L186.211 100L198.986 69.1587C201.792 62.3853 198.575 54.62 191.802 51.8144L160.96 39.0395L148.186 8.19822C145.38 1.42484 137.615 -1.79168 130.841 1.01396L100 13.7889L69.1587 1.01397C62.3853 -1.79166 54.62 1.42485 51.8144 8.19823L39.0395 39.0395L8.19823 51.8144C1.42487 54.62 -1.79166 62.3853 1.01397 69.1587L13.7888 100L1.01398 130.841Z" fill="#9CA4F0"/>
<path d="M32.5563 112.098L44.3997 112.014L44.3207 100.842L41.9848 100.859L42.0439 109.21L32.5363 109.277L32.5563 112.098Z" fill="black"/>
<path d="M33.6375 92.0353L44.1461 100.343L44.6892 97.5998L42.5638 95.9048L43.9307 88.9998L46.5446 88.227L47.1317 85.2611L34.2458 88.9622L33.6375 92.0353ZM41.6643 89.6263L40.7071 94.4621L36.5254 91.1257L41.6643 89.6263Z" fill="black"/>
<path d="M52.5352 75.2768C52.9818 74.5334 53.3158 73.7954 53.544 73.0666C53.7681 72.3446 53.8784 71.6452 53.8922 70.97C53.9059 70.2947 53.8152 69.6569 53.6239 69.0498C53.4326 68.4428 53.1569 67.8853 52.7794 67.3759L50.7312 69.1166C50.9561 69.4249 51.1368 69.7613 51.2518 70.1311C51.3735 70.505 51.4309 70.8949 51.4227 71.3183C51.4144 71.7417 51.3418 72.1811 51.2009 72.6433C51.0599 73.1054 50.848 73.5796 50.5543 74.0685C50.1681 74.7114 49.7498 75.2257 49.2953 75.618C48.8476 76.0144 48.3745 76.2861 47.8894 76.4412C47.4043 76.5964 46.9072 76.635 46.3981 76.557C45.889 76.479 45.392 76.2898 44.8965 75.9921C44.3942 75.6904 43.9978 75.3338 43.7033 74.929C43.4087 74.5242 43.22 74.0645 43.1359 73.5674C43.0585 73.0743 43.0896 72.537 43.2359 71.9596C43.3783 71.3889 43.6385 70.7888 44.0167 70.1593C44.3104 69.6705 44.6268 69.2499 44.9579 68.9111C45.2891 68.5723 45.6295 68.2938 45.978 68.093C46.3265 67.8923 46.6803 67.7585 47.0327 67.6876C47.3918 67.6208 47.7321 67.6157 48.0603 67.6761L48.7196 65.0009C48.1918 64.8934 47.6358 64.8783 47.0556 64.949C46.4781 65.0305 45.8992 65.2204 45.3189 65.5189C44.7412 65.828 44.1649 66.2565 43.5965 66.8082C43.0308 67.3706 42.4931 68.0684 41.9822 68.9189C41.6362 69.4948 41.3491 70.0788 41.1184 70.6602C40.8903 71.2523 40.7292 71.839 40.6351 72.4205C40.541 73.0019 40.5179 73.5713 40.5765 74.126C40.6311 74.6875 40.7715 75.2275 40.995 75.7354C41.2145 76.25 41.5277 76.7299 41.9308 77.1816C42.3338 77.6333 42.8387 78.0369 43.4481 78.403C44.3589 78.9502 45.2417 79.2709 46.0938 79.3544C46.9526 79.442 47.7632 79.3366 48.5324 79.0422C49.3017 78.7479 50.0254 78.2713 50.6957 77.6258C51.366 76.9804 51.9841 76.1943 52.5352 75.2768Z" fill="black"/>
<path d="M61.7833 64.3293C62.2917 63.8901 62.7466 63.4248 63.1481 62.9335C63.5547 62.4481 63.8908 61.9409 64.1624 61.4068C64.4333 60.8838 64.6278 60.3441 64.7511 59.7936C64.8684 59.2483 64.9087 58.6973 64.8557 58.134C64.8018 57.5817 64.6539 57.0281 64.4069 56.4673C64.1649 55.9123 63.8111 55.3713 63.3464 54.8334C62.8816 54.2954 62.3919 53.8719 61.8729 53.5459C61.359 53.2259 60.8268 53.0043 60.2831 52.8649C59.7385 52.7365 59.1825 52.6903 58.62 52.7323C58.0516 52.7794 57.4944 52.8994 56.9376 53.0914C56.3808 53.2833 55.8301 53.5422 55.2916 53.8629C54.7522 54.1947 54.2317 54.5721 53.7292 55.0062C53.2266 55.4403 52.7776 55.9005 52.377 56.3808C51.9755 56.8721 51.6394 57.3793 51.3744 57.8973C51.1036 58.4203 50.904 58.9541 50.7807 59.5045C50.6515 60.0601 50.6164 60.6169 50.6702 61.1692C50.7232 61.7325 50.8711 62.2862 51.1131 62.8411C51.3602 63.402 51.708 63.948 52.1728 64.486C52.6375 65.024 53.1214 65.4526 53.6353 65.7726C54.1543 66.0986 54.6805 66.3253 55.2192 66.4588C55.7629 66.5982 56.3138 66.6385 56.8763 66.5965C57.4329 66.5596 57.9952 66.4455 58.552 66.2536C59.1139 66.0675 59.6646 65.8086 60.2039 65.4769C60.7484 65.1511 61.2748 64.7686 61.7833 64.3293ZM60.2562 62.5617C59.7005 63.0417 59.1485 63.3947 58.5995 63.6316C58.0504 63.8684 57.5102 63.984 56.995 63.9852C56.4798 63.9863 55.9947 63.8789 55.5346 63.657C55.0744 63.435 54.6554 63.1053 54.2774 62.6679C53.8995 62.2304 53.6342 61.7679 53.4865 61.2863C53.3389 60.8047 53.3031 60.3091 53.3842 59.8054C53.4704 59.3077 53.6735 58.8019 53.9876 58.2931C54.3068 57.7902 54.7414 57.3012 55.2971 56.8211C55.8528 56.3411 56.4056 55.9771 56.9495 55.7343C57.4986 55.4975 58.0226 55.3751 58.5276 55.3621C59.0377 55.3551 59.5228 55.4625 59.9779 55.6785C60.4329 55.8946 60.852 56.2243 61.2299 56.6617C61.6078 57.0992 61.8732 57.5617 62.0259 58.0492C62.1786 58.5367 62.2144 59.0323 62.1384 59.5419C62.0624 60.0515 61.8755 60.564 61.5614 61.0728C61.2473 61.5816 60.8119 62.0816 60.2562 62.5617Z" fill="black"/>
<path d="M63.7784 47.8266L68.6202 58.6354L71.0943 57.5272L67.6354 49.8056L78.3026 54.2982L80.8194 53.1708L75.9776 42.362L73.5178 43.4638L76.8362 50.8717L66.6303 46.5491L63.7784 47.8266Z" fill="black"/>
<path d="M89.2746 51.4849C90.1222 51.3018 90.8889 51.0402 91.5764 50.7079C92.2563 50.3772 92.8417 49.9789 93.3435 49.5268C93.8452 49.0748 94.2482 48.5721 94.5599 48.0172C94.8716 47.4623 95.0895 46.8797 95.2025 46.2558L92.5316 45.9537C92.4607 46.3286 92.3391 46.6906 92.1481 47.0276C91.9588 47.3722 91.7138 47.6809 91.3994 47.9646C91.0851 48.2483 90.715 48.4961 90.2815 48.7097C89.8481 48.9232 89.3573 49.0932 88.7999 49.2136C88.0668 49.372 87.4055 49.4189 86.8085 49.3561C86.2131 49.3009 85.6912 49.1419 85.2461 48.8943C84.8009 48.6468 84.4326 48.3108 84.1411 47.8862C83.8495 47.4616 83.6474 46.9698 83.5253 46.4047C83.4015 45.832 83.3903 45.2989 83.4839 44.8071C83.5774 44.3153 83.7835 43.8632 84.0884 43.4616C84.3949 43.0677 84.8079 42.7227 85.3291 42.4343C85.8426 42.1475 86.4583 41.9266 87.1761 41.7715C87.7336 41.6511 88.2567 41.594 88.7304 41.6036C89.204 41.6131 89.6401 41.6708 90.025 41.7875C90.4098 41.9041 90.7495 42.0705 91.0423 42.279C91.3368 42.4951 91.5735 42.7397 91.754 43.0205L94.1559 41.6703C93.873 41.2119 93.5035 40.7962 93.0549 40.4215C92.6003 40.0562 92.0656 39.764 91.4508 39.5452C90.8301 39.3356 90.1232 39.2085 89.332 39.1717C88.5347 39.1441 87.658 39.2296 86.6882 39.4391C86.0315 39.581 85.4092 39.7714 84.8274 40.001C84.2396 40.2399 83.7015 40.5239 83.2132 40.8532C82.7248 41.1825 82.2938 41.5554 81.9295 41.9778C81.5575 42.4018 81.2598 42.8738 81.0424 43.3843C80.8174 43.8965 80.6819 44.4533 80.6284 45.0563C80.5748 45.6594 80.6261 46.3037 80.7762 46.9986C81.0006 48.0371 81.3709 48.9003 81.8931 49.5787C82.417 50.2648 83.0486 50.7838 83.7897 51.1432C84.5307 51.5027 85.3735 51.7042 86.3029 51.7512C87.2322 51.7982 88.2284 51.7109 89.2746 51.4849Z" fill="black"/>
<path d="M104.197 50.1775C104.863 50.2715 105.512 50.3082 106.146 50.2874C106.78 50.2743 107.383 50.1939 107.964 50.0473C108.536 49.9072 109.07 49.6988 109.566 49.4296C110.054 49.1593 110.495 48.8272 110.885 48.4168C111.265 48.013 111.585 47.5374 111.845 46.9824C112.104 46.4352 112.279 45.8129 112.378 45.1089C112.478 44.405 112.475 43.7576 112.379 43.1522C112.282 42.5546 112.099 42.008 111.846 41.5068C111.585 41.0122 111.254 40.5629 110.852 40.1669C110.443 39.7697 109.986 39.429 109.475 39.1358C108.964 38.8426 108.407 38.5981 107.811 38.4034C107.207 38.2153 106.58 38.0715 105.922 37.9785C105.265 37.8855 104.623 37.85 103.998 37.8641C103.363 37.8849 102.76 37.9653 102.196 38.1064C101.624 38.2465 101.09 38.4472 100.595 38.7164C100.091 38.9845 99.6488 39.3243 99.2682 39.7281C98.8787 40.1385 98.559 40.6141 98.3001 41.1614C98.0402 41.7164 97.8576 42.3375 97.7581 43.0415C97.6586 43.7454 97.6539 44.3918 97.7509 44.9894C97.8468 45.5947 98.0221 46.1402 98.2758 46.6337C98.5285 47.135 98.8605 47.5765 99.2622 47.9725C99.6561 48.3675 100.112 48.716 100.623 49.0092C101.132 49.3101 101.69 49.5546 102.294 49.7426C102.898 49.9384 103.532 50.0834 104.197 50.1775ZM104.524 47.8645C103.797 47.7617 103.168 47.5781 102.629 47.3203C102.089 47.0625 101.647 46.7317 101.307 46.3444C100.967 45.9571 100.729 45.521 100.594 45.0284C100.458 44.5358 100.431 44.0033 100.512 43.4309C100.593 42.8585 100.767 42.3544 101.032 41.9265C101.298 41.4985 101.648 41.1456 102.081 40.8754C102.512 40.6129 103.027 40.4332 103.617 40.3351C104.205 40.2448 104.859 40.2505 105.587 40.3533C106.314 40.4561 106.952 40.6331 107.492 40.8832C108.032 41.1409 108.469 41.4552 108.81 41.827C109.151 42.2066 109.389 42.6427 109.526 43.1276C109.663 43.6124 109.69 44.1449 109.609 44.7173C109.528 45.2898 109.354 45.7938 109.087 46.2295C108.821 46.6652 108.471 47.0181 108.037 47.2961C107.603 47.574 107.094 47.7703 106.504 47.8684C105.914 47.9664 105.252 47.9674 104.524 47.8645Z" fill="black"/>
<path d="M117.153 40.3522L113.13 51.4917L115.746 52.4365L117.2 48.4098L121.734 50.0471L122.565 54.8991L125.386 55.9181L124.504 50.6324C125.358 50.6832 126.067 50.5154 126.645 50.1344C127.222 49.7533 127.663 49.1316 127.973 48.2719C128.204 47.6326 128.3 47.0444 128.264 46.5245C128.22 46.002 128.059 45.5284 127.78 45.1038C127.492 44.684 127.096 44.3084 126.592 43.9771C126.086 43.6532 125.478 43.3588 124.78 43.1067L117.153 40.3522ZM122.875 48.0835L117.959 46.3082L118.975 43.4939L123.891 45.2693C124.575 45.5161 125.042 45.8094 125.283 46.1539C125.517 46.4958 125.548 46.9143 125.368 47.4139C125.19 47.9062 124.901 48.2006 124.508 48.2995C124.105 48.4032 123.558 48.3303 122.875 48.0835Z" fill="black"/>
<path d="M133.222 46.6161L126.865 56.6091L132.646 60.2867C133.147 60.6054 133.66 60.8762 134.182 61.0882C134.705 61.3003 135.22 61.4518 135.741 61.5338C136.259 61.6224 136.773 61.6439 137.288 61.5917C137.796 61.5353 138.294 61.4076 138.777 61.187C139.26 60.9664 139.717 60.6554 140.161 60.2622C140.599 59.8649 141.013 59.3597 141.395 58.7599C141.781 58.1535 142.059 57.571 142.233 57.0059C142.407 56.4409 142.491 55.9016 142.482 55.3773C142.469 54.8596 142.38 54.3587 142.207 53.8877C142.035 53.4168 141.793 52.9669 141.489 52.5421C141.179 52.1131 140.813 51.7135 140.395 51.3367C139.973 50.9664 139.511 50.6166 139.003 50.2937L133.222 46.6161ZM133.901 58.3721L130.46 56.1832L134.322 50.1122L137.737 52.2844C138.31 52.6492 138.758 53.0362 139.064 53.4436C139.37 53.851 139.563 54.2608 139.645 54.6839C139.728 55.1069 139.711 55.5407 139.593 55.9745C139.474 56.4084 139.271 56.844 138.999 57.2725C138.705 57.7339 138.384 58.1222 138.033 58.4266C137.682 58.7311 137.288 58.9433 136.872 59.0584C136.449 59.1693 135.992 59.1747 135.5 59.0747C135.002 58.9706 134.474 58.7369 133.901 58.3721Z" fill="black"/>
<path d="M151.595 60.6089L138.617 63.9317L140.47 66.0266L143.107 65.3635L147.77 70.6359L146.801 73.1833L148.804 75.4479L153.67 62.9555L151.595 60.6089ZM148.646 68.4535L145.38 64.7611L150.568 63.4572L148.646 68.4535Z" fill="black"/>
<path d="M160.111 71.741L149.189 76.3234L150.238 78.8232L158.04 75.5497L153.294 86.1065L154.361 88.6495L165.282 84.0672L164.24 81.5818L156.755 84.7223L161.32 74.6227L160.111 71.741Z" fill="black"/>
<path d="M155.187 97.0346C155.283 97.8964 155.466 98.6857 155.727 99.4033C155.987 100.113 156.323 100.736 156.722 101.281C157.121 101.826 157.581 102.278 158.101 102.644C158.621 103.011 159.179 103.286 159.788 103.462L160.359 100.835C159.994 100.727 159.646 100.569 159.33 100.345C159.006 100.122 158.724 99.8468 158.474 99.5053C158.223 99.1638 158.014 98.7705 157.846 98.3176C157.677 97.8648 157.558 97.3593 157.495 96.7925C157.411 96.0471 157.432 95.3845 157.555 94.7969C157.67 94.2102 157.881 93.7071 158.172 93.2894C158.464 92.8716 158.835 92.5393 159.287 92.2923C159.739 92.0452 160.249 91.894 160.824 91.8298C161.406 91.7647 161.937 91.8076 162.417 91.9505C162.897 92.0934 163.326 92.3443 163.694 92.6883C164.055 93.0332 164.357 93.479 164.591 94.0267C164.824 94.5667 164.981 95.2016 165.063 95.9314C165.126 96.4982 165.13 97.0245 165.072 97.4947C165.015 97.9649 164.913 98.3929 164.758 98.764C164.603 99.1351 164.403 99.4561 164.166 99.7263C163.921 99.9973 163.654 100.208 163.356 100.359L164.456 102.886C164.941 102.651 165.392 102.325 165.81 101.917C166.22 101.501 166.564 100.999 166.844 100.41C167.116 99.8134 167.314 99.1231 167.431 98.3397C167.539 97.5494 167.543 96.6685 167.433 95.6824C167.358 95.0147 167.232 94.3763 167.062 93.7742C166.884 93.1653 166.656 92.6011 166.378 92.0819C166.1 91.5627 165.773 91.0962 165.389 90.6909C165.005 90.2779 164.566 89.9339 164.08 89.6659C163.593 89.3901 163.053 89.1988 162.459 89.0844C161.864 88.97 161.218 88.9558 160.511 89.0347C159.455 89.1526 158.559 89.4335 157.831 89.8843C157.096 90.336 156.515 90.9117 156.083 91.6125C155.65 92.3133 155.364 93.1314 155.223 94.0512C155.082 94.9709 155.068 95.9709 155.187 97.0346Z" fill="black"/>
<path d="M167.737 106.444L155.948 105.302L154.824 116.912L157.149 117.137L158.002 108.334L160.568 108.583L159.885 115.636L162.148 115.855L162.831 108.802L165.07 109.019L164.242 117.573L166.637 117.805L167.737 106.444Z" fill="black"/>
<path d="M59.6156 157.893C59.9331 158.141 60.2406 158.347 60.5476 158.51C60.8493 158.668 61.1378 158.798 61.4121 158.892C61.681 158.981 61.9368 159.042 62.1742 159.072C62.4073 159.107 62.6177 159.115 62.8 159.093C62.5874 159.386 62.4492 159.652 62.3855 159.888L63.8763 161.056C63.9496 160.818 64.0656 160.57 64.2307 160.326C64.3904 160.078 64.5735 159.822 64.7716 159.569L70.099 152.766L68.6458 151.628L66.4331 154.454C66.3372 154.066 66.1365 153.657 65.8298 153.217C65.5189 152.783 65.1132 152.369 64.618 151.982C64.2036 151.657 63.7452 151.411 63.2427 151.243C62.7402 151.075 62.2398 151.005 61.7361 151.027C61.2228 151.051 60.732 151.178 60.2582 151.407C59.7802 151.64 59.3557 151.993 58.989 152.462C58.5928 152.968 58.3291 153.482 58.2075 154.003C58.0805 154.52 58.059 155.024 58.1462 155.5C58.2333 155.977 58.4045 156.423 58.664 156.835C58.9234 157.247 59.2388 157.598 59.6156 157.893ZM61.096 157.133C60.8161 156.914 60.5777 156.675 60.3795 156.407C60.1813 156.139 60.0396 155.854 59.9596 155.557C59.8797 155.26 59.8669 154.955 59.9267 154.646C59.9865 154.337 60.138 154.021 60.3782 153.715C60.6185 153.408 60.8884 153.185 61.1827 153.042C61.4769 152.899 61.7805 152.833 62.0965 152.829C62.4083 152.83 62.7174 152.89 63.0336 153.007C63.3456 153.13 63.6334 153.294 63.9025 153.505C64.0855 153.648 64.2654 153.807 64.4327 153.981C64.6 154.155 64.7535 154.336 64.8932 154.524C65.0287 154.717 65.1503 154.916 65.2474 155.114C65.3402 155.317 65.4127 155.513 65.4511 155.708L63.6008 158.07C63.491 158.088 63.3447 158.087 63.1662 158.06C62.9834 158.038 62.7779 157.99 62.5539 157.91C62.3257 157.836 62.0898 157.738 61.8408 157.612C61.5865 157.483 61.3382 157.323 61.096 157.133Z" fill="black"/>
<path d="M69.0288 160.679L75.2968 164.176L75.5066 163.8C75.7764 163.317 75.9625 162.857 76.0642 162.436C76.1659 162.016 76.1992 161.619 76.164 161.247C76.1289 160.875 76.0372 160.535 75.8891 160.225C75.7409 159.915 75.5489 159.628 75.319 159.367C75.0891 159.105 74.8339 158.861 74.5468 158.646C74.2538 158.428 73.9533 158.237 73.6429 158.064C73.3325 157.89 73.0028 157.738 72.6598 157.609C72.3074 157.483 71.9537 157.387 71.5979 157.337C71.2362 157.284 70.8757 157.271 70.5224 157.301C70.1598 157.333 69.813 157.422 69.4821 157.566C69.1452 157.707 68.8328 157.916 68.5361 158.181C68.2362 158.452 67.9726 158.798 67.7361 159.222C67.3997 159.825 67.2207 160.398 67.205 160.945C67.1894 161.492 67.2854 162.008 67.5056 162.483C67.7225 162.964 68.0331 163.403 68.4467 163.798C68.8602 164.194 69.325 164.539 69.8504 164.832C70.3458 165.109 70.8075 165.319 71.2415 165.468C71.6695 165.612 72.0757 165.698 72.4567 165.731C72.8378 165.763 73.1877 165.739 73.5219 165.66C73.8527 165.586 74.1676 165.456 74.4601 165.283L73.3605 163.887C72.9551 164.122 72.5319 164.207 72.0845 164.153C71.6371 164.099 71.1435 163.918 70.6062 163.618C70.3137 163.455 70.0558 163.272 69.8205 163.062C69.5851 162.852 69.3937 162.62 69.2487 162.375C69.0978 162.126 69.006 161.856 68.9607 161.572C68.9154 161.289 68.9379 160.996 69.0288 160.679ZM72.9268 159.347C73.2491 159.527 73.525 159.72 73.7636 159.924C73.9963 160.124 74.1791 160.343 74.3095 160.573C74.4399 160.802 74.5085 161.044 74.5273 161.305C74.546 161.566 74.4937 161.842 74.3737 162.127L69.6936 159.516C69.9311 159.272 70.1897 159.104 70.4727 159.003C70.7524 158.909 71.042 158.867 71.3321 158.88C71.6163 158.89 71.9017 158.939 72.1824 159.026C72.4538 159.114 72.7059 159.224 72.9268 159.347Z" fill="black"/>
<path d="M80.2698 169.527C81.5815 169.98 82.6367 170.149 83.425 170.024C84.2111 169.905 84.7303 169.47 84.9915 168.714C85.1322 168.307 85.1556 167.946 85.0575 167.623C84.9572 167.306 84.7702 167.01 84.5029 166.737C84.2334 166.47 83.8989 166.224 83.5014 165.993C83.0976 165.759 82.6676 165.539 82.2073 165.322C81.8353 165.143 81.502 164.977 81.2053 164.831C80.8998 164.689 80.6528 164.546 80.4532 164.412C80.2536 164.278 80.1102 164.149 80.0274 164.012C79.9423 163.881 79.9266 163.738 79.9824 163.577C80.0226 163.46 80.0906 163.368 80.1929 163.302C80.2888 163.234 80.4254 163.194 80.6093 163.186C80.7844 163.181 81.009 163.201 81.2787 163.258C81.5418 163.313 81.8693 163.411 82.2505 163.543C82.5865 163.659 82.89 163.786 83.1586 163.929C83.4208 164.07 83.6569 164.224 83.8628 164.382C84.0621 164.538 84.2376 164.7 84.385 164.859C84.5238 165.023 84.6431 165.18 84.7279 165.332L86.1334 164.718C86.0341 164.503 85.8961 164.275 85.7213 164.048C85.54 163.819 85.3068 163.594 85.0217 163.372C84.7366 163.151 84.3931 162.931 83.9912 162.712C83.5871 162.5 83.1137 162.301 82.5645 162.111C82.0541 161.935 81.5668 161.817 81.1049 161.751C80.6407 161.692 80.2255 161.701 79.8551 161.768C79.476 161.839 79.1524 161.981 78.8864 162.185C78.6182 162.396 78.4183 162.682 78.2846 163.048C78.144 163.455 78.1271 163.818 78.2403 164.139C78.3535 164.46 78.5405 164.756 78.8165 165.025C79.0924 165.294 79.427 165.54 79.8244 165.771C80.2218 166.003 80.6389 166.219 81.0733 166.427C81.4776 166.617 81.8368 166.792 82.1422 166.934C82.4454 167.082 82.6882 167.216 82.8813 167.348C83.068 167.478 83.1963 167.609 83.2749 167.737C83.3448 167.87 83.354 168.011 83.2982 168.172C83.2514 168.308 83.1702 168.417 83.0505 168.492C82.9307 168.566 82.766 168.603 82.5606 168.612C82.3551 168.62 82.1069 168.585 81.805 168.517C81.503 168.449 81.141 168.345 80.7275 168.202C80.3333 168.066 79.9804 167.915 79.6775 167.746C79.3723 167.582 79.1125 167.413 78.9005 167.231C78.6798 167.054 78.5023 166.877 78.3702 166.694C78.2317 166.508 78.1342 166.33 78.0713 166.156L76.6158 166.601C76.6801 166.855 76.794 167.111 76.9599 167.364C77.1235 167.623 77.3542 167.876 77.6498 168.13C77.9454 168.384 78.308 168.632 78.74 168.868C79.1719 169.104 79.6819 169.324 80.2698 169.527Z" fill="black"/>
<path d="M95.2786 172.541C95.5103 172.559 95.7494 172.571 95.989 172.576C96.2286 172.582 96.4551 172.579 96.6679 172.575C96.874 172.571 97.0528 172.565 97.2043 172.556C97.3559 172.548 97.4524 172.541 97.5006 172.538L97.6176 171.06C97.5552 171.068 97.4519 171.074 97.3146 171.077C97.1766 171.086 97.0325 171.089 96.8746 171.09C96.7168 171.091 96.559 171.092 96.4017 171.087C96.2445 171.081 96.1213 171.078 96.0259 171.071C95.8078 171.054 95.6186 171.018 95.4646 170.972C95.3037 170.924 95.1796 170.846 95.0855 170.736C94.9908 170.632 94.9193 170.496 94.8851 170.322C94.8508 170.148 94.8403 169.935 94.8608 169.676L95.1181 166.425L98.0892 166.66L98.2057 165.188L95.2346 164.953L95.4373 162.391L93.5906 162.245L93.3878 164.807L91.1594 164.631L91.0429 166.103L93.2713 166.279L92.979 169.972C92.9482 170.361 92.9684 170.712 93.0338 171.012C93.0992 171.312 93.2161 171.568 93.3981 171.782C93.5801 171.995 93.8204 172.165 94.1326 172.292C94.4379 172.419 94.8221 172.505 95.2786 172.541Z" fill="black"/>
<path d="M102.475 169.421L109.608 168.623L109.56 168.195C109.499 167.645 109.383 167.162 109.221 166.761C109.059 166.359 108.856 166.017 108.611 165.735C108.366 165.453 108.094 165.229 107.793 165.063C107.492 164.897 107.169 164.775 106.83 164.696C106.491 164.617 106.142 164.567 105.783 164.559C105.418 164.552 105.062 164.571 104.709 164.61C104.356 164.65 103.999 164.717 103.645 164.812C103.285 164.914 102.941 165.042 102.623 165.208C102.297 165.375 101.996 165.574 101.726 165.804C101.45 166.041 101.219 166.314 101.034 166.624C100.842 166.934 100.709 167.286 100.622 167.674C100.535 168.069 100.522 168.504 100.576 168.987C100.653 169.673 100.84 170.243 101.146 170.697C101.451 171.152 101.829 171.515 102.284 171.774C102.74 172.039 103.248 172.216 103.815 172.297C104.381 172.379 104.96 172.389 105.558 172.323C106.122 172.259 106.62 172.162 107.059 172.031C107.491 171.9 107.872 171.734 108.201 171.539C108.53 171.344 108.801 171.121 109.026 170.862C109.252 170.609 109.433 170.321 109.571 170.01L107.864 169.513C107.671 169.94 107.376 170.255 106.981 170.471C106.585 170.687 106.078 170.827 105.467 170.895C105.134 170.932 104.818 170.933 104.504 170.9C104.191 170.866 103.9 170.788 103.64 170.673C103.373 170.558 103.141 170.392 102.939 170.187C102.737 169.983 102.585 169.732 102.475 169.421ZM104.872 166.071C105.239 166.03 105.576 166.027 105.888 166.054C106.194 166.081 106.47 166.154 106.71 166.264C106.949 166.375 107.146 166.532 107.313 166.733C107.48 166.935 107.597 167.19 107.666 167.492L102.339 168.088C102.391 167.752 102.504 167.464 102.676 167.218C102.848 166.978 103.059 166.776 103.303 166.618C103.54 166.461 103.801 166.335 104.08 166.242C104.352 166.157 104.621 166.099 104.872 166.071Z" fill="black"/>
<path d="M110.946 164.176L113.477 171.184L115.2 170.562L113.463 165.753C113.554 165.603 113.674 165.451 113.825 165.288C113.977 165.124 114.153 164.966 114.352 164.814C114.552 164.662 114.771 164.524 115.005 164.389C115.242 164.26 115.492 164.147 115.756 164.052C116.36 163.834 116.83 163.766 117.161 163.857C117.492 163.948 117.72 164.178 117.853 164.545L119.469 169.02L121.218 168.388L119.476 163.566L119.474 163.56C119.765 163.178 120.103 162.845 120.493 162.559C120.878 162.275 121.298 162.05 121.754 161.885C122.365 161.665 122.841 161.594 123.172 161.686C123.503 161.777 123.738 162.004 123.871 162.371L125.487 166.846L127.223 166.219L125.481 161.397C125.316 160.94 125.117 160.59 124.873 160.337C124.629 160.084 124.363 159.911 124.06 159.817C123.759 159.729 123.424 159.705 123.07 159.753C122.71 159.803 122.332 159.903 121.927 160.049C121.233 160.3 120.618 160.631 120.084 161.042C119.551 161.46 119.122 161.921 118.797 162.43C118.617 162.255 118.42 162.131 118.208 162.047C117.996 161.964 117.768 161.915 117.525 161.908C117.283 161.902 117.022 161.923 116.751 161.978C116.482 162.038 116.199 162.119 115.909 162.223C115.517 162.365 115.156 162.532 114.834 162.728C114.506 162.927 114.221 163.124 113.969 163.331C113.717 163.539 113.512 163.736 113.339 163.922C113.169 164.115 113.052 164.273 112.975 164.403L112.669 163.554L110.946 164.176Z" fill="black"/>
<path d="M126.075 158.16L131.477 166.876L133.034 165.911L131.19 162.936C131.596 162.982 132.067 162.923 132.594 162.774C133.124 162.63 133.692 162.367 134.308 161.985C134.581 161.816 134.836 161.617 135.07 161.384C135.307 161.157 135.505 160.905 135.679 160.628C135.853 160.352 135.992 160.056 136.095 159.743C136.199 159.43 136.251 159.1 136.257 158.758C136.263 158.417 136.216 158.068 136.118 157.703C136.018 157.347 135.859 156.987 135.632 156.62C135.279 156.051 134.88 155.615 134.438 155.317C133.991 155.024 133.534 154.832 133.061 154.756C132.587 154.679 132.11 154.701 131.642 154.815C131.167 154.932 130.727 155.116 130.32 155.369C129.983 155.577 129.684 155.795 129.428 156.018C129.176 156.247 128.954 156.473 128.772 156.698C128.59 156.924 128.444 157.143 128.331 157.349C128.221 157.562 128.141 157.757 128.09 157.933L127.632 157.195L126.075 158.16ZM133.031 161.015C132.834 161.137 132.625 161.242 132.404 161.339C132.183 161.436 131.954 161.522 131.726 161.582C131.502 161.649 131.273 161.694 131.05 161.712C130.832 161.735 130.619 161.73 130.423 161.698L128.849 159.159C128.876 159.046 128.934 158.906 129.017 158.742C129.104 158.583 129.22 158.407 129.368 158.218C129.514 158.039 129.688 157.852 129.891 157.661C130.095 157.471 130.33 157.292 130.592 157.13C130.894 156.943 131.206 156.798 131.526 156.704C131.846 156.61 132.158 156.57 132.465 156.597C132.771 156.624 133.066 156.723 133.341 156.882C133.611 157.045 133.855 157.296 134.06 157.627C134.265 157.958 134.381 158.288 134.414 158.614C134.447 158.939 134.405 159.247 134.296 159.539C134.192 159.837 134.029 160.107 133.806 160.358C133.587 160.614 133.328 160.831 133.031 161.015Z" fill="black"/>
<path d="M142.774 155.851C143.842 154.965 144.534 154.151 144.836 153.412C145.142 152.678 145.039 152.008 144.528 151.393C144.253 151.061 143.957 150.854 143.63 150.77C143.307 150.692 142.957 150.698 142.584 150.785C142.217 150.877 141.833 151.035 141.429 151.255C141.02 151.479 140.608 151.732 140.184 152.013C139.838 152.238 139.523 152.437 139.244 152.615C138.965 152.803 138.714 152.94 138.496 153.041C138.278 153.142 138.093 153.198 137.933 153.197C137.777 153.202 137.647 153.142 137.538 153.01C137.459 152.915 137.415 152.809 137.412 152.688C137.404 152.57 137.441 152.433 137.529 152.271C137.616 152.119 137.749 151.937 137.938 151.736C138.121 151.54 138.375 151.311 138.686 151.054C138.959 150.827 139.225 150.633 139.487 150.477C139.743 150.327 139.997 150.205 140.239 150.11C140.476 150.021 140.705 149.955 140.918 149.911C141.13 149.878 141.326 149.857 141.5 149.864L141.704 148.344C141.469 148.317 141.202 148.316 140.918 148.348C140.628 148.384 140.314 148.467 139.977 148.596C139.64 148.725 139.274 148.904 138.878 149.134C138.488 149.37 138.071 149.671 137.624 150.042C137.209 150.387 136.855 150.743 136.559 151.103C136.268 151.47 136.06 151.829 135.925 152.181C135.79 152.542 135.743 152.892 135.78 153.225C135.821 153.564 135.961 153.883 136.205 154.187C136.48 154.519 136.781 154.721 137.115 154.791C137.448 154.861 137.798 154.855 138.171 154.758C138.544 154.662 138.928 154.503 139.332 154.284C139.736 154.064 140.137 153.82 140.54 153.556C140.913 153.309 141.249 153.093 141.528 152.905C141.812 152.723 142.053 152.585 142.266 152.488C142.474 152.396 142.652 152.354 142.803 152.354C142.952 152.363 143.077 152.428 143.187 152.559C143.278 152.67 143.33 152.796 143.331 152.937C143.333 153.078 143.279 153.238 143.18 153.418C143.08 153.598 142.921 153.792 142.707 154.015C142.492 154.237 142.215 154.493 141.879 154.773C141.558 155.039 141.246 155.263 140.944 155.433C140.646 155.61 140.366 155.744 140.101 155.831C139.835 155.927 139.591 155.987 139.366 156.005C139.136 156.028 138.933 156.018 138.752 155.982L138.377 157.457C138.627 157.534 138.905 157.569 139.207 157.559C139.514 157.553 139.85 157.487 140.22 157.366C140.591 157.245 140.991 157.064 141.417 156.817C141.843 156.57 142.295 156.248 142.774 155.851Z" fill="black"/>
<path d="M118.897 88.2727C119.855 87.7266 120.5 86.6965 120.5 85.5156V83.1719C120.5 81.4201 119.08 80 117.328 80H82.1719C80.4201 80 79 81.4201 79 83.1719V85.5156C79 86.6964 79.6453 87.7266 80.6025 88.2726C80.9498 95.183 83.5699 102.424 88.7568 107C83.5516 111.591 80.9489 118.849 80.6025 125.727C79.6453 126.273 79 127.304 79 128.484V130.828C79 132.58 80.4201 134 82.1719 134H117.328C119.08 134 120.5 132.58 120.5 130.828V128.484C120.5 127.304 119.855 126.273 118.898 125.727C118.55 118.817 115.93 111.576 110.743 107C115.949 102.409 118.551 95.1512 118.897 88.2727ZM110.167 88.6875C109.851 92.4694 108.653 95.7983 106.947 98.2512C104.941 101.135 102.364 102.656 99.75 102.656C97.1356 102.656 94.5593 101.135 92.553 98.2512C90.8466 95.7984 89.6489 92.4694 89.3329 88.6875H110.167ZM89.3329 125.312C89.6489 121.531 90.8467 118.202 92.553 115.749C94.5593 112.865 97.1357 111.344 99.75 111.344C102.364 111.344 104.941 112.865 106.947 115.749C108.653 118.202 109.851 121.531 110.167 125.312H89.3329Z" stroke="black" stroke-width="4"/>
<rect x="84" y="118" width="31" height="15" fill="#E17774" stroke="black" stroke-width="4"/>
<rect x="87" y="96" width="25" height="11" fill="#E17774" stroke="black" stroke-width="4"/>
<path d="M116.938 86.6875H117.328C117.975 86.6875 118.5 86.1628 118.5 85.5156V83.1719C118.5 82.5247 117.975 82 117.328 82H82.1719C81.5247 82 81 82.5247 81 83.1719V85.5156C81 86.1628 81.5247 86.6875 82.1719 86.6875H82.5625C82.5625 94.5551 85.7059 102.88 92.0527 107C85.6776 111.139 82.5625 119.49 82.5625 127.312H82.1719C81.5247 127.312 81 127.837 81 128.484V130.828C81 131.475 81.5247 132 82.1719 132H117.328C117.975 132 118.5 131.475 118.5 130.828V128.484C118.5 127.837 117.975 127.312 117.328 127.312H116.938C116.938 119.445 113.794 111.12 107.447 107C113.822 102.861 116.938 94.5098 116.938 86.6875ZM87.25 86.6875H112.25C112.25 96.6113 106.654 104.656 99.75 104.656C92.8464 104.656 87.25 96.6114 87.25 86.6875ZM112.25 127.312H87.25C87.25 117.389 92.8465 109.344 99.75 109.344C106.654 109.344 112.25 117.389 112.25 127.312Z" fill="#EEBECE"/>
</svg>
