<svg width="270" height="200" viewBox="0 0 270 200" fill="none" xmlns="http://www.w3.org/2000/svg">
<ellipse cx="135" cy="100" rx="135" ry="100" fill="#5AAA67"/>
<path d="M97.0029 164.417L95.4926 171.713L97.2866 172.084L98.251 167.425C98.4073 167.311 98.6037 167.205 98.8403 167.107C99.0756 167.017 99.3415 166.946 99.6434 166.904C99.9454 166.862 100.282 166.854 100.649 166.868C101.015 166.887 101.414 166.949 101.846 167.053C101.88 167.06 101.92 167.068 101.979 167.087L102.144 167.135C102.196 167.153 102.243 167.163 102.288 167.179C102.334 167.195 102.36 167.201 102.374 167.204L102.758 165.482L102.64 165.444C102.136 165.318 101.675 165.251 101.251 165.24C100.828 165.229 100.444 165.261 100.103 165.323C99.7608 165.392 99.4545 165.489 99.1976 165.618C98.9339 165.745 98.7158 165.888 98.5378 166.04L98.7969 164.788L97.0029 164.417Z" fill="black"/>
<path d="M105.315 173.746C105.68 173.802 106.056 173.833 106.443 173.837C106.822 173.847 107.191 173.828 107.543 173.785C107.896 173.743 108.224 173.676 108.521 173.59C108.818 173.505 109.07 173.398 109.269 173.27C109.246 173.467 109.239 173.646 109.249 173.806C109.257 173.974 109.27 174.114 109.295 174.222L111.106 174.501C111.087 174.401 111.069 174.295 111.065 174.183C111.061 174.072 111.06 173.948 111.061 173.803C111.062 173.664 111.079 173.508 111.099 173.338C111.118 173.168 111.142 172.964 111.177 172.741L111.635 169.769C111.707 169.302 111.702 168.887 111.615 168.514C111.527 168.14 111.356 167.816 111.095 167.534C110.834 167.252 110.483 167.018 110.035 166.824C109.587 166.637 109.042 166.491 108.394 166.391C107.833 166.305 107.314 166.259 106.838 166.255C106.36 166.257 105.934 166.281 105.553 166.333C105.17 166.392 104.841 166.465 104.557 166.56C104.271 166.661 104.034 166.763 103.845 166.865L104.529 168.216C104.7 168.138 104.913 168.061 105.165 167.996C105.417 167.931 105.694 167.884 105.997 167.847C106.3 167.811 106.615 167.79 106.941 167.785C107.265 167.787 107.594 167.81 107.911 167.859C108.303 167.92 108.631 167.991 108.894 168.08C109.157 168.169 109.37 168.271 109.525 168.385C109.68 168.499 109.792 168.627 109.847 168.76C109.903 168.893 109.923 169.034 109.899 169.189L109.874 169.352C109.281 169.295 108.714 169.249 108.159 169.212C107.605 169.174 107.074 169.162 106.581 169.176C106.088 169.189 105.624 169.235 105.206 169.302C104.786 169.376 104.417 169.485 104.096 169.636C103.775 169.787 103.516 169.989 103.32 170.229C103.116 170.474 102.987 170.772 102.932 171.13C102.871 171.522 102.894 171.865 102.993 172.163C103.093 172.462 103.253 172.722 103.476 172.937C103.692 173.15 103.963 173.323 104.281 173.455C104.599 173.594 104.944 173.689 105.315 173.746ZM106.186 172.407C105.646 172.324 105.258 172.188 105.024 172.006C104.782 171.824 104.686 171.595 104.728 171.324C104.764 171.088 104.909 170.91 105.17 170.791C105.43 170.672 105.775 170.587 106.211 170.543C106.645 170.507 107.159 170.496 107.749 170.525C108.333 170.553 108.976 170.596 109.673 170.656L109.446 172.122C109.326 172.186 109.143 172.248 108.907 172.301C108.663 172.36 108.387 172.401 108.085 172.43C107.783 172.46 107.461 172.479 107.13 172.477C106.798 172.474 106.483 172.453 106.186 172.407Z" fill="black"/>
<path d="M114.888 167.48L113.975 177.693L115.8 177.856L116.112 174.37C116.409 174.65 116.82 174.886 117.331 175.083C117.842 175.286 118.454 175.416 119.176 175.481C119.496 175.509 119.819 175.504 120.146 175.458C120.472 175.418 120.781 175.336 121.087 175.219C121.392 175.102 121.681 174.95 121.951 174.761C122.222 174.573 122.463 174.34 122.672 174.071C122.881 173.801 123.053 173.494 123.194 173.143C123.328 172.798 123.417 172.414 123.455 171.985C123.515 171.318 123.458 170.73 123.283 170.227C123.102 169.723 122.851 169.296 122.519 168.951C122.186 168.605 121.791 168.337 121.348 168.146C120.899 167.955 120.435 167.838 119.959 167.795C119.564 167.76 119.194 167.755 118.855 167.779C118.516 167.811 118.203 167.858 117.922 167.929C117.641 168 117.393 168.088 117.179 168.185C116.964 168.29 116.782 168.397 116.635 168.507L116.712 167.643L114.888 167.48ZM118.737 173.939C118.506 173.918 118.276 173.877 118.041 173.822C117.806 173.766 117.572 173.697 117.353 173.609C117.134 173.528 116.923 173.427 116.735 173.307C116.546 173.194 116.379 173.062 116.241 172.92L116.507 169.944C116.596 169.87 116.726 169.792 116.891 169.711C117.056 169.636 117.255 169.565 117.487 169.503C117.711 169.448 117.962 169.401 118.24 169.371C118.517 169.341 118.812 169.34 119.118 169.368C119.472 169.399 119.809 169.47 120.121 169.588C120.433 169.705 120.708 169.86 120.937 170.065C121.165 170.271 121.341 170.527 121.466 170.819C121.584 171.111 121.629 171.459 121.594 171.847C121.559 172.235 121.454 172.569 121.285 172.849C121.116 173.129 120.897 173.349 120.635 173.518C120.372 173.693 120.08 173.812 119.752 173.878C119.423 173.952 119.085 173.97 118.737 173.939Z" fill="black"/>
<path d="M125.272 168.368L125.006 178.619L126.837 178.666L126.928 175.167C127.243 175.429 127.668 175.638 128.191 175.802C128.713 175.973 129.333 176.064 130.057 176.083C130.378 176.091 130.7 176.065 131.023 175.999C131.346 175.939 131.65 175.837 131.947 175.701C132.245 175.565 132.523 175.395 132.781 175.19C133.04 174.984 133.265 174.737 133.457 174.455C133.649 174.173 133.801 173.855 133.919 173.496C134.031 173.143 134.096 172.755 134.107 172.325C134.125 171.655 134.03 171.071 133.824 170.58C133.611 170.089 133.335 169.679 132.981 169.355C132.627 169.031 132.216 168.788 131.762 168.626C131.301 168.463 130.832 168.376 130.353 168.363C129.957 168.353 129.587 168.371 129.251 168.417C128.914 168.47 128.605 168.537 128.329 168.625C128.053 168.714 127.811 168.817 127.603 168.928C127.395 169.046 127.221 169.164 127.081 169.284L127.104 168.416L125.272 168.368ZM129.522 174.571C129.29 174.565 129.058 174.539 128.819 174.499C128.581 174.458 128.343 174.404 128.119 174.33C127.896 174.263 127.679 174.175 127.483 174.067C127.288 173.966 127.113 173.846 126.966 173.712L127.044 170.726C127.128 170.646 127.253 170.56 127.413 170.468C127.572 170.384 127.766 170.3 127.994 170.224C128.214 170.154 128.462 170.092 128.737 170.045C129.012 169.997 129.306 169.977 129.614 169.985C129.969 169.995 130.31 170.045 130.628 170.142C130.947 170.239 131.231 170.376 131.472 170.567C131.713 170.758 131.905 171.002 132.048 171.286C132.185 171.57 132.251 171.914 132.241 172.303C132.231 172.693 132.147 173.033 131.996 173.323C131.844 173.613 131.64 173.847 131.389 174.032C131.138 174.224 130.854 174.36 130.53 174.447C130.206 174.541 129.87 174.581 129.522 174.571Z" fill="black"/>
<path d="M140.726 176.033C141.102 176.018 141.477 175.976 141.85 175.9C142.223 175.823 142.574 175.714 142.918 175.57C143.261 175.426 143.575 175.25 143.875 175.033C144.167 174.823 144.417 174.566 144.631 174.271C144.845 173.975 145.003 173.633 145.118 173.253C145.233 172.872 145.277 172.453 145.259 171.981C145.24 171.503 145.161 171.075 145.017 170.705C144.872 170.334 144.688 170.006 144.451 169.728C144.214 169.45 143.945 169.215 143.636 169.022C143.328 168.829 143 168.678 142.647 168.562C142.293 168.446 141.928 168.371 141.55 168.325C141.171 168.278 140.795 168.266 140.419 168.28C140.043 168.295 139.669 168.337 139.296 168.414C138.922 168.49 138.564 168.593 138.221 168.737C137.877 168.881 137.563 169.057 137.27 169.274C136.978 169.491 136.728 169.747 136.521 170.043C136.307 170.338 136.149 170.68 136.034 171.061C135.92 171.442 135.875 171.874 135.894 172.352C135.913 172.824 135.991 173.245 136.136 173.615C136.28 173.986 136.464 174.307 136.701 174.585C136.931 174.863 137.2 175.099 137.515 175.285C137.824 175.478 138.152 175.629 138.505 175.745C138.859 175.861 139.224 175.942 139.603 175.989C139.981 176.035 140.351 176.048 140.726 176.033ZM140.666 174.517C140.249 174.533 139.865 174.494 139.512 174.391C139.159 174.289 138.852 174.144 138.598 173.942C138.337 173.747 138.136 173.509 137.988 173.227C137.84 172.946 137.759 172.634 137.746 172.293C137.731 171.924 137.786 171.593 137.918 171.294C138.043 171.002 138.225 170.748 138.47 170.533C138.708 170.325 138.995 170.157 139.339 170.034C139.683 169.917 140.064 169.847 140.48 169.831C140.897 169.814 141.282 169.854 141.635 169.949C141.987 170.052 142.287 170.197 142.548 170.392C142.802 170.587 143.003 170.826 143.151 171.107C143.3 171.395 143.381 171.714 143.395 172.069C143.409 172.431 143.353 172.755 143.228 173.047C143.103 173.346 142.922 173.6 142.684 173.807C142.446 174.015 142.158 174.184 141.814 174.307C141.47 174.43 141.09 174.5 140.666 174.517Z" fill="black"/>
<path d="M146.751 168.102L147.46 175.52L149.283 175.346L148.831 170.609C148.946 170.454 149.103 170.295 149.3 170.132C149.498 169.976 149.731 169.83 150.007 169.7C150.283 169.571 150.603 169.465 150.958 169.369C151.313 169.28 151.713 169.221 152.156 169.193C152.19 169.19 152.231 169.186 152.293 169.187L152.465 169.184C152.52 169.186 152.567 169.181 152.616 169.183C152.664 169.186 152.691 169.183 152.705 169.182L152.564 167.423L152.44 167.421C151.921 167.45 151.461 167.522 151.053 167.636C150.645 167.751 150.288 167.895 149.981 168.055C149.674 168.221 149.41 168.405 149.202 168.603C148.988 168.802 148.821 169.003 148.696 169.201L148.575 167.928L146.751 168.102Z" fill="black"/>
<path d="M160.3 174.124C160.53 174.09 160.766 174.048 161.001 173.999C161.235 173.95 161.455 173.897 161.662 173.845C161.862 173.795 162.034 173.748 162.18 173.706C162.326 173.663 162.419 173.635 162.465 173.622L162.246 172.155C162.187 172.177 162.088 172.206 161.955 172.239C161.822 172.28 161.682 172.315 161.529 172.351C161.375 172.388 161.222 172.425 161.067 172.455C160.913 172.485 160.792 172.51 160.698 172.524C160.481 172.556 160.289 172.564 160.128 172.553C159.961 172.544 159.822 172.495 159.706 172.409C159.59 172.329 159.49 172.213 159.418 172.051C159.345 171.889 159.287 171.684 159.248 171.427L158.767 168.202L161.715 167.762L161.497 166.302L158.549 166.741L158.17 164.199L156.338 164.472L156.717 167.015L154.506 167.344L154.724 168.805L156.935 168.475L157.482 172.14C157.539 172.525 157.638 172.863 157.769 173.14C157.9 173.418 158.072 173.641 158.297 173.808C158.523 173.975 158.795 174.086 159.128 174.14C159.454 174.195 159.847 174.192 160.3 174.124Z" fill="black"/>
<path d="M167.834 161.762L165.618 164.69L167.137 164.373L169.614 161.39L167.834 161.762ZM165.594 170.023L172.62 168.556L172.532 168.134C172.418 167.592 172.258 167.123 172.059 166.738C171.86 166.354 171.625 166.033 171.354 165.775C171.084 165.517 170.792 165.32 170.477 165.183C170.162 165.047 169.828 164.956 169.484 164.909C169.139 164.862 168.786 164.845 168.428 164.871C168.064 164.898 167.711 164.951 167.364 165.024C167.016 165.096 166.667 165.197 166.323 165.325C165.974 165.461 165.645 165.62 165.343 165.816C165.035 166.013 164.754 166.239 164.507 166.493C164.255 166.756 164.051 167.05 163.895 167.375C163.733 167.703 163.634 168.065 163.584 168.46C163.535 168.861 163.563 169.295 163.662 169.771C163.803 170.446 164.044 170.997 164.391 171.42C164.738 171.843 165.148 172.17 165.626 172.384C166.105 172.605 166.628 172.734 167.199 172.761C167.771 172.788 168.348 172.744 168.937 172.621C169.492 172.505 169.979 172.362 170.404 172.189C170.822 172.018 171.185 171.816 171.494 171.591C171.803 171.366 172.052 171.118 172.252 170.839C172.453 170.567 172.606 170.262 172.713 169.94L170.968 169.606C170.816 170.05 170.552 170.391 170.179 170.644C169.806 170.896 169.314 171.083 168.712 171.209C168.384 171.277 168.069 171.308 167.754 171.304C167.439 171.3 167.142 171.25 166.872 171.16C166.595 171.071 166.348 170.927 166.128 170.743C165.908 170.558 165.733 170.323 165.594 170.023ZM167.664 166.462C168.025 166.387 168.36 166.352 168.674 166.349C168.981 166.348 169.263 166.394 169.512 166.481C169.761 166.569 169.971 166.707 170.156 166.891C170.341 167.076 170.483 167.319 170.579 167.613L165.333 168.709C165.353 168.37 165.438 168.073 165.586 167.811C165.735 167.557 165.926 167.335 166.154 167.155C166.375 166.976 166.623 166.826 166.891 166.708C167.154 166.597 167.417 166.514 167.664 166.462Z" fill="black"/>
<path d="M52.6384 44.5103L58.1325 56.6491L69.5827 51.4666L68.4991 49.0725L59.9395 52.9467L55.5289 43.202L52.6384 44.5103Z" fill="black"/>
<path d="M66.9834 38.1454L71.492 50.6837L83.84 46.2435L82.9508 43.7705L73.5884 47.1371L72.607 44.4078L80.1085 41.7104L79.243 39.3037L71.7416 42.0011L70.8851 39.6192L79.9827 36.3477L79.0667 33.8004L66.9834 38.1454Z" fill="black"/>
<path d="M87.9494 31.1017L90.9508 44.0835L98.4607 42.3471C99.1115 42.1967 99.7333 41.9988 100.316 41.7469C100.898 41.495 101.425 41.2016 101.903 40.8477C102.382 40.5023 102.805 40.1069 103.169 39.6528C103.525 39.2007 103.815 38.7006 104.019 38.1393C104.223 37.5779 104.334 36.9659 104.369 36.2992C104.396 35.6345 104.317 34.9039 104.137 34.1247C103.955 33.3369 103.707 32.6545 103.391 32.069C103.075 31.4835 102.709 30.9909 102.281 30.5846C101.856 30.1869 101.384 29.8629 100.87 29.6299C100.356 29.397 99.8044 29.2358 99.224 29.1445C98.6351 29.0551 98.0257 29.0336 97.3939 29.0714C96.7642 29.1178 96.1186 29.2129 95.4593 29.3654L87.9494 31.1017ZM97.9149 39.8302L93.4449 40.8637L91.6215 32.977L96.0572 31.9515C96.8022 31.7792 97.4662 31.7249 98.0341 31.8011C98.602 31.8773 99.0829 32.0457 99.4875 32.313C99.8921 32.5803 100.227 32.9359 100.481 33.3732C100.736 33.8105 100.925 34.3171 101.054 34.8737C101.192 35.4731 101.251 36.037 101.218 36.5587C101.185 37.0805 101.044 37.5641 100.809 37.9884C100.565 38.4147 100.208 38.7858 99.74 39.1015C99.2632 39.4193 98.6599 39.658 97.9149 39.8302Z" fill="black"/>
<path d="M106.648 27.141L108.725 40.3023L111.851 39.809L109.773 26.6477L106.648 27.141Z" fill="black"/>
<path d="M122.268 38.854C123.222 38.7723 124.058 38.6477 124.785 38.4796C125.503 38.3123 126.129 38.1086 126.647 37.8702C127.165 37.6406 127.601 37.3739 127.946 37.0796C128.284 36.7949 128.557 36.4805 128.749 36.1552C128.942 35.83 129.071 35.4837 129.138 35.1339C129.205 34.7841 129.218 34.4214 129.187 34.0623C129.139 33.4931 128.992 33.0205 128.756 32.6262C128.519 32.2318 128.209 31.9056 127.834 31.6466C127.45 31.3884 127.018 31.1872 126.538 31.043C126.05 30.8996 125.529 30.7943 124.985 30.7262C124.441 30.6581 123.882 30.6178 123.307 30.5965C122.732 30.584 122.167 30.5707 121.61 30.5567C120.894 30.5474 120.267 30.5306 119.744 30.5048C119.213 30.4885 118.777 30.4377 118.425 30.3531C118.074 30.2685 117.817 30.1494 117.635 29.9797C117.453 29.8189 117.354 29.5892 117.329 29.2914C117.29 28.8361 117.567 28.4683 118.161 28.1881C118.755 27.9167 119.7 27.7211 121.004 27.6093C121.644 27.5545 122.216 27.5408 122.712 27.5688C123.201 27.6064 123.63 27.6755 124.001 27.7848C124.363 27.8949 124.666 28.0366 124.911 28.2185C125.156 28.4004 125.351 28.613 125.495 28.8565L128.316 27.5916C128.19 27.3642 128.03 27.1398 127.843 26.9088C127.647 26.6874 127.408 26.4697 127.125 26.2558C126.842 26.0418 126.508 25.8499 126.123 25.68C125.738 25.5101 125.284 25.3637 124.772 25.2576C124.261 25.1515 123.672 25.0784 123.016 25.0376C122.36 25.0055 121.621 25.0248 120.807 25.0945C119.694 25.1898 118.712 25.3621 117.879 25.6188C117.036 25.8762 116.341 26.2004 115.784 26.601C115.227 27.0015 114.826 27.4681 114.572 28.0015C114.31 28.5444 114.211 29.1439 114.268 29.8094C114.315 30.3611 114.452 30.8258 114.687 31.2026C114.915 31.5889 115.206 31.9079 115.572 32.1589C115.938 32.4186 116.353 32.6213 116.824 32.7662C117.286 32.9118 117.781 33.0282 118.308 33.0978C118.834 33.1673 119.376 33.2179 119.934 33.2407C120.492 33.2635 121.031 33.279 121.57 33.2858C122.321 33.3009 122.975 33.3154 123.533 33.3382C124.091 33.3698 124.555 33.4271 124.932 33.5094C125.302 33.6013 125.587 33.7356 125.787 33.9038C125.987 34.0807 126.096 34.3271 126.123 34.6336C126.144 34.8788 126.083 35.0957 125.941 35.2931C125.799 35.4905 125.567 35.6692 125.237 35.8298C124.907 35.9904 124.468 36.125 123.939 36.232C123.411 36.3391 122.757 36.4304 121.995 36.4956C121.216 36.5624 120.537 36.5676 119.958 36.5025C119.38 36.4462 118.894 36.3379 118.492 36.1782C118.082 36.0281 117.756 35.8266 117.506 35.5834C117.256 35.3402 117.065 35.0655 116.933 34.768L114.03 35.6783C114.232 36.1815 114.519 36.6509 114.891 37.0865C115.264 37.5221 115.772 37.8932 116.406 38.1917C117.041 38.499 117.845 38.7124 118.799 38.8336C119.754 38.9635 120.91 38.9703 122.268 38.854Z" fill="black"/>
<path d="M139.769 38.3101C140.745 38.3297 141.652 38.2424 142.491 38.0571C143.321 37.8715 144.065 37.5876 144.732 37.223C145.398 36.8584 145.97 36.4127 146.455 35.8862C146.94 35.3597 147.33 34.7786 147.616 34.125L144.77 33.1009C144.595 33.4929 144.368 33.8576 144.072 34.1769C143.775 34.505 143.427 34.7793 143.009 35.0083C142.591 35.2372 142.122 35.4124 141.592 35.5336C141.062 35.6549 140.481 35.7135 139.839 35.7006C138.996 35.6837 138.26 35.5634 137.622 35.3397C136.985 35.1247 136.455 34.8151 136.032 34.4286C135.609 34.0421 135.293 33.5787 135.084 33.0382C134.875 32.4978 134.782 31.9069 134.795 31.2567C134.808 30.5976 134.934 30.0112 135.164 29.4971C135.394 28.9831 135.737 28.5416 136.175 28.1812C136.613 27.8296 137.155 27.5592 137.8 27.3787C138.436 27.1981 139.168 27.1161 139.994 27.1327C140.635 27.1456 141.223 27.2189 141.739 27.3523C142.255 27.4857 142.717 27.6621 143.108 27.8897C143.499 28.1173 143.828 28.3876 144.094 28.6919C144.36 29.0049 144.556 29.3341 144.681 29.6882L147.66 28.8338C147.47 28.2586 147.173 27.7076 146.779 27.181C146.376 26.6631 145.867 26.2045 145.251 25.8053C144.626 25.4148 143.885 25.0922 143.029 24.8465C142.163 24.6093 141.181 24.4753 140.065 24.4529C139.309 24.4377 138.579 24.4846 137.882 24.5849C137.177 24.6938 136.514 24.8651 135.894 25.0988C135.274 25.3325 134.705 25.6287 134.197 25.9965C133.68 26.3642 133.231 26.8035 132.861 27.3059C132.482 27.8082 132.189 28.3825 131.974 29.0287C131.758 29.6749 131.647 30.3935 131.631 31.1931C131.607 32.3882 131.789 33.4292 132.184 34.3074C132.579 35.1944 133.136 35.9265 133.854 36.5123C134.572 37.0981 135.442 37.5375 136.447 37.8302C137.452 38.1229 138.565 38.2859 139.769 38.3101Z" fill="black"/>
<path d="M156.085 39.4935C156.835 39.5897 157.566 39.6215 158.279 39.589C158.991 39.5652 159.668 39.466 160.32 39.2927C160.961 39.1269 161.56 38.8847 162.113 38.5747C162.658 38.2636 163.15 37.8837 163.582 37.4164C164.005 36.9566 164.357 36.4171 164.642 35.789C164.925 35.1696 165.113 34.4671 165.215 33.6738C165.316 32.8805 165.303 32.1522 165.187 31.4727C165.069 30.8018 164.855 30.1896 164.564 29.6294C164.263 29.0767 163.884 28.5762 163.426 28.1365C162.96 27.6956 162.441 27.3189 161.863 26.9964C161.284 26.674 160.653 26.4071 159.98 26.1966C159.297 25.9938 158.59 25.841 157.849 25.7459C157.108 25.6508 156.386 25.6201 155.683 25.645C154.969 25.6775 154.292 25.7767 153.659 25.9436C153.018 26.1093 152.421 26.3429 151.867 26.6528C151.304 26.9617 150.812 27.3503 150.389 27.81C149.957 28.2774 149.604 28.8169 149.321 29.4363C149.037 30.0644 148.84 30.7658 148.738 31.5591C148.637 32.3524 148.641 33.0795 148.758 33.7504C148.875 34.4299 149.08 35.0411 149.373 35.5926C149.664 36.1528 150.044 36.6446 150.501 37.0844C150.95 37.523 151.468 37.9084 152.047 38.2309C152.625 38.562 153.255 38.829 153.938 39.0318C154.619 39.2434 155.335 39.3973 156.085 39.4935ZM156.419 36.8869C155.6 36.7818 154.89 36.5843 154.279 36.3021C153.669 36.0199 153.166 35.6541 152.778 35.2233C152.391 34.7925 152.116 34.3054 151.957 33.7533C151.797 33.2011 151.759 32.6025 151.842 31.9574C151.925 31.3123 152.113 30.7428 152.406 30.2576C152.698 29.7723 153.087 29.3702 153.569 29.06C154.051 28.7586 154.627 28.549 155.29 28.4301C155.951 28.32 156.686 28.317 157.506 28.4222C158.325 28.5274 159.045 28.7172 159.657 28.9907C160.268 29.2729 160.764 29.6201 161.154 30.0335C161.543 30.4555 161.817 30.9427 161.977 31.4861C162.138 32.0295 162.176 32.6281 162.094 33.2732C162.011 33.9183 161.823 34.4879 161.529 34.9818C161.235 35.4758 160.847 35.8779 160.363 36.1968C159.879 36.5157 159.309 36.7438 158.647 36.8627C157.985 36.9815 157.239 36.9921 156.419 36.8869Z" fill="black"/>
<path d="M174.074 42.7209C175.253 43.0085 176.324 43.1432 177.293 43.1356C178.255 43.126 179.098 42.9699 179.832 42.6694C180.555 42.3755 181.16 41.9351 181.645 41.3568C182.121 40.7765 182.467 40.0647 182.673 39.2194L184.594 31.3469L181.606 30.6176L179.701 38.4217C179.585 38.8999 179.382 39.2847 179.102 39.5783C178.823 39.8719 178.464 40.0829 178.042 40.2152C177.621 40.3476 177.129 40.3994 176.574 40.3727C176.018 40.3545 175.408 40.2599 174.75 40.0994C174.084 39.9369 173.499 39.7398 172.997 39.4996C172.492 39.2679 172.079 38.9953 171.767 38.6837C171.454 38.3721 171.241 38.0215 171.128 37.6321C171.014 37.2426 171.012 36.8077 171.129 36.3296L173.033 28.5254L169.977 27.7794L168.055 35.6519C167.849 36.4972 167.828 37.2882 167.992 38.0248C168.147 38.7594 168.481 39.429 168.996 40.0251C169.509 40.6298 170.186 41.1568 171.043 41.6103C171.892 42.0617 172.905 42.4354 174.074 42.7209Z" fill="black"/>
<path d="M188.988 32.6654L184.486 45.2061L187.431 46.2632L189.058 41.73L194.162 43.5622L195.108 49.0189L198.284 50.1591L197.281 44.2146C198.241 44.2699 199.038 44.0797 199.687 43.6497C200.336 43.2198 200.831 42.5194 201.178 41.5515C201.436 40.8319 201.543 40.1699 201.501 39.5851C201.451 38.9973 201.268 38.4649 200.954 37.9879C200.628 37.5162 200.182 37.0945 199.615 36.7229C199.045 36.3596 198.36 36.0298 197.574 35.7477L188.988 32.6654ZM195.442 41.3507L189.908 39.3642L191.045 36.1959L196.579 38.1825C197.348 38.4586 197.875 38.7876 198.147 39.1747C198.41 39.5588 198.447 40.0295 198.245 40.592C198.046 41.1462 197.721 41.478 197.279 41.5902C196.826 41.7077 196.211 41.6269 195.442 41.3507Z" fill="black"/>
<path d="M206.53 54.2229C207.396 54.6321 208.181 54.9447 208.894 55.1647C209.599 55.3809 210.243 55.5198 210.81 55.574C211.374 55.6361 211.884 55.6246 212.331 55.5439C212.766 55.4673 213.16 55.3327 213.49 55.1484C213.82 54.9641 214.105 54.7296 214.339 54.461C214.573 54.1923 214.767 53.8853 214.921 53.5595C215.165 53.0429 215.276 52.5608 215.269 52.1009C215.263 51.641 215.159 51.203 214.965 50.7906C214.763 50.3745 214.491 49.9835 214.148 49.6176C213.798 49.248 213.401 48.8952 212.965 48.5629C212.529 48.2306 212.066 47.9147 211.579 47.6071C211.089 47.3075 210.607 47.0116 210.132 46.7195C209.519 46.3519 208.984 46.0218 208.546 45.7367C208.095 45.4559 207.743 45.1925 207.482 44.9428C207.221 44.693 207.058 44.4608 206.986 44.2226C206.91 43.9923 206.94 43.744 207.068 43.4737C207.263 43.0605 207.687 42.8819 208.341 42.9381C208.991 43.0022 209.907 43.308 211.091 43.8673C211.671 44.1413 212.172 44.4171 212.587 44.6909C212.991 44.9689 213.327 45.2444 213.593 45.5255C213.851 45.8028 214.042 46.0777 214.162 46.3581C214.282 46.6384 214.344 46.9201 214.346 47.2032L217.42 47.5275C217.426 47.2679 217.4 46.9933 217.354 46.6995C217.297 46.4098 217.199 46.1014 217.062 45.7742C216.925 45.447 216.733 45.1132 216.485 44.7728C216.238 44.4323 215.919 44.0777 215.53 43.7287C215.141 43.3796 214.669 43.0206 214.122 42.6554C213.572 42.2982 212.923 41.9431 212.184 41.594C211.175 41.1173 210.239 40.7726 209.389 40.5753C208.532 40.3744 207.767 40.305 207.085 40.3714C206.402 40.4377 205.821 40.6395 205.333 40.9728C204.833 41.3103 204.447 41.7789 204.161 42.3829C203.925 42.8836 203.81 43.354 203.824 43.798C203.826 44.2461 203.918 44.6687 204.108 45.0694C204.294 45.478 204.55 45.8615 204.884 46.2236C205.211 46.5819 205.58 46.9314 206 47.2562C206.42 47.581 206.864 47.8974 207.335 48.1975C207.805 48.4975 208.264 48.7821 208.726 49.0588C209.368 49.4494 209.926 49.7907 210.396 50.0908C210.863 50.3988 211.235 50.6814 211.52 50.9424C211.794 51.2076 211.972 51.467 212.06 51.7127C212.145 51.9664 212.115 52.2344 211.984 52.5125C211.879 52.735 211.717 52.892 211.495 52.9913C211.273 53.0906 210.983 53.1286 210.617 53.1014C210.251 53.0742 209.804 52.9702 209.293 52.7968C208.782 52.6235 208.171 52.3737 207.48 52.0472C206.772 51.7131 206.183 51.3763 205.715 51.029C205.244 50.6897 204.878 50.3519 204.611 50.0119C204.333 49.6761 204.152 49.3381 204.058 49.002C203.964 48.666 203.937 48.3325 203.973 48.0093L201.005 47.3365C200.927 47.873 200.939 48.4231 201.042 48.987C201.145 49.5508 201.398 50.127 201.796 50.7039C202.19 51.2887 202.778 51.8771 203.542 52.4616C204.302 53.054 205.298 53.6411 206.53 54.2229Z" fill="black"/>
<mask id="path-20-outside-1" maskUnits="userSpaceOnUse" x="67" y="90" width="29" height="50" fill="black">
<rect fill="white" x="67" y="90" width="29" height="50"/>
<path fill-rule="evenodd" clip-rule="evenodd" d="M80 115H87.5C89.9844 115 92 117.016 92 119.5V131.5C92 133.984 89.9844 136 87.5 136H75.5C73.0156 136 71 133.984 71 131.5V109C71 100.712 77.7125 94 86 94H86.75C87.9969 94 89 95.0031 89 96.25V100.75C89 101.997 87.9969 103 86.75 103H86C82.6906 103 80 105.691 80 109V115Z"/>
</mask>
<path fill-rule="evenodd" clip-rule="evenodd" d="M80 115H87.5C89.9844 115 92 117.016 92 119.5V131.5C92 133.984 89.9844 136 87.5 136H75.5C73.0156 136 71 133.984 71 131.5V109C71 100.712 77.7125 94 86 94H86.75C87.9969 94 89 95.0031 89 96.25V100.75C89 101.997 87.9969 103 86.75 103H86C82.6906 103 80 105.691 80 109V115Z" fill="#EFC65F"/>
<path d="M80 115H76V119H80V115ZM87.5 111H80V119H87.5V111ZM96 119.5C96 114.806 92.1935 111 87.5 111V119C87.7752 119 88 119.225 88 119.5H96ZM96 131.5V119.5H88V131.5H96ZM87.5 140C92.1935 140 96 136.194 96 131.5H88C88 131.775 87.7752 132 87.5 132V140ZM75.5 140H87.5V132H75.5V140ZM67 131.5C67 136.194 70.8065 140 75.5 140V132C75.2248 132 75 131.775 75 131.5H67ZM67 109V131.5H75V109H67ZM86 90C75.5034 90 67 98.5034 67 109H75C75 102.922 79.9216 98 86 98V90ZM86.75 90H86V98H86.75V90ZM93 96.25C93 92.794 90.206 90 86.75 90V98C85.7877 98 85 97.2123 85 96.25H93ZM93 100.75V96.25H85V100.75H93ZM86.75 107C90.206 107 93 104.206 93 100.75H85C85 99.7877 85.7877 99 86.75 99V107ZM86 107H86.75V99H86V107ZM84 109C84 107.9 84.8998 107 86 107V99C80.4815 99 76 103.481 76 109H84ZM84 115V109H76V115H84Z" fill="black" mask="url(#path-20-outside-1)"/>
<mask id="path-22-outside-2" maskUnits="userSpaceOnUse" x="94" y="90" width="29" height="50" fill="black">
<rect fill="white" x="94" y="90" width="29" height="50"/>
<path fill-rule="evenodd" clip-rule="evenodd" d="M107 115H114.5C116.984 115 119 117.016 119 119.5V131.5C119 133.984 116.984 136 114.5 136H102.5C100.016 136 98 133.984 98 131.5V109C98 100.712 104.712 94 113 94H113.75C114.997 94 116 95.0031 116 96.25V100.75C116 101.997 114.997 103 113.75 103H113C109.691 103 107 105.691 107 109V115Z"/>
</mask>
<path fill-rule="evenodd" clip-rule="evenodd" d="M107 115H114.5C116.984 115 119 117.016 119 119.5V131.5C119 133.984 116.984 136 114.5 136H102.5C100.016 136 98 133.984 98 131.5V109C98 100.712 104.712 94 113 94H113.75C114.997 94 116 95.0031 116 96.25V100.75C116 101.997 114.997 103 113.75 103H113C109.691 103 107 105.691 107 109V115Z" fill="#EFC65F"/>
<path d="M107 115H103V119H107V115ZM114.5 111H107V119H114.5V111ZM123 119.5C123 114.806 119.194 111 114.5 111V119C114.775 119 115 119.225 115 119.5H123ZM123 131.5V119.5H115V131.5H123ZM114.5 140C119.194 140 123 136.194 123 131.5H115C115 131.775 114.775 132 114.5 132V140ZM102.5 140H114.5V132H102.5V140ZM94 131.5C94 136.194 97.8065 140 102.5 140V132C102.225 132 102 131.775 102 131.5H94ZM94 109V131.5H102V109H94ZM113 90C102.503 90 94 98.5034 94 109H102C102 102.922 106.922 98 113 98V90ZM113.75 90H113V98H113.75V90ZM120 96.25C120 92.794 117.206 90 113.75 90V98C112.788 98 112 97.2123 112 96.25H120ZM120 100.75V96.25H112V100.75H120ZM113.75 107C117.206 107 120 104.206 120 100.75H112C112 99.7877 112.788 99 113.75 99V107ZM113 107H113.75V99H113V107ZM111 109C111 107.9 111.9 107 113 107V99C107.481 99 103 103.481 103 109H111ZM111 115V109H103V115H111Z" fill="black" mask="url(#path-22-outside-2)"/>
<mask id="path-24-outside-3" maskUnits="userSpaceOnUse" x="172" y="69" width="29" height="50" fill="black">
<rect fill="white" x="172" y="69" width="29" height="50"/>
<path fill-rule="evenodd" clip-rule="evenodd" d="M188 94H180.5C178.016 94 176 91.9844 176 89.5V77.5C176 75.0156 178.016 73 180.5 73H192.5C194.984 73 197 75.0156 197 77.5V100C197 108.288 190.288 115 182 115H181.25C180.003 115 179 113.997 179 112.75V108.25C179 107.003 180.003 106 181.25 106H182C185.309 106 188 103.309 188 100V94Z"/>
</mask>
<path fill-rule="evenodd" clip-rule="evenodd" d="M188 94H180.5C178.016 94 176 91.9844 176 89.5V77.5C176 75.0156 178.016 73 180.5 73H192.5C194.984 73 197 75.0156 197 77.5V100C197 108.288 190.288 115 182 115H181.25C180.003 115 179 113.997 179 112.75V108.25C179 107.003 180.003 106 181.25 106H182C185.309 106 188 103.309 188 100V94Z" fill="#E17774"/>
<path d="M188 94H192V90H188V94ZM180.5 98H188V90H180.5V98ZM172 89.5C172 94.1935 175.806 98 180.5 98V90C180.225 90 180 89.7752 180 89.5H172ZM172 77.5V89.5H180V77.5H172ZM180.5 69C175.806 69 172 72.8065 172 77.5H180C180 77.2248 180.225 77 180.5 77V69ZM192.5 69H180.5V77H192.5V69ZM201 77.5C201 72.8065 197.194 69 192.5 69V77C192.775 77 193 77.2248 193 77.5H201ZM201 100V77.5H193V100H201ZM182 119C192.497 119 201 110.497 201 100H193C193 106.078 188.078 111 182 111V119ZM181.25 119H182V111H181.25V119ZM175 112.75C175 116.206 177.794 119 181.25 119V111C182.212 111 183 111.788 183 112.75H175ZM175 108.25V112.75H183V108.25H175ZM181.25 102C177.794 102 175 104.794 175 108.25H183C183 109.212 182.212 110 181.25 110V102ZM182 102H181.25V110H182V102ZM184 100C184 101.1 183.1 102 182 102V110C187.519 110 192 105.519 192 100H184ZM184 94V100H192V94H184Z" fill="black" mask="url(#path-24-outside-3)"/>
<mask id="path-26-outside-4" maskUnits="userSpaceOnUse" x="145" y="69" width="29" height="50" fill="black">
<rect fill="white" x="145" y="69" width="29" height="50"/>
<path fill-rule="evenodd" clip-rule="evenodd" d="M161 94H153.5C151.016 94 149 91.9844 149 89.5V77.5C149 75.0156 151.016 73 153.5 73H165.5C167.984 73 170 75.0156 170 77.5V100C170 108.288 163.288 115 155 115H154.25C153.003 115 152 113.997 152 112.75V108.25C152 107.003 153.003 106 154.25 106H155C158.309 106 161 103.309 161 100V94Z"/>
</mask>
<path fill-rule="evenodd" clip-rule="evenodd" d="M161 94H153.5C151.016 94 149 91.9844 149 89.5V77.5C149 75.0156 151.016 73 153.5 73H165.5C167.984 73 170 75.0156 170 77.5V100C170 108.288 163.288 115 155 115H154.25C153.003 115 152 113.997 152 112.75V108.25C152 107.003 153.003 106 154.25 106H155C158.309 106 161 103.309 161 100V94Z" fill="#E17774"/>
<path d="M161 94H165V90H161V94ZM153.5 98H161V90H153.5V98ZM145 89.5C145 94.1935 148.806 98 153.5 98V90C153.225 90 153 89.7752 153 89.5H145ZM145 77.5V89.5H153V77.5H145ZM153.5 69C148.806 69 145 72.8065 145 77.5H153C153 77.2248 153.225 77 153.5 77V69ZM165.5 69H153.5V77H165.5V69ZM174 77.5C174 72.8065 170.194 69 165.5 69V77C165.775 77 166 77.2248 166 77.5H174ZM174 100V77.5H166V100H174ZM155 119C165.497 119 174 110.497 174 100H166C166 106.078 161.078 111 155 111V119ZM154.25 119H155V111H154.25V119ZM148 112.75C148 116.206 150.794 119 154.25 119V111C155.212 111 156 111.788 156 112.75H148ZM148 108.25V112.75H156V108.25H148ZM154.25 102C150.794 102 148 104.794 148 108.25H156C156 109.212 155.212 110 154.25 110V102ZM155 102H154.25V110H155V102ZM157 100C157 101.1 156.1 102 155 102V110C160.519 110 165 105.519 165 100H157ZM157 94V100H165V94H157Z" fill="black" mask="url(#path-26-outside-4)"/>
</svg>
