<svg width="260" height="200" viewBox="0 0 260 200" fill="none" xmlns="http://www.w3.org/2000/svg">
	<path d="M20.6082 115.852C10.2005 107.847 10.2005 92.1535 20.6082 84.1475L117.806 9.38016C124.995 3.85013 135.005 3.85014 142.194 9.38017L239.392 84.1475C249.799 92.1535 249.799 107.847 239.392 115.852L142.194 190.62C135.005 196.15 124.995 196.15 117.806 190.62L20.6082 115.852Z" fill="#E17774"/>
	<path d="M83.4344 145.547C84.5279 146.401 85.4711 146.904 86.2574 147.041C87.0396 147.184 87.672 146.94 88.1644 146.31C88.4296 145.971 88.5688 145.637 88.5809 145.3C88.5888 144.967 88.508 144.627 88.3439 144.282C88.1756 143.942 87.9389 143.601 87.6381 143.253C87.3319 142.901 86.9969 142.553 86.6319 142.198C86.3382 141.908 86.0768 141.643 85.8435 141.408C85.6005 141.175 85.4134 140.96 85.2681 140.768C85.1228 140.577 85.029 140.408 84.9952 140.251C84.9572 140.1 84.9887 139.96 85.0939 139.825C85.1696 139.728 85.2639 139.663 85.3821 139.634C85.4949 139.601 85.6369 139.608 85.8137 139.659C85.9809 139.711 86.1869 139.803 86.4234 139.944C86.6545 140.082 86.9323 140.281 87.2501 140.53C87.5302 140.748 87.7762 140.967 87.9837 141.19C88.1859 141.408 88.3593 141.63 88.5027 141.847C88.6408 142.059 88.7542 142.269 88.8419 142.467C88.92 142.667 88.982 142.854 89.0128 143.026L90.5413 142.901C90.5172 142.666 90.4608 142.405 90.3691 142.134C90.272 141.858 90.1245 141.57 89.9267 141.268C89.7289 140.966 89.4754 140.646 89.1662 140.309C88.8527 139.977 88.4698 139.635 88.0119 139.277C87.5863 138.945 87.1636 138.675 86.748 138.463C86.3282 138.257 85.9327 138.13 85.5606 138.073C85.1788 138.018 84.8268 138.046 84.5088 138.154C84.1866 138.266 83.9049 138.471 83.6596 138.774C83.3945 139.113 83.2607 139.451 83.2635 139.792C83.2664 140.132 83.3472 140.473 83.5209 140.817C83.6946 141.161 83.9313 141.502 84.2321 141.85C84.5329 142.198 84.8571 142.538 85.2005 142.875C85.5212 143.187 85.8042 143.468 86.0471 143.702C86.2858 143.94 86.4718 144.146 86.6117 144.334C86.7462 144.517 86.825 144.682 86.8576 144.829C86.8807 144.977 86.8438 145.114 86.7386 145.248C86.6502 145.361 86.5379 145.438 86.4006 145.47C86.2632 145.501 86.0954 145.483 85.8982 145.424C85.7011 145.366 85.4777 145.252 85.2143 145.09C84.9508 144.927 84.6419 144.712 84.2972 144.442C83.9686 144.186 83.6838 143.929 83.4523 143.67C83.2166 143.416 83.0259 143.172 82.8843 142.931C82.7332 142.691 82.6227 142.466 82.5573 142.25C82.4864 142.03 82.4521 141.83 82.4489 141.645L80.9279 141.593C80.9064 141.854 80.9309 142.133 81.0058 142.426C81.0765 142.724 81.2126 143.039 81.4097 143.375C81.6068 143.711 81.8692 144.064 82.2012 144.427C82.5331 144.791 82.9442 145.164 83.4344 145.547ZM90.3564 150.955C90.685 151.212 91.0227 151.423 91.3761 151.604C91.724 151.78 92.0535 151.925 92.374 152.037C92.6849 152.149 92.9719 152.226 93.2362 152.277C93.4909 152.328 93.6929 152.347 93.838 152.339L93.2867 153.045L94.7411 154.181L99.3285 148.309L97.8741 147.173L94.6924 151.245C94.5173 151.247 94.3195 151.223 94.0948 151.178C93.8647 151.128 93.6364 151.054 93.3962 150.961C93.1506 150.865 92.908 150.754 92.6577 150.619C92.4073 150.484 92.1739 150.327 91.953 150.155C91.4413 149.755 91.1273 149.38 91.007 149.034C90.8866 148.688 90.9395 148.365 91.1794 148.058L94.1464 144.261L92.692 143.124L89.5355 147.164C89.2367 147.547 89.0477 147.911 88.9684 148.257C88.8837 148.598 88.895 148.928 88.9914 149.238C89.0837 149.553 89.2515 149.849 89.4907 150.131C89.7299 150.413 90.0171 150.69 90.3564 150.955ZM94.5017 157.585C94.8518 157.859 95.1806 158.038 95.4922 158.116C95.8038 158.195 96.0879 158.209 96.3531 158.147C96.6182 158.085 96.8571 157.968 97.0751 157.8C97.2931 157.632 97.4926 157.432 97.6651 157.212L102.614 150.877L101.171 149.749L96.3688 155.895C96.2299 156.073 96.0989 156.196 95.9674 156.276C95.8306 156.351 95.704 156.391 95.5781 156.396C95.4522 156.402 95.3323 156.378 95.2131 156.319C95.0897 156.266 94.979 156.197 94.8712 156.113C94.8012 156.058 94.73 155.994 94.6642 155.934C94.593 155.87 94.5271 155.81 94.4667 155.754C94.4009 155.694 94.35 155.636 94.31 155.588C94.2603 155.54 94.231 155.5 94.2083 155.474L93.3582 156.562C93.3809 156.588 93.4263 156.641 93.5083 156.714C93.5807 156.788 93.6746 156.878 93.7835 156.972C93.8925 157.066 94.0079 157.174 94.1384 157.284C94.2635 157.391 94.3832 157.493 94.5017 157.585ZM102.82 147.593L101.827 148.865L103.319 150.03L104.312 148.759L102.82 147.593ZM102.896 156.657L108.552 161.076L108.817 160.737C109.158 160.3 109.412 159.875 109.578 159.474C109.743 159.074 109.836 158.688 109.859 158.315C109.881 157.942 109.843 157.591 109.744 157.262C109.645 156.934 109.5 156.62 109.313 156.327C109.126 156.033 108.911 155.753 108.66 155.496C108.404 155.235 108.137 155 107.857 154.782C107.577 154.563 107.274 154.361 106.955 154.181C106.626 154.002 106.292 153.854 105.948 153.75C105.598 153.642 105.244 153.573 104.891 153.548C104.527 153.525 104.171 153.559 103.822 153.65C103.467 153.738 103.126 153.897 102.793 154.113C102.455 154.335 102.141 154.636 101.842 155.018C101.417 155.563 101.152 156.102 101.053 156.64C100.953 157.178 100.969 157.702 101.113 158.205C101.254 158.714 101.493 159.196 101.841 159.65C102.189 160.104 102.595 160.517 103.069 160.887C103.516 161.236 103.94 161.516 104.346 161.729C104.747 161.938 105.135 162.085 105.507 162.176C105.878 162.266 106.228 162.296 106.57 162.269C106.908 162.247 107.239 162.167 107.555 162.041L106.683 160.492C106.246 160.663 105.815 160.682 105.381 160.559C104.947 160.437 104.488 160.182 104.003 159.803C103.739 159.597 103.512 159.377 103.312 159.133C103.111 158.89 102.958 158.631 102.852 158.367C102.741 158.098 102.692 157.817 102.691 157.529C102.69 157.242 102.757 156.956 102.896 156.657ZM106.952 155.94C107.243 156.167 107.486 156.4 107.69 156.638C107.889 156.872 108.036 157.117 108.13 157.363C108.224 157.61 108.254 157.859 108.233 158.12C108.211 158.381 108.117 158.646 107.955 158.909L103.731 155.61C104.003 155.406 104.285 155.279 104.58 155.223C104.871 155.173 105.163 155.176 105.448 155.233C105.727 155.287 106.002 155.379 106.266 155.508C106.52 155.637 106.753 155.784 106.952 155.94ZM111.276 167.238C111.459 167.381 111.652 167.523 111.849 167.66C112.046 167.796 112.236 167.919 112.416 168.033C112.59 168.143 112.743 168.237 112.874 168.313C113.005 168.389 113.089 168.438 113.131 168.462L114.044 167.293C113.987 167.266 113.898 167.213 113.782 167.14C113.661 167.072 113.54 166.994 113.407 166.908C113.275 166.822 113.143 166.736 113.015 166.645C112.887 166.553 112.785 166.483 112.71 166.424C112.538 166.289 112.399 166.155 112.297 166.032C112.188 165.904 112.128 165.77 112.11 165.626C112.089 165.487 112.104 165.335 112.171 165.17C112.239 165.006 112.348 164.823 112.508 164.618L114.515 162.048L116.864 163.883L117.773 162.72L115.424 160.885L117.007 158.859L115.547 157.719L113.964 159.744L112.203 158.368L111.294 159.532L113.055 160.908L110.774 163.827C110.534 164.134 110.357 164.439 110.247 164.725C110.136 165.011 110.092 165.289 110.126 165.568C110.16 165.846 110.267 166.12 110.457 166.399C110.642 166.673 110.915 166.956 111.276 167.238Z" fill="black"/>
	<path d="M143.874 162.807L151.395 166.404L153.178 165.011L151.507 156.843L150.09 157.95L151.414 164.497L145.393 161.62L143.874 162.807ZM156.447 158.536L162.103 154.117L161.838 153.777C161.497 153.341 161.145 152.991 160.797 152.734C160.449 152.477 160.096 152.292 159.74 152.181C159.383 152.069 159.034 152.021 158.691 152.037C158.348 152.053 158.009 152.119 157.679 152.229C157.349 152.34 157.025 152.48 156.715 152.661C156.4 152.847 156.107 153.049 155.827 153.268C155.547 153.487 155.278 153.732 155.027 153.998C154.774 154.274 154.548 154.563 154.364 154.871C154.175 155.184 154.023 155.511 153.913 155.848C153.802 156.195 153.749 156.549 153.753 156.91C153.752 157.275 153.824 157.644 153.953 158.02C154.086 158.402 154.303 158.779 154.602 159.162C155.027 159.706 155.486 160.093 155.984 160.32C156.482 160.547 156.994 160.658 157.518 160.64C158.045 160.627 158.571 160.511 159.096 160.283C159.62 160.055 160.119 159.761 160.593 159.391C161.04 159.041 161.414 158.698 161.719 158.355C162.018 158.017 162.255 157.676 162.433 157.337C162.611 156.999 162.725 156.667 162.781 156.328C162.841 155.995 162.844 155.654 162.798 155.317L161.084 155.789C161.144 156.254 161.058 156.677 160.834 157.068C160.611 157.46 160.252 157.844 159.767 158.223C159.503 158.429 159.235 158.596 158.95 158.731C158.666 158.867 158.377 158.953 158.095 158.991C157.807 159.034 157.523 159.014 157.244 158.945C156.965 158.877 156.704 158.743 156.447 158.536ZM156.732 154.426C157.023 154.199 157.308 154.02 157.588 153.879C157.863 153.742 158.136 153.659 158.398 153.628C158.66 153.597 158.91 153.627 159.157 153.711C159.405 153.795 159.639 153.951 159.856 154.172L155.632 157.472C155.5 157.158 155.445 156.854 155.463 156.555C155.484 156.26 155.558 155.977 155.683 155.715C155.802 155.457 155.958 155.213 156.147 154.988C156.334 154.772 156.533 154.582 156.732 154.426ZM160.854 149.532L165.441 155.403L166.885 154.275L163.956 150.526C163.97 150.333 164.016 150.115 164.095 149.871C164.178 149.633 164.296 149.384 164.459 149.127C164.622 148.869 164.834 148.608 165.082 148.337C165.334 148.07 165.639 147.806 165.997 147.543C166.024 147.522 166.057 147.497 166.109 147.464L166.252 147.37C166.3 147.342 166.337 147.312 166.379 147.288C166.421 147.264 166.443 147.247 166.454 147.239L165.389 145.832L165.284 145.897C164.862 146.201 164.512 146.509 164.23 146.825C163.948 147.141 163.724 147.454 163.551 147.754C163.382 148.06 163.258 148.356 163.19 148.635C163.116 148.918 163.084 149.177 163.085 149.411L162.298 148.404L160.854 149.532ZM164.944 142.641L171.324 150.807L172.767 149.68L172.347 149.141C172.755 149.142 173.217 149.033 173.72 148.823C174.227 148.617 174.764 148.293 175.335 147.847C175.588 147.649 175.82 147.425 176.027 147.168C176.238 146.916 176.412 146.65 176.555 146.356C176.699 146.062 176.805 145.753 176.874 145.431C176.942 145.108 176.959 144.774 176.928 144.434C176.901 144.1 176.816 143.758 176.679 143.405C176.541 143.062 176.344 142.721 176.079 142.382C175.667 141.854 175.223 141.463 174.751 141.216C174.275 140.972 173.805 140.836 173.321 140.806C172.838 140.776 172.366 140.85 171.909 141.008C171.45 141.175 171.032 141.407 170.655 141.701C170.342 141.945 170.068 142.194 169.838 142.443C169.612 142.698 169.416 142.947 169.259 143.19C169.103 143.434 168.981 143.668 168.891 143.886C168.805 144.109 168.747 144.311 168.715 144.492L166.387 141.513L164.944 142.641ZM173.961 147.021C173.778 147.164 173.582 147.291 173.372 147.411C173.163 147.532 172.945 147.641 172.725 147.726C172.509 147.817 172.286 147.887 172.067 147.928C171.852 147.975 171.64 147.992 171.442 147.983L169.603 145.629C169.617 145.514 169.659 145.368 169.724 145.196C169.793 145.029 169.889 144.841 170.016 144.637C170.143 144.443 170.294 144.238 170.476 144.027C170.658 143.815 170.873 143.613 171.115 143.423C171.395 143.204 171.69 143.026 171.998 142.899C172.306 142.771 172.612 142.696 172.919 142.69C173.227 142.684 173.531 142.751 173.822 142.879C174.107 143.011 174.377 143.234 174.617 143.542C174.857 143.849 175.008 144.164 175.076 144.484C175.144 144.804 175.135 145.115 175.059 145.417C174.987 145.725 174.854 146.011 174.66 146.284C174.47 146.562 174.235 146.806 173.961 147.021ZM179.071 140.86L184.727 136.441L184.462 136.101C184.121 135.665 183.77 135.315 183.421 135.058C183.073 134.801 182.721 134.616 182.364 134.504C182.008 134.392 181.658 134.345 181.315 134.361C180.973 134.377 180.633 134.443 180.303 134.553C179.973 134.664 179.649 134.804 179.339 134.985C179.025 135.171 178.732 135.373 178.452 135.592C178.172 135.811 177.903 136.056 177.651 136.322C177.398 136.597 177.173 136.886 176.989 137.195C176.799 137.508 176.647 137.835 176.538 138.172C176.427 138.519 176.374 138.873 176.378 139.233C176.377 139.599 176.449 139.968 176.578 140.344C176.711 140.726 176.928 141.103 177.226 141.485C177.652 142.029 178.11 142.417 178.609 142.644C179.107 142.87 179.619 142.982 180.142 142.963C180.67 142.95 181.195 142.835 181.72 142.607C182.245 142.379 182.744 142.085 183.218 141.714C183.665 141.365 184.038 141.021 184.343 140.679C184.643 140.341 184.879 140 185.057 139.661C185.235 139.323 185.349 138.991 185.405 138.652C185.466 138.319 185.469 137.978 185.422 137.641L183.709 138.113C183.768 138.578 183.682 139.001 183.459 139.392C183.236 139.783 182.877 140.168 182.392 140.547C182.128 140.753 181.859 140.919 181.575 141.055C181.29 141.19 181.002 141.277 180.72 141.315C180.432 141.358 180.147 141.337 179.868 141.269C179.589 141.201 179.328 141.066 179.071 140.86ZM179.357 136.75C179.647 136.523 179.932 136.344 180.213 136.203C180.488 136.066 180.761 135.983 181.023 135.952C181.285 135.92 181.534 135.951 181.782 136.035C182.03 136.119 182.264 136.274 182.48 136.496L178.257 139.795C178.125 139.482 178.07 139.178 178.087 138.878C178.109 138.584 178.182 138.301 178.307 138.039C178.426 137.78 178.583 137.537 178.771 137.311C178.959 137.096 179.157 136.906 179.357 136.75Z" fill="black"/>
	<path d="M89.169 61.2784C90.2625 60.4241 90.9784 59.6305 91.3018 58.9008C91.6294 58.1764 91.5463 57.5039 91.0539 56.8736C90.7888 56.5342 90.4987 56.3184 90.1742 56.225C89.8538 56.137 89.5037 56.1329 89.1291 56.2087C88.7588 56.2899 88.3706 56.437 87.9603 56.6447C87.5447 56.8567 87.1256 57.0974 86.6933 57.3658C86.3406 57.5806 86.0203 57.7701 85.7364 57.9398C85.4514 58.1191 85.1969 58.2486 84.9759 58.3432C84.7549 58.4378 84.5685 58.488 84.4084 58.4829C84.2525 58.4833 84.1241 58.4188 84.0189 58.2841C83.9431 58.1872 83.9027 58.0799 83.903 57.9582C83.898 57.8407 83.9391 57.7045 84.0316 57.5454C84.1231 57.3959 84.2618 57.2182 84.4562 57.0229C84.6452 56.8318 84.9062 56.6106 85.224 56.3623C85.5041 56.1435 85.7753 55.9576 86.0418 55.8101C86.3028 55.6669 86.5604 55.5524 86.8048 55.4655C87.0439 55.3829 87.2752 55.3236 87.4891 55.2866C87.7019 55.2591 87.8985 55.2443 88.0724 55.2559L88.3215 53.7427C88.087 53.709 87.8202 53.7006 87.5349 53.724C87.2442 53.7517 86.9284 53.8249 86.5875 53.9437C86.2466 54.0626 85.8752 54.2313 85.4734 54.4498C85.0758 54.6737 84.6507 54.9624 84.1929 55.3201C83.7673 55.6526 83.4035 55.9976 83.0973 56.3496C82.7953 56.707 82.5767 57.06 82.4317 57.4074C82.2856 57.7645 82.2282 58.113 82.2553 58.4474C82.2867 58.7873 82.4175 59.1102 82.652 59.4214C82.9171 59.7608 83.2126 59.9724 83.5437 60.052C83.8748 60.1316 84.225 60.1357 84.6007 60.0503C84.9764 59.965 85.3646 59.8178 85.7749 59.6101C86.1851 59.4023 86.5935 59.17 87.0042 58.9185C87.3838 58.6827 87.7257 58.4763 88.0107 58.297C88.2999 58.1231 88.5449 57.9924 88.7605 57.902C88.9708 57.8158 89.1505 57.7795 89.301 57.7834C89.4504 57.7968 89.5734 57.8655 89.6786 58.0002C89.767 58.1133 89.8147 58.2409 89.812 58.3818C89.8093 58.5227 89.7509 58.6811 89.6463 58.8582C89.5418 59.0353 89.3773 59.2245 89.156 59.4408C88.9346 59.6572 88.651 59.9048 88.3062 60.1741C87.9776 60.4309 87.6591 60.645 87.3519 60.807C87.0489 60.9743 86.7656 61.1002 86.4977 61.1793C86.2287 61.2681 85.9836 61.3208 85.7582 61.332C85.5274 61.3475 85.3248 61.3324 85.1448 61.2908L84.7265 62.754C84.9743 62.838 85.2514 62.8818 85.5536 62.8799C85.8599 62.8835 86.198 62.8276 86.5718 62.7176C86.9457 62.6077 87.3513 62.4383 87.7842 62.2042C88.2172 61.97 88.6788 61.6614 89.169 61.2784ZM96.091 55.8704C96.4196 55.6136 96.7068 55.3372 96.9675 55.0381C97.2229 54.7431 97.4429 54.4585 97.6287 54.1745C97.8134 53.9001 97.9573 53.6401 98.0701 53.3959C98.1817 53.1612 98.2491 52.9698 98.2763 52.8271L98.8276 53.5327L100.282 52.3964L95.6947 46.5248L94.2402 47.6611L97.422 51.7335C97.3816 51.9039 97.31 52.0899 97.2116 52.297C97.1077 52.5082 96.9804 52.7118 96.8328 52.9225C96.6798 53.1375 96.513 53.3459 96.3216 53.5562C96.1302 53.7664 95.9219 53.9552 95.7011 54.1277C95.1893 54.5275 94.7491 54.7413 94.3847 54.7745C94.0202 54.8077 93.7196 54.6782 93.4797 54.3712L90.5126 50.5735L89.0582 51.7098L92.2146 55.7499C92.5134 56.1324 92.821 56.4039 93.1373 56.5645C93.4482 56.7293 93.7709 56.7981 94.0947 56.7794C94.4226 56.7661 94.7504 56.6749 95.0821 56.5111C95.4139 56.3473 95.7516 56.1355 96.091 55.8704ZM103.527 53.4523C103.878 53.1788 104.131 52.903 104.282 52.6197C104.434 52.3364 104.516 52.064 104.52 51.7918C104.524 51.5196 104.469 51.2595 104.358 51.0073C104.248 50.7552 104.103 50.5133 103.93 50.2924L98.9806 43.9575L97.537 45.0854L102.339 51.2318C102.478 51.4095 102.566 51.5664 102.611 51.7132C102.651 51.8642 102.659 51.9967 102.634 52.1203C102.609 52.2438 102.557 52.3543 102.471 52.4558C102.39 52.5627 102.296 52.6534 102.188 52.7376C102.118 52.7923 102.039 52.8458 101.964 52.8951C101.885 52.9487 101.81 52.998 101.742 53.0431C101.667 53.0924 101.6 53.128 101.543 53.1551C101.485 53.1918 101.439 53.2105 101.407 53.2261L102.258 54.3142C102.289 54.2986 102.351 54.2673 102.441 54.2053C102.531 54.153 102.641 54.0838 102.759 54.0008C102.876 53.9178 103.008 53.8318 103.147 53.7319C103.281 53.6363 103.409 53.5449 103.527 53.4523ZM95.8446 42.9637L96.8378 44.235L98.33 43.0692L97.3367 41.7979L95.8446 42.9637ZM104.657 45.0831L110.313 40.664L110.048 40.3247C109.707 39.8883 109.356 39.5384 109.008 39.2813C108.659 39.0243 108.307 38.8398 107.951 38.7278C107.594 38.6159 107.244 38.5681 106.902 38.5844C106.559 38.6008 106.219 38.6663 105.889 38.7767C105.559 38.8871 105.235 39.0275 104.926 39.2087C104.611 39.394 104.318 39.5967 104.038 39.8156C103.758 40.0344 103.489 40.279 103.237 40.5452C102.984 40.8209 102.759 41.1098 102.575 41.4184C102.385 41.7312 102.233 42.0582 102.124 42.3954C102.013 42.7422 101.96 43.0961 101.964 43.457C101.963 43.8221 102.035 44.1913 102.164 44.5675C102.297 44.9491 102.514 45.3264 102.813 45.7089C103.238 46.2529 103.697 46.6404 104.195 46.8672C104.693 47.0939 105.205 47.2055 105.728 47.187C106.256 47.1738 106.782 47.0582 107.306 46.8304C107.831 46.6026 108.33 46.3084 108.804 45.938C109.251 45.5887 109.624 45.2449 109.929 44.9025C110.229 44.5643 110.466 44.2233 110.644 43.8847C110.821 43.5462 110.935 43.2144 110.992 42.8755C111.052 42.542 111.055 42.2015 111.008 41.8646L109.295 42.336C109.355 42.8011 109.269 43.224 109.045 43.6154C108.822 44.0068 108.463 44.3913 107.978 44.7701C107.714 44.9763 107.445 45.143 107.161 45.2785C106.876 45.414 106.588 45.5004 106.306 45.5388C106.018 45.5814 105.733 45.561 105.454 45.4926C105.175 45.4243 104.914 45.29 104.657 45.0831ZM104.943 40.9737C105.234 40.7465 105.519 40.5672 105.799 40.4263C106.074 40.2896 106.347 40.2062 106.609 40.1751C106.871 40.1439 107.12 40.1746 107.368 40.2586C107.616 40.3426 107.85 40.4979 108.066 40.7193L103.843 44.0189C103.711 43.7056 103.656 43.4017 103.673 43.1019C103.695 42.8075 103.769 42.5243 103.893 42.2621C104.013 42.004 104.169 41.7602 104.358 41.535C104.545 41.3193 104.743 41.1295 104.943 40.9737ZM116.952 39.5116C117.135 39.3685 117.319 39.2158 117.499 39.0577C117.679 38.8997 117.844 38.7446 117.999 38.598C118.148 38.4556 118.275 38.33 118.381 38.2212C118.487 38.1125 118.554 38.0428 118.587 38.008L117.674 36.839C117.634 36.8877 117.562 36.9616 117.462 37.0565C117.367 37.1569 117.263 37.256 117.147 37.3636C117.032 37.4712 116.916 37.5787 116.796 37.6809C116.677 37.7831 116.584 37.8642 116.509 37.9232C116.336 38.0578 116.173 38.1595 116.028 38.2294C115.877 38.3034 115.733 38.3295 115.589 38.3119C115.449 38.2996 115.305 38.2477 115.162 38.1425C115.019 38.0373 114.867 37.8872 114.707 37.6825L112.699 35.113L115.048 33.278L114.139 32.1145L111.79 33.9494L110.208 31.924L108.748 33.0645L110.331 35.09L108.569 36.4662L109.478 37.6297L111.24 36.2535L113.521 39.1731C113.761 39.4802 114.013 39.7255 114.264 39.9024C114.515 40.0793 114.774 40.1891 115.052 40.2232C115.331 40.2574 115.623 40.2202 115.939 40.1032C116.25 39.9904 116.591 39.7936 116.952 39.5116Z" fill="black"/>
	<path d="M147.499 31.732L145.828 39.8997L147.611 41.2928L155.132 37.6957L153.715 36.5888L147.683 39.4577L149.018 32.9189L147.499 31.732ZM154.685 42.8982L160.341 47.3173L160.606 46.9779C160.947 46.5416 161.202 46.1158 161.367 45.7157C161.532 45.3156 161.626 44.9291 161.648 44.5562C161.671 44.1833 161.632 43.8325 161.534 43.5037C161.435 43.1749 161.289 42.8617 161.102 42.5681C160.915 42.2745 160.7 41.994 160.45 41.7375C160.194 41.4767 159.926 41.2417 159.646 41.0228C159.366 40.804 159.064 40.6025 158.745 40.4225C158.416 40.2437 158.081 40.0949 157.737 39.991C157.388 39.883 157.034 39.8144 156.68 39.7897C156.317 39.7661 155.96 39.8001 155.611 39.8917C155.257 39.979 154.916 40.1378 154.582 40.3541C154.244 40.5758 153.93 40.8773 153.632 41.2597C153.206 41.8038 152.941 42.3428 152.842 42.881C152.742 43.4192 152.758 43.9432 152.903 44.4466C153.043 44.9553 153.282 45.4373 153.63 45.8913C153.978 46.3453 154.385 46.7581 154.859 47.1284C155.306 47.4778 155.73 47.7569 156.136 47.97C156.536 48.1789 156.924 48.3261 157.296 48.4168C157.667 48.5075 158.017 48.5377 158.359 48.5102C158.698 48.4882 159.029 48.4086 159.344 48.2822L158.472 46.7334C158.036 46.9039 157.604 46.9228 157.171 46.8007C156.737 46.6787 156.277 46.4235 155.792 46.0447C155.528 45.8385 155.301 45.6179 155.101 45.3747C154.901 45.1314 154.747 44.8727 154.642 44.608C154.531 44.3392 154.482 44.0579 154.48 43.7707C154.479 43.4835 154.546 43.1977 154.685 42.8982ZM158.741 42.181C159.032 42.4083 159.275 42.6414 159.48 42.8793C159.679 43.113 159.826 43.3579 159.919 43.6045C160.013 43.8511 160.044 44.1006 160.022 44.3614C160 44.6221 159.906 44.8869 159.744 45.1504L155.521 41.8508C155.793 41.647 156.074 41.5199 156.369 41.4642C156.66 41.4138 156.953 41.4169 157.237 41.4744C157.517 41.5278 157.791 41.6207 158.055 41.749C158.31 41.8785 158.542 42.0253 158.741 42.181ZM164.488 44.9965L159.9 50.8681L161.344 51.996L164.273 48.2468C164.464 48.2136 164.687 48.2057 164.942 48.223C165.194 48.2458 165.463 48.3003 165.753 48.3963C166.042 48.4922 166.347 48.635 166.67 48.8096C166.989 48.9895 167.32 49.2217 167.662 49.506C167.689 49.5271 167.721 49.5523 167.765 49.5956L167.891 49.7116C167.93 49.7506 167.968 49.7801 168.002 49.8149C168.035 49.8498 168.057 49.8666 168.067 49.875L169.175 48.5021L169.086 48.4155C168.689 48.0795 168.306 47.8149 167.931 47.6174C167.556 47.4199 167.198 47.2789 166.865 47.1834C166.528 47.0933 166.21 47.0447 165.923 47.0459C165.63 47.0428 165.371 47.0746 165.145 47.1317L165.932 46.1244L164.488 44.9965ZM172.163 47.2975L165.783 55.4639L167.227 56.5918L167.647 56.0531C167.745 56.4502 167.962 56.8716 168.289 57.3088C168.611 57.7513 169.055 58.1936 169.626 58.6397C169.879 58.8375 170.153 59.0084 170.453 59.1469C170.748 59.2909 171.048 59.3952 171.368 59.4631C171.688 59.5309 172.013 59.5592 172.343 59.548C172.672 59.5367 173.001 59.472 173.323 59.3594C173.641 59.2522 173.952 59.0874 174.261 58.8692C174.561 58.6523 174.844 58.3789 175.109 58.0395C175.521 57.5116 175.793 56.9864 175.919 56.4693C176.04 55.9479 176.058 55.4587 175.97 54.9825C175.883 54.5062 175.697 54.0664 175.433 53.6605C175.159 53.2558 174.834 52.9061 174.457 52.6115C174.144 52.3674 173.837 52.1617 173.539 51.9986C173.237 51.8409 172.948 51.7107 172.674 51.6178C172.4 51.5249 172.144 51.4637 171.911 51.4291C171.673 51.3998 171.463 51.3915 171.279 51.4043L173.607 48.4254L172.163 47.2975ZM170.095 57.1065C169.912 56.9634 169.741 56.8041 169.574 56.6299C169.406 56.4556 169.247 56.2706 169.111 56.0779C168.972 55.8905 168.85 55.6912 168.757 55.4883C168.659 55.2909 168.591 55.0899 168.552 54.8949L170.391 52.5409C170.507 52.5268 170.658 52.5325 170.841 52.5539C171.02 52.5807 171.225 52.6285 171.453 52.7027C171.672 52.7781 171.908 52.8758 172.157 53.001C172.406 53.1263 172.655 53.2857 172.897 53.4751C173.177 53.6939 173.421 53.9367 173.62 54.2045C173.818 54.4724 173.965 54.7515 174.045 55.0484C174.125 55.3454 174.134 55.656 174.08 55.9694C174.021 56.2787 173.87 56.5943 173.63 56.9013C173.39 57.2084 173.12 57.4314 172.826 57.5747C172.532 57.7179 172.228 57.7844 171.917 57.7837C171.601 57.7884 171.291 57.729 170.979 57.6066C170.663 57.4896 170.37 57.3211 170.095 57.1065ZM177.309 60.5744L182.966 64.9935L183.231 64.6541C183.572 64.2178 183.826 63.7921 183.991 63.3919C184.157 62.9918 184.25 62.6053 184.273 62.2324C184.295 61.8595 184.257 61.5087 184.158 61.1799C184.059 60.8512 183.914 60.5379 183.727 60.2443C183.54 59.9507 183.325 59.6702 183.074 59.4137C182.818 59.1529 182.551 58.9179 182.271 58.6991C181.991 58.4802 181.688 58.2787 181.369 58.0987C181.04 57.92 180.705 57.7711 180.362 57.6673C180.012 57.5592 179.658 57.4907 179.304 57.4659C178.941 57.4423 178.585 57.4763 178.236 57.5679C177.881 57.6553 177.54 57.814 177.207 58.0303C176.868 58.252 176.555 58.5535 176.256 58.936C175.831 59.48 175.566 60.019 175.466 60.5572C175.367 61.0954 175.383 61.6194 175.527 62.1228C175.668 62.6315 175.907 63.1135 176.255 63.5675C176.603 64.0215 177.009 64.4343 177.483 64.8047C177.93 65.154 178.354 65.4331 178.76 65.6462C179.161 65.8551 179.549 66.0023 179.92 66.093C180.292 66.1838 180.641 66.2139 180.984 66.1865C181.322 66.1644 181.653 66.0848 181.969 65.9584L181.097 64.4096C180.66 64.5802 180.229 64.599 179.795 64.4769C179.361 64.3549 178.901 64.0997 178.417 63.7209C178.153 63.5147 177.926 63.2941 177.726 63.0509C177.525 62.8076 177.372 62.5489 177.266 62.2843C177.155 62.0154 177.106 61.7341 177.105 61.4469C177.104 61.1597 177.171 60.8739 177.309 60.5744ZM181.366 59.8572C181.657 60.0845 181.9 60.3176 182.104 60.5555C182.303 60.7892 182.45 61.0341 182.544 61.2807C182.637 61.5274 182.668 61.7768 182.647 62.0376C182.625 62.2984 182.531 62.5631 182.368 62.8266L178.145 59.527C178.417 59.3232 178.699 59.1961 178.994 59.1404C179.285 59.0901 179.577 59.0931 179.862 59.1507C180.141 59.204 180.416 59.297 180.68 59.4252C180.934 59.5547 181.167 59.7015 181.366 59.8572Z" fill="black"/>
	<path d="M42.1543 106.676V120H54.7227V117.372H45.3271V106.676H42.1543ZM57.0781 106.676V120H70.2002V117.372H60.251V114.472H68.2227V111.914H60.251V109.383H69.9189V106.676H57.0781ZM79.7891 120.255C80.7471 120.255 81.5908 120.202 82.3291 120.097C83.0586 119.991 83.7002 119.842 84.2363 119.648C84.7725 119.464 85.2295 119.235 85.5986 118.972C85.959 118.717 86.2578 118.427 86.4775 118.119C86.6973 117.812 86.8555 117.478 86.9521 117.135C87.0488 116.792 87.0928 116.432 87.0928 116.071C87.0928 115.5 86.9873 115.017 86.7852 114.604C86.583 114.19 86.3018 113.839 85.9502 113.549C85.5898 113.259 85.1768 113.021 84.7109 112.837C84.2363 112.652 83.7266 112.503 83.1904 112.389C82.6543 112.274 82.1006 112.187 81.5293 112.116C80.958 112.055 80.3955 111.993 79.8418 111.932C79.1299 111.861 78.5059 111.791 77.9873 111.721C77.46 111.659 77.0293 111.571 76.6865 111.457C76.3438 111.343 76.0977 111.202 75.9307 111.018C75.7637 110.842 75.6846 110.604 75.6846 110.306C75.6846 109.849 75.9922 109.506 76.6074 109.277C77.2227 109.058 78.1807 108.943 79.4902 108.943C80.1318 108.943 80.7031 108.979 81.1953 109.049C81.6787 109.128 82.1006 109.233 82.4609 109.374C82.8125 109.515 83.1025 109.682 83.3311 109.884C83.5596 110.086 83.7354 110.314 83.8584 110.569L86.7764 109.55C86.6709 109.312 86.5303 109.075 86.3633 108.829C86.1875 108.592 85.9678 108.354 85.7041 108.117C85.4404 107.88 85.124 107.66 84.7549 107.458C84.3857 107.256 83.9463 107.071 83.4453 106.922C82.9443 106.772 82.3643 106.649 81.7139 106.553C81.0635 106.465 80.3252 106.421 79.5078 106.421C78.3916 106.421 77.3984 106.509 76.5459 106.693C75.6846 106.878 74.9639 107.142 74.375 107.493C73.7861 107.845 73.3467 108.275 73.0479 108.785C72.7402 109.304 72.5908 109.893 72.5908 110.561C72.5908 111.114 72.6875 111.589 72.8896 111.984C73.083 112.389 73.3467 112.731 73.6895 113.013C74.0322 113.303 74.4277 113.54 74.8848 113.725C75.333 113.909 75.8164 114.067 76.335 114.182C76.8535 114.296 77.3896 114.393 77.9434 114.463C78.4971 114.533 79.0332 114.595 79.5693 114.647C80.3164 114.727 80.9668 114.797 81.5205 114.867C82.0742 114.946 82.5312 115.043 82.9004 115.157C83.2607 115.28 83.5332 115.438 83.7178 115.623C83.9023 115.816 83.9902 116.071 83.9902 116.379C83.9902 116.625 83.9111 116.836 83.7529 117.021C83.5947 117.205 83.3486 117.363 83.0059 117.495C82.6631 117.627 82.2148 117.724 81.6787 117.785C81.1426 117.847 80.4834 117.882 79.7188 117.882C78.9365 117.882 78.2598 117.829 77.6885 117.715C77.1172 117.609 76.6426 117.46 76.2559 117.267C75.8604 117.082 75.5527 116.854 75.3242 116.59C75.0957 116.326 74.9287 116.036 74.8232 115.729L71.8525 116.388C72.0107 116.906 72.2568 117.398 72.5908 117.864C72.9248 118.33 73.3994 118.743 74.0059 119.095C74.6123 119.455 75.3945 119.736 76.335 119.938C77.2754 120.149 78.4268 120.255 79.7891 120.255ZM100.654 106.588L93.7812 120H96.9277L98.334 117.284H106.253L107.677 120H111.078L104.179 106.588H100.654ZM105.066 114.92H99.5205L102.289 109.576L105.066 114.92ZM121.036 120.272C122.012 120.272 122.917 120.167 123.752 119.965C124.578 119.763 125.316 119.464 125.976 119.086C126.635 118.708 127.197 118.251 127.672 117.715C128.146 117.179 128.524 116.59 128.797 115.931L125.932 114.964C125.765 115.359 125.545 115.729 125.255 116.054C124.965 116.388 124.622 116.669 124.209 116.906C123.796 117.144 123.33 117.328 122.803 117.46C122.275 117.592 121.695 117.662 121.054 117.662C120.21 117.662 119.472 117.557 118.83 117.346C118.188 117.144 117.652 116.845 117.222 116.467C116.791 116.089 116.466 115.632 116.246 115.096C116.026 114.56 115.921 113.971 115.921 113.32C115.921 112.661 116.035 112.072 116.255 111.554C116.475 111.035 116.809 110.587 117.239 110.218C117.67 109.857 118.206 109.576 118.848 109.383C119.48 109.189 120.21 109.093 121.036 109.093C121.678 109.093 122.267 109.154 122.785 109.277C123.304 109.4 123.77 109.567 124.165 109.787C124.561 110.007 124.895 110.271 125.167 110.569C125.439 110.877 125.642 111.202 125.773 111.554L128.735 110.64C128.533 110.068 128.226 109.523 127.821 109.005C127.408 108.495 126.89 108.047 126.266 107.66C125.633 107.282 124.886 106.975 124.024 106.746C123.154 106.526 122.17 106.412 121.054 106.412C120.298 106.412 119.568 106.474 118.874 106.588C118.171 106.711 117.512 106.896 116.896 107.142C116.281 107.388 115.719 107.695 115.218 108.073C114.708 108.451 114.269 108.899 113.908 109.409C113.539 109.919 113.258 110.499 113.056 111.149C112.854 111.8 112.757 112.521 112.757 113.32C112.757 114.516 112.959 115.553 113.372 116.423C113.785 117.302 114.356 118.022 115.086 118.594C115.815 119.165 116.694 119.587 117.705 119.859C118.716 120.132 119.832 120.272 121.036 120.272ZM138.931 120.272C139.906 120.272 140.812 120.167 141.646 119.965C142.473 119.763 143.211 119.464 143.87 119.086C144.529 118.708 145.092 118.251 145.566 117.715C146.041 117.179 146.419 116.59 146.691 115.931L143.826 114.964C143.659 115.359 143.439 115.729 143.149 116.054C142.859 116.388 142.517 116.669 142.104 116.906C141.69 117.144 141.225 117.328 140.697 117.46C140.17 117.592 139.59 117.662 138.948 117.662C138.104 117.662 137.366 117.557 136.725 117.346C136.083 117.144 135.547 116.845 135.116 116.467C134.686 116.089 134.36 115.632 134.141 115.096C133.921 114.56 133.815 113.971 133.815 113.32C133.815 112.661 133.93 112.072 134.149 111.554C134.369 111.035 134.703 110.587 135.134 110.218C135.564 109.857 136.101 109.576 136.742 109.383C137.375 109.189 138.104 109.093 138.931 109.093C139.572 109.093 140.161 109.154 140.68 109.277C141.198 109.4 141.664 109.567 142.06 109.787C142.455 110.007 142.789 110.271 143.062 110.569C143.334 110.877 143.536 111.202 143.668 111.554L146.63 110.64C146.428 110.068 146.12 109.523 145.716 109.005C145.303 108.495 144.784 108.047 144.16 107.66C143.527 107.282 142.78 106.975 141.919 106.746C141.049 106.526 140.064 106.412 138.948 106.412C138.192 106.412 137.463 106.474 136.769 106.588C136.065 106.711 135.406 106.896 134.791 107.142C134.176 107.388 133.613 107.695 133.112 108.073C132.603 108.451 132.163 108.899 131.803 109.409C131.434 109.919 131.152 110.499 130.95 111.149C130.748 111.8 130.651 112.521 130.651 113.32C130.651 114.516 130.854 115.553 131.267 116.423C131.68 117.302 132.251 118.022 132.98 118.594C133.71 119.165 134.589 119.587 135.6 119.859C136.61 120.132 137.727 120.272 138.931 120.272ZM156.843 120.272C157.599 120.272 158.328 120.211 159.031 120.088C159.734 119.974 160.394 119.789 161.018 119.534C161.633 119.288 162.195 118.972 162.705 118.594C163.206 118.216 163.646 117.776 164.015 117.258C164.375 116.748 164.656 116.168 164.858 115.509C165.061 114.858 165.157 114.138 165.157 113.338C165.157 112.538 165.052 111.817 164.85 111.158C164.647 110.508 164.357 109.928 163.997 109.409C163.628 108.899 163.188 108.451 162.679 108.073C162.16 107.695 161.598 107.388 160.982 107.142C160.367 106.896 159.708 106.711 159.014 106.588C158.311 106.474 157.59 106.412 156.843 106.412C156.096 106.412 155.375 106.474 154.681 106.588C153.978 106.711 153.318 106.896 152.712 107.142C152.097 107.388 151.534 107.695 151.024 108.073C150.506 108.451 150.066 108.899 149.706 109.409C149.337 109.928 149.056 110.508 148.854 111.158C148.651 111.817 148.546 112.538 148.546 113.338C148.546 114.138 148.643 114.858 148.845 115.509C149.047 116.168 149.328 116.748 149.688 117.258C150.049 117.776 150.488 118.216 150.998 118.594C151.499 118.972 152.062 119.288 152.677 119.534C153.292 119.789 153.951 119.974 154.654 120.088C155.357 120.211 156.087 120.272 156.843 120.272ZM156.843 117.645C156.017 117.645 155.287 117.539 154.646 117.337C154.004 117.135 153.459 116.836 153.02 116.458C152.58 116.08 152.246 115.632 152.018 115.104C151.789 114.577 151.675 113.988 151.675 113.338C151.675 112.688 151.789 112.099 152.018 111.58C152.246 111.062 152.58 110.613 153.02 110.244C153.459 109.884 154.004 109.603 154.646 109.4C155.287 109.207 156.017 109.11 156.843 109.11C157.669 109.11 158.407 109.207 159.049 109.4C159.69 109.603 160.227 109.884 160.666 110.244C161.105 110.613 161.439 111.062 161.668 111.58C161.896 112.099 162.011 112.688 162.011 113.338C162.011 113.988 161.896 114.577 161.668 115.104C161.439 115.632 161.105 116.08 160.666 116.458C160.227 116.836 159.69 117.135 159.049 117.337C158.407 117.539 157.669 117.645 156.843 117.645ZM167.873 106.676V120H171.002V115.184H176.425L179.158 120H182.533L179.58 114.744C180.503 114.472 181.188 114.023 181.654 113.399C182.12 112.775 182.349 111.949 182.349 110.921C182.349 110.156 182.226 109.497 181.988 108.961C181.742 108.425 181.391 107.985 180.934 107.643C180.468 107.309 179.905 107.062 179.246 106.904C178.587 106.755 177.831 106.676 176.996 106.676H167.873ZM176.882 112.67H171.002V109.304H176.882C177.699 109.304 178.306 109.436 178.692 109.708C179.07 109.98 179.264 110.411 179.264 111.009C179.264 111.598 179.07 112.02 178.692 112.274C178.306 112.538 177.699 112.67 176.882 112.67ZM185.328 106.676V120H193.036C193.704 120 194.354 119.947 194.979 119.833C195.603 119.719 196.183 119.552 196.728 119.314C197.272 119.086 197.773 118.796 198.23 118.436C198.679 118.075 199.074 117.653 199.399 117.152C199.725 116.651 199.971 116.08 200.155 115.438C200.331 114.797 200.419 114.067 200.419 113.268C200.419 112.459 200.331 111.738 200.155 111.097C199.979 110.455 199.733 109.893 199.408 109.4C199.083 108.917 198.696 108.495 198.248 108.152C197.8 107.81 197.299 107.528 196.754 107.309C196.2 107.089 195.611 106.931 194.987 106.825C194.363 106.729 193.713 106.676 193.036 106.676H185.328ZM193.071 117.425H188.483V109.33H193.036C193.801 109.33 194.46 109.427 194.996 109.629C195.532 109.831 195.963 110.104 196.297 110.455C196.631 110.807 196.877 111.229 197.026 111.712C197.176 112.195 197.246 112.731 197.246 113.303C197.246 113.918 197.176 114.48 197.026 114.981C196.877 115.482 196.631 115.922 196.306 116.282C195.972 116.643 195.541 116.924 195.014 117.126C194.478 117.328 193.836 117.425 193.071 117.425ZM210.096 120.255C211.054 120.255 211.897 120.202 212.636 120.097C213.365 119.991 214.007 119.842 214.543 119.648C215.079 119.464 215.536 119.235 215.905 118.972C216.266 118.717 216.564 118.427 216.784 118.119C217.004 117.812 217.162 117.478 217.259 117.135C217.355 116.792 217.399 116.432 217.399 116.071C217.399 115.5 217.294 115.017 217.092 114.604C216.89 114.19 216.608 113.839 216.257 113.549C215.896 113.259 215.483 113.021 215.018 112.837C214.543 112.652 214.033 112.503 213.497 112.389C212.961 112.274 212.407 112.187 211.836 112.116C211.265 112.055 210.702 111.993 210.148 111.932C209.437 111.861 208.812 111.791 208.294 111.721C207.767 111.659 207.336 111.571 206.993 111.457C206.65 111.343 206.404 111.202 206.237 111.018C206.07 110.842 205.991 110.604 205.991 110.306C205.991 109.849 206.299 109.506 206.914 109.277C207.529 109.058 208.487 108.943 209.797 108.943C210.438 108.943 211.01 108.979 211.502 109.049C211.985 109.128 212.407 109.233 212.768 109.374C213.119 109.515 213.409 109.682 213.638 109.884C213.866 110.086 214.042 110.314 214.165 110.569L217.083 109.55C216.978 109.312 216.837 109.075 216.67 108.829C216.494 108.592 216.274 108.354 216.011 108.117C215.747 107.88 215.431 107.66 215.062 107.458C214.692 107.256 214.253 107.071 213.752 106.922C213.251 106.772 212.671 106.649 212.021 106.553C211.37 106.465 210.632 106.421 209.814 106.421C208.698 106.421 207.705 106.509 206.853 106.693C205.991 106.878 205.271 107.142 204.682 107.493C204.093 107.845 203.653 108.275 203.354 108.785C203.047 109.304 202.897 109.893 202.897 110.561C202.897 111.114 202.994 111.589 203.196 111.984C203.39 112.389 203.653 112.731 203.996 113.013C204.339 113.303 204.734 113.54 205.191 113.725C205.64 113.909 206.123 114.067 206.642 114.182C207.16 114.296 207.696 114.393 208.25 114.463C208.804 114.533 209.34 114.595 209.876 114.647C210.623 114.727 211.273 114.797 211.827 114.867C212.381 114.946 212.838 115.043 213.207 115.157C213.567 115.28 213.84 115.438 214.024 115.623C214.209 115.816 214.297 116.071 214.297 116.379C214.297 116.625 214.218 116.836 214.06 117.021C213.901 117.205 213.655 117.363 213.312 117.495C212.97 117.627 212.521 117.724 211.985 117.785C211.449 117.847 210.79 117.882 210.025 117.882C209.243 117.882 208.566 117.829 207.995 117.715C207.424 117.609 206.949 117.46 206.562 117.267C206.167 117.082 205.859 116.854 205.631 116.59C205.402 116.326 205.235 116.036 205.13 115.729L202.159 116.388C202.317 116.906 202.563 117.398 202.897 117.864C203.231 118.33 203.706 118.743 204.312 119.095C204.919 119.455 205.701 119.736 206.642 119.938C207.582 120.149 208.733 120.255 210.096 120.255Z" fill="black"/>
	<path d="M114.018 87.3867L112.405 85.5663L111.502 87.8242L108.753 94.6962C108.753 94.6968 108.753 94.6974 108.752 94.6979C108.582 95.1223 108.5 95.5638 108.5 95.9996V95.9997C108.5 97.3868 109.332 98.6985 110.697 99.2478L110.697 99.2478L110.709 99.2524C112.537 99.9705 114.539 99.0628 115.248 97.3053L115.25 97.3012L116.981 92.9762L117.12 92.6279L117.079 92.2549L116.954 91.1174L116.902 90.6435L116.586 90.2867L114.018 87.3867Z" fill="#EFC65F" stroke="black" stroke-width="3"/>
	<path d="M122.5 83.8203V76.6213L123.055 76.0662L122.156 75.0119C121.56 74.3132 120.847 73.7134 120.045 73.2395L120.045 73.2395L120.036 73.2345C118.552 72.3715 116.777 72.2586 115.183 72.9473C113.562 73.6429 112.365 75.0802 111.97 76.795L111.97 76.7958L110.82 81.8075C110.82 81.8077 110.82 81.8078 110.82 81.8079C110.82 81.808 110.82 81.8082 110.82 81.8083C110.425 83.5273 110.88 85.3477 112.058 86.6809L112.059 86.6819L115.943 91.0683L116.522 96.3814L116.522 96.3834C116.719 98.1669 118.228 99.5 120.001 99.5C120.135 99.5 120.254 99.49 120.318 99.4845L120.329 99.4837L120.329 99.4836L120.345 99.4823L120.363 99.4808L120.381 99.4789C122.312 99.2703 123.687 97.5358 123.48 95.6203L123.48 95.619L122.848 89.819L122.848 89.819L122.847 89.8093C122.718 88.6904 122.252 87.6494 121.509 86.8036L121.506 86.8005L119.683 84.7376C119.737 84.7794 119.792 84.8207 119.848 84.8615L119.887 84.8899L119.927 84.9157L120.195 85.086L122.5 86.552V83.8203Z" fill="#EFC65F" stroke="black" stroke-width="3"/>
	<path d="M118.001 73.5C120.486 73.5 122.501 71.4847 122.501 69C122.501 66.5153 120.486 64.5 118.001 64.5C115.516 64.5 113.501 66.5153 113.501 69C113.501 71.4847 115.516 73.5 118.001 73.5Z" fill="#EFC65F" stroke="black" stroke-width="3"/>
	<path d="M145.983 87.3867L147.595 85.5663L148.498 87.8242L151.247 94.6962C151.247 94.6968 151.248 94.6974 151.248 94.6979C151.418 95.1223 151.5 95.5638 151.5 95.9996V95.9997C151.5 97.3868 150.668 98.6985 149.303 99.2478L149.303 99.2478L149.292 99.2524C147.464 99.9705 145.462 99.0628 144.752 97.3053L144.751 97.3012L143.019 92.9762L142.88 92.6279L142.921 92.2549L143.046 91.1174L143.098 90.6435L143.414 90.2867L145.983 87.3867Z" fill="#EEBECE" stroke="black" stroke-width="3"/>
	<path d="M137.5 83.8203V76.6213L136.945 76.0662L137.845 75.0119C138.441 74.3132 139.153 73.7134 139.956 73.2395L139.956 73.2395L139.964 73.2345C141.448 72.3715 143.223 72.2586 144.817 72.9473C146.439 73.6429 147.636 75.0802 148.03 76.795L148.03 76.7958L149.18 81.8075C149.18 81.8077 149.18 81.8078 149.18 81.8079C149.18 81.808 149.18 81.8082 149.18 81.8083C149.575 83.5273 149.12 85.3477 147.942 86.6809L147.941 86.6819L144.058 91.0683L143.478 96.3814L143.478 96.3834C143.281 98.1669 141.772 99.5 139.999 99.5C139.865 99.5 139.746 99.49 139.682 99.4845L139.672 99.4837L139.671 99.4836L139.656 99.4823L139.638 99.4808L139.62 99.4789C137.688 99.2703 136.314 97.5358 136.521 95.6203L136.521 95.619L137.152 89.819L137.152 89.819L137.153 89.8093C137.282 88.6904 137.748 87.6494 138.491 86.8036L138.494 86.8005L140.317 84.7376C140.263 84.7794 140.208 84.8207 140.153 84.8615L140.114 84.8899L140.073 84.9157L139.805 85.086L137.5 86.552V83.8203Z" fill="#EEBECE" stroke="black" stroke-width="3"/>
	<path d="M141.999 73.5C139.515 73.5 137.499 71.4847 137.499 69C137.499 66.5153 139.515 64.5 141.999 64.5C144.484 64.5 146.499 66.5153 146.499 69C146.499 71.4847 144.484 73.5 141.999 73.5Z" fill="#EEBECE" stroke="black" stroke-width="3"/>
	<rect x="122.5" y="72.5" width="15" height="15" rx="2.5" fill="#5AAA67" stroke="black" stroke-width="3"/>
</svg>
