<svg width="270" height="200" viewBox="0 0 270 200" fill="none" xmlns="http://www.w3.org/2000/svg">
<ellipse cx="135" cy="100" rx="135" ry="100" fill="#EFC65F"/>
<path d="M64.2507 42.5836L70.2991 54.4559L73.0948 53.0316L71.0521 49.022L75.9075 46.5483C76.2991 46.3489 76.6865 46.1219 77.066 45.8793C77.4454 45.6366 77.7933 45.3706 78.1055 45.0735C78.4217 44.7842 78.6905 44.4598 78.9158 44.1083C79.1411 43.7568 79.2915 43.3744 79.3867 42.9609C79.474 42.5515 79.4864 42.1111 79.4081 41.6282C79.3338 41.1532 79.1609 40.6396 78.8776 40.0835C78.5943 39.5275 78.2883 39.0817 77.9516 38.7305C77.611 38.3911 77.2591 38.1265 76.8844 37.9524C76.5097 37.7783 76.1159 37.683 75.7147 37.6507C75.3057 37.6223 74.8932 37.6451 74.4692 37.723C74.0493 37.8087 73.6178 37.9298 73.1828 38.1021C72.7478 38.2744 72.3248 38.4702 71.9019 38.6857L64.2507 42.5836ZM74.8803 44.2802L69.923 46.8057L68.2394 43.5009L73.1966 40.9754C73.596 40.7719 73.9527 40.6395 74.2707 40.586C74.5887 40.5325 74.8638 40.5304 75.1041 40.5955C75.3443 40.6605 75.5496 40.7729 75.7198 40.9328C75.894 41.1005 76.0449 41.2998 76.1686 41.5426C76.2922 41.7854 76.3648 42.0246 76.398 42.2641C76.4313 42.5036 76.4016 42.7358 76.3129 42.9683C76.2243 43.2009 76.0609 43.4223 75.8267 43.6402C75.5965 43.866 75.2797 44.0767 74.8803 44.2802Z" fill="black"/>
<path d="M85.9359 32.5014L84.0946 47.4592L87.0492 46.3771L87.4357 43.3433L94.8716 40.6199L97.1426 42.6804L100.336 41.5106L89.2453 31.2894L85.9359 32.5014ZM92.9443 38.8079L87.7367 40.7152L88.4986 34.7452L92.9443 38.8079Z" fill="black"/>
<path d="M97.3637 28.6062L100.365 41.5879L103.414 40.8831L102.329 36.1905L107.612 34.9689L111.36 39.0458L114.649 38.2855L110.587 33.83C111.425 33.3566 111.992 32.7655 112.305 32.0526C112.619 31.3397 112.655 30.4832 112.424 29.4814C112.251 28.7364 111.983 28.1218 111.631 27.6529C111.27 27.186 110.829 26.8371 110.306 26.606C109.777 26.3856 109.174 26.2725 108.496 26.2669C107.82 26.2698 107.066 26.363 106.252 26.5511L97.3637 28.6062ZM107.491 32.4169L101.762 33.7414L101.004 30.4617L106.733 29.1372C107.529 28.9531 108.15 28.9449 108.588 29.1233C109.018 29.3036 109.303 29.6796 109.438 30.2619C109.57 30.8356 109.477 31.2902 109.166 31.6237C108.849 31.9677 108.288 32.2328 107.491 32.4169Z" fill="black"/>
<path d="M121.099 26.8323L122.196 37.3838L125.43 37.0476L124.333 26.4961L130.129 25.8936L129.849 23.1923L115.013 24.7344L115.303 27.4347L121.099 26.8323Z" fill="black"/>
<path d="M132.363 23.3184L132.557 36.6412L135.721 36.5951L135.527 23.2723L132.363 23.3184Z" fill="black"/>
<path d="M146.031 37.2967C147.004 37.3778 147.915 37.348 148.763 37.2159C149.604 37.0831 150.364 36.8467 151.052 36.5249C151.741 36.2031 152.339 35.7944 152.857 35.2995C153.374 34.8047 153.8 34.2493 154.126 33.6151L151.351 32.4134C151.152 32.7937 150.902 33.1433 150.586 33.4433C150.27 33.752 149.905 34.0038 149.473 34.2059C149.042 34.408 148.562 34.5533 148.026 34.6408C147.489 34.7283 146.905 34.7502 146.266 34.6969C145.425 34.6267 144.698 34.4603 144.076 34.1967C143.454 33.9419 142.944 33.5996 142.547 33.1872C142.149 32.7747 141.863 32.2923 141.688 31.7397C141.514 31.1872 141.458 30.5916 141.512 29.9434C141.567 29.2865 141.729 28.7092 141.992 28.2107C142.254 27.7122 142.624 27.2933 143.084 26.9612C143.543 26.6379 144.1 26.4022 144.756 26.2628C145.402 26.1228 146.137 26.087 146.961 26.1557C147.6 26.2091 148.182 26.3193 148.688 26.485C149.195 26.6508 149.645 26.8559 150.021 27.1077C150.397 27.3596 150.708 27.6501 150.955 27.9706C151.201 28.2998 151.375 28.6406 151.477 29.0019L154.505 28.3372C154.351 27.7511 154.09 27.1825 153.73 26.6322C153.36 26.0898 152.881 25.6 152.291 25.1628C151.692 24.7335 150.973 24.3649 150.134 24.0656C149.285 23.7743 148.313 23.5786 147.201 23.4858C146.448 23.423 145.716 23.4236 145.014 23.4798C144.303 23.544 143.631 23.6731 142.998 23.8672C142.364 24.0613 141.778 24.3211 141.247 24.6561C140.708 24.9903 140.233 25.4005 139.831 25.8785C139.421 26.3558 139.092 26.9105 138.837 27.5419C138.581 28.1732 138.425 28.8834 138.359 29.6804C138.259 30.8716 138.375 31.9219 138.714 32.8234C139.053 33.7336 139.562 34.4993 140.241 35.1292C140.921 35.7592 141.762 36.2526 142.746 36.6082C143.731 36.9637 144.832 37.1966 146.031 37.2967Z" fill="black"/>
<path d="M158.87 25.2513L156.416 38.3477L159.526 38.9303L161.98 25.8339L158.87 25.2513Z" fill="black"/>
<path d="M165.761 26.469L162.115 39.2847L165.133 40.1432L166.364 35.815L171.605 37.3061C172.028 37.4263 172.466 37.5236 172.91 37.604C173.353 37.6844 173.789 37.7262 174.22 37.7208C174.648 37.724 175.066 37.6692 175.47 37.5649C175.874 37.4606 176.245 37.2827 176.596 37.0445C176.939 36.8039 177.247 36.4896 177.518 36.0825C177.787 35.6838 178.01 35.1897 178.181 34.5895C178.351 33.9893 178.431 33.4544 178.423 32.9679C178.404 32.4874 178.326 32.0541 178.17 31.6716C178.014 31.2891 177.79 30.9513 177.518 30.6546C177.238 30.3555 176.92 30.0915 176.556 29.8601C176.19 29.6371 175.792 29.4324 175.356 29.2626C174.92 29.0929 174.477 28.9485 174.02 28.8187L165.761 26.469ZM172.396 34.945L167.045 33.4226L168.06 29.8552L173.411 31.3776C173.842 31.5002 174.193 31.6459 174.463 31.8231C174.732 32.0002 174.935 32.1859 175.067 32.397C175.199 32.6082 175.273 32.8302 175.289 33.0632C175.302 33.3046 175.277 33.5534 175.203 33.8154C175.128 34.0775 175.019 34.3022 174.88 34.5003C174.741 34.6985 174.562 34.8484 174.338 34.9585C174.115 35.0686 173.845 35.1196 173.525 35.12C173.203 35.1288 172.827 35.0676 172.396 34.945Z" fill="black"/>
<path d="M183.393 31.8389L178.161 44.0926L190.228 49.246L191.261 46.8292L182.111 42.9219L183.25 40.2545L190.581 43.3852L191.585 41.0331L184.254 37.9024L185.248 35.5745L194.139 39.3714L195.203 36.8818L183.393 31.8389Z" fill="black"/>
<path d="M196.932 53.2427C197.765 53.7151 198.525 54.0854 199.22 54.3577C199.906 54.6257 200.538 54.8121 201.1 54.9083C201.657 55.0121 202.168 55.0387 202.619 54.9914C203.058 54.9474 203.461 54.8424 203.804 54.6832C204.147 54.5239 204.449 54.3114 204.702 54.0609C204.955 53.8104 205.171 53.5186 205.349 53.2051C205.631 52.7081 205.777 52.2356 205.805 51.7765C205.833 51.3174 205.762 50.8729 205.599 50.4472C205.428 50.0172 205.186 49.607 204.872 49.2167C204.55 48.8221 204.18 48.4408 203.77 48.077C203.36 47.7132 202.922 47.3636 202.459 47.0207C201.993 46.6855 201.534 46.3546 201.082 46.028C200.498 45.6157 199.99 45.2468 199.573 44.9299C199.145 44.6163 198.813 44.3275 198.572 44.059C198.33 43.7906 198.185 43.5469 198.131 43.304C198.072 43.0687 198.12 42.8233 198.268 42.5633C198.493 42.1657 198.93 42.0192 199.578 42.1238C200.221 42.2361 201.111 42.6091 202.25 43.255C202.808 43.5714 203.288 43.8837 203.682 44.1876C204.063 44.4948 204.378 44.7946 204.622 45.0946C204.859 45.3903 205.029 45.6787 205.128 45.9672C205.227 46.2558 205.267 46.5412 205.248 46.8237L208.29 47.3757C208.315 47.1173 208.31 46.8415 208.286 46.5451C208.25 46.2519 208.176 45.9371 208.063 45.6006C207.951 45.2642 207.784 44.917 207.563 44.5591C207.341 44.2012 207.05 43.8239 206.688 43.4469C206.326 43.0698 205.882 42.6767 205.364 42.2719C204.841 41.8747 204.221 41.4723 203.51 41.0692C202.538 40.5188 201.631 40.1055 200.798 39.8456C199.958 39.5814 199.201 39.4553 198.515 39.4708C197.83 39.4862 197.235 39.6441 196.724 39.9402C196.2 40.2396 195.78 40.6782 195.451 41.2593C195.178 41.741 195.028 42.2016 195.008 42.6454C194.977 43.0924 195.038 43.5206 195.197 43.9344C195.352 44.3557 195.579 44.7572 195.886 45.1432C196.185 45.5248 196.527 45.9008 196.922 46.2559C197.317 46.611 197.736 46.9595 198.183 47.2938C198.63 47.628 199.066 47.9459 199.506 48.2562C200.117 48.6934 200.648 49.0754 201.095 49.4096C201.538 49.7515 201.888 50.061 202.153 50.3424C202.405 50.6272 202.564 50.8991 202.634 51.1507C202.699 51.41 202.65 51.675 202.498 51.9427C202.377 52.1567 202.204 52.3012 201.975 52.3838C201.747 52.4663 201.455 52.4826 201.091 52.4282C200.728 52.3739 200.29 52.2369 199.794 52.0261C199.297 51.8152 198.706 51.5207 198.041 51.1436C197.361 50.7578 196.798 50.3782 196.357 49.9971C195.912 49.6236 195.573 49.2596 195.332 48.9006C195.079 48.545 194.924 48.1945 194.855 47.8525C194.786 47.5104 194.784 47.1757 194.844 46.8561L191.935 45.9645C191.817 46.4937 191.788 47.0432 191.849 47.6131C191.91 48.1831 192.119 48.7765 192.473 49.3814C192.823 49.994 193.365 50.6244 194.083 51.264C194.797 51.9113 195.747 52.5709 196.932 53.2427Z" fill="black"/>
<path d="M85.2324 61.0907L89.4026 73.7455L92.3827 72.7635L90.9743 68.4896L96.1497 66.7841C96.5671 66.6465 96.9845 66.4812 97.3965 66.2991C97.8085 66.1171 98.1927 65.9072 98.5466 65.661C98.9031 65.4232 99.2182 65.1436 99.4944 64.8305C99.7706 64.5174 99.9775 64.1623 100.134 63.7682C100.283 63.3768 100.362 62.9435 100.359 62.4543C100.357 61.9735 100.265 61.4395 100.069 60.8468C99.8741 60.2542 99.6396 59.767 99.3602 59.3686C99.0752 58.9813 98.7678 58.6662 98.424 58.4371C98.0801 58.208 97.7054 58.0538 97.3138 57.9608C96.9139 57.8705 96.5027 57.8302 96.0719 57.8426C95.6438 57.8634 95.1989 57.9174 94.7427 58.0215C94.2866 58.1255 93.8386 58.2546 93.3879 58.4032L85.2324 61.0907ZM95.4797 64.386L90.1958 66.1272L89.0349 62.6046L94.3189 60.8633C94.7446 60.723 95.1173 60.6465 95.4397 60.642C95.7621 60.6376 96.0344 60.6774 96.2619 60.7782C96.4895 60.8791 96.6752 61.0215 96.8191 61.2054C96.9658 61.3977 97.0846 61.6176 97.1698 61.8764C97.2551 62.1352 97.2904 62.3827 97.2868 62.6245C97.2832 62.8663 97.2185 63.0912 97.0954 63.3075C96.9724 63.5239 96.7772 63.7178 96.5125 63.8975C96.2506 64.0856 95.9055 64.2457 95.4797 64.386Z" fill="black"/>
<path d="M108.564 54.3692L104.357 68.8409L107.447 68.2445L108.313 65.3114L116.088 63.8103L118.001 66.207L121.341 65.5623L112.024 53.7011L108.564 54.3692ZM114.475 61.7138L109.03 62.7651L110.735 56.9934L114.475 61.7138Z" fill="black"/>
<path d="M128.009 65.5163C128.966 65.4591 129.805 65.3561 130.535 65.2068C131.257 65.058 131.889 64.8706 132.412 64.6456C132.937 64.4293 133.379 64.1739 133.732 63.8887C134.076 63.6128 134.357 63.3054 134.558 62.9852C134.759 62.6651 134.897 62.3222 134.973 61.9743C135.049 61.6264 135.072 61.264 135.05 60.9043C135.016 60.334 134.882 59.8578 134.656 59.4575C134.429 59.0572 134.128 58.7231 133.759 58.4545C133.382 58.1865 132.956 57.9743 132.48 57.8178C131.995 57.6619 131.477 57.5432 130.935 57.4611C130.393 57.3791 129.835 57.3244 129.261 57.2883C128.687 57.261 128.122 57.2331 127.565 57.2047C126.85 57.177 126.223 57.1441 125.701 57.1049C125.171 57.0749 124.736 57.0129 124.387 56.9193C124.038 56.8257 123.784 56.7 123.607 56.5257C123.429 56.3602 123.336 56.128 123.318 55.8298C123.291 55.3735 123.578 55.013 124.178 54.7482C124.779 54.4921 125.729 54.3209 127.036 54.2428C127.676 54.2045 128.249 54.2055 128.744 54.2463C129.232 54.2964 129.659 54.3765 130.027 54.4954C130.386 54.6148 130.686 54.7642 130.926 54.9523C131.166 55.1405 131.355 55.3581 131.493 55.6052L134.345 54.4133C134.226 54.1828 134.071 53.9543 133.89 53.7186C133.7 53.4922 133.467 53.2684 133.189 53.0473C132.912 52.8261 132.583 52.6257 132.203 52.4459C131.822 52.2661 131.372 52.1081 130.863 51.9889C130.354 51.8696 129.768 51.7814 129.113 51.7237C128.459 51.6748 127.719 51.675 126.903 51.7238C125.789 51.7904 124.803 51.9374 123.963 52.1725C123.114 52.4081 122.41 52.7143 121.843 53.1004C121.276 53.4865 120.864 53.9426 120.596 54.4693C120.32 55.0053 120.206 55.602 120.245 56.2688C120.278 56.8215 120.403 57.2895 120.629 57.6723C120.846 58.0643 121.129 58.3907 121.488 58.651C121.848 58.9201 122.257 59.1334 122.724 59.2903C123.183 59.4478 123.674 59.5769 124.199 59.66C124.723 59.7431 125.264 59.8076 125.821 59.8448C126.378 59.8819 126.917 59.9113 127.455 59.932C128.206 59.9664 128.859 59.9977 129.416 60.0349C129.974 60.0808 130.436 60.15 130.811 60.2421C131.178 60.3434 131.459 60.4851 131.655 60.6583C131.85 60.8403 131.953 61.0895 131.972 61.3965C131.986 61.6422 131.92 61.8575 131.773 62.0512C131.626 62.2448 131.39 62.4174 131.056 62.5695C130.721 62.7216 130.28 62.8448 129.748 62.9382C129.217 63.0316 128.561 63.1061 127.798 63.1517C127.017 63.1984 126.338 63.1861 125.761 63.1061C125.184 63.035 124.702 62.9141 124.304 62.7442C123.898 62.5836 123.578 62.3738 123.334 62.1242C123.09 61.8747 122.906 61.5951 122.782 61.2943L119.856 62.1296C120.045 62.6378 120.32 63.1144 120.681 63.5595C121.042 64.0046 121.541 64.3886 122.167 64.7033C122.794 65.0268 123.592 65.2609 124.542 65.4066C125.494 65.561 126.649 65.5976 128.009 65.5163Z" fill="black"/>
<path d="M144.297 65.5397C145.252 65.6117 146.097 65.6226 146.841 65.5729C147.577 65.5225 148.228 65.4218 148.777 65.2692C149.325 65.1255 149.798 64.932 150.186 64.6968C150.565 64.4697 150.885 64.2029 151.127 63.9127C151.369 63.6225 151.552 63.3013 151.674 62.9668C151.796 62.6322 151.867 62.2762 151.894 61.9169C151.937 61.3472 151.868 60.8573 151.698 60.4301C151.527 60.003 151.273 59.6313 150.944 59.3157C150.607 58.9994 150.213 58.7317 149.762 58.5127C149.303 58.2929 148.806 58.1056 148.28 57.9514C147.754 57.7972 147.208 57.6679 146.644 57.5549C146.079 57.4506 145.522 57.347 144.975 57.244C144.27 57.1204 143.653 57.0034 143.141 56.8943C142.62 56.7933 142.197 56.6733 141.864 56.5336C141.531 56.3939 141.296 56.2352 141.143 56.0386C140.99 55.8507 140.929 55.6082 140.952 55.3102C140.986 54.8544 141.318 54.5358 141.949 54.3541C142.579 54.1813 143.543 54.1393 144.849 54.2377C145.489 54.286 146.056 54.364 146.541 54.4711C147.017 54.5863 147.43 54.7231 147.779 54.8905C148.119 55.0571 148.395 55.2454 148.608 55.4642C148.821 55.6829 148.979 55.924 149.082 56.1874L152.069 55.3901C151.981 55.1455 151.859 54.8983 151.711 54.6404C151.554 54.3905 151.352 54.1374 151.107 53.8809C150.862 53.6245 150.563 53.3816 150.21 53.1523C149.857 52.9229 149.433 52.7059 148.945 52.5192C148.456 52.3326 147.887 52.1663 147.246 52.021C146.604 51.8845 145.871 51.7852 145.056 51.7237C143.943 51.6398 142.946 51.6528 142.082 51.7728C141.209 51.8921 140.471 52.1009 139.857 52.4072C139.243 52.7135 138.773 53.1099 138.437 53.5958C138.091 54.0898 137.898 54.6657 137.847 55.3318C137.806 55.884 137.867 56.3645 138.038 56.7741C138.201 57.1918 138.438 57.5534 138.759 57.8596C139.079 58.1746 139.455 58.4409 139.897 58.6593C140.33 58.8771 140.8 59.0712 141.309 59.2241C141.817 59.377 142.345 59.5137 142.892 59.6254C143.438 59.7371 143.968 59.8388 144.499 59.9317C145.238 60.0667 145.881 60.1857 146.428 60.2974C146.974 60.4179 147.423 60.5487 147.782 60.6903C148.132 60.8401 148.392 61.0183 148.562 61.2163C148.732 61.4229 148.8 61.6837 148.777 61.9905C148.759 62.2359 148.664 62.4403 148.492 62.6124C148.321 62.7846 148.064 62.9238 147.712 63.0295C147.36 63.1352 146.906 63.198 146.367 63.219C145.827 63.2401 145.167 63.2256 144.405 63.1681C143.625 63.1093 142.954 63.0059 142.393 62.849C141.831 62.7009 141.369 62.5162 140.998 62.2944C140.618 62.0806 140.328 61.8296 140.12 61.5495C139.912 61.2694 139.767 60.9676 139.685 60.653L136.673 61.087C136.792 61.616 137 62.1253 137.298 62.6149C137.597 63.1045 138.039 63.5521 138.617 63.9482C139.195 64.3531 139.954 64.6924 140.876 64.9646C141.798 65.2456 142.938 65.4373 144.297 65.5397Z" fill="black"/>
<path d="M164.357 50.5993L160.269 53.0223L162.686 53.5274L167.48 51.2517L164.357 50.5993ZM156.7 53.1297L153.975 66.1723L166.82 68.8558L167.357 66.2834L157.618 64.2488L158.211 61.4097L166.014 63.0399L166.537 60.5363L158.734 58.9061L159.252 56.4284L168.715 58.4055L169.269 55.7556L156.7 53.1297Z" fill="black"/>
<path d="M175.252 71.8771C176.157 72.1931 176.971 72.4217 177.702 72.5657C178.426 72.7068 179.081 72.7774 179.651 72.7717C180.218 72.7744 180.725 72.7094 181.16 72.5823C181.584 72.4606 181.962 72.2854 182.271 72.0674C182.58 71.8495 182.839 71.5864 183.044 71.2948C183.248 71.0031 183.408 70.6774 183.527 70.3372C183.716 69.7979 183.776 69.3068 183.721 68.8501C183.667 68.3935 183.517 67.9688 183.281 67.579C183.036 67.1863 182.725 66.826 182.346 66.4981C181.959 66.1673 181.527 65.8581 181.058 65.5734C180.59 65.2886 180.096 65.023 179.58 64.7682C179.061 64.5216 178.55 64.278 178.048 64.0372C177.399 63.736 176.833 63.4637 176.367 63.2263C175.889 62.9942 175.512 62.7692 175.226 62.5482C174.94 62.3273 174.754 62.1134 174.657 61.884C174.558 61.663 174.561 61.4129 174.66 61.1308C174.811 60.6993 175.214 60.4772 175.87 60.4645C176.524 60.46 177.466 60.6682 178.702 61.1002C179.308 61.3119 179.835 61.5336 180.277 61.7623C180.707 61.9965 181.07 62.2352 181.364 62.4868C181.65 62.7356 181.868 62.9889 182.017 63.2551C182.167 63.5213 182.257 63.795 182.289 64.0763L185.38 64.0764C185.359 63.8176 185.304 63.5472 185.228 63.2598C185.14 62.9778 185.011 62.6813 184.84 62.3703C184.67 62.0593 184.444 61.7475 184.162 61.4349C183.88 61.1223 183.526 60.803 183.102 60.4967C182.679 60.1904 182.172 59.8829 181.59 59.577C181.005 59.2795 180.322 58.9945 179.551 58.7248C178.497 58.3566 177.53 58.1119 176.665 58.0049C175.791 57.8949 175.023 57.9061 174.351 58.0437C173.68 58.1813 173.123 58.4429 172.672 58.8255C172.211 59.2136 171.876 59.7202 171.655 60.3508C171.473 60.8735 171.407 61.3534 171.468 61.7935C171.517 62.2389 171.653 62.6495 171.883 63.0281C172.111 63.4149 172.406 63.7694 172.777 64.0945C173.139 64.4166 173.543 64.7254 173.995 65.0043C174.447 65.2833 174.921 65.5514 175.421 65.8004C175.92 66.0495 176.406 66.2844 176.895 66.5111C177.574 66.8322 178.165 67.1132 178.664 67.3622C179.161 67.6196 179.56 67.8616 179.871 68.0912C180.171 68.3263 180.376 68.5655 180.489 68.8006C180.6 69.0441 180.598 69.3137 180.497 69.6041C180.416 69.8364 180.272 70.0094 180.061 70.1315C179.851 70.2535 179.567 70.3217 179.199 70.333C178.832 70.3444 178.377 70.2878 177.851 70.169C177.325 70.0502 176.691 69.8659 175.969 69.6137C175.23 69.3556 174.609 69.0826 174.107 68.7863C173.603 68.4982 173.204 68.2006 172.903 67.8905C172.59 67.5858 172.375 67.2686 172.247 66.9443C172.118 66.62 172.056 66.2911 172.058 65.9659L169.036 65.6081C169.014 66.1498 169.084 66.6956 169.246 67.2456C169.407 67.7955 169.719 68.342 170.176 68.874C170.629 69.4142 171.275 69.9378 172.096 70.4389C172.914 70.9482 173.966 71.4276 175.252 71.8771Z" fill="black"/>
<path d="M80.4831 149.695L74.9222 161.803L77.7975 163.124L83.3584 151.016L80.4831 149.695Z" fill="black"/>
<path d="M86.2089 152.448L81.7003 164.986L84.5702 166.018L87.7911 157.061L92.9318 169.025L95.8513 170.075L100.36 157.536L97.5066 156.51L94.4166 165.104L89.5172 153.637L86.2089 152.448Z" fill="black"/>
<path d="M102.384 158.02L99.3822 171.001L102.474 171.716L103.622 166.749L111.106 168.48L111.672 166.031L104.188 164.3L104.865 161.372L114.002 163.484L114.612 160.847L102.384 158.02Z" fill="black"/>
<path d="M116.558 161.012L114.618 174.194L117.748 174.655L119.688 161.473L116.558 161.012Z" fill="black"/>
<path d="M122.306 162.02L121.61 175.326L124.655 175.485L125.153 165.979L133.529 175.949L136.627 176.111L137.324 162.805L134.295 162.647L133.818 171.766L125.817 162.203L122.306 162.02Z" fill="black"/>
<path d="M139.779 162.527L140.411 175.836L143.571 175.686L142.939 162.377L139.779 162.527Z" fill="black"/>
<path d="M151.536 164.295L153.015 174.8L156.236 174.347L154.756 163.842L160.527 163.029L160.148 160.34L145.379 162.42L145.766 165.108L151.536 164.295Z" fill="black"/>
<path d="M161.319 159.844L164.37 172.815L167.45 172.09L164.399 159.12L161.319 159.844Z" fill="black"/>
<path d="M167.034 158.591L171.164 171.259L174.18 170.276L172.6 165.429L179.904 163.049L179.125 160.659L171.821 163.04L170.89 160.182L179.806 157.275L178.967 154.702L167.034 158.591Z" fill="black"/>
<path d="M191.866 163.839C192.736 163.438 193.48 163.036 194.106 162.63C194.724 162.228 195.243 161.824 195.649 161.423C196.058 161.031 196.377 160.632 196.602 160.237C196.822 159.855 196.971 159.466 197.042 159.095C197.112 158.723 197.116 158.354 197.06 158.002C197.004 157.65 196.892 157.305 196.741 156.978C196.501 156.459 196.203 156.065 195.846 155.774C195.489 155.484 195.086 155.283 194.646 155.167C194.197 155.055 193.722 155.013 193.222 155.041C192.714 155.073 192.188 155.151 191.654 155.272C191.119 155.393 190.58 155.546 190.032 155.722C189.487 155.905 188.951 156.086 188.422 156.262C187.747 156.497 187.151 156.695 186.65 156.849C186.146 157.014 185.718 157.115 185.359 157.155C185 157.195 184.718 157.171 184.489 157.073C184.263 156.984 184.092 156.801 183.967 156.53C183.775 156.115 183.91 155.675 184.373 155.209C184.839 154.752 185.661 154.246 186.85 153.697C187.432 153.428 187.965 153.22 188.442 153.077C188.914 152.946 189.341 152.865 189.727 152.842C190.105 152.822 190.438 152.852 190.731 152.939C191.023 153.027 191.278 153.161 191.497 153.34L193.718 151.191C193.523 151.019 193.295 150.863 193.041 150.71C192.781 150.568 192.482 150.445 192.144 150.34C191.805 150.235 191.425 150.169 191.005 150.14C190.585 150.111 190.109 150.128 189.592 150.203C189.074 150.277 188.496 150.409 187.865 150.594C187.238 150.787 186.549 151.057 185.807 151.4C184.794 151.868 183.929 152.364 183.233 152.89C182.528 153.419 181.985 153.96 181.598 154.526C181.211 155.093 180.993 155.668 180.935 156.256C180.873 156.856 180.985 157.453 181.265 158.059C181.497 158.562 181.784 158.952 182.134 159.226C182.479 159.512 182.862 159.713 183.291 159.824C183.724 159.944 184.183 159.993 184.675 159.969C185.159 159.949 185.664 159.889 186.183 159.776C186.702 159.662 187.229 159.525 187.761 159.356C188.293 159.188 188.806 159.019 189.314 158.842C190.026 158.6 190.646 158.391 191.178 158.222C191.714 158.062 192.169 157.958 192.552 157.907C192.931 157.867 193.244 157.897 193.489 157.987C193.738 158.085 193.925 158.279 194.054 158.559C194.157 158.782 194.174 159.007 194.108 159.241C194.041 159.474 193.884 159.721 193.629 159.985C193.373 160.248 193.006 160.524 192.546 160.805C192.085 161.086 191.501 161.394 190.807 161.715C190.097 162.043 189.46 162.279 188.894 162.415C188.331 162.559 187.838 162.622 187.405 162.609C186.969 162.608 186.594 162.529 186.276 162.386C185.958 162.242 185.684 162.049 185.46 161.814L183.04 163.659C183.401 164.063 183.831 164.407 184.329 164.689C184.828 164.972 185.432 165.148 186.13 165.213C186.832 165.285 187.66 165.212 188.598 165.001C189.54 164.798 190.63 164.411 191.866 163.839Z" fill="black"/>
<path d="M123.985 101.025C127.014 98.6348 130.837 97.2097 135 97.2097C144.833 97.2097 152.79 105.166 152.79 115C152.79 124.833 144.834 132.79 135 132.79C130.819 132.79 126.981 131.354 123.947 128.946L123.947 128.946C122.336 127.668 120.039 127.84 118.61 129.268L118.61 129.268L117.429 130.449C117.429 130.449 117.429 130.449 117.429 130.449C115.748 132.131 115.881 134.909 117.741 136.41C122.464 140.222 128.477 142.504 135.02 142.5C150.174 142.489 162.528 130.102 162.5 114.948C162.472 99.784 150.17 87.5 135 87.5C128.16 87.5 121.902 89.999 117.091 94.1308L112.924 89.9641L112.924 89.9641C110.922 87.9625 107.5 89.3802 107.5 92.2109V107.452C107.5 109.206 108.923 110.629 110.677 110.629H125.918C128.749 110.629 130.166 107.206 128.165 105.205L127.167 106.203L128.165 105.205L123.985 101.025Z" fill="#5AAA67" stroke="black" stroke-width="3" stroke-linejoin="round"/>
<path d="M143.173 125.719L144.163 124.446C144.163 124.446 144.163 124.446 144.163 124.446C145.492 122.737 145.184 120.274 143.475 118.946L139.952 116.205V106.419C139.952 104.255 138.197 102.5 136.032 102.5H134.419C132.255 102.5 130.5 104.255 130.5 106.419V120.094C130.5 120.557 130.714 120.994 131.079 121.278L137.673 126.406L137.673 126.406C139.381 127.735 141.844 127.428 143.173 125.719Z" fill="#EEBECE" stroke="black" stroke-width="3" stroke-linejoin="round"/>
</svg>
