<svg width="286" height="200" viewBox="0 0 286 200" fill="none" xmlns="http://www.w3.org/2000/svg">
<path d="M249.86 160.539V182.507C249.86 192.168 242.335 200 233.053 200L52.1008 200C42.8187 200 35.2941 192.168 35.2941 182.507V160.31C14.6148 151.733 0 130.704 0 106.122L0 93.8776C0 69.2957 14.6148 48.2667 35.2941 39.6899L35.2941 17.4927C35.2941 7.83179 42.8187 4.82798e-06 52.1008 4.82798e-06L233.053 4.82798e-06C242.335 4.82798e-06 249.86 7.83179 249.86 17.4927V39.4612C270.835 47.8882 285.714 69.0743 285.714 93.8776V106.122C285.714 130.926 270.835 152.112 249.86 160.539Z" fill="#EFC65F"/>
</svg>
